<?xml version="1.0" standalone="no"?>
<!DOCTYPE svg PUBLIC "-//W3C//DTD SVG 1.1//EN" "http://www.w3.org/Graphics/SVG/1.1/DTD/svg11.dtd" >
<svg xmlns="http://www.w3.org/2000/svg" xmlns:xlink="http://www.w3.org/1999/xlink" version="1.1">
<metadata>
Created by FontForge 20170731 at Sun Oct  2 02:26:16 2022
 By Aleksey,,,
Copyright (c) 2014 by Gumpita Rahayu. All rights reserved.
</metadata>
<defs>
<font id="Metrisch-Book" horiz-adv-x="1320" >
  <font-face 
    font-family="Metrisch"
    font-weight="400"
    font-stretch="normal"
    units-per-em="2048"
    panose-1="2 0 5 6 4 0 0 2 0 4"
    ascent="1536"
    descent="-512"
    x-height="1006"
    cap-height="1366"
    bbox="-332 -481.14 2718 1794"
    underline-thickness="40"
    underline-position="-245"
    unicode-range="U+0020-FB04"
  />
<missing-glyph horiz-adv-x="598" 
 />
    <glyph glyph-name="f_f" unicode="ff" horiz-adv-x="1181" 
d="M758 1008v92q0 282 284 282q49 0 93 -8v-108q-62 8 -93 8q-66 0 -102.5 -41.5t-36.5 -138.5v-86h242v-111h-242v-897h-145v897h-449v-897h-145v897h-127v111h127v92q0 282 285 282q45 0 92 -8v-108q-66 8 -92 8q-140 0 -140 -180v-86h449z" />
    <glyph glyph-name="fi" unicode="fi" horiz-adv-x="1015" 
d="M803 1153q-41 0 -69.5 28.5t-28.5 69.5q0 43 28.5 71t69.5 28q43 0 70.5 -28t27.5 -71q0 -42 -28 -70t-70 -28zM733 1008h49h97v-1008h-146v897h-424v-897h-145v897h-127v111h127v92q0 282 285 282q45 0 92 -8v-108q-66 8 -92 8q-140 0 -140 -180v-86h424z" />
    <glyph glyph-name="fl" unicode="fl" horiz-adv-x="1017" 
d="M164 1008v92q0 282 285 282q45 0 92 -8v-108q-66 8 -92 8q-140 0 -140 -180v-86h242v-111h-242v-897h-145v897h-127v111h127zM879 0h-146v1364h146v-1364z" />
    <glyph glyph-name="f_f_i" unicode="ffi" horiz-adv-x="1609" 
d="M758 1008v92q0 282 284 282q46 0 93 -8v-108q-66 8 -93 8q-66 0 -102.5 -41.5t-36.5 -138.5v-86h242v-111h-242v-897h-145v897h-449v-897h-145v897h-127v111h127v92q0 282 285 282q45 0 92 -8v-108q-66 8 -92 8q-140 0 -140 -180v-86h449zM1327 0h146v1008h-146v-1008z
M1298 1251q0 42 28.5 70.5t70.5 28.5q43 0 70.5 -28t27.5 -71q0 -42 -28 -70t-70 -28q-41 0 -70 28.5t-29 69.5z" />
    <glyph glyph-name="f_f_l" unicode="ffl" horiz-adv-x="1611" 
d="M758 1008v92q0 282 284 282q49 0 93 -8v-108q-62 8 -93 8q-66 0 -102.5 -41.5t-36.5 -138.5v-86h242v-111h-242v-897h-145v897h-449v-897h-145v897h-127v111h127v92q0 282 285 282q45 0 92 -8v-108q-66 8 -92 8q-140 0 -140 -180v-86h449zM1473 0h-146v1364h146v-1364z
" />
    <glyph glyph-name=".notdef" horiz-adv-x="598" 
 />
    <glyph glyph-name=".null" horiz-adv-x="0" 
 />
    <glyph glyph-name="nonmarkingreturn" horiz-adv-x="682" 
 />
    <glyph glyph-name="space" unicode=" " horiz-adv-x="598" 
 />
    <glyph glyph-name="exclam" unicode="!" horiz-adv-x="524" 
d="M309 289h-96l-33 1077h166zM162 98q0 41 28.5 70t69.5 29q42 0 70 -28.5t28 -70.5t-28 -70t-70 -28q-41 0 -69.5 28.5t-28.5 69.5z" />
    <glyph glyph-name="quotedbl" unicode="&#x22;" horiz-adv-x="718" 
d="M172 1028l43 143q-35 7 -55.5 33.5t-20.5 63.5q0 41 28 69.5t69 28.5q43 0 71.5 -28.5t28.5 -69.5q0 -19 -18 -56t-97 -184h-49zM446 1028l43 143q-34 8 -54.5 34t-20.5 63q0 41 28.5 69.5t69.5 28.5t69.5 -28.5t28.5 -69.5q0 -20 -19 -61t-95 -179h-50z" />
    <glyph glyph-name="numbersign" unicode="#" horiz-adv-x="1636" 
d="M928 -27l71 406h-481l-72 -406h-133l72 406h-246l23 125h244l65 368h-246l23 125h244l71 396h133l-69 -396h481l70 396h135l-72 -396h256l-20 -125h-256l-66 -368h256l-22 -125h-254l-72 -406h-135zM1022 504l63 368h-481l-63 -368h481z" />
    <glyph glyph-name="dollar" unicode="$" horiz-adv-x="1288" 
d="M580 -143v127q-120 8 -235 51t-200 117v141q78 -81 194.5 -127.5t240.5 -56.5v530q-55 12 -94 22.5t-88.5 27.5t-83.5 35t-69.5 45.5t-57 59.5t-35 75.5t-13.5 94.5q0 88 37.5 160t100.5 118t140.5 73t162.5 32v119h98v-119q238 -20 401 -161v-142q-75 76 -183 123
t-218 55v-514q59 -13 97.5 -23t92 -28t88 -36t73 -46.5t61 -61t37 -78t14.5 -99.5q0 -92 -40 -166t-107 -119.5t-147.5 -71t-168.5 -30.5v-127h-98zM580 772v483q-60 -3 -114 -20.5t-98.5 -48.5t-71 -81t-26.5 -112q0 -42 17.5 -75t43.5 -54.5t70 -40t83 -29t96 -22.5z
M678 614v-503q60 2 115.5 19t103 48.5t76 83.5t28.5 117q0 37 -11.5 67.5t-36.5 53.5t-50.5 39.5t-68 31t-74 23t-82.5 20.5z" />
    <glyph glyph-name="percent" unicode="%" horiz-adv-x="1859" 
d="M580 0h-109l950 1366h107zM487 1362q152 0 251.5 -95.5t99.5 -262.5q0 -168 -99 -263.5t-252 -95.5q-151 0 -249.5 96.5t-98.5 262.5t98.5 262t249.5 96zM487 1274q-109 0 -181.5 -70.5t-72.5 -199.5t72.5 -200t181.5 -71q110 0 181 70t71 201q0 52 -15.5 99.5t-45 86
t-79 61.5t-112.5 23zM1477 717q151 0 250.5 -96t99.5 -263q0 -168 -98.5 -263t-251.5 -95q-151 0 -250 96t-99 262t99 262.5t250 96.5zM1477 629q-108 0 -180 -71t-72 -200t71.5 -199.5t180.5 -70.5q111 0 182.5 69.5t71.5 200.5q0 111 -65 191t-189 80z" />
    <glyph glyph-name="ampersand" unicode="&#x26;" horiz-adv-x="1435" 
d="M1184 -43l-187 217q-107 -106 -202 -159.5t-224 -53.5q-65 0 -129 12.5t-127 42.5t-110.5 73.5t-77 110t-29.5 148.5q3 72 27.5 132t80.5 116.5t92.5 86t119.5 89.5q17 13 26 19q-208 204 -208 378q0 117 94 193t223 76q138 0 235 -77.5t97 -201.5q0 -47 -15.5 -92.5
t-39 -82t-60 -74.5t-68.5 -65t-75 -59q45 -45 95 -100.5t84.5 -95.5t92 -107t86.5 -100q73 103 139 303h138q-66 -241 -187 -416l262 -313h-153zM545 870q45 33 75.5 59.5t65 64t52.5 80t18 87.5q0 80 -61 127t-142 47q-77 0 -130.5 -48t-53.5 -120q0 -134 176 -297z
M915 281q-212 249 -389 434q-20 -17 -61 -48.5t-66.5 -52t-59.5 -54t-53.5 -62.5t-33.5 -68.5t-14 -81.5q0 -119 97 -184.5t234 -65.5q188 0 346 183z" />
    <glyph glyph-name="quotesingle" unicode="'" horiz-adv-x="464" 
d="M182 1028l43 143q-34 8 -54.5 34t-20.5 63q0 41 28.5 69.5t69.5 28.5t69.5 -28.5t28.5 -69.5q0 -19 -19 -59.5t-96 -180.5h-49z" />
    <glyph glyph-name="parenleft" unicode="(" horiz-adv-x="722" 
d="M526 1386l90 -83q-171 -124 -256.5 -317t-85.5 -415q0 -143 34 -275t112.5 -254t195.5 -202l-90 -84q-96 56 -171.5 149.5t-121.5 204.5t-70 228.5t-24 232.5t23.5 232t69 227.5t121.5 205t173 150.5z" />
    <glyph glyph-name="parenright" unicode=")" horiz-adv-x="722" 
d="M197 -244l-88 84q171 118 255.5 314t84.5 417t-85 414.5t-255 317.5l88 83q97 -56 173 -150.5t121.5 -205t69 -227.5t23.5 -232t-24 -232.5t-70 -228.5t-121.5 -204.5t-171.5 -149.5z" />
    <glyph glyph-name="asterisk" unicode="*" horiz-adv-x="909" 
d="M545 1081l225 -133l-55 -80l-207 133v-227h-105v227l-210 -133l-54 80l226 133l-226 136l54 77l210 -133v219h105v-219l207 133l55 -77z" />
    <glyph glyph-name="plus" unicode="+" horiz-adv-x="1257" 
d="M565 451h-405v124h405v408h125v-408h408v-124h-408v-402h-125v402z" />
    <glyph glyph-name="comma" unicode="," horiz-adv-x="337" 
d="M109 -141l41 143q-34 8 -55 34t-21 62q0 41 28.5 70t69.5 29t69.5 -29t28.5 -70q0 -20 -18.5 -60t-93.5 -179h-49z" />
    <glyph glyph-name="hyphen" unicode="-" horiz-adv-x="794" 
d="M657 575v-124h-518v124h518z" />
    <glyph glyph-name="period" unicode="." horiz-adv-x="331" 
d="M68 98q0 41 28.5 70t69.5 29t69.5 -29t28.5 -70t-28.5 -69.5t-69.5 -28.5t-69.5 28.5t-28.5 69.5z" />
    <glyph glyph-name="slash" unicode="/" horiz-adv-x="706" 
d="M82 -37h-107l652 1405h106z" />
    <glyph glyph-name="zero" unicode="0" horiz-adv-x="1390" 
d="M682 1384q119 0 222 -46.5t180.5 -133.5t122 -221.5t44.5 -300.5q0 -165 -44 -299t-121.5 -221t-180.5 -133.5t-223 -46.5t-223.5 47.5t-180.5 135.5t-121 221t-44 296t44 297t121 222t180.5 135.5t223.5 47.5zM682 1241q-86 0 -162 -37.5t-133 -107t-90 -176.5t-33 -238
q0 -259 119.5 -408t298.5 -149q180 0 299 148.5t119 408.5q0 105 -25.5 202t-74.5 178t-131.5 130t-186.5 49z" />
    <glyph glyph-name="one" unicode="1" horiz-adv-x="681" 
d="M330 1225l-262 -121v135l280 127h133v-1366h-151v1225z" />
    <glyph glyph-name="two" unicode="2" horiz-adv-x="1234" 
d="M139 1057v160q86 80 203.5 122.5t239.5 44.5q77 1 150.5 -15.5t139 -51.5t114.5 -86t77.5 -123.5t28.5 -157.5q0 -43 -23.5 -95.5t-56.5 -100.5t-91 -108.5t-105.5 -105.5t-122 -107.5t-118.5 -97.5t-116 -91l-129 -107h766v-137h-1000v135q103 81 150 115
q302 233 428 346q274 244 274 360q0 58 -21 107t-57 83t-83 57t-98.5 34t-104.5 10q-122 -2 -241 -50.5t-204 -139.5z" />
    <glyph glyph-name="three" unicode="3" horiz-adv-x="1179" 
d="M774 1235h-676v131h877v-111l-506 -430q75 9 146 4t134.5 -18.5t117 -46.5t92 -78.5t60 -114.5t21.5 -155t-32.5 -158.5t-87.5 -122.5t-126.5 -85t-150 -51.5t-158.5 -16.5q-203 0 -362 96v149q159 -108 362 -108q75 0 146 18.5t131 54.5t96.5 95t36.5 133
q0 160 -100.5 236.5t-278.5 76.5q-127 0 -272 -37v92z" />
    <glyph glyph-name="four" unicode="4" horiz-adv-x="1280" 
d="M872 1366h148v-952h141v-123h-141v-291h-152v291h-780v123zM868 414v743q-158 -191 -608 -743h608z" />
    <glyph glyph-name="five" unicode="5" horiz-adv-x="1185" 
d="M109 1366h870v-131h-748v-426q127 62 283 65q103 2 196 -24.5t169.5 -78.5t122 -139.5t45.5 -199.5q0 -83 -31.5 -156.5t-86 -126.5t-125 -91t-150 -57t-160.5 -19q-206 0 -367 96v147q163 -106 367 -106q99 0 190 34.5t154 108t63 170.5q0 76 -36 139.5t-94 104
t-128.5 62.5t-142.5 22q-93 0 -168 -20t-162 -66h-61v692z" />
    <glyph glyph-name="six" unicode="6" horiz-adv-x="1339" 
d="M1114 1249v-151q-182 155 -418 155q-77 0 -147 -34.5t-121.5 -91.5t-89 -127.5t-55 -146t-13.5 -144.5q74 87 182.5 132.5t233.5 45.5q97 0 188.5 -31.5t163 -87.5t115 -140.5t43.5 -181.5q0 -105 -42.5 -193.5t-115 -146.5t-166.5 -90t-198 -32q-115 0 -208 38.5
t-154.5 103.5t-103 154t-59.5 186.5t-18 205.5q0 97 20.5 194.5t66 191t110 166t160 116.5t208.5 44q114 0 226 -37.5t192 -97.5zM674 123q158 0 267.5 87t109.5 236q0 95 -54.5 171t-140 115.5t-182.5 39.5q-115 0 -224.5 -44.5t-177.5 -135.5q7 -99 34 -182t74.5 -148
t122.5 -102t171 -37z" />
    <glyph glyph-name="seven" unicode="7" horiz-adv-x="1159" 
d="M911 1235h-772v131h922v-125l-549 -1241h-150z" />
    <glyph glyph-name="eight" unicode="8" horiz-adv-x="1259" 
d="M115 412q0 132 86.5 228t224.5 134q-93 36 -149 106.5t-56 170.5q0 147 122 240t288 93q104 -2 194.5 -40t151.5 -116.5t61 -183.5q0 -99 -61 -170t-156 -102q143 -40 233.5 -131.5t90.5 -228.5q-3 -106 -49 -190t-120.5 -134.5t-165 -77t-189.5 -26.5q-134 0 -248 50.5
t-186 150t-72 227.5zM623 817q114 0 196 57.5t82 161.5q0 99 -82 159t-190 60q-107 0 -188 -60.5t-81 -158.5q0 -100 78 -159.5t185 -59.5zM618 123q71 0 137 18t121.5 53t89.5 93t35 131q0 90 -56.5 159.5t-140 103.5t-175.5 34q-96 0 -180 -35t-137.5 -104t-53.5 -158
q0 -90 51.5 -158.5t132.5 -102.5t176 -34z" />
    <glyph glyph-name="nine" unicode="9" horiz-adv-x="1341" 
d="M207 123v149q81 -79 188.5 -118t220.5 -39q99 0 187 52.5t145 133.5t88.5 176.5t26.5 181.5q-74 -87 -182.5 -132.5t-233.5 -45.5q-77 0 -151.5 20t-139 58.5t-113 91t-76.5 123t-28 148.5q0 105 42.5 193.5t114 146.5t165.5 90t198 32q115 0 208 -38.5t154.5 -103.5
t103 -154t59.5 -186.5t18 -205.5q0 -96 -23 -194.5t-71.5 -191.5t-116 -165.5t-165 -116.5t-210.5 -44q-244 0 -409 139zM659 1245q-158 0 -267 -87t-109 -236q0 -95 54 -171t139.5 -115.5t182.5 -39.5q115 0 224.5 44.5t177.5 135.5q-6 99 -33 182t-74.5 148t-123 102
t-171.5 37z" />
    <glyph glyph-name="colon" unicode=":" horiz-adv-x="331" 
d="M68 604q0 41 28.5 69.5t69.5 28.5t69.5 -28.5t28.5 -69.5t-28.5 -69.5t-69.5 -28.5t-69.5 28.5t-28.5 69.5zM68 98q0 41 28.5 70t69.5 29t69.5 -29t28.5 -70t-28.5 -69.5t-69.5 -28.5t-69.5 28.5t-28.5 69.5z" />
    <glyph glyph-name="semicolon" unicode=";" horiz-adv-x="331" 
d="M166 506q-41 0 -69.5 28.5t-28.5 69.5t28.5 69.5t69.5 28.5t69.5 -28.5t28.5 -69.5t-28.5 -69.5t-69.5 -28.5zM109 -141l41 143q-33 8 -54.5 34t-21.5 62q0 41 28.5 70t69.5 29t69.5 -29t28.5 -70q0 -34 -20 -61l-92 -178h-49z" />
    <glyph glyph-name="less" unicode="&#x3c;" horiz-adv-x="1009" 
d="M809 934v-131l-541 -289l541 -295v-125l-659 361v118z" />
    <glyph glyph-name="equal" unicode="=" horiz-adv-x="966" 
d="M139 727h688v-111h-688v111zM139 444h688v-110h-688v110z" />
    <glyph glyph-name="greater" unicode="&#x3e;" horiz-adv-x="1009" 
d="M201 94v125l540 295l-540 289v131l659 -361v-118z" />
    <glyph glyph-name="question" unicode="?" horiz-adv-x="995" 
d="M68 1098v147q82 69 184.5 106.5t206.5 34.5q119 -2 218.5 -52t159.5 -139.5t60 -199.5q0 -50 -25.5 -99t-66 -92t-89.5 -87.5t-97 -91.5t-87 -96.5t-62 -111.5t-19 -128h-119q-2 76 20.5 146t59.5 122.5t82.5 101t91.5 90t84 79.5t62 79.5t24 81.5q0 114 -90.5 188.5
t-221.5 77.5q-205 0 -376 -157zM293 98q0 42 27.5 70.5t68.5 28.5q43 0 71.5 -28.5t28.5 -70.5q0 -41 -28.5 -69.5t-71.5 -28.5q-41 0 -68.5 28.5t-27.5 69.5z" />
    <glyph glyph-name="at" unicode="@" horiz-adv-x="1685" 
d="M1182 45v-102q-149 -82 -332 -82q-148 0 -281.5 53.5t-233 147t-158 229.5t-58.5 293q0 153 59.5 285t160.5 221t234.5 139.5t280.5 50.5q121 0 224.5 -24t179.5 -67t135 -99.5t96 -124t56.5 -138.5t21.5 -145q2 -86 -14.5 -164.5t-47.5 -138t-72 -104.5t-88 -70.5
t-96 -30.5q-80 -8 -136 25t-69 102q-45 -39 -105.5 -61.5t-119.5 -22.5q-92 0 -173.5 41t-134 122.5t-52.5 184.5q0 152 108.5 249t251.5 97q129 0 223 -82v66h91v-508q0 -76 27.5 -107t84.5 -26q92 16 159 125.5t64 273.5q-1 78 -23.5 152t-71.5 142t-119 118.5t-173 80.5
t-227 30q-173 0 -316.5 -72.5t-229 -209t-85.5 -310.5q0 -181 84 -325t227 -223t316 -79q169 0 332 88zM1028 401v318q-82 94 -201 94q-101 0 -175 -68t-74 -180q0 -118 74 -188t175 -70q116 0 201 94z" />
    <glyph glyph-name="A" unicode="A" horiz-adv-x="1286" 
d="M1087 0l-135 346h-618l-135 -346h-162l530 1366h150l532 -1366h-162zM911 469l-268 692l-268 -692h536z" />
    <glyph glyph-name="B" unicode="B" horiz-adv-x="1251" 
d="M139 1366h563q78 0 148.5 -21t128 -61t91.5 -106t34 -150q0 -105 -58.5 -187t-154.5 -116q125 -28 200.5 -124.5t75.5 -229.5q0 -168 -118.5 -269.5t-290.5 -101.5h-619v1366zM289 776h413q107 7 183 63.5t76 159.5q0 111 -85 171.5t-202 60.5h-385v-455zM289 135h440
q125 0 209 69.5t84 188.5q0 130 -91 195t-229 65h-413v-518z" />
    <glyph glyph-name="C" unicode="C" horiz-adv-x="1298" 
d="M1149 225v-153q-162 -90 -346 -90q-146 0 -278 55.5t-228 149t-152.5 223t-56.5 272.5t56.5 273t152.5 224t228 149.5t278 55.5q184 0 346 -90v-153q-156 100 -346 100q-153 0 -282.5 -75t-205 -204t-75.5 -280t75.5 -279.5t205 -203t282.5 -74.5q181 0 346 100z" />
    <glyph glyph-name="D" unicode="D" horiz-adv-x="1331" 
d="M139 1366h430q186 0 343.5 -91.5t249 -249t91.5 -343.5q0 -139 -54 -265t-145.5 -217.5t-218 -145.5t-266.5 -54h-430v1366zM291 135h256q114 0 217 43.5t177.5 117t118.5 174.5t44 212q0 112 -44 213.5t-118.5 175t-177.5 117t-217 43.5h-256v-1096z" />
    <glyph glyph-name="E" unicode="E" horiz-adv-x="1189" 
d="M1067 770v-143h-776v-498h803v-129h-955v1366h955v-135h-803v-461h776z" />
    <glyph glyph-name="F" unicode="F" horiz-adv-x="1189" 
d="M1065 770v-143h-774v-627h-152v1366h955v-135h-803v-461h774z" />
    <glyph glyph-name="G" unicode="G" horiz-adv-x="1343" 
d="M1163 1294v-153q-171 100 -360 100q-153 0 -282.5 -75t-205 -204t-75.5 -280t75.5 -279.5t205 -203t282.5 -74.5q143 0 252 59v457h-420v125h559v-676q-188 -108 -391 -108q-146 0 -278 55.5t-228 149t-152.5 223t-56.5 272.5t56.5 273t152.5 224t228 149.5t278 55.5
q185 0 360 -90z" />
    <glyph glyph-name="H" unicode="H" horiz-adv-x="1292" 
d="M1001 772v594h152v-1366h-152v627h-710v-627h-152v1366h152v-594h710z" />
    <glyph glyph-name="I" unicode="I" horiz-adv-x="425" 
d="M289 0h-150v1366h150v-1366z" />
    <glyph glyph-name="J" unicode="J" horiz-adv-x="999" 
d="M150 72v155q148 -102 319 -102q101 0 171.5 77.5t70.5 182.5v981h149v-989q0 -158 -108 -276.5t-269 -118.5q-175 0 -333 90z" />
    <glyph glyph-name="K" unicode="K" horiz-adv-x="1267" 
d="M291 670l670 696h198l-500 -528l543 -838h-178l-471 729l-262 -262v-467h-152v1366h152v-696z" />
    <glyph glyph-name="L" unicode="L" horiz-adv-x="1124" 
d="M1047 135v-135h-908v1366h152v-1231h756z" />
    <glyph glyph-name="M" unicode="M" horiz-adv-x="1562" 
d="M1272 0v999l-438 -999h-107l-438 999v-999h-150v1366h111l530 -1161l531 1161h112v-1366h-151z" />
    <glyph glyph-name="N" unicode="N" horiz-adv-x="1325" 
d="M1034 270v1096h152v-1366h-119l-778 1098v-1098h-150v1366h117z" />
    <glyph glyph-name="O" unicode="O" horiz-adv-x="1619" 
d="M813 1384q145 0 276.5 -55.5t226.5 -149.5t151.5 -224t56.5 -273t-56.5 -272.5t-151.5 -223t-226.5 -149t-276.5 -55.5q-146 0 -278.5 55.5t-228 149t-152 223t-56.5 272.5t56.5 273t152 224t228 149.5t278.5 55.5zM813 1239q-153 0 -282.5 -74.5t-205 -203t-75.5 -279.5
t75.5 -279.5t205 -203t282.5 -74.5q113 0 216 44t178 119t119 178t44 216t-44 216t-119 178t-178 119t-216 44z" />
    <glyph glyph-name="P" unicode="P" horiz-adv-x="1210" 
d="M139 1366h566q177 0 293 -111.5t116 -298.5q0 -180 -118 -291.5t-291 -111.5h-414v-553h-152v1366zM291 684h379q124 0 207.5 71.5t83.5 192.5q0 131 -82 206t-209 75h-379v-545z" />
    <glyph glyph-name="Q" unicode="Q" horiz-adv-x="1652" 
d="M1386 -145l-215 231q-158 -104 -358 -104q-146 0 -278.5 55.5t-228 149t-152 223t-56.5 272.5t56.5 273t152 224t228 149.5t278.5 55.5q145 0 276.5 -55.5t226.5 -149.5t151.5 -224t56.5 -273q0 -154 -64.5 -290.5t-177.5 -233.5l272 -303h-168zM813 1239
q-153 0 -282.5 -74.5t-205 -203t-75.5 -279.5t75.5 -279.5t205 -203t282.5 -74.5q113 0 216 44t178 119t119 178t44 216t-44 216t-119 178t-178 119t-216 44z" />
    <glyph glyph-name="R" unicode="R" horiz-adv-x="1226" 
d="M139 1366h566q177 0 293 -113t116 -305q0 -151 -93 -253.5t-239 -129.5l346 -565h-170l-333 553h-334v-553h-152v1366zM291 684h379q124 0 207.5 71.5t83.5 192.5q0 131 -82 206t-209 75h-379v-545z" />
    <glyph glyph-name="S" unicode="S" horiz-adv-x="1230" 
d="M145 154v159q91 -94 226.5 -144t269.5 -50q64 0 124.5 15t112.5 45t83.5 82.5t31.5 119.5q0 71 -50.5 118t-143.5 81q-51 19 -135 40t-149.5 36.5t-139 44.5t-122.5 64t-81.5 94.5t-32.5 137.5q0 94 42.5 170t112.5 122t155 70.5t176 24.5q124 0 245.5 -42t212.5 -123
v-160q-88 90 -212 139t-246 49q-63 0 -122 -14.5t-109.5 -44t-81.5 -81t-31 -118.5q0 -40 18 -73t45 -54.5t73 -40.5t86.5 -30t100.5 -25q195 -43 260 -66q196 -66 253 -193q26 -59 26 -134q0 -98 -44.5 -175t-118.5 -123t-162 -69.5t-183 -23.5q-133 0 -263.5 43.5
t-226.5 128.5z" />
    <glyph glyph-name="T" unicode="T" horiz-adv-x="1130" 
d="M1042 1366v-137h-401v-1229h-152v1229h-401v137h954z" />
    <glyph glyph-name="U" unicode="U" horiz-adv-x="1327" 
d="M1188 1366v-899q0 -147 -74 -259.5t-192 -169t-258 -56.5q-141 0 -259.5 56.5t-192 169t-73.5 259.5v899h152v-899q0 -159 108 -250.5t265 -91.5q102 0 185.5 38.5t135 117.5t51.5 186v899h152z" />
    <glyph glyph-name="V" unicode="V" horiz-adv-x="1302" 
d="M651 233l447 1133h168l-547 -1366h-144l-538 1366h168z" />
    <glyph glyph-name="W" unicode="W" horiz-adv-x="1906" 
d="M1397 266l305 1100h170l-397 -1366h-132l-387 1096l-378 -1096h-132l-409 1366h170l319 -1102l371 1102h115z" />
    <glyph glyph-name="X" unicode="X" horiz-adv-x="1204" 
d="M602 563l-395 -563h-170l475 686l-471 680h172l389 -555l389 555h170l-471 -680l477 -686h-170z" />
    <glyph glyph-name="Y" unicode="Y" horiz-adv-x="1159" 
d="M37 1366h164l374 -801l383 801h164l-473 -960v-406h-153v403z" />
    <glyph glyph-name="Z" unicode="Z" horiz-adv-x="1316" 
d="M330 137h848v-137h-1039v133l854 1096h-854v137h1039v-133z" />
    <glyph glyph-name="bracketleft" unicode="[" horiz-adv-x="651" 
d="M201 -262v1628h311v-113h-178v-1411h178v-104h-311z" />
    <glyph glyph-name="backslash" unicode="\" horiz-adv-x="706" 
d="M733 -37h-106l-652 1405h107z" />
    <glyph glyph-name="bracketright" unicode="]" horiz-adv-x="651" 
d="M317 -158v1411h-178v113h312v-1628h-312v104h178z" />
    <glyph glyph-name="asciicircum" unicode="^" horiz-adv-x="1093" 
d="M547 1274l-234 -320h-112l301 422h88l303 -422h-115z" />
    <glyph glyph-name="underscore" unicode="_" horiz-adv-x="1159" 
d="M1020 31v-97h-881v97h881z" />
    <glyph glyph-name="grave" unicode="`" horiz-adv-x="616" 
d="M201 1366h125l92 -258h-88z" />
    <glyph glyph-name="a" unicode="a" horiz-adv-x="1101" 
d="M815 0l-2 104q-128 -122 -301 -122q-63 0 -124 11.5t-119.5 38.5t-102.5 65.5t-71 97.5t-27 131q0 131 93.5 214t227.5 83h422q-10 154 -97.5 220t-262.5 66q-187 -8 -301 -88v127q68 39 154.5 58.5t166.5 19.5q487 0 487 -438q0 -98 1.5 -294t1.5 -294h-146zM813 508
h-373q-100 0 -166.5 -48t-66.5 -128q0 -61 29 -108t77.5 -73t102 -38.5t110.5 -12.5q171 0 287 125v283z" />
    <glyph glyph-name="b" unicode="b" horiz-adv-x="1208" 
d="M264 1364v-473q65 64 147 99.5t167 35.5q147 0 271 -66.5t197.5 -187t73.5 -268.5t-73.5 -268.5t-197.5 -187t-271 -66.5q-181 0 -314 118v-100h-145v1364h145zM264 762v-537q125 -125 314 -125q166 0 282.5 115t116.5 289t-116 288.5t-283 114.5q-187 0 -314 -145z" />
    <glyph glyph-name="c" unicode="c" horiz-adv-x="1142" 
d="M1004 915v-139q-152 125 -349 125q-84 0 -161 -29t-135.5 -80.5t-93 -126.5t-34.5 -161q0 -115 59 -207t155.5 -141.5t209.5 -49.5q197 0 349 125v-139q-153 -110 -349 -110q-151 0 -280.5 65t-208 186t-78.5 271t78.5 271t208 186t280.5 65q195 0 349 -111z" />
    <glyph glyph-name="d" unicode="d" horiz-adv-x="1208" 
d="M1090 1364v-1364h-146v100q-134 -118 -313 -118q-148 0 -272 66.5t-197.5 187t-73.5 268.5t73.5 268.5t197.5 187t272 66.5q178 0 313 -135v473h146zM944 225v537q-127 145 -313 145q-167 0 -283.5 -114.5t-116.5 -288.5t117 -289t283 -115q185 0 313 125z" />
    <glyph glyph-name="e" unicode="e" horiz-adv-x="1224" 
d="M1124 481h-895q3 -165 123.5 -273t302.5 -108q240 0 424 144v-121q-73 -62 -191 -100.5t-241 -38.5q-240 0 -399.5 151.5t-159.5 382.5q2 141 70.5 257.5t188 183.5t265.5 67t268 -79.5t187 -205t57 -260.5zM236 592h751q-9 131 -118.5 223t-256.5 92q-153 0 -260 -90.5
t-116 -224.5z" />
    <glyph glyph-name="f" unicode="f" horiz-adv-x="585" 
d="M164 1008v92q0 282 285 282q45 0 92 -8v-108q-66 8 -92 8q-140 0 -140 -180v-86h242v-111h-242v-897h-145v897h-127v111h127z" />
    <glyph glyph-name="g" unicode="g" horiz-adv-x="1210" 
d="M1092 1008v-1010q0 -102 -28.5 -184.5t-76.5 -137t-113 -91t-136.5 -52t-149.5 -14.5q-122 -2 -241.5 39t-207.5 116v140q84 -83 204 -127.5t245 -44.5q55 -1 106 10.5t97.5 38t81 66.5t55 101.5t20.5 137.5q0 35 -1 52.5t-1 51.5q-61 -57 -144 -87.5t-167 -30.5
q-145 1 -269.5 66.5t-200.5 186t-75 269.5q-1 149 75 269.5t200.5 186t269.5 66.5q85 0 166.5 -34.5t144.5 -100.5v117h146zM946 225v537q-61 70 -143.5 108.5t-167.5 36.5q-164 2 -282 -114.5t-117 -288.5q-1 -175 116.5 -289.5t282.5 -114.5q86 0 168.5 32.5t142.5 92.5z
" />
    <glyph glyph-name="h" unicode="h" horiz-adv-x="1179" 
d="M264 1364v-473q65 64 147.5 99.5t166.5 35.5q153 0 268.5 -69.5t175 -187.5t59.5 -265v-504h-145v504q0 174 -97 288.5t-261 114.5q-187 0 -314 -145v-762h-145v1364h145z" />
    <glyph glyph-name="i" unicode="i" horiz-adv-x="421" 
d="M111 1292q0 42 28.5 70.5t69.5 28.5q43 0 70.5 -28t27.5 -71q0 -42 -28 -70t-70 -28q-41 0 -69.5 28.5t-28.5 69.5zM139 0h146v1008h-146v-1008z" />
    <glyph glyph-name="j" unicode="j" horiz-adv-x="468" 
d="M158 1292q0 42 28 70.5t70 28.5t70 -28.5t28 -70.5q0 -41 -28.5 -69.5t-69.5 -28.5t-69.5 28.5t-28.5 69.5zM184 1006v-1110q0 -183 -139 -183q-35 0 -92 11v-113q47 -6 92 -6q285 0 285 282v1119h-146z" />
    <glyph glyph-name="k" unicode="k" horiz-adv-x="1177" 
d="M283 1364v-838l594 482h200l-475 -394l508 -614h-174l-436 526l-217 -174v-352h-144v1364h144z" />
    <glyph glyph-name="l" unicode="l" horiz-adv-x="421" 
d="M285 0h-146v1364h146v-1364z" />
    <glyph glyph-name="m" unicode="m" horiz-adv-x="1888" 
d="M274 1006v-115q63 65 143 100t163 35q127 0 214 -56.5t132 -148.5q78 100 182.5 152.5t224.5 52.5q107 0 189.5 -33t133.5 -92t77 -136.5t26 -170.5v-594h-145v565q0 151 -70.5 246.5t-210.5 95.5q-101 0 -187 -47t-147 -133l2 -727h-147v639q0 47 -14.5 91.5t-44.5 85.5
t-85.5 66t-129.5 25q-88 0 -167.5 -37t-138.5 -108v-762h-145v1006h145z" />
    <glyph glyph-name="n" unicode="n" horiz-adv-x="1220" 
d="M274 1006v-115q65 64 147.5 99.5t166.5 35.5q153 0 268.5 -69.5t175.5 -187.5t60 -265v-504h-146v504q0 175 -96.5 289t-261.5 114q-187 0 -314 -145v-762h-145v1006h145z" />
    <glyph glyph-name="o" unicode="o" horiz-adv-x="1257" 
d="M627 1028q111 0 211.5 -41.5t173 -112t115 -167t42.5 -203.5t-42.5 -203.5t-115 -166.5t-173 -111t-211.5 -41q-147 0 -271 69.5t-196 190t-72 262.5t72 263t196 191t271 70zM627 897q-163 0 -278.5 -115t-115.5 -278t115.5 -278t278.5 -115q164 0 280.5 115t116.5 278
t-116.5 278t-280.5 115z" />
    <glyph glyph-name="p" unicode="p" horiz-adv-x="1210" 
d="M119 1008h145v-117q64 64 146.5 99.5t164.5 35.5q145 -1 269.5 -66.5t200.5 -186t75 -269.5q1 -149 -75 -269.5t-200.5 -186t-269.5 -66.5q-86 0 -168 30t-143 88q0 -101 -1 -237.5t-1 -239.5h-143v1385zM264 762v-537q60 -60 142.5 -92.5t168.5 -32.5q165 0 283 114.5
t117 289.5q1 172 -117.5 288.5t-282.5 114.5q-86 2 -168 -36t-143 -109z" />
    <glyph glyph-name="q" unicode="q" horiz-adv-x="1210" 
d="M1092 -377h-144q0 103 -1 239t-1 238q-61 -57 -144 -87.5t-167 -30.5q-145 1 -269.5 66.5t-200.5 186t-75 269.5q-1 149 75 269.5t200.5 186t269.5 66.5q85 0 166.5 -34.5t144.5 -100.5v117h146v-1385zM946 225v537q-61 70 -143.5 108.5t-167.5 36.5q-164 2 -282 -114.5
t-117 -288.5q-1 -175 116.5 -289.5t282.5 -114.5q86 0 168.5 32.5t142.5 92.5z" />
    <glyph glyph-name="r" unicode="r" horiz-adv-x="759" 
d="M274 1008v-113q65 62 147.5 96.5t166.5 34.5q59 0 114 -8v-119q-55 8 -116 8q-86 0 -168.5 -36t-143.5 -103v-768h-145v1008h145z" />
    <glyph glyph-name="s" unicode="s" horiz-adv-x="1017" 
d="M125 102v142q72 -66 179 -103t210 -37q46 0 90 10t84.5 30.5t65 58t24.5 86.5q0 57 -44.5 89.5t-127.5 53.5q-35 10 -103.5 25t-112.5 25.5t-100.5 33t-90 49t-57 71.5t-23.5 103q0 73 35 130t92.5 90t125 50t138.5 17q97 0 195 -30.5t172 -88.5v-141q-71 65 -171.5 101
t-197.5 36q-62 0 -117 -16.5t-95 -58.5t-40 -103q0 -83 145 -131q40 -13 107.5 -29t119.5 -27.5t112 -34t99.5 -50t66 -73.5t26.5 -106q0 -62 -26 -112.5t-67.5 -83.5t-97 -55t-112.5 -31.5t-115 -9.5q-104 0 -208.5 30.5t-180.5 89.5z" />
    <glyph glyph-name="t" unicode="t" horiz-adv-x="636" 
d="M184 1008v356h146v-356h241v-111h-241v-614q0 -181 139 -181q18 0 92 9v-111q-55 -6 -106 -6q-271 0 -271 289v614h-127v111h127z" />
    <glyph glyph-name="u" unicode="u" horiz-adv-x="1173" 
d="M899 0v115q-138 -135 -301 -135q-112 0 -202 39t-148 108t-88.5 160.5t-30.5 199.5v519h145v-519q0 -112 34 -198t108.5 -139.5t181.5 -53.5q175 0 301 148v762h148v-1006h-148z" />
    <glyph glyph-name="v" unicode="v" horiz-adv-x="1040" 
d="M37 1008h156l327 -822q57 146 168 424t158 398h158l-410 -1008h-148z" />
    <glyph glyph-name="w" unicode="w" horiz-adv-x="1560" 
d="M780 772l-270 -772h-133l-340 1008h147l275 -801l268 801h104l281 -799l260 799h152l-332 -1008h-131z" />
    <glyph glyph-name="x" unicode="x" horiz-adv-x="983" 
d="M37 0l369 504q-100 135 -369 504h170l285 -387q52 73 151 208t131 179h172l-371 -504l371 -504h-172l-282 387q-50 -70 -147.5 -201t-137.5 -186h-170z" />
    <glyph glyph-name="y" unicode="y" horiz-adv-x="1042" 
d="M193 1008l327 -813l328 813h158l-388 -955l-38 -100q-25 -65 -59 -123t-81.5 -111t-111.5 -84t-135 -30q-45 0 -89 8v129q46 -6 82 -6q50 0 93.5 25t75 67.5t54 88t37.5 95.5l-409 996h156z" />
    <glyph glyph-name="z" unicode="z" horiz-adv-x="1060" 
d="M944 881l-627 -750h627v-131h-825q0 22 1 65t1 64l624 750h-624v129h823v-127z" />
    <glyph glyph-name="braceleft" unicode="{" horiz-adv-x="843" 
d="M707 1372v-112q-137 0 -152 -122q-2 -10 -2 -20q0 -20 1 -66t0.5 -73.5t-1.5 -72.5t-6 -75t-12.5 -69.5t-21 -67.5t-31.5 -56t-45 -48t-60 -33q33 -14 60 -34.5t45 -48.5t31.5 -55.5t21 -66t12.5 -68t6 -74.5t1.5 -72.5t-0.5 -74t-1 -67.5q2 -45 18 -76.5t35 -45.5
t44.5 -21t36.5 -7.5t20 0.5v-104q-8 2 -26 0t-43.5 4t-53 13.5t-55 26.5t-49.5 44t-36.5 66.5t-15.5 93.5q-3 32 -3.5 84.5t-1.5 92.5t-6 89.5t-18.5 86.5t-37 71.5t-64 57t-96.5 30.5v112q56 7 96.5 29t64 57t37 73.5t18.5 89t6 92t1.5 94.5t3.5 84q2 69 29 118.5t61 72
t78.5 35t68 13.5t42.5 0z" />
    <glyph glyph-name="bar" unicode="|" horiz-adv-x="520" 
d="M201 -254v1729h118v-1729h-118z" />
    <glyph glyph-name="braceright" unicode="}" horiz-adv-x="843" 
d="M139 1260v112q18 1 41.5 0t67.5 -13.5t78 -35t61 -72t29 -118.5q3 -31 3.5 -84t1.5 -94.5t6 -92t18.5 -89t37 -73.5t64 -57t96.5 -29v-112q-56 -8 -96.5 -30.5t-64 -57t-37 -71.5t-18.5 -86.5t-6 -89.5t-1.5 -92.5t-3.5 -84.5q-1 -52 -15.5 -93.5t-36.5 -66.5t-49.5 -44
t-54.5 -26.5t-52.5 -13.5t-43 -4t-25.5 0v104q130 0 151 120q2 14 3 30q0 22 -1 68t-1 74t1.5 72.5t6 74.5t11.5 68.5t20.5 66t31.5 55t45 48t60 34.5q-37 14 -66 39.5t-47.5 53.5t-31.5 70.5t-19 75t-9 84t-3 81.5t1 83.5t1 73.5q-2 36 -13.5 63.5t-27.5 41t-35 23.5
t-35.5 11t-28 3t-13.5 0h-1z" />
    <glyph glyph-name="asciitilde" unicode="~" horiz-adv-x="1062" 
d="M924 631v-137q-46 -45 -101.5 -59.5t-110 -5t-113 28.5t-117.5 37t-116 25.5t-116.5 -11t-110.5 -67.5v133q56 43 119.5 57t122.5 4t120 -29t118 -36.5t110 -24t104 13t91 71.5z" />
    <glyph glyph-name="exclamdown" unicode="&#xa1;" horiz-adv-x="524" 
d="M162 1001q0 41 28.5 70t69.5 29q42 0 70 -28.5t28 -70.5t-28 -70t-70 -28q-41 0 -69.5 28.5t-28.5 69.5zM213 811h96l37 -1077h-166z" />
    <glyph glyph-name="cent" unicode="&#xa2;" horiz-adv-x="1134" 
d="M297 -143l78 202q-122 68 -194 184t-72 261q0 113 46 211.5t124 166t181.5 106t217.5 38.5q24 0 70 -4l63 166h104l-73 -191q101 -24 182 -82v-129q-101 81 -225 105l-289 -756q49 -21 113 -31q55 -4 82 -2q179 6 319 119v-129q-153 -110 -346 -110q-113 0 -213 38
l-64 -163h-104zM424 180l266 701l-33 24q-170 -6 -289.5 -119t-119.5 -282q0 -103 47 -187.5t129 -136.5z" />
    <glyph glyph-name="sterling" unicode="&#xa3;" horiz-adv-x="1327" 
d="M274 721v240q0 117 67.5 212t171 144.5t218.5 50.5q209 0 381 -149v-134q-73 74 -174.5 116t-200.5 40q-55 0 -110.5 -18t-103 -51t-77.5 -88.5t-30 -122.5v-240h465v-90h-465v-441q63 10 153 -11.5t171 -49t163 -45t154.5 6t120.5 99.5v-143q-58 -63 -129.5 -85
t-143 -10t-148 37.5t-154.5 50t-152.5 35.5t-151.5 -13.5t-143 -90.5v140q59 50 118 67v453h-135v90h135z" />
    <glyph glyph-name="currency" unicode="&#xa4;" horiz-adv-x="1153" 
d="M1014 860l-150 -153q68 -87 68 -205q0 -112 -68 -205l150 -152l-80 -82l-152 154q-86 -67 -204 -67q-112 0 -205 67l-152 -154l-82 82l152 152q-68 95 -68 205q0 117 68 205l-152 153l82 80l150 -152q93 68 207 68q117 0 204 -68l152 152zM336 502q0 -96 72 -168t170 -72
q95 0 168 71t73 169t-70.5 169.5t-170.5 71.5t-170 -70.5t-72 -170.5z" />
    <glyph glyph-name="yen" unicode="&#xa5;" horiz-adv-x="1191" 
d="M502 295v49l-10 62h-285v90h254l-418 870h164l375 -801l383 801h165l-430 -870h248v-90h-282l-11 -60v-51h293v-90h-293v-205h-153v205h-295v90h295z" />
    <glyph glyph-name="brokenbar" unicode="&#xa6;" horiz-adv-x="526" 
d="M201 -254v737h118v-737h-118zM201 737v738h118v-738h-118z" />
    <glyph glyph-name="section" unicode="&#xa7;" horiz-adv-x="1081" 
d="M145 -59v131q65 -61 155.5 -94.5t188.5 -38.5q44 -1 81.5 1.5t79.5 12.5t71 26.5t48.5 47t18.5 71.5q0 33 -14 58t-36.5 40.5t-57.5 27t-71.5 19t-83.5 15.5l-36 6q-60 10 -103 20.5t-93 31t-81 46.5t-52 68t-21 96q0 164 187 226q-86 31 -134.5 80.5t-48.5 132.5
q0 72 35 128.5t93 89.5t125.5 49.5t138.5 16.5q97 0 194 -30.5t170 -88.5v-131q-63 58 -153 92t-183 39q-49 1 -97 -8.5t-92 -29t-71 -56.5t-27 -86q0 -25 9.5 -46.5t22 -37t39 -30t45.5 -23t58 -19.5t59.5 -15.5t64.5 -14.5q12 -3 18 -4q60 -13 102.5 -25t90 -33.5t77 -48
t49 -67t19.5 -90.5q0 -90 -42 -137.5t-120 -67.5q83 -29 126.5 -76t43.5 -131q0 -61 -26 -109t-67 -76.5t-98 -47t-112 -25t-115 -6.5q-101 0 -199.5 30.5t-175.5 90.5zM795 510q0 87 -83.5 134.5t-201.5 47.5q-69 0 -122.5 -14.5t-92.5 -56.5t-39 -109q0 -151 281 -162
q44 -2 80 0.5t70.5 12t57.5 27.5t37 48t13 72z" />
    <glyph glyph-name="dieresis" unicode="&#xa8;" horiz-adv-x="587" 
d="M88 1206q0 35 24.5 58.5t59.5 23.5t58.5 -23.5t23.5 -58.5t-23.5 -59.5t-58.5 -24.5t-59.5 24.5t-24.5 59.5zM332 1206q0 35 24.5 58.5t59.5 23.5t59.5 -23.5t24.5 -58.5t-24.5 -59.5t-59.5 -24.5t-59.5 24.5t-24.5 59.5z" />
    <glyph glyph-name="copyright" unicode="&#xa9;" horiz-adv-x="1703" 
d="M856 1384q144 0 275.5 -55.5t226.5 -149.5t151 -224t56 -273t-56 -272.5t-151 -223t-226.5 -149t-275.5 -55.5q-146 0 -279 55.5t-229 149t-152.5 223t-56.5 272.5t56.5 273t152.5 224t229 149.5t279 55.5zM856 1294q-169 0 -313.5 -81.5t-229 -222.5t-84.5 -308
t84.5 -308t229 -222.5t313.5 -81.5t311.5 81.5t225 222.5t82.5 308t-82.5 308t-225 222.5t-311.5 81.5zM1059 467v-90q-79 -45 -170 -45q-149 0 -255 102.5t-106 247.5q0 146 106 249t255 103q91 0 170 -45v-90q-76 49 -166 49q-117 0 -194.5 -75.5t-77.5 -190.5
q0 -114 76.5 -189t193.5 -75q87 0 168 49z" />
    <glyph glyph-name="ordfeminine" unicode="&#xaa;" horiz-adv-x="690" 
d="M500 743v60q-77 -70 -176 -70q-48 0 -94 12t-86 36t-64.5 65.5t-24.5 95.5q0 80 57.5 131t137.5 51h250q-7 89 -58 126.5t-155 37.5q-104 -4 -183 -57v86q83 49 195 49q297 0 297 -268v-164q0 -32 1 -96.5t1 -94.5h-98zM500 1059h-219q-57 0 -96.5 -31t-39.5 -82
q0 -68 57 -101.5t130 -33.5q102 0 168 72v176z" />
    <glyph glyph-name="guillemotleft" unicode="&#xab;" horiz-adv-x="1114" 
d="M563 1008v-148l-317 -346l317 -346v-145l-413 436v110zM915 1008v-148l-317 -346l317 -346v-145l-415 436v110z" />
    <glyph glyph-name="logicalnot" unicode="&#xac;" horiz-adv-x="1046" 
d="M782 451h-643v124h768v-360h-125v236z" />
    <glyph glyph-name="uni00AD" unicode="&#xad;" horiz-adv-x="794" 
d="M657 575v-124h-518v124h518z" />
    <glyph glyph-name="registered" unicode="&#xae;" horiz-adv-x="1703" 
d="M856 1384q144 0 275.5 -55.5t226.5 -149.5t151 -224t56 -273t-56 -272.5t-151 -223t-226.5 -149t-275.5 -55.5q-146 0 -279 55.5t-229 149t-152.5 223t-56.5 272.5t56.5 273t152.5 224t229 149.5t279 55.5zM856 1294q-169 0 -313.5 -81.5t-229 -222.5t-84.5 -308
t84.5 -308t229 -222.5t313.5 -81.5t311.5 81.5t225 222.5t82.5 308t-82.5 308t-225 222.5t-311.5 81.5zM627 1006h293q89 0 145.5 -55.5t56.5 -151.5q0 -74 -47.5 -126.5t-120.5 -66.5l174 -282h-88l-168 278h-165v-278h-80v682zM707 670h180q67 0 111 33.5t44 95.5
q0 67 -43.5 102t-111.5 35h-180v-266z" />
    <glyph glyph-name="macron" unicode="&#xaf;" horiz-adv-x="917" 
d="M719 1243v-88h-518v88h518z" />
    <glyph glyph-name="degree" unicode="&#xb0;" horiz-adv-x="790" 
d="M653 1137q0 -107 -76 -182.5t-182 -75.5q-107 0 -181.5 75.5t-74.5 182.5q0 106 74.5 182t181.5 76q106 0 182 -76t76 -182zM571 1137q0 71 -52.5 123.5t-123.5 52.5q-73 0 -123.5 -52.5t-50.5 -123.5q0 -73 50.5 -123.5t123.5 -50.5q71 0 123.5 50.5t52.5 123.5z" />
    <glyph glyph-name="plusminus" unicode="&#xb1;" horiz-adv-x="1081" 
d="M477 516h-405v125h405v340h125v-340h410v-125h-410v-334h-125v334zM160 96h764v-94h-764v94z" />
    <glyph glyph-name="twosuperior" unicode="&#xb2;" horiz-adv-x="774" 
d="M123 1260v106q111 99 268 102q79 1 147 -27.5t113 -90.5t45 -146q0 -36 -26 -82t-61.5 -87t-91.5 -92t-97.5 -85t-97.5 -78l-74 -57h452v-88h-602v84q24 22 90 72q5 4 63.5 49.5t80 63t74.5 61.5t78 69.5t58 61t47.5 63t14.5 49.5q0 83 -63.5 127.5t-147.5 44.5
q-73 -2 -144.5 -32.5t-125.5 -87.5z" />
    <glyph glyph-name="threesuperior" unicode="&#xb3;" horiz-adv-x="763" 
d="M475 1384h-397v84h530v-71l-291 -248q40 3 78 0q113 -5 181.5 -66t68.5 -184q0 -64 -29.5 -115.5t-78.5 -82.5t-107 -47.5t-119 -16.5q-122 0 -221 57v97q108 -68 221 -68q60 0 113.5 18.5t91 60.5t37.5 99q0 93 -60 137.5t-165 44.5q-76 0 -164 -24v63z" />
    <glyph glyph-name="acute" unicode="&#xb4;" horiz-adv-x="616" 
d="M201 1108l90 258h127l-129 -258h-88z" />
    <glyph glyph-name="mu" unicode="&#xb5;" horiz-adv-x="1277" 
d="M322 1008v-521q0 -146 58.5 -248.5t172.5 -132.5q62 -14 141 -2q144 14 262 138v766h142v-1008h-142v123q-137 -143 -307 -143q-116 0 -198.5 50t-128.5 138v-500h-142v1340h142z" />
    <glyph glyph-name="paragraph" unicode="&#xb6;" horiz-adv-x="1437" 
d="M485 -233v974q-128 0 -216.5 90t-88.5 222q0 129 89 221t216 92h772v-115h-178v-1484h-137v1484h-319v-1484h-138z" />
    <glyph glyph-name="periodcentered" unicode="&#xb7;" horiz-adv-x="331" 
d="M68 514q0 41 28.5 69.5t69.5 28.5t69.5 -28.5t28.5 -69.5t-28.5 -69.5t-69.5 -28.5t-69.5 28.5t-28.5 69.5z" />
    <glyph glyph-name="cedilla" unicode="&#xb8;" horiz-adv-x="485" 
d="M287 27l-80 -113q42 10 85.5 0.5t74 -40t30.5 -75.5q0 -65 -51 -99t-123 -34q-80 0 -135 31v63q56 -34 133 -34q48 0 75.5 21t27.5 54q0 38 -37.5 58t-82 17.5t-67.5 -21.5v47l92 125h58z" />
    <glyph glyph-name="onesuperior" unicode="&#xb9;" horiz-adv-x="481" 
d="M47 1303v92l168 73h86v-821h-98v725z" />
    <glyph glyph-name="ordmasculine" unicode="&#xba;" horiz-adv-x="931" 
d="M465 1348q136 0 232 -92.5t96 -223.5q0 -132 -95.5 -224.5t-232.5 -92.5q-136 0 -231 92.5t-95 224.5q0 131 95 223.5t231 92.5zM465 1262q-95 0 -163.5 -68t-68.5 -162q0 -96 68.5 -164.5t163.5 -68.5q96 0 164.5 68.5t68.5 164.5q0 94 -69 162t-164 68z" />
    <glyph glyph-name="guillemotright" unicode="&#xbb;" horiz-adv-x="1114" 
d="M201 23v145l317 346l-317 346v148l413 -439v-110zM551 23v145l317 346l-317 346v148l416 -439v-110z" />
    <glyph glyph-name="onequarter" unicode="&#xbc;" horiz-adv-x="1415" 
d="M47 1200v92l166 74h88v-821h-98v725zM254 0h-107l949 1366h108zM1141 821h94v-565h84v-82h-84v-174h-100v174h-465v80zM784 256h351v428z" />
    <glyph glyph-name="onehalf" unicode="&#xbd;" horiz-adv-x="1540" 
d="M47 1200v92l168 74h86v-821h-98v725zM221 0h-106l948 1366h106zM889 627v104q53 48 123.5 74.5t142.5 28.5q125 2 216 -68.5t91 -196.5q0 -35 -26 -80.5t-61.5 -86.5t-92 -92.5t-97.5 -85t-98 -77.5l-73 -59h452v-88h-604v84q32 28 131.5 105.5t173.5 138t137.5 131.5
t63.5 114q0 83 -63.5 127.5t-147.5 44.5q-72 -2 -144 -32.5t-124 -85.5z" />
    <glyph glyph-name="threequarters" unicode="&#xbe;" horiz-adv-x="1650" 
d="M475 1282h-397v84h530v-72l-291 -247q40 3 78 0q113 -5 181.5 -66t68.5 -184q0 -64 -29.5 -115.5t-78.5 -82.5t-107 -47.5t-119 -16.5q-122 0 -221 57v96q106 -67 221 -67q60 0 113.5 18.5t91 60.5t37.5 99q0 93 -60 137.5t-165 44.5q-72 0 -164 -25v64zM449 0h-109
l950 1366h107zM1376 821h94v-565h84v-84h-84v-172h-100v172h-465v82zM1020 256h350v428z" />
    <glyph glyph-name="questiondown" unicode="&#xbf;" horiz-adv-x="995" 
d="M702 1004q0 -43 -28.5 -72t-69.5 -29t-69.5 29t-28.5 72q0 41 28.5 68.5t69.5 27.5t69.5 -27.5t28.5 -68.5zM928 -143v145q-173 -156 -377 -156q-131 2 -221 76.5t-90 188.5q0 40 24 81.5t61.5 79.5t83.5 79.5t91.5 90t82.5 101.5t59 123t20 147h-117q4 -66 -19 -128
t-62 -112t-87.5 -97.5t-97 -92t-89.5 -87.5t-66.5 -92.5t-25.5 -99.5q0 -109 60 -198.5t160 -140t217 -52.5q104 -2 207 36t186 108z" />
    <glyph glyph-name="Agrave" unicode="&#xc0;" horiz-adv-x="1286" 
d="M594 1718l90 -258h-88l-129 258h127zM1087 0l-135 346h-618l-135 -346h-162l530 1366h150l532 -1366h-162zM911 469l-268 692l-268 -692h536z" />
    <glyph glyph-name="Aacute" unicode="&#xc1;" horiz-adv-x="1286" 
d="M594 1464l90 258h127l-129 -258h-88zM567 1366l-530 -1366h162l135 346h618l135 -346h162l-532 1366h-150zM911 469h-536l268 692z" />
    <glyph glyph-name="Acircumflex" unicode="&#xc2;" horiz-adv-x="1286" 
d="M600 1722h88l184 -258h-104l-123 183l-125 -183h-104zM567 1366l-530 -1366h162l135 346h618l135 -346h162l-532 1366h-150zM911 469h-536l268 692z" />
    <glyph glyph-name="Atilde" unicode="&#xc3;" horiz-adv-x="1286" 
d="M874 1630v-110q-38 -39 -84.5 -41.5t-91.5 16.5t-91.5 38t-97.5 14t-95 -48v103q44 36 100 37.5t106 -16.5t98 -35t89.5 -10t66.5 52zM1087 0l-135 346h-618l-135 -346h-162l530 1366h150l532 -1366h-162zM911 469l-268 692l-268 -692h536z" />
    <glyph glyph-name="Adieresis" unicode="&#xc4;" horiz-adv-x="1286" 
d="M436 1575q0 35 24 58.5t58 23.5q35 0 59.5 -23.5t24.5 -58.5t-24.5 -59.5t-59.5 -24.5q-34 0 -58 24.5t-24 59.5zM680 1575q0 35 24.5 58.5t59.5 23.5q34 0 58 -23.5t24 -58.5t-24 -59.5t-58 -24.5q-35 0 -59.5 24.5t-24.5 59.5zM567 1366l-530 -1366h162l135 346h618
l135 -346h162l-532 1366h-150zM911 469h-536l268 692z" />
    <glyph glyph-name="Aring" unicode="&#xc5;" horiz-adv-x="1286" 
d="M639 1794q75 0 126.5 -52.5t51.5 -125.5q0 -72 -51.5 -124t-126.5 -52q-74 0 -125 52t-51 124q0 73 51 125.5t125 52.5zM639 1720q-44 0 -73 -30.5t-29 -73.5q0 -42 30.5 -72.5t73.5 -30.5q41 0 71.5 31t30.5 72q-3 44 -32 74t-72 30zM1087 0l-135 346h-618l-135 -346
h-162l530 1366h150l532 -1366h-162zM911 469l-268 692l-268 -692h536z" />
    <glyph glyph-name="AE" unicode="&#xc6;" horiz-adv-x="2144" 
d="M2019 627h-776v-498h803v-129h-954v344h-609q-44 -57 -134 -171.5t-134 -172.5h-178q791 1020 923 1191t132 175h954v-135h-801l-2 -461h776v-143zM1092 469v666l-529 -666h529z" />
    <glyph glyph-name="Ccedilla" unicode="&#xc7;" horiz-adv-x="1298" 
d="M831 -18l-47 -68q68 16 129.5 -16t61.5 -99q0 -65 -51 -99t-123 -34q-77 0 -135 31v63q56 -34 133 -34q50 0 77 21t27 54q0 38 -37.5 58t-82 17.5t-68.5 -21.5v47l57 82q-141 5 -267.5 62.5t-218 150t-145 219.5t-53.5 266q0 143 56.5 273t152.5 224t228 149.5t278 55.5
q184 0 346 -90v-153q-161 100 -346 100q-153 0 -282.5 -75t-205 -204t-75.5 -280t75.5 -279.5t205 -203t282.5 -74.5q181 0 346 100v-153q-144 -81 -318 -90z" />
    <glyph glyph-name="Egrave" unicode="&#xc8;" horiz-adv-x="1189" 
d="M567 1722l90 -258h-88l-129 258h127zM1067 770v-143h-776v-498h803v-129h-955v1366h955v-135h-803v-461h776z" />
    <glyph glyph-name="Eacute" unicode="&#xc9;" horiz-adv-x="1189" 
d="M537 1464l92 258h125l-129 -258h-88zM1094 1231v135h-955v-1366h955v129h-803v498h776v143h-776v461h803z" />
    <glyph glyph-name="Ecircumflex" unicode="&#xca;" horiz-adv-x="1189" 
d="M588 1722h88l184 -258h-104l-123 183l-125 -183h-105zM1094 1231v135h-955v-1366h955v129h-803v498h774v143h-774v461h803z" />
    <glyph glyph-name="Edieresis" unicode="&#xcb;" horiz-adv-x="1189" 
d="M422 1575q0 35 24 58.5t58 23.5q35 0 59.5 -23.5t24.5 -58.5t-24.5 -59.5t-59.5 -24.5q-34 0 -58 24.5t-24 59.5zM666 1575q0 35 24.5 58.5t59.5 23.5q34 0 57.5 -23.5t23.5 -58.5t-23.5 -59.5t-57.5 -24.5q-35 0 -59.5 24.5t-24.5 59.5zM1094 1231v135h-955v-1366h955
v129h-803v498h776v143h-776v461h803z" />
    <glyph glyph-name="Igrave" unicode="&#xcc;" horiz-adv-x="425" 
d="M172 1722l90 -258h-88l-129 258h127zM289 0h-150v1366h150v-1366z" />
    <glyph glyph-name="Iacute" unicode="&#xcd;" horiz-adv-x="425" 
d="M164 1464l92 258h125l-129 -258h-88zM139 0h150v1366h-150v-1366z" />
    <glyph glyph-name="Icircumflex" unicode="&#xce;" horiz-adv-x="425" 
d="M170 1722h88l184 -258h-104l-123 183l-125 -183h-104zM139 0h150v1366h-150v-1366z" />
    <glyph glyph-name="Idieresis" unicode="&#xcf;" horiz-adv-x="425" 
d="M8 1575q0 35 24.5 58.5t59.5 23.5t59.5 -23.5t24.5 -58.5t-24.5 -59.5t-59.5 -24.5t-59.5 24.5t-24.5 59.5zM254 1575q0 35 23.5 58.5t58.5 23.5t59.5 -23.5t24.5 -58.5t-24.5 -59.5t-59.5 -24.5t-58.5 24.5t-23.5 59.5zM139 0h150v1366h-150v-1366z" />
    <glyph glyph-name="Eth" unicode="&#xd0;" horiz-adv-x="1331" 
d="M139 1366h430q186 0 343.5 -91.5t249 -249t91.5 -343.5q0 -139 -54 -265t-145.5 -217.5t-218 -145.5t-266.5 -54h-430v614h-55v125h55v627zM291 739h327v-125h-327v-479h256q114 0 217 43.5t177.5 117t118.5 174.5t44 212q0 112 -44 213.5t-118.5 175t-177.5 117
t-217 43.5h-256v-492z" />
    <glyph glyph-name="Ntilde" unicode="&#xd1;" horiz-adv-x="1325" 
d="M895 1630v-110q-28 -29 -60 -38t-63.5 -2t-65 21t-67.5 27t-67.5 19t-69.5 -5t-68 -43v103q44 36 100.5 37.5t106.5 -16.5t98 -35t89.5 -10t66.5 52zM1034 270v1096h152v-1366h-121l-776 1096v-1096h-150v1366h117z" />
    <glyph glyph-name="Ograve" unicode="&#xd2;" horiz-adv-x="1619" 
d="M770 1722l90 -258h-88l-129 258h127zM813 1384q145 0 276.5 -55.5t226.5 -149.5t151.5 -224t56.5 -273t-56.5 -272.5t-151.5 -223t-226.5 -149t-276.5 -55.5q-146 0 -278.5 55.5t-228 149t-152 223t-56.5 272.5t56.5 273t152 224t228 149.5t278.5 55.5zM813 1239
q-153 0 -282.5 -74.5t-205 -203t-75.5 -279.5t75.5 -279.5t205 -203t282.5 -74.5q113 0 216 44t178 119t119 178t44 216t-44 216t-119 178t-178 119t-216 44z" />
    <glyph glyph-name="Oacute" unicode="&#xd3;" horiz-adv-x="1619" 
d="M752 1464l90 258h127l-129 -258h-88zM813 1384q-146 0 -278.5 -55.5t-228 -149.5t-152 -224t-56.5 -273t56.5 -272.5t152 -223t228 -149t278.5 -55.5q145 0 276.5 55.5t226.5 149t151.5 223t56.5 272.5t-56.5 273t-151.5 224t-226.5 149.5t-276.5 55.5zM813 1239
q113 0 216 -44t178 -119t119 -178t44 -216t-44 -216t-119 -178t-178 -119t-216 -44q-153 0 -282.5 74.5t-205 203t-75.5 279.5t75.5 279.5t205 203t282.5 74.5z" />
    <glyph glyph-name="Ocircumflex" unicode="&#xd4;" horiz-adv-x="1619" 
d="M768 1722h88l184 -258h-104l-123 183l-125 -183h-104zM813 1384q-146 0 -278.5 -55.5t-228 -149.5t-152 -224t-56.5 -273t56.5 -272.5t152 -223t228 -149t278.5 -55.5q145 0 276.5 55.5t226.5 149t151.5 223t56.5 272.5t-56.5 273t-151.5 224t-226.5 149.5t-276.5 55.5z
M813 1239q113 0 216 -44t178 -119t119 -178t44 -216t-44 -216t-119 -178t-178 -119t-216 -44q-153 0 -282.5 74.5t-205 203t-75.5 279.5t75.5 279.5t205 203t282.5 74.5z" />
    <glyph glyph-name="Otilde" unicode="&#xd5;" horiz-adv-x="1619" 
d="M1051 1630v-110q-28 -29 -60 -38t-63.5 -2t-65 21t-67.5 27t-67.5 19t-69.5 -5t-68 -43v103q44 36 100.5 37.5t106.5 -16.5t98 -35t89.5 -10t66.5 52zM813 1384q145 0 276.5 -55.5t226.5 -149.5t151.5 -224t56.5 -273t-56.5 -272.5t-151.5 -223t-226.5 -149t-276.5 -55.5
q-146 0 -278.5 55.5t-228 149t-152 223t-56.5 272.5t56.5 273t152 224t228 149.5t278.5 55.5zM813 1239q-153 0 -282.5 -74.5t-205 -203t-75.5 -279.5t75.5 -279.5t205 -203t282.5 -74.5q113 0 216 44t178 119t119 178t44 216t-44 216t-119 178t-178 119t-216 44z" />
    <glyph glyph-name="Odieresis" unicode="&#xd6;" horiz-adv-x="1619" 
d="M610 1575q0 35 24.5 58.5t59.5 23.5t59.5 -23.5t24.5 -58.5t-24.5 -59.5t-59.5 -24.5t-59.5 24.5t-24.5 59.5zM856 1575q0 35 23.5 58.5t58.5 23.5t59.5 -23.5t24.5 -58.5t-24.5 -59.5t-59.5 -24.5t-58.5 24.5t-23.5 59.5zM813 1384q-146 0 -278.5 -55.5t-228 -149.5
t-152 -224t-56.5 -273t56.5 -272.5t152 -223t228 -149t278.5 -55.5q145 0 276.5 55.5t226.5 149t151.5 223t56.5 272.5t-56.5 273t-151.5 224t-226.5 149.5t-276.5 55.5zM813 1239q113 0 216 -44t178 -119t119 -178t44 -216t-44 -216t-119 -178t-178 -119t-216 -44
q-153 0 -282.5 74.5t-205 203t-75.5 279.5t75.5 279.5t205 203t282.5 74.5z" />
    <glyph glyph-name="multiply" unicode="&#xd7;" horiz-adv-x="1257" 
d="M631 426l-289 -289l-88 88l289 287l-289 289l88 88l289 -287l289 289l88 -88l-289 -291l282 -283l-88 -88z" />
    <glyph glyph-name="Oslash" unicode="&#xd8;" horiz-adv-x="1619" 
d="M227 -37l133 174q-123 98 -192.5 240.5t-69.5 304.5q0 143 56.5 273t152 224t228 149.5t278.5 55.5q220 0 395 -120l123 159h131l-170 -225q108 -98 170 -232t62 -284q0 -143 -56.5 -272.5t-151.5 -223t-226.5 -149t-276.5 -55.5q-196 0 -364 100l-91 -119h-131zM451 256
l669 887q-143 96 -307 96q-153 0 -282.5 -74.5t-205 -203t-75.5 -279.5q0 -128 53 -239t148 -187zM1200 1077l-661 -876q129 -76 274 -76q113 0 216 44t178 119t119 178t44 216q0 114 -45 216t-125 179z" />
    <glyph glyph-name="Ugrave" unicode="&#xd9;" horiz-adv-x="1327" 
d="M627 1722l90 -258h-88l-129 258h127zM1188 1366v-899q0 -147 -74 -259.5t-192 -169t-258 -56.5q-141 0 -259.5 56.5t-192 169t-73.5 259.5v899h152v-899q0 -159 108 -250.5t265 -91.5q102 0 185.5 38.5t135 117.5t51.5 186v899h152z" />
    <glyph glyph-name="Uacute" unicode="&#xda;" horiz-adv-x="1327" 
d="M612 1464l90 258h127l-129 -258h-88zM1036 1366v-899q0 -107 -51.5 -186t-135 -117.5t-185.5 -38.5q-157 0 -265 91.5t-108 250.5v899h-152v-899q0 -147 73.5 -259.5t192 -169t259.5 -56.5q140 0 258 56.5t192 169t74 259.5v899h-152z" />
    <glyph glyph-name="Ucircumflex" unicode="&#xdb;" horiz-adv-x="1327" 
d="M616 1722h91l184 -258h-107l-120 183l-125 -183h-107zM1036 1366v-899q0 -107 -51.5 -186t-135 -117.5t-185.5 -38.5q-157 0 -265 91.5t-108 250.5v899h-152v-899q0 -147 73.5 -259.5t192 -169t259.5 -56.5q140 0 258 56.5t192 169t74 259.5v899h-152z" />
    <glyph glyph-name="Udieresis" unicode="&#xdc;" horiz-adv-x="1327" 
d="M457 1575q0 35 24.5 58.5t59.5 23.5t58.5 -23.5t23.5 -58.5t-23.5 -59.5t-58.5 -24.5t-59.5 24.5t-24.5 59.5zM700 1575q0 35 24.5 58.5t59.5 23.5t59.5 -23.5t24.5 -58.5t-24.5 -59.5t-59.5 -24.5t-59.5 24.5t-24.5 59.5zM1036 1366v-899q0 -107 -51.5 -186t-135 -117.5
t-185.5 -38.5q-157 0 -265 91.5t-108 250.5v899h-152v-899q0 -147 73.5 -259.5t192 -169t259.5 -56.5q140 0 258 56.5t192 169t74 259.5v899h-152z" />
    <glyph glyph-name="Yacute" unicode="&#xdd;" horiz-adv-x="1159" 
d="M508 1464l90 258h127l-129 -258h-88zM649 0v406l473 960h-164l-383 -801l-374 801h-164l459 -963v-403h153z" />
    <glyph glyph-name="Thorn" unicode="&#xde;" horiz-adv-x="1212" 
d="M291 1202h416q175 0 291 -111t116 -298q0 -180 -117.5 -292t-289.5 -112h-416v-389h-152v332v98v936h152v-164zM291 520h379q126 0 209.5 71.5t83.5 192.5q0 131 -82.5 206t-210.5 75h-379v-545z" />
    <glyph glyph-name="germandbls" unicode="&#xdf;" horiz-adv-x="1120" 
d="M139 -184v1091q0 226 106.5 358t315.5 132q187 0 294.5 -101.5t107.5 -267.5q0 -98 -57 -182.5t-150 -120.5q77 -25 134 -70t86 -94.5t42.5 -92.5t13.5 -79q0 -197 -134 -293t-421 -96v129q215 0 314.5 66t99.5 208q0 107 -91.5 177t-207.5 82v112q111 17 173 79t62 144
q0 119 -68.5 188.5t-197.5 69.5q-274 0 -274 -348v-1091h-148z" />
    <glyph glyph-name="agrave" unicode="&#xe0;" horiz-adv-x="1110" 
d="M449 1366l92 -258h-88l-129 258h125zM815 0l-2 104q-128 -122 -301 -122q-63 0 -124 11.5t-119.5 38.5t-102.5 65.5t-71 97.5t-27 131q0 131 93.5 214t227.5 83h422q-10 154 -97.5 220t-262.5 66q-187 -8 -301 -88v127q68 39 154.5 58.5t166.5 19.5q487 0 487 -438
q0 -98 1.5 -294t1.5 -294h-146zM813 508h-373q-100 0 -166.5 -48t-66.5 -128q0 -61 29 -108t77.5 -73t102 -38.5t110.5 -12.5q171 0 287 125v283z" />
    <glyph glyph-name="aacute" unicode="&#xe1;" horiz-adv-x="1110" 
d="M440 1108l90 258h127l-129 -258h-88zM815 0h146q0 98 -1.5 294t-1.5 294q0 438 -487 438q-80 0 -166.5 -19.5t-154.5 -58.5v-127q114 80 301 88q175 0 262.5 -66t97.5 -220h-422q-134 0 -227.5 -83t-93.5 -214q0 -72 27 -131t71 -97.5t102.5 -65.5t119.5 -38.5t124 -11.5
q172 0 303 122v-104zM815 508v-283q-122 -125 -289 -125q-57 0 -110.5 12.5t-102 38.5t-77.5 73t-29 108q0 80 66.5 128t166.5 48h375z" />
    <glyph glyph-name="acircumflex" unicode="&#xe2;" horiz-adv-x="1110" 
d="M473 1358h90l185 -256h-107l-121 180l-125 -180h-106zM815 0h146q0 98 -1.5 294t-1.5 294q0 438 -487 438q-80 0 -166.5 -19.5t-154.5 -58.5v-127q114 80 301 88q175 0 262.5 -66t97.5 -220h-422q-134 0 -227.5 -83t-93.5 -214q0 -72 27 -131t71 -97.5t102.5 -65.5
t119.5 -38.5t124 -11.5q172 0 303 122v-104zM815 508v-283q-122 -125 -289 -125q-57 0 -110.5 12.5t-102 38.5t-77.5 73t-29 108q0 80 66.5 128t166.5 48h375z" />
    <glyph glyph-name="atilde" unicode="&#xe3;" horiz-adv-x="1110" 
d="M737 1309v-109q-32 -33 -70.5 -40t-74 6t-76.5 29t-78 28t-79.5 2.5t-79.5 -45.5v100q44 36 100 38t105.5 -16t97 -34.5t89 -9.5t66.5 51zM813 0v104q-128 -122 -301 -122q-63 0 -124 11.5t-119.5 38.5t-102.5 65.5t-71 97.5t-27 131q0 131 93.5 214t227.5 83h422
q-10 154 -97.5 220t-262.5 66q-187 -8 -301 -88v127q68 39 154.5 58.5t166.5 19.5q487 0 487 -438q0 -98 1.5 -294t1.5 -294h-148zM813 508h-373q-100 0 -166.5 -48t-66.5 -128q0 -61 29 -108t77.5 -73t102 -38.5t110.5 -12.5q171 0 287 125v283z" />
    <glyph glyph-name="adieresis" unicode="&#xe4;" horiz-adv-x="1110" 
d="M330 1206q0 35 24 58.5t58 23.5q35 0 59.5 -23.5t24.5 -58.5q0 -36 -24 -60t-60 -24q-34 0 -58 24t-24 60zM573 1206q0 35 24.5 58.5t59.5 23.5q34 0 58 -23.5t24 -58.5q0 -36 -24 -60t-58 -24q-36 0 -60 24t-24 60zM815 0h146q0 98 -1.5 294t-1.5 294q0 438 -487 438
q-80 0 -166.5 -19.5t-154.5 -58.5v-127q114 80 301 88q175 0 262.5 -66t97.5 -220h-422q-134 0 -227.5 -83t-93.5 -214q0 -72 27 -131t71 -97.5t102.5 -65.5t119.5 -38.5t124 -11.5q172 0 303 122v-104zM815 508v-283q-122 -125 -289 -125q-57 0 -110.5 12.5t-102 38.5
t-77.5 73t-29 108q0 80 66.5 128t166.5 48h375z" />
    <glyph glyph-name="aring" unicode="&#xe5;" horiz-adv-x="1110" 
d="M524 1468q74 0 125 -52t51 -124q0 -73 -50.5 -125.5t-125.5 -52.5t-125.5 52.5t-50.5 125.5q0 72 51 124t125 52zM524 1395q-44 0 -73 -30t-29 -73q0 -42 30 -73t74 -31q41 0 72 31.5t31 72.5q-3 43 -32.5 73t-72.5 30zM815 0l-2 104q-128 -122 -301 -122
q-63 0 -124 11.5t-119.5 38.5t-102.5 65.5t-71 97.5t-27 131q0 131 93.5 214t227.5 83h422q-10 154 -97.5 220t-262.5 66q-187 -8 -301 -88v127q68 39 154.5 58.5t166.5 19.5q487 0 487 -438q0 -98 1.5 -294t1.5 -294h-146zM813 508h-373q-100 0 -166.5 -48t-66.5 -128
q0 -61 29 -108t77.5 -73t102 -38.5t110.5 -12.5q171 0 287 125v283z" />
    <glyph glyph-name="ae" unicode="&#xe6;" horiz-adv-x="1949" 
d="M815 0l-2 104q-128 -122 -301 -122q-63 0 -124 11.5t-119.5 38.5t-102.5 65.5t-71 97.5t-27 131q0 131 93.5 214t227.5 83h422q-10 154 -97.5 220t-262.5 66q-187 -8 -301 -88v127q68 39 154.5 58.5t166.5 19.5q333 0 440 -209q70 97 181.5 153t244.5 56q146 0 268 -79.5
t187 -205t57 -260.5h-891v-49q20 -147 137 -239.5t285 -92.5q240 0 424 144v-121q-73 -62 -191 -100.5t-241 -38.5q-251 0 -411 163v-147h-146zM813 508h-373q-100 0 -166.5 -48t-66.5 -128q0 -61 29 -108t77.5 -73t102 -38.5t110.5 -12.5q171 0 287 125v273v10zM961 592
h751q-9 131 -118.5 223t-256.5 92q-153 0 -260 -90.5t-116 -224.5z" />
    <glyph glyph-name="ccedilla" unicode="&#xe7;" horiz-adv-x="1120" 
d="M702 -16l-49 -70q68 16 130.5 -16t62.5 -99q0 -65 -51.5 -99t-122.5 -34q-80 0 -135 31v63q56 -34 133 -34q48 0 75 21t27 54q0 38 -37 58t-81.5 17.5t-67.5 -21.5v47l59 80q-147 6 -269.5 72.5t-197 185t-74.5 264.5q0 150 79 271t208.5 186t280.5 65q194 0 348 -111
v-139q-152 125 -348 125q-84 0 -161 -29t-135.5 -80.5t-93 -126.5t-34.5 -161q0 -115 59 -207t155.5 -141.5t209.5 -49.5q199 0 348 125v-139q-142 -102 -318 -108z" />
    <glyph glyph-name="egrave" unicode="&#xe8;" horiz-adv-x="1255" 
d="M465 1366h125l92 -258h-88zM1141 481h-897q3 -165 123.5 -273t302.5 -108q240 0 424 144v-121q-73 -62 -191 -100.5t-241 -38.5q-158 0 -286 68.5t-201 191t-73 274.5q3 215 154 361.5t371 146.5q88 0 170 -30.5t145.5 -83.5t110 -121.5t69.5 -148.5t19 -161zM250 592
h751q-9 131 -117.5 223t-256.5 92q-153 0 -260.5 -90.5t-116.5 -224.5z" />
    <glyph glyph-name="eacute" unicode="&#xe9;" horiz-adv-x="1255" 
d="M569 1108l90 258h127l-129 -258h-88zM246 481h895q5 80 -18 160.5t-69.5 149t-110 121.5t-145.5 83.5t-169 30.5q-221 0 -371.5 -146.5t-155.5 -361.5q0 -152 73 -274.5t201 -191t286 -68.5q125 0 243 38.5t191 100.5v121q-187 -144 -424 -144q-182 0 -302.5 108
t-123.5 273zM1004 592h-752q9 134 116.5 224.5t260.5 90.5q148 0 257 -91.5t118 -223.5z" />
    <glyph glyph-name="ecircumflex" unicode="&#xea;" horiz-adv-x="1255" 
d="M582 1358h90l184 -256h-106l-121 180l-125 -180h-107zM246 481h895q5 80 -18 160.5t-69.5 149t-110 121.5t-145.5 83.5t-169 30.5q-221 0 -371.5 -146.5t-155.5 -361.5q0 -152 73 -274.5t201 -191t286 -68.5q125 0 243 38.5t191 100.5v121q-187 -144 -424 -144
q-182 0 -302.5 108t-123.5 273zM1004 592h-752q9 134 116.5 224.5t260.5 90.5q147 0 256.5 -92t118.5 -223z" />
    <glyph glyph-name="edieresis" unicode="&#xeb;" horiz-adv-x="1255" 
d="M422 1206q0 35 24 58.5t58 23.5q35 0 59.5 -23.5t24.5 -58.5t-24.5 -59.5t-59.5 -24.5q-34 0 -58 24.5t-24 59.5zM666 1206q0 35 24.5 58.5t59.5 23.5q34 0 57.5 -23.5t23.5 -58.5t-23.5 -59.5t-57.5 -24.5q-35 0 -59.5 24.5t-24.5 59.5zM246 481h895q5 80 -18 160.5
t-69.5 149t-110 121.5t-145.5 83.5t-169 30.5q-221 0 -371.5 -146.5t-155.5 -361.5q0 -152 73 -274.5t201 -191t286 -68.5q125 0 243 38.5t191 100.5v121q-187 -144 -424 -144q-182 0 -302.5 108t-123.5 273zM1004 592h-752q9 134 116.5 224.5t260.5 90.5q148 0 257 -91.5
t118 -223.5z" />
    <glyph glyph-name="igrave" unicode="&#xec;" horiz-adv-x="479" 
d="M193 1366l92 -258h-88l-129 258h125zM311 0h-145v1008h145v-1008z" />
    <glyph glyph-name="iacute" unicode="&#xed;" horiz-adv-x="479" 
d="M188 1108l91 258h127l-130 -258h-88zM166 0h145v1008h-145v-1008z" />
    <glyph glyph-name="icircumflex" unicode="&#xee;" horiz-adv-x="479" 
d="M195 1358h90l184 -256h-107l-120 180l-125 -180h-107zM166 0h145v1008h-145v-1008z" />
    <glyph glyph-name="idieresis" unicode="&#xef;" horiz-adv-x="479" 
d="M33 1206q0 35 24.5 58.5t59.5 23.5t58.5 -23.5t23.5 -58.5t-23.5 -59.5t-58.5 -24.5t-59.5 24.5t-24.5 59.5zM276 1206q0 35 24.5 58.5t59.5 23.5t59.5 -23.5t24.5 -58.5t-24.5 -59.5t-59.5 -24.5t-59.5 24.5t-24.5 59.5zM166 0h145v1008h-145v-1008z" />
    <glyph glyph-name="eth" unicode="&#xf0;" horiz-adv-x="1210" 
d="M723 1110l72 70q-57 55 -141 79t-169 13v49q0 10 -1 29.5t-1 29.5q47 5 105 2q182 -13 297 -110l108 106l60 -59l-101 -100q56 -66 78.5 -147t22.5 -200v-872h-146v100q-134 -118 -313 -118q-148 0 -272 66.5t-197.5 187t-73.5 268.5t73.5 268.5t197.5 187t272 66.5
q178 0 313 -135q-2 76 -12 127.5t-43 105.5l-76 -75zM907 225v537q-127 145 -313 145q-167 0 -283 -114.5t-116 -288.5t116.5 -289t282.5 -115q185 0 313 125z" />
    <glyph glyph-name="ntilde" unicode="&#xf1;" horiz-adv-x="1292" 
d="M877 1309v-109q-32 -33 -70.5 -40t-74 6t-77.5 29t-79 28t-80 2.5t-80 -45.5v100q45 36 101 38t106.5 -16t98 -34.5t89 -9.5t66.5 51zM311 1006v-115q65 64 147.5 99.5t166.5 35.5q228 0 365.5 -148.5t137.5 -373.5v-504h-145v504q0 175 -96.5 289t-261.5 114
q-187 0 -314 -145v-762h-147v1006h147z" />
    <glyph glyph-name="ograve" unicode="&#xf2;" horiz-adv-x="1312" 
d="M602 1366l92 -258h-88l-129 258h125zM649 1028q148 0 273 -70t197.5 -191t72.5 -263t-72.5 -262.5t-197.5 -190t-273 -69.5q-110 0 -210 41t-171.5 111t-114 166.5t-42.5 203.5t42.5 203.5t114 167t171.5 112t210 41.5zM649 897q-162 0 -277.5 -115.5t-115.5 -277.5
t115.5 -277.5t277.5 -115.5q164 0 281 115t117 278t-117 278t-281 115z" />
    <glyph glyph-name="oacute" unicode="&#xf3;" horiz-adv-x="1312" 
d="M602 1108l90 258h127l-129 -258h-88zM649 1028q-110 0 -210 -41.5t-171.5 -112t-114 -167t-42.5 -203.5t42.5 -203.5t114 -166.5t171.5 -111t210 -41q148 0 273 69.5t197.5 190t72.5 262.5t-72.5 263t-197.5 191t-273 70zM649 897q164 0 281 -115t117 -278t-117 -278
t-281 -115q-162 0 -277.5 115.5t-115.5 277.5t115.5 277.5t277.5 115.5z" />
    <glyph glyph-name="ocircumflex" unicode="&#xf4;" horiz-adv-x="1312" 
d="M604 1358h88l185 -256h-105l-123 180l-125 -180h-104zM649 1028q-110 0 -210 -41.5t-171.5 -112t-114 -167t-42.5 -203.5t42.5 -203.5t114 -166.5t171.5 -111t210 -41q148 0 273 69.5t197.5 190t72.5 262.5t-72.5 263t-197.5 191t-273 70zM649 897q164 0 281 -115
t117 -278t-117 -278t-281 -115q-162 0 -277.5 115.5t-115.5 277.5t115.5 277.5t277.5 115.5z" />
    <glyph glyph-name="otilde" unicode="&#xf5;" horiz-adv-x="1312" 
d="M885 1309v-109q-32 -33 -70.5 -40t-74 6t-77.5 29t-79 28t-80 2.5t-80 -45.5v100q45 36 101 38t106.5 -16t98 -34.5t89 -9.5t66.5 51zM649 1028q148 0 273 -70t197.5 -191t72.5 -263t-72.5 -262.5t-197.5 -190t-273 -69.5q-110 0 -210 41t-171.5 111t-114 166.5
t-42.5 203.5t42.5 203.5t114 167t171.5 112t210 41.5zM649 897q-162 0 -277.5 -115.5t-115.5 -277.5t115.5 -277.5t277.5 -115.5q164 0 281 115t117 278t-117 278t-281 115z" />
    <glyph glyph-name="odieresis" unicode="&#xf6;" horiz-adv-x="1312" 
d="M444 1206q0 35 24.5 58.5t59.5 23.5t59.5 -23.5t24.5 -58.5t-24.5 -59.5t-59.5 -24.5t-59.5 24.5t-24.5 59.5zM690 1206q0 35 23.5 58.5t58.5 23.5t59.5 -23.5t24.5 -58.5t-24.5 -59.5t-59.5 -24.5t-58.5 24.5t-23.5 59.5zM649 1028q-110 0 -210 -41.5t-171.5 -112
t-114 -167t-42.5 -203.5t42.5 -203.5t114 -166.5t171.5 -111t210 -41q148 0 273 69.5t197.5 190t72.5 262.5t-72.5 263t-197.5 191t-273 70zM649 897q164 0 281 -115t117 -278t-117 -278t-281 -115q-162 0 -277.5 115.5t-115.5 277.5t115.5 277.5t277.5 115.5z" />
    <glyph glyph-name="divide" unicode="&#xf7;" horiz-adv-x="1257" 
d="M520 788q0 41 28.5 70t69.5 29q42 0 70.5 -28.5t28.5 -70.5t-28.5 -70t-70.5 -28q-41 0 -69.5 28.5t-28.5 69.5zM1098 575h-938v-124h938v124zM520 229q0 43 28.5 72t69.5 29q43 0 71 -29t28 -72q0 -41 -28 -68.5t-71 -27.5q-41 0 -69.5 27.5t-28.5 68.5z" />
    <glyph glyph-name="oslash" unicode="&#xf8;" horiz-adv-x="1312" 
d="M182 -59l121 161q-91 73 -141.5 177.5t-50.5 224.5q0 107 42.5 203.5t114 167t171.5 112t210 41.5q161 0 289 -86l98 133h131l-143 -192q80 -73 124 -171t44 -208q0 -142 -72.5 -262.5t-197.5 -190t-273 -69.5q-142 0 -256 63l-80 -104h-131zM389 217l465 614
q-95 66 -205 66q-162 0 -277.5 -115.5t-115.5 -277.5q0 -85 35 -159.5t98 -127.5zM936 768l-459 -610q79 -47 172 -47q164 0 281 115t117 278q0 153 -111 264z" />
    <glyph glyph-name="ugrave" unicode="&#xf9;" horiz-adv-x="1247" 
d="M598 1366l90 -258h-88l-129 258h127zM926 0v115q-138 -135 -301 -135q-112 0 -202.5 39t-148.5 107.5t-89 160.5t-31 200v519h147v-519q0 -112 34 -198t108.5 -139.5t181.5 -53.5q175 0 301 148v762h145v-1006h-145z" />
    <glyph glyph-name="uacute" unicode="&#xfa;" horiz-adv-x="1247" 
d="M582 1108l90 258h127l-129 -258h-88zM1071 0v1006h-145v-762q-126 -148 -301 -148q-107 0 -181.5 53.5t-108.5 139.5t-34 198v519h-145v-519q0 -108 30.5 -199.5t88.5 -160.5t148 -108t202 -39q163 0 301 135v-115h145z" />
    <glyph glyph-name="ucircumflex" unicode="&#xfb;" horiz-adv-x="1247" 
d="M578 1358h90l184 -256h-107l-122 180l-123 -180h-107zM1071 0v1006h-145v-762q-126 -148 -301 -148q-107 0 -181.5 53.5t-108.5 139.5t-34 198v519h-145v-519q0 -108 30.5 -199.5t88.5 -160.5t148 -108t202 -39q163 0 301 135v-115h145z" />
    <glyph glyph-name="udieresis" unicode="&#xfc;" horiz-adv-x="1247" 
d="M420 1206q0 35 24.5 58.5t59.5 23.5t58.5 -23.5t23.5 -58.5t-23.5 -59.5t-58.5 -24.5t-59.5 24.5t-24.5 59.5zM664 1206q0 35 24.5 58.5t59.5 23.5t59 -23.5t24 -58.5t-24 -59.5t-59 -24.5t-59.5 24.5t-24.5 59.5zM1071 0v1006h-145v-762q-126 -148 -301 -148
q-107 0 -181.5 53.5t-108.5 139.5t-34 198v519h-145v-519q0 -108 30.5 -199.5t88.5 -160.5t148 -108t202 -39q163 0 301 135v-115h145z" />
    <glyph glyph-name="yacute" unicode="&#xfd;" horiz-adv-x="1112" 
d="M489 1108l91 258h127l-129 -258h-89zM63 1008l412 -996q-16 -51 -38.5 -96t-54.5 -87.5t-75.5 -67.5t-93.5 -25q-35 0 -82 6v-129q44 -8 88 -8q71 -1 135 30t111.5 84t81.5 111t59 123l41 102l385 953h-155l-330 -813l-328 813h-156z" />
    <glyph glyph-name="thorn" unicode="&#xfe;" horiz-adv-x="1288" 
d="M166 1366h145v-475q64 64 147 99.5t165 35.5q145 -1 269 -66.5t200 -186t75 -269.5q1 -149 -75 -269.5t-200 -186t-269 -66.5q-86 0 -168.5 30t-143.5 88q0 -101 -1 -237.5t-1 -239.5h-143v1743zM311 762v-537q60 -60 142.5 -92.5t169.5 -32.5q165 0 282.5 114.5
t116.5 289.5q1 172 -117 288.5t-282 114.5q-86 2 -168.5 -36t-143.5 -109z" />
    <glyph glyph-name="ydieresis" unicode="&#xff;" horiz-adv-x="1112" 
d="M338 1206q0 35 24.5 58.5t59.5 23.5t58.5 -23.5t23.5 -58.5t-23.5 -59.5t-58.5 -24.5t-59.5 24.5t-24.5 59.5zM582 1206q0 35 24.5 58.5t59.5 23.5t59.5 -23.5t24.5 -58.5t-24.5 -59.5t-59.5 -24.5t-59.5 24.5t-24.5 59.5zM63 1008l412 -996q-16 -51 -38.5 -96
t-54.5 -87.5t-75.5 -67.5t-93.5 -25q-35 0 -82 6v-129q44 -8 88 -8q71 -1 135 30t111.5 84t81.5 111t59 123l41 102l385 953h-155l-330 -813l-328 813h-156z" />
    <glyph glyph-name="Amacron" unicode="&#x100;" horiz-adv-x="1286" 
d="M901 1597v-88h-518v88h518zM1087 0l-135 346h-618l-135 -346h-162l530 1366h150l532 -1366h-162zM911 469l-268 692l-268 -692h536z" />
    <glyph glyph-name="amacron" unicode="&#x101;" horiz-adv-x="1110" 
d="M778 1243v-88h-518v88h518zM815 0l-2 104q-128 -122 -301 -122q-63 0 -124 11.5t-119.5 38.5t-102.5 65.5t-71 97.5t-27 131q0 131 93.5 214t227.5 83h422q-10 154 -97.5 220t-262.5 66q-187 -8 -301 -88v127q68 39 154.5 58.5t166.5 19.5q487 0 487 -438q0 -98 1.5 -294
t1.5 -294h-146zM813 508h-373q-100 0 -166.5 -48t-66.5 -128q0 -61 29 -108t77.5 -73t102 -38.5t110.5 -12.5q171 0 287 125v283z" />
    <glyph glyph-name="Abreve" unicode="&#x102;" horiz-adv-x="1286" 
d="M795 1640h79q0 -71 -69 -123.5t-162 -52.5q-96 0 -166.5 52.5t-70.5 123.5h79q0 -46 46.5 -79t111.5 -33q66 0 109 33t43 79zM1087 0l-135 346h-618l-135 -346h-162l530 1366h150l532 -1366h-162zM911 469l-268 692l-268 -692h536z" />
    <glyph glyph-name="abreve" unicode="&#x103;" horiz-adv-x="1110" 
d="M684 1307h80q0 -72 -70 -125.5t-162 -53.5q-97 0 -168 53.5t-71 125.5h82q0 -47 46 -80t109 -33q67 0 110.5 33t43.5 80zM815 0v104q-131 -122 -303 -122q-63 0 -124 11.5t-119.5 38.5t-102.5 65.5t-71 97.5t-27 131q0 131 93.5 214t227.5 83h422q-10 154 -97.5 220
t-262.5 66q-187 -8 -301 -88v127q68 39 154.5 58.5t166.5 19.5q487 0 487 -438q0 -98 1.5 -294t1.5 -294h-146zM815 508h-375q-100 0 -166.5 -48t-66.5 -128q0 -61 29 -108t77.5 -73t102 -38.5t110.5 -12.5q170 0 289 125v283z" />
    <glyph glyph-name="Aogonek" unicode="&#x104;" horiz-adv-x="1329" 
d="M1278 -272v-62q-35 -26 -94 -26q-78 0 -128 39.5t-50 109.5q0 107 139 211h-58l-135 346h-618l-135 -346h-162l530 1366h150l532 -1366q-55 -18 -118.5 -78t-63.5 -129q0 -43 35.5 -68.5t81.5 -25.5q57 0 94 29zM911 469l-268 692l-268 -692h536z" />
    <glyph glyph-name="aogonek" unicode="&#x105;" horiz-adv-x="1128" 
d="M1008 -264l-2 -62q-39 -26 -95 -26q-77 0 -126.5 40.5t-49.5 110.5q0 97 129 201h-51v104q-115 -109 -270 -118q-43 -3 -90 0q-73 6 -139 28.5t-122.5 62.5t-90 104t-33.5 145q0 131 93.5 214t227.5 83h422q-10 154 -97.5 220t-262.5 66q-187 -8 -301 -88v127
q68 39 154.5 58.5t166.5 19.5q487 0 487 -438q0 -98 1.5 -294t1.5 -294q-57 -15 -110.5 -72t-53.5 -125q0 -45 34.5 -70.5t79.5 -25.5q53 0 97 29zM813 508h-373q-100 0 -166.5 -48t-66.5 -128q0 -68 37 -118t90 -74.5t119 -33.5q51 -7 92 -4q157 9 268 123v283z" />
    <glyph glyph-name="Cacute" unicode="&#x106;" horiz-adv-x="1298" 
d="M686 1464l90 258h127l-129 -258h-88zM1149 72v153q-165 -100 -346 -100q-153 0 -282.5 74.5t-205 203t-75.5 279.5t75.5 280t205 204t282.5 75q190 0 346 -100v153q-162 90 -346 90q-146 0 -278 -55.5t-228 -149.5t-152.5 -224t-56.5 -273t56.5 -272.5t152.5 -223
t228 -149t278 -55.5q184 0 346 90z" />
    <glyph glyph-name="cacute" unicode="&#x107;" horiz-adv-x="1142" 
d="M584 1108l90 258h127l-129 -258h-88zM1004 776v139q-154 111 -349 111q-151 0 -280.5 -65t-208 -186t-78.5 -271t78.5 -271t208 -186t280.5 -65q196 0 349 110v139q-152 -125 -349 -125q-113 0 -209.5 49.5t-155.5 141.5t-59 207q0 86 34.5 161t93 126.5t135.5 80.5
t161 29q197 0 349 -125z" />
    <glyph glyph-name="Ccircumflex" unicode="&#x108;" horiz-adv-x="1298" 
d="M694 1722h90l185 -258h-107l-121 183l-125 -183h-106zM1149 72v153q-165 -100 -346 -100q-153 0 -282.5 74.5t-205 203t-75.5 279.5t75.5 280t205 204t282.5 75q190 0 346 -100v153q-162 90 -346 90q-146 0 -278 -55.5t-228 -149.5t-152.5 -224t-56.5 -273t56.5 -272.5
t152.5 -223t228 -149t278 -55.5q184 0 346 90z" />
    <glyph glyph-name="ccircumflex" unicode="&#x109;" horiz-adv-x="1142" 
d="M567 1358h88l185 -256h-105l-123 180l-125 -180h-104zM1004 776v139q-154 111 -349 111q-151 0 -280.5 -65t-208 -186t-78.5 -271t78.5 -271t208 -186t280.5 -65q196 0 349 110v139q-152 -125 -349 -125q-113 0 -209.5 49.5t-155.5 141.5t-59 207q0 86 34.5 161t93 126.5
t135.5 80.5t161 29q197 0 349 -125z" />
    <glyph glyph-name="Cdotaccent" unicode="&#x10a;" horiz-adv-x="1298" 
d="M678 1599q0 43 28.5 72t69.5 29t69.5 -29t28.5 -72q0 -41 -28.5 -68.5t-69.5 -27.5t-69.5 27.5t-28.5 68.5zM1149 72v153q-165 -100 -346 -100q-153 0 -282.5 74.5t-205 203t-75.5 279.5t75.5 280t205 204t282.5 75q190 0 346 -100v153q-162 90 -346 90
q-146 0 -278 -55.5t-228 -149.5t-152.5 -224t-56.5 -273t56.5 -272.5t152.5 -223t228 -149t278 -55.5q184 0 346 90z" />
    <glyph glyph-name="cdotaccent" unicode="&#x10b;" horiz-adv-x="1142" 
d="M557 1251q0 43 28.5 71t69.5 28q43 0 71 -28t28 -71q0 -41 -28 -69.5t-71 -28.5q-41 0 -69.5 28.5t-28.5 69.5zM1004 776v139q-154 111 -349 111q-151 0 -280.5 -65t-208 -186t-78.5 -271t78.5 -271t208 -186t280.5 -65q196 0 349 110v139q-152 -125 -349 -125
q-113 0 -209.5 49.5t-155.5 141.5t-59 207q0 86 34.5 161t93 126.5t135.5 80.5t161 29q197 0 349 -125z" />
    <glyph glyph-name="Ccaron" unicode="&#x10c;" horiz-adv-x="1298" 
d="M748 1540l120 182h107l-184 -258h-91l-184 258h107zM1149 225v-153q-162 -90 -346 -90q-146 0 -278 55.5t-228 149t-152.5 223t-56.5 272.5t56.5 273t152.5 224t228 149.5t278 55.5q184 0 346 -90v-153q-156 100 -346 100q-153 0 -282.5 -75t-205 -204t-75.5 -280
t75.5 -279.5t205 -203t282.5 -74.5q181 0 346 100z" />
    <glyph glyph-name="ccaron" unicode="&#x10d;" horiz-adv-x="1142" 
d="M643 1176l123 182h106l-184 -256h-90l-184 256h106zM1004 915v-139q-152 125 -349 125q-84 0 -161 -29t-135.5 -80.5t-93 -126.5t-34.5 -161q0 -115 59 -207t155.5 -141.5t209.5 -49.5q197 0 349 125v-139q-153 -110 -349 -110q-151 0 -280.5 65t-208 186t-78.5 271
t78.5 271t208 186t280.5 65q195 0 349 -111z" />
    <glyph glyph-name="Dcaron" unicode="&#x10e;" horiz-adv-x="1331" 
d="M545 1540l123 182h104l-184 -258h-88l-185 258h105zM139 1366h430q186 0 343.5 -91.5t249 -249t91.5 -343.5q0 -139 -54 -265t-145.5 -217.5t-218 -145.5t-266.5 -54h-430v1366zM291 135h256q114 0 217 43.5t177.5 117t118.5 174.5t44 212q0 112 -44 213.5t-118.5 175
t-177.5 117t-217 43.5h-256v-1096z" />
    <glyph glyph-name="dcaron" unicode="&#x10f;" horiz-adv-x="1519" 
d="M1245 1028l43 143q-34 8 -55 34.5t-21 62.5q0 41 29 69.5t70 28.5t69.5 -28.5t28.5 -69.5q0 -19 -19 -59.5t-96 -180.5h-49zM1069 1364v-1364h-145v100q-134 -118 -314 -118q-147 0 -271 66.5t-197.5 187t-73.5 268.5t73.5 268.5t197.5 187t271 66.5q179 0 314 -135v473
h145zM924 225v537q-127 145 -316 145q-165 0 -281 -114.5t-116 -288.5t116.5 -289t280.5 -115q188 0 316 125z" />
    <glyph glyph-name="Dcroat" unicode="&#x110;" horiz-adv-x="1331" 
d="M139 1366h430q186 0 343.5 -91.5t249 -249t91.5 -343.5q0 -139 -54 -265t-145.5 -217.5t-218 -145.5t-266.5 -54h-430v614h-55v125h55v627zM291 739h327v-125h-327v-479h256q114 0 217 43.5t177.5 117t118.5 174.5t44 212q0 112 -44 213.5t-118.5 175t-177.5 117
t-217 43.5h-256v-492z" />
    <glyph glyph-name="dcroat" unicode="&#x111;" horiz-adv-x="1384" 
d="M944 1214v150h146v-150h178v-88h-178v-1126h-146v100q-134 -118 -313 -118q-148 0 -272 66.5t-197.5 187t-73.5 268.5t73.5 268.5t197.5 187t272 66.5q178 0 313 -135v235h-178v88h178zM944 225v537q-127 145 -313 145q-167 0 -283.5 -114.5t-116.5 -288.5t117 -289
t283 -115q188 0 313 125z" />
    <glyph glyph-name="Emacron" unicode="&#x112;" horiz-adv-x="1189" 
d="M885 1597v-88h-518v88h518zM1067 770v-143h-776v-498h803v-129h-955v1366h955v-135h-803v-461h776z" />
    <glyph glyph-name="emacron" unicode="&#x113;" horiz-adv-x="1224" 
d="M870 1243v-88h-518v88h518zM1124 481h-895q3 -165 123.5 -273t302.5 -108q240 0 424 144v-121q-73 -62 -191 -100.5t-241 -38.5q-240 0 -399.5 151.5t-159.5 382.5q2 141 70.5 257.5t188 183.5t265.5 67t268 -79.5t187 -205t57 -260.5zM236 592h751q-9 131 -118.5 223
t-256.5 92q-153 0 -260 -90.5t-116 -224.5z" />
    <glyph glyph-name="Ebreve" unicode="&#x114;" horiz-adv-x="1189" 
d="M788 1640h80q0 -71 -69 -123.5t-162 -52.5q-95 0 -166.5 53t-71.5 123h80q0 -46 46.5 -79t111.5 -33q66 0 108.5 33t42.5 79zM1067 770v-143h-776v-498h803v-129h-955v1366h955v-135h-803v-461h776z" />
    <glyph glyph-name="ebreve" unicode="&#x115;" horiz-adv-x="1224" 
d="M768 1307h80q0 -72 -69 -125.5t-163 -53.5q-95 0 -166 53.5t-71 125.5h80q0 -47 46 -80t111 -33q67 0 109.5 33t42.5 80zM1124 481h-895q3 -165 123.5 -273t302.5 -108q240 0 424 144v-121q-73 -62 -191 -100.5t-241 -38.5q-240 0 -399.5 151.5t-159.5 382.5
q2 141 70.5 257.5t188 183.5t265.5 67t268 -79.5t187 -205t57 -260.5zM236 592h751q-9 131 -118.5 223t-256.5 92q-153 0 -260 -90.5t-116 -224.5z" />
    <glyph glyph-name="Edotaccent" unicode="&#x116;" horiz-adv-x="1189" 
d="M520 1599q0 43 28.5 72t69.5 29t70 -29t29 -72q0 -41 -28.5 -68.5t-70.5 -27.5q-41 0 -69.5 27.5t-28.5 68.5zM1094 1231v135h-955v-1366h955v129h-803v498h776v143h-776v461h803z" />
    <glyph glyph-name="edotaccent" unicode="&#x117;" horiz-adv-x="1224" 
d="M516 1251q0 43 28 71t70 28q43 0 71 -28t28 -71q0 -41 -28.5 -69.5t-70.5 -28.5q-41 0 -69.5 28.5t-28.5 69.5zM229 481h895q8 135 -57 260.5t-187 205t-268 79.5t-265.5 -67t-188 -183.5t-70.5 -257.5q0 -231 159.5 -382.5t399.5 -151.5q123 0 241 38.5t191 100.5v121
q-184 -144 -424 -144q-182 0 -302.5 108t-123.5 273zM987 592h-751q9 134 116 224.5t260 90.5q148 0 257 -91.5t118 -223.5z" />
    <glyph glyph-name="Eogonek" unicode="&#x118;" horiz-adv-x="1189" 
d="M793 -246v-61q-27 -27 -95 -27q-77 0 -127.5 40.5t-50.5 109.5q0 92 111 184h-492v1366h955v-135h-803v-461h774v-143h-774v-498h803v-129h-408q-104 -95 -104 -180q0 -43 35.5 -68.5t80.5 -25.5q63 0 95 28z" />
    <glyph glyph-name="eogonek" unicode="&#x119;" horiz-adv-x="1224" 
d="M1124 481h-895q3 -165 123.5 -273t302.5 -108q240 0 424 144v-121q-71 -60 -183.5 -98t-231.5 -41q-86 -78 -86 -164q0 -43 35 -68.5t81 -25.5q58 0 94 28v-61q-36 -27 -94 -27q-77 0 -127.5 40.5t-50.5 109.5q0 87 90 170q-225 12 -371.5 161t-146.5 371
q3 215 153.5 361.5t370.5 146.5q146 0 268 -79.5t187 -205t57 -260.5zM236 592h751q-9 132 -118 223.5t-257 91.5q-153 0 -260 -90.5t-116 -224.5z" />
    <glyph glyph-name="Ecaron" unicode="&#x11a;" horiz-adv-x="1189" 
d="M623 1540l120 182h107l-184 -258h-91l-184 258h107zM1067 770v-143h-776v-498h803v-129h-955v1366h955v-135h-803v-461h776z" />
    <glyph glyph-name="ecaron" unicode="&#x11b;" horiz-adv-x="1224" 
d="M612 1176l121 182h107l-185 -256h-90l-184 256h106zM1124 481h-895q3 -165 123.5 -273t302.5 -108q240 0 424 144v-121q-73 -62 -191 -100.5t-241 -38.5q-240 0 -399.5 151.5t-159.5 382.5q3 215 153.5 361.5t370.5 146.5q146 0 268 -79.5t187 -205t57 -260.5zM236 592
h751q-9 131 -118.5 223t-256.5 92q-153 0 -260 -90.5t-116 -224.5z" />
    <glyph glyph-name="Gcircumflex" unicode="&#x11c;" horiz-adv-x="1343" 
d="M743 1722h91l184 -258h-107l-123 183l-122 -183h-107zM1163 1141v153q-175 90 -360 90q-146 0 -278 -55.5t-228 -149.5t-152.5 -224t-56.5 -273t56.5 -272.5t152.5 -223t228 -149t278 -55.5q203 0 391 108v676h-559v-125h420v-457q-109 -59 -252 -59q-153 0 -282.5 74.5
t-205 203t-75.5 279.5t75.5 280t205 204t282.5 75q194 0 360 -100z" />
    <glyph glyph-name="gcircumflex" unicode="&#x11d;" horiz-adv-x="1292" 
d="M590 1358h90l184 -256h-106l-121 180l-125 -180h-104zM973 1008v-117q-63 66 -144.5 100.5t-166.5 34.5q-145 -1 -269.5 -66.5t-200.5 -186t-75 -269.5q-1 -149 75 -269.5t200.5 -186t269.5 -66.5q84 0 167 30.5t144 87.5q0 -34 1 -51.5t1 -52.5q0 -94 -31 -165.5
t-83.5 -111.5t-115 -59t-133.5 -18q-123 0 -242.5 44.5t-203.5 127.5v-140q88 -75 207 -116t241 -39q78 -1 149.5 14.5t136.5 52t113 91t76.5 136.5t28.5 183v1012h-145zM973 762v-537q-62 -61 -144 -93t-170 -32q-164 0 -281 114.5t-116 289.5q-1 114 54 207.5t146 145
t197 50.5q86 2 169 -36t145 -109z" />
    <glyph glyph-name="Gbreve" unicode="&#x11e;" horiz-adv-x="1343" 
d="M877 1640h79q0 -71 -69 -123.5t-162 -52.5q-97 0 -168.5 52.5t-71.5 123.5h82q0 -46 46.5 -79t111.5 -33q66 0 109 33t43 79zM1163 1294v-153q-171 100 -360 100q-153 0 -282.5 -75t-205 -204t-75.5 -280t75.5 -279.5t205 -203t282.5 -74.5q143 0 252 59v457h-420v125
h559v-676q-188 -108 -391 -108q-146 0 -278 55.5t-228 149t-152.5 223t-56.5 272.5t56.5 273t152.5 224t228 149.5t278 55.5q185 0 360 -90z" />
    <glyph glyph-name="gbreve" unicode="&#x11f;" horiz-adv-x="1292" 
d="M762 1307h80q0 -72 -70 -125.5t-164 -53.5q-95 0 -166 53.5t-71 125.5h82q0 -47 46 -80t109 -33q67 0 110.5 33t43.5 80zM1118 1008v-1010q0 -102 -28.5 -184.5t-76.5 -137t-113 -91t-136.5 -52t-149.5 -14.5q-122 -2 -241 39t-207 116v140q84 -83 203.5 -127.5
t242.5 -44.5q71 -1 133.5 18t115 59t83.5 111.5t31 165.5q0 35 -1 52.5t-1 51.5q-61 -57 -144 -87.5t-167 -30.5q-145 1 -269.5 66.5t-200.5 186t-75 269.5q-1 149 75 269.5t200.5 186t269.5 66.5q85 0 166.5 -34.5t144.5 -100.5v117h145zM973 225v537q-61 70 -144 108.5
t-167 36.5q-164 2 -282.5 -114.5t-117.5 -288.5q-1 -175 117 -289.5t283 -114.5q86 0 168.5 32.5t142.5 92.5z" />
    <glyph glyph-name="Gdotaccent" unicode="&#x120;" horiz-adv-x="1343" 
d="M627 1599q0 43 28 72t68 29q43 0 71.5 -29t28.5 -72q0 -41 -28.5 -68.5t-71.5 -27.5q-40 0 -68 27.5t-28 68.5zM1163 1141v153q-175 90 -360 90q-146 0 -278 -55.5t-228 -149.5t-152.5 -224t-56.5 -273t56.5 -272.5t152.5 -223t228 -149t278 -55.5q203 0 391 108v676
h-559v-125h420v-457q-109 -59 -252 -59q-153 0 -282.5 74.5t-205 203t-75.5 279.5t75.5 280t205 204t282.5 75q194 0 360 -100z" />
    <glyph glyph-name="gdotaccent" unicode="&#x121;" horiz-adv-x="1292" 
d="M528 1251q0 43 28 71t69 28q43 0 71.5 -28t28.5 -71q0 -41 -28.5 -68.5t-71.5 -27.5q-41 0 -69 27.5t-28 68.5zM973 1008v-117q-63 66 -144.5 100.5t-166.5 34.5q-145 -1 -269.5 -66.5t-200.5 -186t-75 -269.5q-1 -149 75 -269.5t200.5 -186t269.5 -66.5q84 0 167 30.5
t144 87.5q0 -34 1 -51.5t1 -52.5q0 -94 -31 -165.5t-83.5 -111.5t-115 -59t-133.5 -18q-123 0 -242.5 44.5t-203.5 127.5v-140q88 -75 207 -116t241 -39q78 -1 149.5 14.5t136.5 52t113 91t76.5 136.5t28.5 183v1012h-145zM973 762v-537q-62 -61 -144 -93t-170 -32
q-164 0 -281 114.5t-116 289.5q-1 114 54 207.5t146 145t197 50.5q86 2 169 -36t145 -109z" />
    <glyph glyph-name="uni0122" unicode="&#x122;" horiz-adv-x="1343" 
d="M1163 1294v-153q-171 100 -360 100q-153 0 -282.5 -75t-205 -204t-75.5 -280t75.5 -279.5t205 -203t282.5 -74.5q143 0 252 59v457h-420v125h559v-676q-188 -108 -391 -108q-146 0 -278 55.5t-228 149t-152.5 223t-56.5 272.5t56.5 273t152.5 224t228 149.5t278 55.5
q185 0 360 -90zM657 -473l41 143q-34 8 -54.5 34t-20.5 63q0 41 28.5 69.5t69.5 28.5q42 0 70 -28t28 -70q0 -20 -18.5 -61t-93.5 -179h-50z" />
    <glyph glyph-name="uni0123" unicode="&#x123;" horiz-adv-x="1292" 
d="M707 1483l-43 -144q35 -7 55 -33t20 -63q0 -41 -27.5 -69.5t-68.5 -28.5q-43 0 -71.5 28.5t-28.5 69.5q0 20 19 61t95 179h50zM973 1008v-117q-63 66 -144.5 100.5t-166.5 34.5q-145 -1 -269.5 -66.5t-200.5 -186t-75 -269.5q-1 -149 75 -269.5t200.5 -186t269.5 -66.5
q84 0 167 30.5t144 87.5q0 -34 1 -51.5t1 -52.5q0 -94 -31 -165.5t-83.5 -111.5t-115 -59t-133.5 -18q-123 0 -242.5 44.5t-203.5 127.5v-140q88 -75 207 -116t241 -39q78 -1 149.5 14.5t136.5 52t113 91t76.5 136.5t28.5 183v1012h-145zM973 762v-537q-62 -61 -144 -93
t-170 -32q-164 0 -281 114.5t-116 289.5q-1 114 54 207.5t146 145t197 50.5q86 2 169 -36t145 -109z" />
    <glyph glyph-name="Hcircumflex" unicode="&#x124;" horiz-adv-x="1292" 
d="M602 1722h90l185 -258h-107l-123 183l-123 -183h-106zM139 1366v-1366h152v627h710v-627h152v1366h-152v-594h-710v594h-152z" />
    <glyph glyph-name="hcircumflex" unicode="&#x125;" horiz-adv-x="1292" 
d="M190 1722h91l184 -258h-107l-120 183l-125 -183h-107zM164 1364v-1364h147v762q127 145 314 145q164 0 261 -114.5t97 -288.5v-504h145v504q0 225 -137.5 373.5t-365.5 148.5q-84 0 -166.5 -35.5t-147.5 -99.5v473h-147z" />
    <glyph glyph-name="Hbar" unicode="&#x126;" horiz-adv-x="1538" 
d="M260 1108v258h152v-258h710v258h154v-258h123v-102h-123v-1006h-154v627h-710v-627h-152v1006h-121v102h121zM1122 772v234h-710v-234h710z" />
    <glyph glyph-name="hbar" unicode="&#x127;" horiz-adv-x="1292" 
d="M311 1116v-225q65 64 147.5 99.5t166.5 35.5q228 0 365.5 -148.5t137.5 -373.5v-504h-145v504q0 174 -97 288.5t-261 114.5q-187 0 -314 -145v-762h-145v1116h-88v103h88v145h145v-145h320v-103h-320z" />
    <glyph glyph-name="Itilde" unicode="&#x128;" horiz-adv-x="425" 
d="M444 1630l-2 -110q-32 -33 -70.5 -40t-74 6t-76.5 28.5t-78 27.5t-79.5 2.5t-79.5 -45.5v103q44 36 100 37.5t106 -16.5t98 -35t89.5 -10t66.5 52zM289 0h-150v1366h150v-1366z" />
    <glyph glyph-name="itilde" unicode="&#x129;" horiz-adv-x="421" 
d="M442 1309v-109q-32 -33 -70.5 -40t-74 6t-77 29t-78.5 28t-80 2.5t-80 -45.5v100q45 36 101 38t106 -16t97.5 -34.5t89 -9.5t66.5 51zM285 0h-146v1008h146v-1008z" />
    <glyph glyph-name="Imacron" unicode="&#x12a;" horiz-adv-x="425" 
d="M473 1597v-88h-518v88h518zM289 0h-150v1366h150v-1366z" />
    <glyph glyph-name="imacron" unicode="&#x12b;" horiz-adv-x="421" 
d="M471 1243v-88h-518v88h518zM285 0h-146v1008h146v-1008z" />
    <glyph glyph-name="Iogonek" unicode="&#x12e;" horiz-adv-x="425" 
d="M328 -264l-2 -62q-39 -26 -95 -26q-77 0 -126.5 40.5t-49.5 110.5q0 97 129 201h-45v1366h150v-1366q-59 -16 -115.5 -72.5t-56.5 -124.5q0 -44 35 -70t79 -26q53 0 97 29z" />
    <glyph glyph-name="iogonek" unicode="&#x12f;" horiz-adv-x="421" 
d="M111 1251q0 43 28.5 71t69.5 28q43 0 70.5 -28t27.5 -71q0 -42 -28 -70t-70 -28q-41 0 -69.5 28.5t-28.5 69.5zM328 -326v62q-44 -29 -97 -29q-44 0 -79 26t-35 70q0 69 55 125t113 72v1008h-146v-1008h45q-129 -108 -129 -201q0 -70 49.5 -110.5t126.5 -40.5
q14 0 27 1.5t22.5 4t18.5 6t13.5 6t9.5 5.5t6 3z" />
    <glyph glyph-name="Idotaccent" unicode="&#x130;" horiz-adv-x="425" 
d="M115 1599q0 43 28.5 72t69.5 29t69.5 -29t28.5 -72q0 -41 -28.5 -68.5t-69.5 -27.5t-69.5 27.5t-28.5 68.5zM139 0h150v1366h-150v-1366z" />
    <glyph glyph-name="dotlessi" unicode="&#x131;" horiz-adv-x="421" 
d="M285 0h-146v1008h146v-1008z" />
    <glyph glyph-name="IJ" unicode="&#x132;" horiz-adv-x="1394" 
d="M289 0h-150v1366h150v-1366zM545 72v155q148 -102 319 -102q101 0 171.5 77.5t70.5 182.5v981h149v-989q0 -159 -107.5 -277t-268.5 -118q-176 0 -334 90z" />
    <glyph glyph-name="ij" unicode="&#x133;" horiz-adv-x="899" 
d="M111 1292q0 42 28.5 70.5t69.5 28.5q43 0 70.5 -28t27.5 -71q0 -42 -28 -70t-70 -28q-41 0 -69.5 28.5t-28.5 69.5zM588 1292q0 42 28 70.5t70 28.5t70 -28.5t28 -70.5q0 -41 -28.5 -69.5t-69.5 -28.5t-69.5 28.5t-28.5 69.5zM139 0h146v1008h-146v-1008zM614 1006v-1110
q0 -183 -139 -183q-31 0 -92 11v-113q47 -6 92 -6q285 0 285 282v1119h-146z" />
    <glyph glyph-name="Jcircumflex" unicode="&#x134;" horiz-adv-x="1153" 
d="M741 1722h90l185 -258h-107l-123 183l-122 -183h-107zM150 227v-155q158 -90 333 -90q161 0 269 118.5t108 276.5v989h-149v-981q0 -105 -70.5 -182.5t-171.5 -77.5q-171 0 -319 102z" />
    <glyph glyph-name="jcircumflex" unicode="&#x135;" horiz-adv-x="663" 
d="M252 1358h90l184 -256h-106l-123 180l-123 -180h-106zM217 1006v-1110q0 -183 -139 -183q-35 0 -92 11v-113q46 -6 92 -6q284 0 284 282v1119h-145z" />
    <glyph glyph-name="uni0136" unicode="&#x136;" horiz-adv-x="1267" 
d="M291 670l670 696h198l-500 -528l543 -838h-178l-471 729l-262 -262v-467h-152v1366h152v-696zM532 -473l41 143q-34 7 -53.5 33.5t-19.5 63.5q0 41 27.5 69.5t68.5 28.5q43 0 71.5 -28.5t28.5 -69.5q0 -19 -18.5 -58t-95.5 -182h-50z" />
    <glyph glyph-name="uni0137" unicode="&#x137;" horiz-adv-x="1177" 
d="M283 1364v-838l594 482h200l-475 -394l508 -614h-174l-436 526l-217 -174v-352h-144v1364h144zM457 -473l41 143q-34 8 -55 34.5t-21 62.5q0 41 28.5 69.5t69.5 28.5q42 0 70 -28t28 -70q0 -20 -18.5 -61t-93.5 -179h-49z" />
    <glyph glyph-name="Lacute" unicode="&#x139;" horiz-adv-x="1124" 
d="M168 1464l90 258h127l-129 -258h-88zM139 1366v-1366h908v135h-756v1231h-152z" />
    <glyph glyph-name="lacute" unicode="&#x13a;" horiz-adv-x="522" 
d="M168 1464l90 258h127l-129 -258h-88zM139 0h146v1364h-146v-1364z" />
    <glyph glyph-name="uni013B" unicode="&#x13b;" horiz-adv-x="1124" 
d="M1047 135v-135h-908v1366h152v-1231h756zM502 -473l41 143q-34 8 -54 34t-20 63q0 41 27.5 69.5t68.5 28.5q43 0 71 -28.5t28 -69.5q0 -19 -18.5 -59t-94.5 -181h-49z" />
    <glyph glyph-name="uni013C" unicode="&#x13c;" horiz-adv-x="454" 
d="M299 0h-145v1364h145v-1364zM162 -473l41 143q-34 8 -55 34.5t-21 62.5q0 41 28.5 69.5t69.5 28.5q43 0 71 -28.5t28 -69.5q0 -19 -18.5 -59t-94.5 -181h-49z" />
    <glyph glyph-name="Lcaron" unicode="&#x13d;" horiz-adv-x="1277" 
d="M369 1540l123 182h104l-184 -258h-88l-185 258h105zM1200 135v-135h-907v1366h151v-1231h756z" />
    <glyph glyph-name="lcaron" unicode="&#x13e;" horiz-adv-x="765" 
d="M485 1028l41 143q-34 8 -54.5 34t-20.5 63q0 41 28.5 69.5t69.5 28.5t69.5 -28.5t28.5 -69.5q0 -20 -18.5 -61t-93.5 -179h-50zM285 0h-146v1364h146v-1364z" />
    <glyph glyph-name="Ldot" unicode="&#x13f;" horiz-adv-x="1126" 
d="M1047 135v-135h-908v1366h152v-1231h756zM850 516q0 43 27.5 70.5t68.5 27.5q43 0 70.5 -27.5t27.5 -70.5q0 -42 -28 -70t-70 -28q-41 0 -68.5 28.5t-27.5 69.5z" />
    <glyph glyph-name="ldot" unicode="&#x140;" horiz-adv-x="708" 
d="M285 0h-146v1364h146v-1364zM393 516q0 42 28.5 71t70.5 29q41 0 69.5 -28.5t28.5 -71.5q0 -41 -28.5 -68.5t-69.5 -27.5q-42 0 -70.5 27.5t-28.5 68.5z" />
    <glyph glyph-name="Lslash" unicode="&#x141;" horiz-adv-x="1124" 
d="M1047 135v-135h-908v524l-170 -75v102l170 78v737h152v-676l459 215v-102l-459 -217v-451h756z" />
    <glyph glyph-name="lslash" unicode="&#x142;" horiz-adv-x="421" 
d="M139 612v752h146v-692l137 61v-102l-137 -64v-567h-146v508l-135 -59v102z" />
    <glyph glyph-name="Nacute" unicode="&#x143;" horiz-adv-x="1325" 
d="M596 1464l92 258h125l-129 -258h-88zM139 0h150v1098l776 -1098h121v1366h-152v-1096l-778 1096h-117v-1366z" />
    <glyph glyph-name="nacute" unicode="&#x144;" horiz-adv-x="1220" 
d="M500 1108l92 258h125l-129 -258h-88zM129 1006v-1006h145v762q127 145 314 145q165 0 261.5 -114t96.5 -289v-504h146v504q0 147 -60 265t-175.5 187.5t-268.5 69.5q-84 0 -166.5 -35.5t-147.5 -99.5v115h-145z" />
    <glyph glyph-name="uni0145" unicode="&#x145;" horiz-adv-x="1325" 
d="M1034 270v1096h152v-1366h-119l-778 1098v-1098h-150v1366h117zM623 -473l43 143q-34 8 -55 34.5t-21 62.5q0 41 28.5 69.5t69.5 28.5t69.5 -28.5t28.5 -69.5q0 -20 -19 -61t-95 -179h-49z" />
    <glyph glyph-name="uni0146" unicode="&#x146;" horiz-adv-x="1220" 
d="M274 1006v-115q65 64 147.5 99.5t166.5 35.5q153 0 268.5 -69.5t175.5 -187.5t60 -265v-504h-146v504q0 175 -96.5 289t-261.5 114q-187 0 -314 -145v-762h-145v1006h145zM522 -473l43 143q-34 8 -55 34.5t-21 62.5q0 41 29 69.5t70 28.5t69.5 -28.5t28.5 -69.5
q0 -19 -19 -59.5t-96 -180.5h-49z" />
    <glyph glyph-name="Ncaron" unicode="&#x147;" horiz-adv-x="1325" 
d="M664 1534l120 182h107l-184 -256h-91l-184 256h107zM1034 270v1096h152v-1366h-119l-778 1096v-1096h-150v1366h117z" />
    <glyph glyph-name="ncaron" unicode="&#x148;" horiz-adv-x="1220" 
d="M584 1176l123 182h104l-184 -256h-88l-185 256h105zM274 1006v-115q65 64 147.5 99.5t166.5 35.5q153 0 268.5 -69.5t175.5 -187.5t60 -265v-504h-146v504q0 175 -96.5 289t-261.5 114q-187 0 -314 -145v-762h-145v1006h145z" />
    <glyph glyph-name="napostrophe" unicode="&#x149;" horiz-adv-x="1507" 
d="M152 1028l43 143q-34 8 -55 34.5t-21 62.5q0 41 28.5 69.5t69.5 28.5t69.5 -28.5t28.5 -69.5q0 -20 -19 -61t-95 -179h-49zM414 1006v-1006h145v762q130 145 315 145q165 0 262 -114t97 -289v-504h145v504q0 225 -138 373.5t-366 148.5q-174 0 -315 -135v115h-145z" />
    <glyph glyph-name="Omacron" unicode="&#x14c;" horiz-adv-x="1619" 
d="M1069 1597v-88h-518v88h518zM813 1384q145 0 276.5 -55.5t226.5 -149.5t151.5 -224t56.5 -273t-56.5 -272.5t-151.5 -223t-226.5 -149t-276.5 -55.5q-146 0 -278.5 55.5t-228 149t-152 223t-56.5 272.5t56.5 273t152 224t228 149.5t278.5 55.5zM813 1239
q-153 0 -282.5 -74.5t-205 -203t-75.5 -279.5t75.5 -279.5t205 -203t282.5 -74.5q113 0 216 44t178 119t119 178t44 216t-44 216t-119 178t-178 119t-216 44z" />
    <glyph glyph-name="omacron" unicode="&#x14d;" horiz-adv-x="1257" 
d="M893 1243v-88h-518v88h518zM627 1028q111 0 211.5 -41.5t173 -112t115 -167t42.5 -203.5t-42.5 -203.5t-115 -166.5t-173 -111t-211.5 -41q-147 0 -271 69.5t-196 190t-72 262.5t72 263t196 191t271 70zM627 897q-163 0 -278.5 -115t-115.5 -278t115.5 -278t278.5 -115
q164 0 280.5 115t116.5 278t-116.5 278t-280.5 115z" />
    <glyph glyph-name="Obreve" unicode="&#x14e;" horiz-adv-x="1619" 
d="M967 1640h82q0 -71 -70 -123.5t-164 -52.5q-95 0 -166 52.5t-71 123.5h81q0 -46 46.5 -79t109.5 -33q67 0 109.5 33t42.5 79zM813 1384q145 0 276.5 -55.5t226.5 -149.5t151.5 -224t56.5 -273t-56.5 -272.5t-151.5 -223t-226.5 -149t-276.5 -55.5q-146 0 -278.5 55.5
t-228 149t-152 223t-56.5 272.5t56.5 273t152 224t228 149.5t278.5 55.5zM813 1239q-153 0 -282.5 -74.5t-205 -203t-75.5 -279.5t75.5 -279.5t205 -203t282.5 -74.5q114 0 217 44t177.5 119t118.5 178t44 216t-44 216t-118.5 178t-177.5 119t-217 44z" />
    <glyph glyph-name="obreve" unicode="&#x14f;" horiz-adv-x="1257" 
d="M784 1307h82q0 -72 -69.5 -125.5t-163.5 -53.5q-95 0 -166.5 53.5t-71.5 125.5h82q0 -47 46 -80t110 -33q67 0 109 33t42 80zM627 1028q111 0 211.5 -41.5t173 -112t115 -167t42.5 -203.5t-42.5 -203.5t-115 -166.5t-173 -111t-211.5 -41q-147 0 -271 69.5t-196 190
t-72 262.5t72 263t196 191t271 70zM627 897q-162 0 -278 -115.5t-116 -277.5t116 -277.5t278 -115.5q164 0 280.5 115t116.5 278t-116.5 278t-280.5 115z" />
    <glyph glyph-name="Ohungarumlaut" unicode="&#x150;" horiz-adv-x="1619" 
d="M741 1724h125l-129 -258h-88zM950 1724h127l-129 -258h-88zM813 1384q-146 0 -278.5 -55.5t-228 -149.5t-152 -224t-56.5 -273t56.5 -272.5t152 -223t228 -149t278.5 -55.5q145 0 276.5 55.5t226.5 149t151.5 223t56.5 272.5t-56.5 273t-151.5 224t-226.5 149.5
t-276.5 55.5zM813 1239q113 0 216 -44t178 -119t119 -178t44 -216t-44 -216t-119 -178t-178 -119t-216 -44q-153 0 -282.5 74.5t-205 203t-75.5 279.5t75.5 279.5t205 203t282.5 74.5z" />
    <glyph glyph-name="ohungarumlaut" unicode="&#x151;" horiz-adv-x="1257" 
d="M569 1366h127l-129 -258h-88zM780 1366h125l-129 -258h-88zM627 1028q-147 0 -271 -70t-196 -191t-72 -263t72 -262.5t196 -190t271 -69.5q111 0 211.5 41t173 111t115 166.5t42.5 203.5t-42.5 203.5t-115 167t-173 112t-211.5 41.5zM627 897q164 0 280.5 -115
t116.5 -278t-116.5 -278t-280.5 -115q-163 0 -278.5 115t-115.5 278t115.5 278t278.5 115z" />
    <glyph glyph-name="OE" unicode="&#x152;" horiz-adv-x="2422" 
d="M1370 0v317q-76 -150 -226.5 -242.5t-330.5 -92.5q-146 0 -278.5 55.5t-228 149t-152 223t-56.5 272.5t56.5 273t152 224t228 149.5t278.5 55.5q181 0 331.5 -93t225.5 -244v319h957v-135h-803v-461h774v-143h-774v-498h803v-129h-957zM813 1239q-153 0 -282.5 -74.5
t-205 -203t-75.5 -279.5t75.5 -279.5t205 -203t282.5 -74.5q113 0 216 44t178 119t119 178t44 216t-44 216t-119 178t-178 119t-216 44z" />
    <glyph glyph-name="oe" unicode="&#x153;" horiz-adv-x="2160" 
d="M627 1028q146 0 269.5 -69.5t195.5 -186.5q69 118 188.5 186t267.5 68q146 0 268 -79.5t187 -205t57 -260.5h-891q0 -4 -1 -13t-1 -13q12 -155 130 -255t294 -100q240 0 424 144v-121q-73 -62 -191 -100.5t-241 -38.5q-159 0 -286.5 69t-198.5 191q-72 -120 -196.5 -191
t-274.5 -71q-147 0 -271 69.5t-196 190t-72 262.5t72 263t196 191t271 70zM627 897q-163 0 -278.5 -115t-115.5 -278t115.5 -278t278.5 -115q164 0 280.5 115t116.5 278t-116.5 278t-280.5 115zM1171 592h752q-9 131 -118.5 223t-256.5 92q-153 0 -260.5 -90.5
t-116.5 -224.5z" />
    <glyph glyph-name="Racute" unicode="&#x154;" horiz-adv-x="1226" 
d="M473 1464l90 258h127l-129 -258h-88zM139 0h152v551h334l333 -551h170l-346 565q146 27 239 129.5t93 253.5q0 192 -116 305t-293 113h-566v-1366zM291 1229h379q127 0 209 -75t82 -206q0 -121 -83.5 -193.5t-207.5 -72.5h-379v547z" />
    <glyph glyph-name="racute" unicode="&#x155;" horiz-adv-x="759" 
d="M299 1108l90 258h127l-129 -258h-88zM129 0h145v768q61 67 143.5 103t168.5 36q61 0 116 -8v119q-55 8 -114 8q-84 0 -166.5 -34.5t-147.5 -96.5v113h-145v-1008z" />
    <glyph glyph-name="uni0156" unicode="&#x156;" horiz-adv-x="1226" 
d="M139 1366h566q177 0 293 -113t116 -305q0 -151 -93 -253.5t-239 -129.5l346 -565h-170l-333 553h-334v-553h-152v1366zM291 684h379q124 0 207.5 71.5t83.5 192.5q0 131 -82 206t-209 75h-379v-545zM489 -473l41 143q-34 8 -54.5 34t-20.5 63q0 41 28.5 69.5t69.5 28.5
q42 0 70 -28t28 -70q0 -20 -18.5 -61t-93.5 -179h-50z" />
    <glyph glyph-name="uni0157" unicode="&#x157;" horiz-adv-x="774" 
d="M289 1008v-113q65 62 147 96.5t166 34.5q60 0 115 -8v-119q-55 8 -117 8q-86 0 -168 -36t-143 -103v-768h-146v1008h146zM147 -473l43 143q-34 8 -54.5 34t-20.5 63q0 41 28 69.5t68 28.5q43 0 71.5 -28.5t28.5 -69.5q0 -20 -19 -61t-95 -179h-50z" />
    <glyph glyph-name="Rcaron" unicode="&#x158;" horiz-adv-x="1226" 
d="M543 1534l121 182h106l-184 -256h-90l-185 256h107zM139 1366h566q177 0 293 -113t116 -305q0 -151 -93 -253.5t-239 -129.5l346 -565h-170l-333 553h-334v-553h-152v1366zM291 684h379q124 0 207.5 71.5t83.5 192.5q0 131 -82 206t-209 75h-379v-545z" />
    <glyph glyph-name="rcaron" unicode="&#x159;" horiz-adv-x="759" 
d="M375 1176l123 182h104l-184 -256h-88l-185 256h105zM274 1008v-113q65 62 147.5 96.5t166.5 34.5q59 0 114 -8v-119q-55 8 -116 8q-86 0 -168.5 -36t-143.5 -103v-768h-145v1008h145z" />
    <glyph glyph-name="Sacute" unicode="&#x15a;" horiz-adv-x="1230" 
d="M547 1464l92 258h125l-129 -258h-88zM145 313v-159q96 -85 226.5 -128.5t263.5 -43.5q95 0 183 23.5t162 69.5t118.5 123t44.5 175q0 66 -20 119.5t-58 91t-82.5 65t-106 47.5t-114.5 33.5t-120 28.5q-9 1 -13.5 2.5t-11.5 3t-13 2.5q-60 14 -100.5 25t-86.5 30t-73 40.5
t-45 54.5t-18 73q0 67 31 118.5t82 81t110 44t123 14.5q121 0 244.5 -49t211.5 -139v160q-91 81 -211.5 123t-244.5 42q-92 0 -177 -24.5t-155.5 -70.5t-113 -122t-42.5 -170q0 -78 32.5 -137.5t81.5 -94.5t122.5 -64t139 -44.5t149.5 -36.5t135 -40q93 -34 143.5 -81
t50.5 -118q0 -67 -31.5 -119.5t-83.5 -82.5t-112.5 -45t-124.5 -15q-134 0 -269.5 50t-226.5 144z" />
    <glyph glyph-name="sacute" unicode="&#x15b;" horiz-adv-x="1017" 
d="M424 1108l92 258h125l-129 -258h-88zM125 244v-142q76 -59 180.5 -89.5t208.5 -30.5q58 0 115 9.5t112.5 31.5t97 55t67.5 83.5t26 112.5q0 60 -26.5 106t-66 73.5t-99.5 50t-112 34t-119.5 27.5t-107.5 29q-145 48 -145 131q0 61 40 103t95 58.5t117 16.5
q96 0 196.5 -36.5t172.5 -100.5v141q-74 58 -172 88.5t-195 30.5q-71 0 -138.5 -17t-125 -50t-92.5 -90t-35 -130q0 -44 13.5 -80.5t34.5 -62t54.5 -47t66 -35t77.5 -26t80.5 -20t83 -18t77.5 -18.5q83 -21 127.5 -53.5t44.5 -89.5q0 -49 -24.5 -86.5t-65 -58t-84.5 -30.5
t-90 -10q-103 0 -210 37t-179 103z" />
    <glyph glyph-name="Scircumflex" unicode="&#x15c;" horiz-adv-x="1230" 
d="M612 1722h88l185 -258h-105l-123 183l-125 -183h-104zM145 313v-159q96 -85 226.5 -128.5t263.5 -43.5q95 0 183 23.5t162 69.5t118.5 123t44.5 175q0 66 -20 119.5t-58 91t-82.5 65t-106 47.5t-114.5 33.5t-120 28.5q-9 1 -13.5 2.5t-11.5 3t-13 2.5q-60 14 -100.5 25
t-86.5 30t-73 40.5t-45 54.5t-18 73q0 67 31 118.5t82 81t110 44t123 14.5q121 0 244.5 -49t211.5 -139v160q-91 81 -211.5 123t-244.5 42q-92 0 -177 -24.5t-155.5 -70.5t-113 -122t-42.5 -170q0 -78 32.5 -137.5t81.5 -94.5t122.5 -64t139 -44.5t149.5 -36.5t135 -40
q93 -34 143.5 -81t50.5 -118q0 -67 -31.5 -119.5t-83.5 -82.5t-112.5 -45t-124.5 -15q-134 0 -269.5 50t-226.5 144z" />
    <glyph glyph-name="scircumflex" unicode="&#x15d;" horiz-adv-x="1017" 
d="M473 1358h90l185 -256h-107l-123 180l-123 -180h-106zM125 244v-142q76 -59 180.5 -89.5t208.5 -30.5q58 0 115 9.5t112.5 31.5t97 55t67.5 83.5t26 112.5q0 60 -26.5 106t-66 73.5t-99.5 50t-112 34t-119.5 27.5t-107.5 29q-145 48 -145 131q0 61 40 103t95 58.5
t117 16.5q96 0 196.5 -36.5t172.5 -100.5v141q-74 58 -172 88.5t-195 30.5q-71 0 -138.5 -17t-125 -50t-92.5 -90t-35 -130q0 -44 13.5 -80.5t34.5 -62t54.5 -47t66 -35t77.5 -26t80.5 -20t83 -18t77.5 -18.5q83 -21 127.5 -53.5t44.5 -89.5q0 -49 -24.5 -86.5t-65 -58
t-84.5 -30.5t-90 -10q-103 0 -210 37t-179 103z" />
    <glyph glyph-name="Scedilla" unicode="&#x15e;" horiz-adv-x="1230" 
d="M666 -18l-50 -68q68 16 130.5 -16t62.5 -99q0 -65 -52 -99t-124 -34q-78 0 -133 31v63q56 -34 133 -34q48 0 75 21t27 54q0 38 -37 58t-81.5 17.5t-67.5 -21.5v47l57 80q-127 5 -249 48.5t-212 123.5v159q91 -94 226.5 -144t269.5 -50q64 0 124.5 15t112.5 45t83.5 82.5
t31.5 119.5q0 71 -50.5 118t-143.5 81q-51 19 -135 40t-149.5 36.5t-139 44.5t-122.5 64t-81.5 94.5t-32.5 137.5q0 94 42.5 170t112.5 122t155 70.5t176 24.5q124 0 245.5 -42t212.5 -123v-160q-88 90 -212 139t-246 49q-63 0 -122 -14.5t-109.5 -44t-81.5 -81t-31 -118.5
q0 -40 18 -73t45 -54.5t73 -40.5t86.5 -30t100.5 -25q195 -43 260 -66q196 -66 253 -193q26 -59 26 -134q0 -76 -27 -140t-73 -108.5t-107.5 -76t-129 -47.5t-140.5 -19z" />
    <glyph glyph-name="scedilla" unicode="&#x15f;" horiz-adv-x="1017" 
d="M545 -18l-49 -68q68 16 130 -16t62 -99q0 -65 -52 -99t-124 -34q-78 0 -133 31v63q56 -34 133 -34q48 0 75 21t27 54q0 38 -37.5 58t-82 17.5t-68.5 -21.5v47l59 80q-219 11 -360 120v142q72 -66 179 -103t210 -37q46 0 90 10t84.5 30.5t65 58t24.5 86.5q0 57 -45 89.5
t-127 53.5q-35 10 -103.5 25t-112.5 25.5t-100.5 33t-90 49t-57 71.5t-23.5 103q0 73 35 130t92.5 90t125 50t138.5 17q97 0 195 -30.5t172 -88.5v-141q-71 65 -171.5 101t-197.5 36q-62 0 -117 -16.5t-95 -58.5t-40 -103q0 -83 145 -131q40 -13 107.5 -29t119.5 -27.5
t112 -34t99.5 -50t66 -73.5t26.5 -106q0 -73 -34.5 -130t-92.5 -90t-123 -50.5t-137 -21.5z" />
    <glyph glyph-name="Scaron" unicode="&#x160;" horiz-adv-x="1230" 
d="M657 1534l123 182h105l-185 -256h-88l-184 256h104zM145 154v159q91 -94 226.5 -144t269.5 -50q64 0 124.5 15t112.5 45t83.5 82.5t31.5 119.5q0 71 -50.5 118t-143.5 81q-51 19 -135 40t-149.5 36.5t-139 44.5t-122.5 64t-81.5 94.5t-32.5 137.5q0 94 42.5 170
t112.5 122t155 70.5t176 24.5q124 0 245.5 -42t212.5 -123v-160q-88 90 -212 139t-246 49q-63 0 -122 -14.5t-109.5 -44t-81.5 -81t-31 -118.5q0 -40 18 -73t45 -54.5t73 -40.5t86.5 -30t100.5 -25q195 -43 260 -66q196 -66 253 -193q26 -59 26 -134q0 -98 -44.5 -175
t-118.5 -123t-162 -69.5t-183 -23.5q-133 0 -263.5 43.5t-226.5 128.5z" />
    <glyph glyph-name="scaron" unicode="&#x161;" horiz-adv-x="1017" 
d="M506 1176l121 182h106l-184 -256h-90l-185 256h107zM125 102v142q72 -66 179 -103t210 -37q46 0 90 10t84.5 30.5t65 58t24.5 86.5q0 57 -44.5 89.5t-127.5 53.5q-35 10 -103.5 25t-112.5 25.5t-100.5 33t-90 49t-57 71.5t-23.5 103q0 73 35 130t92.5 90t125 50t138.5 17
q97 0 195 -30.5t172 -88.5v-141q-71 65 -171.5 101t-197.5 36q-62 0 -117 -16.5t-95 -58.5t-40 -103q0 -83 145 -131q40 -13 107.5 -29t119.5 -27.5t112 -34t99.5 -50t66 -73.5t26.5 -106q0 -62 -26 -112.5t-67.5 -83.5t-97 -55t-112.5 -31.5t-115 -9.5q-104 0 -208.5 30.5
t-180.5 89.5z" />
    <glyph glyph-name="uni0162" unicode="&#x162;" horiz-adv-x="1130" 
d="M1042 1366v-137h-401v-1229h-152v1229h-401v137h954zM502 -473l41 143q-34 8 -55 34.5t-21 62.5q0 41 28.5 69.5t69.5 28.5q43 0 71 -28.5t28 -69.5q0 -19 -18.5 -59t-94.5 -181h-49z" />
    <glyph glyph-name="uni0163" unicode="&#x163;" horiz-adv-x="647" 
d="M195 1008v356h145v-356h242v-111h-242v-614q0 -181 139 -181q18 0 92 9v-111q-55 -6 -106 -6q-270 0 -270 289v614h-127v111h127zM295 -473l41 143q-34 8 -55 34.5t-21 62.5q0 41 28.5 69.5t69.5 28.5q42 0 70.5 -28.5t28.5 -69.5q0 -19 -18.5 -59t-94.5 -181h-49z" />
    <glyph glyph-name="Tcaron" unicode="&#x164;" horiz-adv-x="1130" 
d="M565 1534l123 182h105l-185 -256h-88l-184 256h104zM1042 1366v-137h-401v-1229h-152v1229h-401v137h954z" />
    <glyph glyph-name="tcaron" unicode="&#x165;" horiz-adv-x="1015" 
d="M733 1028l43 143q-35 7 -55.5 33.5t-20.5 63.5q0 41 28 69.5t69 28.5q43 0 71.5 -28.5t28.5 -69.5q0 -19 -19 -59.5t-96 -180.5h-49zM195 1008v356h145v-356h242v-111h-242v-614q0 -181 139 -181q18 0 92 9v-111q-55 -6 -106 -6q-270 0 -270 289v614h-127v111h127z" />
    <glyph glyph-name="Tbar" unicode="&#x166;" horiz-adv-x="1130" 
d="M489 1006v223h-401v137h954v-137h-401v-223h344v-103h-344v-903h-152v903h-331v103h331z" />
    <glyph glyph-name="tbar" unicode="&#x167;" horiz-adv-x="649" 
d="M195 1008v356h145v-356h242v-111h-242v-129h242v-104h-242v-381q0 -181 139 -181q18 0 92 9v-111q-55 -6 -106 -6q-270 0 -270 289v381h-123v104h123v129h-127v111h127z" />
    <glyph glyph-name="Utilde" unicode="&#x168;" horiz-adv-x="1327" 
d="M893 1630v-110q-28 -29 -60 -38t-63.5 -2t-65 21t-67.5 27t-67.5 19t-69.5 -5t-68 -43v103q45 36 101.5 37.5t106.5 -16.5t97.5 -35t89 -10t66.5 52zM1188 1366v-899q0 -148 -74 -260.5t-192 -168.5t-258 -56q-105 0 -199.5 33t-167.5 93.5t-115.5 153.5t-42.5 205v899
h152v-899q0 -159 108 -250.5t265 -91.5q102 0 185.5 38.5t135 117.5t51.5 186v899h152z" />
    <glyph glyph-name="utilde" unicode="&#x169;" horiz-adv-x="1173" 
d="M827 1309v-109q-32 -33 -70.5 -40t-74 6t-77 29t-78.5 28t-80 2.5t-80 -45.5v100q44 36 100 38t106 -16t98 -34.5t89.5 -9.5t66.5 51zM899 0v115q-135 -135 -301 -135q-112 0 -202 39t-148 108t-88.5 160.5t-30.5 199.5v519h145v-519q0 -112 34 -198t108.5 -139.5
t181.5 -53.5q175 0 301 148v762h148v-1006h-148z" />
    <glyph glyph-name="Umacron" unicode="&#x16a;" horiz-adv-x="1327" 
d="M922 1597v-88h-519v88h519zM1188 1366v-899q0 -147 -74 -259.5t-192 -169t-258 -56.5q-141 0 -259.5 56.5t-192 169t-73.5 259.5v899h152v-899q0 -159 108 -250.5t265 -91.5q102 0 185.5 38.5t135 117.5t51.5 186v899h152z" />
    <glyph glyph-name="umacron" unicode="&#x16b;" horiz-adv-x="1173" 
d="M854 1243v-88h-518v88h518zM899 0v115q-138 -135 -301 -135q-112 0 -202 39t-148 108t-88.5 160.5t-30.5 199.5v519h145v-519q0 -112 34 -198t108.5 -139.5t181.5 -53.5q175 0 301 148v762h148v-1006h-148z" />
    <glyph glyph-name="Ubreve" unicode="&#x16c;" horiz-adv-x="1327" 
d="M817 1640h80q0 -70 -69.5 -123t-161.5 -53q-97 0 -168.5 52.5t-71.5 123.5h82q0 -46 46.5 -79t111.5 -33q66 0 108.5 33t42.5 79zM1188 1366v-899q0 -148 -74 -260.5t-192 -168.5t-258 -56q-105 0 -199.5 33t-167.5 93.5t-115.5 153.5t-42.5 205v899h152v-899
q0 -159 108 -250.5t265 -91.5q102 0 185.5 38.5t135 117.5t51.5 186v899h152z" />
    <glyph glyph-name="ubreve" unicode="&#x16d;" horiz-adv-x="1173" 
d="M743 1307h82q0 -72 -69.5 -125.5t-163.5 -53.5q-95 0 -166.5 53.5t-71.5 125.5h82q0 -47 46 -80t110 -33q67 0 109 33t42 80zM899 0v115q-135 -135 -301 -135q-112 0 -202 39t-148 108t-88.5 160.5t-30.5 199.5v519h145v-519q0 -112 34 -198t108.5 -139.5t181.5 -53.5
q175 0 301 148v762h148v-1006h-148z" />
    <glyph glyph-name="Uring" unicode="&#x16e;" horiz-adv-x="1327" 
d="M662 1794q75 0 126.5 -52.5t51.5 -125.5q0 -72 -51 -124t-127 -52q-74 0 -124.5 52t-50.5 124q0 73 51 125.5t124 52.5zM664 1720q-44 0 -74.5 -30.5t-30.5 -73.5q0 -41 31 -72t74 -31q41 0 71.5 31t30.5 72q-3 44 -31.5 74t-70.5 30zM1188 1366v-899q0 -147 -74 -259.5
t-192 -169t-258 -56.5q-141 0 -259.5 56.5t-192 169t-73.5 259.5v899h152v-899q0 -159 108 -250.5t265 -91.5q102 0 185.5 38.5t135 117.5t51.5 186v899h152z" />
    <glyph glyph-name="uring" unicode="&#x16f;" horiz-adv-x="1173" 
d="M582 1468q75 0 126.5 -52t51.5 -124q0 -73 -51.5 -125.5t-126.5 -52.5q-74 0 -125 52.5t-51 125.5q0 72 51 124t125 52zM584 1395q-45 0 -75 -30t-30 -73q0 -42 31.5 -73t73.5 -31q41 0 71.5 31.5t30.5 72.5q-3 43 -31.5 73t-70.5 30zM899 0v115q-135 -135 -301 -135
q-112 0 -202 39t-148 108t-88.5 160.5t-30.5 199.5v519h145v-519q0 -112 34 -198t108.5 -139.5t181.5 -53.5q175 0 301 148v762h148v-1006h-148z" />
    <glyph glyph-name="Uhungarumlaut" unicode="&#x170;" horiz-adv-x="1327" 
d="M582 1724h125l-129 -258h-89zM791 1724h127l-130 -258h-88zM1036 1366v-899q0 -107 -51.5 -186t-135 -117.5t-185.5 -38.5q-157 0 -265 91.5t-108 250.5v899h-152v-899q0 -147 73.5 -259.5t192 -169t259.5 -56.5q140 0 258 56.5t192 169t74 259.5v899h-152z" />
    <glyph glyph-name="uhungarumlaut" unicode="&#x171;" horiz-adv-x="1173" 
d="M528 1366h127l-129 -258h-88zM737 1366h127l-129 -258h-88zM1047 0v1006h-148v-762q-126 -148 -301 -148q-107 0 -181.5 53.5t-108.5 139.5t-34 198v519h-145v-519q0 -108 30.5 -199.5t88.5 -160.5t148 -108t202 -39q163 0 301 135v-115h148z" />
    <glyph glyph-name="Uogonek" unicode="&#x172;" horiz-adv-x="1327" 
d="M815 -246v-61q-36 -27 -94 -27q-77 0 -127.5 40.5t-50.5 109.5q0 89 88 166q-134 7 -244.5 65t-179 167.5t-68.5 252.5v899h152v-899q0 -159 108 -250.5t265 -91.5q102 0 185.5 38.5t135 117.5t51.5 186v899h152v-899q0 -143 -70.5 -253.5t-183 -168t-248.5 -63.5
q-82 -82 -82 -162q0 -43 35.5 -68.5t81.5 -25.5q58 0 94 28z" />
    <glyph glyph-name="uogonek" unicode="&#x173;" horiz-adv-x="1214" 
d="M1092 -264v-62q-39 -26 -95 -26q-77 0 -127.5 40.5t-50.5 110.5q0 95 131 201h-51v115q-135 -135 -301 -135q-112 0 -202 39t-148 108t-88.5 160.5t-30.5 199.5v519h145v-488q0 -89 17.5 -162.5t54.5 -133t101.5 -93t150.5 -33.5q175 0 301 148v762h148v-1006
q-56 -15 -111 -74t-55 -123q0 -44 35.5 -70t80.5 -26q56 0 95 29z" />
    <glyph glyph-name="Wcircumflex" unicode="&#x174;" horiz-adv-x="1906" 
d="M907 1722h90l185 -258h-107l-121 183l-125 -183h-106zM897 1366l-371 -1102l-319 1102h-170l409 -1366h132l378 1096l387 -1096h132l397 1366h-170l-305 -1100l-385 1100h-115z" />
    <glyph glyph-name="wcircumflex" unicode="&#x175;" horiz-adv-x="1560" 
d="M735 1358h88l185 -256h-105l-123 180l-125 -180h-104zM1524 1008h-152l-260 -799l-281 799h-104l-268 -801l-275 801h-147l340 -1008h133l270 772l281 -772h131z" />
    <glyph glyph-name="Ycircumflex" unicode="&#x176;" horiz-adv-x="1159" 
d="M535 1722h88l184 -258h-105l-122 183l-125 -183h-105zM649 0v406l473 960h-164l-383 -801l-374 801h-164l459 -963v-403h153z" />
    <glyph glyph-name="ycircumflex" unicode="&#x177;" horiz-adv-x="1042" 
d="M479 1358h90l185 -256h-107l-123 180l-123 -180h-106zM37 1008l409 -996q-15 -50 -37.5 -95.5t-54 -88t-75 -67.5t-93.5 -25q-36 0 -82 6v-129q44 -8 89 -8q71 -1 135 30t111.5 84t81.5 111t59 123l41 102l385 953h-156l-330 -813l-327 813h-156z" />
    <glyph glyph-name="Ydieresis" unicode="&#x178;" horiz-adv-x="1159" 
d="M371 1575q0 35 24.5 58.5t59.5 23.5t58.5 -23.5t23.5 -58.5t-23.5 -59.5t-58.5 -24.5t-59.5 24.5t-24.5 59.5zM614 1575q0 35 24.5 58.5t59.5 23.5t59.5 -23.5t24.5 -58.5t-24.5 -59.5t-59.5 -24.5t-59.5 24.5t-24.5 59.5zM649 0v406l473 960h-164l-383 -801l-374 801
h-164l459 -963v-403h153z" />
    <glyph glyph-name="Zacute" unicode="&#x179;" horiz-adv-x="1275" 
d="M535 1464l92 258h125l-129 -258h-88zM119 1366v-137h854l-854 -1096v-133h1038v137h-848l848 1096v133h-1038z" />
    <glyph glyph-name="zacute" unicode="&#x17a;" horiz-adv-x="1060" 
d="M459 1108l92 258h125l-129 -258h-88zM121 879h624l-624 -750q0 -21 -1 -64t-1 -65h825v131h-627l627 750v127h-823v-129z" />
    <glyph glyph-name="Zdotaccent" unicode="&#x17b;" horiz-adv-x="1275" 
d="M535 1599q0 43 28.5 72t69.5 29t69.5 -29t28.5 -72q0 -41 -28.5 -68.5t-69.5 -27.5t-69.5 27.5t-28.5 68.5zM119 1366v-137h854l-854 -1096v-133h1038v137h-848l848 1096v133h-1038z" />
    <glyph glyph-name="zdotaccent" unicode="&#x17c;" horiz-adv-x="1060" 
d="M416 1251q0 43 27.5 71t68.5 28q43 0 70.5 -28t27.5 -71q0 -42 -28 -70t-70 -28q-41 0 -68.5 28.5t-27.5 69.5zM121 879h624l-624 -750q0 -21 -1 -64t-1 -65h825v131h-627l627 750v127h-823v-129z" />
    <glyph glyph-name="Zcaron" unicode="&#x17d;" horiz-adv-x="1275" 
d="M645 1534l123 182h104l-184 -256h-88l-184 256h104zM309 137h848v-137h-1038v133l854 1096h-854v137h1038v-133z" />
    <glyph glyph-name="zcaron" unicode="&#x17e;" horiz-adv-x="1060" 
d="M543 1176l123 182h104l-184 -256h-88l-185 256h105zM944 881l-627 -750h627v-131h-825q0 22 1 65t1 64l624 750h-624v129h823v-127z" />
    <glyph glyph-name="longs" unicode="&#x17f;" horiz-adv-x="577" 
d="M164 1008v92q0 282 285 282q45 0 92 -8v-108q-66 8 -92 8q-140 0 -140 -180v-1094h-145v897h-127v111h127z" />
    <glyph glyph-name="florin" unicode="&#x192;" horiz-adv-x="690" 
d="M268 1008v92q0 282 283 282q47 0 94 -8v-108q-66 8 -94 8q-137 0 -137 -182v-84h239v-111h-239v-993q0 -283 -285 -283q-48 0 -92 8v109q62 -8 92 -8q66 0 102.5 41.5t36.5 138.5v987h-129v111h129z" />
    <glyph glyph-name="uni0218" unicode="&#x218;" horiz-adv-x="1230" 
d="M145 154v159q91 -94 226.5 -144t269.5 -50q64 0 124.5 15t112.5 45t83.5 82.5t31.5 119.5q0 71 -50.5 118t-143.5 81q-51 19 -135 40t-149.5 36.5t-139 44.5t-122.5 64t-81.5 94.5t-32.5 137.5q0 94 42.5 170t112.5 122t155 70.5t176 24.5q124 0 245.5 -42t212.5 -123
v-160q-88 90 -212 139t-246 49q-63 0 -122 -14.5t-109.5 -44t-81.5 -81t-31 -118.5q0 -40 18 -73t45 -54.5t73 -40.5t86.5 -30t100.5 -25q195 -43 260 -66q196 -66 253 -193q26 -59 26 -134q0 -98 -44.5 -175t-118.5 -123t-162 -69.5t-183 -23.5q-133 0 -263.5 43.5
t-226.5 128.5zM573 -473l41 143q-34 8 -54.5 34t-20.5 63q0 41 28.5 69.5t69.5 28.5t69.5 -28.5t28.5 -69.5q0 -20 -18.5 -61t-93.5 -179h-50z" />
    <glyph glyph-name="uni0219" unicode="&#x219;" horiz-adv-x="1017" 
d="M125 102v142q72 -66 179 -103t210 -37q46 0 90 10t84.5 30.5t65 58t24.5 86.5q0 57 -44.5 89.5t-127.5 53.5q-35 10 -103.5 25t-112.5 25.5t-100.5 33t-90 49t-57 71.5t-23.5 103q0 73 35 130t92.5 90t125 50t138.5 17q97 0 195 -30.5t172 -88.5v-141q-71 65 -171.5 101
t-197.5 36q-62 0 -117 -16.5t-95 -58.5t-40 -103q0 -83 145 -131q40 -13 107.5 -29t119.5 -27.5t112 -34t99.5 -50t66 -73.5t26.5 -106q0 -62 -26 -112.5t-67.5 -83.5t-97 -55t-112.5 -31.5t-115 -9.5q-104 0 -208.5 30.5t-180.5 89.5zM451 -473l41 143q-34 8 -54 34t-20 63
q0 41 27.5 69.5t68.5 28.5q42 0 70 -28t28 -70q0 -20 -18.5 -61t-93.5 -179h-49z" />
    <glyph glyph-name="dotlessj" unicode="&#x237;" horiz-adv-x="548" 
d="M379 1006v-1119q0 -282 -285 -282q-46 0 -92 6v113q61 -11 92 -11q139 0 139 183v1110h146z" />
    <glyph glyph-name="circumflex" unicode="&#x2c6;" horiz-adv-x="634" 
d="M272 1358h90l185 -256h-107l-123 180l-122 -180h-107z" />
    <glyph glyph-name="caron" unicode="&#x2c7;" horiz-adv-x="634" 
d="M317 1176l123 182h107l-185 -256h-90l-184 256h107z" />
    <glyph glyph-name="uni02C9" unicode="&#x2c9;" horiz-adv-x="694" 
d="M606 1184v-88h-518v88h518z" />
    <glyph glyph-name="breve" unicode="&#x2d8;" horiz-adv-x="645" 
d="M477 1307h80q0 -72 -68.5 -125.5t-162.5 -53.5q-95 0 -166.5 53.5t-71.5 125.5h80q0 -47 46.5 -80t111.5 -33q67 0 109 33t42 80z" />
    <glyph glyph-name="dotaccent" unicode="&#x2d9;" horiz-adv-x="331" 
d="M68 1251q0 43 28 71t70 28t70 -28t28 -71q0 -41 -28.5 -69.5t-69.5 -28.5t-69.5 28.5t-28.5 69.5z" />
    <glyph glyph-name="ring" unicode="&#x2da;" horiz-adv-x="528" 
d="M264 1468q74 0 125 -52t51 -124q0 -73 -50.5 -125.5t-125.5 -52.5t-125.5 52.5t-50.5 125.5q0 72 51 124t125 52zM264 1395q-44 0 -73 -30t-29 -73q0 -42 30 -73t72 -31t73.5 31t31.5 73q-3 43 -32.5 73t-72.5 30z" />
    <glyph glyph-name="ogonek" unicode="&#x2db;" horiz-adv-x="448" 
d="M360 -246v-61q-36 -27 -94 -27q-77 0 -127.5 40.5t-50.5 109.5q0 104 143 211h58q-49 -34 -94 -89.5t-45 -117.5q0 -43 35 -68.5t81 -25.5q58 0 94 28z" />
    <glyph glyph-name="tilde" unicode="&#x2dc;" horiz-adv-x="636" 
d="M549 1309v-109q-32 -33 -71 -40t-74.5 6t-77 29t-78.5 28t-80 2.5t-80 -45.5v100q44 36 100.5 38t106.5 -16t98 -34.5t89.5 -9.5t66.5 51z" />
    <glyph glyph-name="hungarumlaut" unicode="&#x2dd;" horiz-adv-x="602" 
d="M178 1366h127l-129 -258h-88zM389 1366h125l-129 -258h-88z" />
    <glyph glyph-name="Wgrave" unicode="&#x1e80;" horiz-adv-x="1906" 
d="M897 1722l92 -258h-88l-129 258h125zM1397 266l305 1100h170l-397 -1366h-132l-387 1096l-378 -1096h-132l-409 1366h170l319 -1102l371 1102h115z" />
    <glyph glyph-name="wgrave" unicode="&#x1e81;" horiz-adv-x="1560" 
d="M725 1366l92 -258h-88l-129 258h125zM780 772l-270 -772h-133l-340 1008h147l275 -801l268 801h104l281 -799l260 799h152l-332 -1008h-131z" />
    <glyph glyph-name="Wacute" unicode="&#x1e82;" horiz-adv-x="1906" 
d="M913 1464l91 258h126l-129 -258h-88zM897 1366l-371 -1102l-319 1102h-170l409 -1366h132l378 1096l387 -1096h132l397 1366h-170l-305 -1100l-385 1100h-115z" />
    <glyph glyph-name="wacute" unicode="&#x1e83;" horiz-adv-x="1560" 
d="M735 1108l90 258h127l-129 -258h-88zM1524 1008h-152l-260 -799l-281 799h-104l-268 -801l-275 801h-147l340 -1008h133l270 772l281 -772h131z" />
    <glyph glyph-name="Wdieresis" unicode="&#x1e84;" horiz-adv-x="1906" 
d="M752 1575q0 35 24.5 58.5t59.5 23.5t59.5 -23.5t24.5 -58.5t-24.5 -59.5t-59.5 -24.5t-59.5 24.5t-24.5 59.5zM997 1575q0 35 23.5 58.5t58.5 23.5t59.5 -23.5t24.5 -58.5t-24.5 -59.5t-59.5 -24.5t-58.5 24.5t-23.5 59.5zM897 1366l-371 -1102l-319 1102h-170l409 -1366
h132l378 1096l387 -1096h132l395 1366h-168l-305 -1100l-385 1100h-115z" />
    <glyph glyph-name="wdieresis" unicode="&#x1e85;" horiz-adv-x="1560" 
d="M580 1206q0 35 24.5 58.5t59.5 23.5t59.5 -23.5t24.5 -58.5q0 -36 -24 -60t-60 -24t-60 24t-24 60zM825 1206q0 35 23.5 58.5t58.5 23.5t59.5 -23.5t24.5 -58.5q0 -36 -24 -60t-60 -24q-35 0 -58.5 23.5t-23.5 60.5zM1524 1008h-152l-260 -799l-281 799h-104l-268 -801
l-275 801h-147l340 -1008h133l270 772l281 -772h131z" />
    <glyph glyph-name="endash" unicode="&#x2013;" horiz-adv-x="999" 
d="M862 575v-124h-723v124h723z" />
    <glyph glyph-name="emdash" unicode="&#x2014;" horiz-adv-x="1265" 
d="M1128 575v-124h-989v124h989z" />
    <glyph glyph-name="quoteleft" unicode="&#x2018;" horiz-adv-x="464" 
d="M283 1028h-50q-76 138 -95 179t-19 61q0 41 28.5 69.5t69.5 28.5t69.5 -28.5t28.5 -69.5q0 -37 -20.5 -63t-54.5 -34z" />
    <glyph glyph-name="quoteright" unicode="&#x2019;" horiz-adv-x="464" 
d="M182 1028l43 143q-34 8 -54.5 34t-20.5 63q0 41 28.5 69.5t69.5 28.5t69.5 -28.5t28.5 -69.5q0 -19 -19 -59.5t-96 -180.5h-49z" />
    <glyph glyph-name="quotesinglbase" unicode="&#x201a;" horiz-adv-x="464" 
d="M182 -145l43 143q-34 8 -54.5 33.5t-20.5 62.5q0 42 28 70.5t70 28.5t70 -28.5t28 -70.5q0 -19 -18.5 -58.5t-96.5 -180.5h-49z" />
    <glyph glyph-name="quotedblleft" unicode="&#x201c;" horiz-adv-x="718" 
d="M270 1366l-41 -143q34 -8 55 -34.5t21 -62.5q0 -41 -28.5 -69.5t-69.5 -28.5q-42 0 -70 28t-28 70q0 20 18.5 61t93.5 179h49zM547 1366l-43 -143q34 -8 55 -34.5t21 -62.5q0 -41 -29 -69.5t-70 -28.5t-69.5 28.5t-28.5 69.5q0 19 19 59.5t96 180.5h49z" />
    <glyph glyph-name="quotedblright" unicode="&#x201d;" horiz-adv-x="718" 
d="M172 1028l43 143q-35 7 -55.5 33.5t-20.5 63.5q0 41 28 69.5t69 28.5q43 0 71.5 -28.5t28.5 -69.5q0 -19 -18 -56t-97 -184h-49zM446 1028l43 143q-34 8 -54.5 34t-20.5 63q0 41 28.5 69.5t69.5 28.5t69.5 -28.5t28.5 -69.5q0 -20 -19 -61t-95 -179h-50z" />
    <glyph glyph-name="quotedblbase" unicode="&#x201e;" horiz-adv-x="718" 
d="M172 -143l43 143q-35 7 -55.5 33t-20.5 63q0 41 28 70t69 29q42 0 71 -28.5t29 -70.5q0 -18 -17.5 -54t-97.5 -185h-49zM446 -143l43 143q-34 8 -54.5 34t-20.5 62q0 41 28.5 70t69.5 29t69.5 -29t28.5 -70q0 -20 -19 -60t-95 -179h-50z" />
    <glyph glyph-name="dagger" unicode="&#x2020;" horiz-adv-x="520" 
d="M201 -123v1122h-215v105h215v371h118v-371h213v-105h-213v-1122h-118z" />
    <glyph glyph-name="daggerdbl" unicode="&#x2021;" horiz-adv-x="520" 
d="M201 -123v381h-215v104h215v637h-215v105h215v371h118v-371h213v-105h-213v-637h213v-102h-213v-383h-118z" />
    <glyph glyph-name="bullet" unicode="&#x2022;" horiz-adv-x="696" 
d="M139 526q0 88 61.5 149.5t147.5 61.5q88 0 149.5 -61.5t61.5 -149.5q0 -86 -61.5 -147.5t-149.5 -61.5q-86 0 -147.5 61.5t-61.5 147.5z" />
    <glyph glyph-name="ellipsis" unicode="&#x2026;" horiz-adv-x="1011" 
d="M68 98q0 41 28.5 70t69.5 29t69.5 -29t28.5 -70t-28.5 -69.5t-69.5 -28.5t-69.5 28.5t-28.5 69.5zM408 98q0 41 28.5 70t69.5 29t69.5 -29t28.5 -70t-28.5 -69.5t-69.5 -28.5t-69.5 28.5t-28.5 69.5zM748 98q0 41 28.5 70t69.5 29t69.5 -29t28.5 -70t-28.5 -69.5
t-69.5 -28.5t-69.5 28.5t-28.5 69.5z" />
    <glyph glyph-name="perthousand" unicode="&#x2030;" horiz-adv-x="2795" 
d="M580 0h-109l950 1366h107zM487 1362q152 0 251.5 -95.5t99.5 -262.5q0 -168 -99 -263.5t-252 -95.5q-151 0 -249.5 96.5t-98.5 262.5t98.5 262t249.5 96zM487 1274q-109 0 -181.5 -70.5t-72.5 -199.5t72.5 -200t181.5 -71q110 0 181 70t71 201q0 52 -15.5 99.5t-45 86
t-79 61.5t-112.5 23zM1477 717q151 0 250.5 -96t99.5 -263q0 -168 -98.5 -263t-251.5 -95q-151 0 -250 96t-99 262t99 262.5t250 96.5zM2306 717q153 0 251.5 -96t98.5 -263q0 -168 -98 -263t-252 -95q-151 0 -249.5 96t-98.5 262t98.5 262.5t249.5 96.5zM1477 629
q-108 0 -180 -71t-72 -200t71.5 -199.5t180.5 -70.5q111 0 182.5 69.5t71.5 200.5q0 111 -65 191t-189 80zM2306 629q-107 0 -179.5 -71t-72.5 -200t72.5 -199.5t179.5 -70.5q111 0 182.5 69.5t71.5 200.5q0 111 -65 191t-189 80z" />
    <glyph glyph-name="guilsinglleft" unicode="&#x2039;" horiz-adv-x="763" 
d="M563 1008v-148l-317 -346l317 -346v-145l-413 436v110z" />
    <glyph glyph-name="guilsinglright" unicode="&#x203a;" horiz-adv-x="763" 
d="M201 23v145l317 346l-317 346v148l413 -439v-110z" />
    <glyph glyph-name="fraction" unicode="&#x2044;" horiz-adv-x="391" 
d="M-225 0h-107l948 1366h107z" />
    <glyph glyph-name="zerosuperior" unicode="&#x2070;" horiz-adv-x="923" 
d="M461 1468q148 0 246 -112.5t98 -308.5q0 -198 -97 -310t-247 -112q-149 0 -245.5 113t-96.5 309t96.5 308.5t245.5 112.5zM461 1374q-104 0 -175 -87.5t-71 -239.5q0 -154 71 -243t175 -89q105 0 175.5 89t70.5 243q0 84 -25 156t-82.5 121.5t-138.5 49.5z" />
    <glyph glyph-name="foursuperior" unicode="&#x2074;" horiz-adv-x="813" 
d="M539 1468h92v-565h84v-84h-84v-172h-101v172h-462v80zM182 903h348v428z" />
    <glyph glyph-name="fivesuperior" unicode="&#x2075;" horiz-adv-x="772" 
d="M88 1468h526v-84h-446v-245q72 34 164 37q84 1 154.5 -26.5t118.5 -90.5t48 -152q0 -123 -101.5 -196.5t-232.5 -73.5q-122 0 -221 57v97q108 -68 221 -68q57 0 111 20t92.5 63.5t38.5 100.5q0 88 -72 140.5t-163 52.5q-101 0 -197 -51h-41v419z" />
    <glyph glyph-name="sixsuperior" unicode="&#x2076;" horiz-adv-x="837" 
d="M692 1384v-98q-111 94 -254 94q-71 0 -130.5 -49.5t-90.5 -120t-31 -139.5q95 100 246 100q124 0 216.5 -75t92.5 -193q0 -126 -92.5 -202t-222.5 -76q-87 0 -152 34.5t-102.5 94.5t-55.5 131.5t-18 154.5q0 58 12.5 116t39.5 114.5t66 100.5t96.5 70.5t125.5 26.5
q136 0 254 -84zM426 715q92 0 155.5 50.5t63.5 137.5q0 85 -66 139t-153 54q-66 0 -131.5 -27t-106.5 -78q6 -76 32 -136.5t79 -100t127 -39.5z" />
    <glyph glyph-name="sevensuperior" unicode="&#x2077;" horiz-adv-x="688" 
d="M492 1384h-435v84h533v-79l-316 -742h-98z" />
    <glyph glyph-name="eightsuperior" unicode="&#x2078;" horiz-adv-x="755" 
d="M68 883q0 79 47 135t125 80q-49 25 -79 67.5t-30 98.5q0 91 72.5 147.5t173.5 56.5q62 0 118 -23.5t93 -72t37 -112.5q0 -54 -34 -96t-85 -66q82 -25 133 -80t51 -135q-2 -64 -30.5 -114.5t-74 -81t-100.5 -46.5t-114 -16q-125 0 -214 71t-89 187zM373 1130
q66 0 114 32.5t48 92.5q0 58 -47.5 92.5t-110.5 34.5q-64 0 -111 -34t-47 -93q0 -57 46 -91t108 -34zM371 715q57 0 106 17.5t82.5 57.5t34.5 97q0 78 -65 124.5t-152 49.5q-88 0 -152.5 -48t-64.5 -126t62.5 -125t148.5 -47z" />
    <glyph glyph-name="ninesuperior" unicode="&#x2079;" horiz-adv-x="837" 
d="M137 709v98q99 -96 250 -96q76 0 138.5 49.5t93.5 120t30 139.5q-91 -98 -243 -98q-124 0 -216 74.5t-92 191.5q0 128 91.5 204t222.5 76q87 0 152 -34.5t102 -94t55 -131t18 -153.5q0 -73 -22.5 -147t-64.5 -138t-111.5 -104.5t-153.5 -40.5q-151 0 -250 84zM412 1378
q-92 0 -157 -51.5t-65 -138.5q0 -83 67 -137t155 -54q64 0 129.5 26t105.5 77q-8 120 -67 199t-168 79z" />
    <glyph glyph-name="zeroinferior" unicode="&#x2080;" horiz-adv-x="923" 
d="M461 731q148 0 246 -113t98 -309q0 -198 -97 -310t-247 -112q-149 0 -245.5 113t-96.5 309t96.5 309t245.5 113zM461 639q-104 0 -175 -88.5t-71 -241.5t71 -241t175 -88q106 0 176 87.5t70 241.5q0 84 -25 157t-82.5 123t-138.5 50z" />
    <glyph glyph-name="oneinferior" unicode="&#x2081;" horiz-adv-x="481" 
d="M47 553v92l168 74h86v-821h-98v727z" />
    <glyph glyph-name="twoinferior" unicode="&#x2082;" horiz-adv-x="774" 
d="M123 524v105q111 99 268 102q123 2 214 -68t91 -196q0 -43 -34.5 -98.5t-98.5 -117t-116.5 -106t-124.5 -100.5l-74 -59h452v-88h-602v84q12 12 90 71q19 15 64.5 51t77.5 61.5t77 63.5t76 68t60.5 63t45 61t15.5 50q0 83 -63.5 127.5t-147.5 44.5q-72 -2 -144 -32.5
t-126 -86.5z" />
    <glyph glyph-name="threeinferior" unicode="&#x2083;" horiz-adv-x="763" 
d="M475 635h-397v84h530v-72l-291 -248q40 3 78 0q113 -5 181.5 -65t68.5 -184q0 -84 -51.5 -145.5t-125.5 -89.5t-157 -28q-120 0 -221 58v98q106 -70 221 -70q60 0 114 19t91 61t37 99q0 94 -60 139t-165 45q-59 0 -164 -25v62z" />
    <glyph glyph-name="fourinferior" unicode="&#x2084;" horiz-adv-x="813" 
d="M539 719h92v-565h84v-82h-84v-174h-101v174h-462v80zM182 154h348v428z" />
    <glyph glyph-name="fiveinferior" unicode="&#x2085;" horiz-adv-x="772" 
d="M88 719h526v-84h-446v-246q73 37 164 37q84 2 154.5 -25t118.5 -90t48 -153q0 -123 -101.5 -197t-232.5 -74q-120 0 -221 58v96q108 -68 221 -68q57 0 111 20t92.5 64t38.5 101q0 88 -72 140t-163 52q-101 0 -197 -51h-41v420z" />
    <glyph glyph-name="sixinferior" unicode="&#x2086;" horiz-adv-x="837" 
d="M692 649v-100q-113 96 -254 96q-71 0 -130.5 -50t-90.5 -121t-31 -140q93 100 246 100q124 0 216.5 -74.5t92.5 -191.5q0 -127 -92.5 -204t-222.5 -77q-70 0 -126 23t-93 62.5t-62 93.5t-36 113t-11 124q0 58 12.5 116t39.5 114.5t66 100.5t96.5 70.5t125.5 26.5
q69 0 136.5 -23t117.5 -59zM426 -23q92 0 155.5 51.5t63.5 139.5q0 83 -66 136.5t-153 53.5q-66 0 -132 -26.5t-106 -77.5q10 -119 70 -198t168 -79z" />
    <glyph glyph-name="seveninferior" unicode="&#x2087;" horiz-adv-x="688" 
d="M492 635h-435v84h533v-80l-316 -741h-98z" />
    <glyph glyph-name="eightinferior" unicode="&#x2088;" horiz-adv-x="755" 
d="M68 145q0 79 47 135t125 80q-49 25 -79 68t-30 100q0 91 72.5 147t173.5 56q99 -3 173.5 -58t74.5 -149q0 -55 -33.5 -97.5t-85.5 -66.5q82 -25 133 -80t51 -135q-2 -64 -30.5 -114.5t-74 -81t-100.5 -46.5t-114 -16q-125 0 -214 71t-89 187zM373 393q66 0 114 32.5
t48 92.5q0 58 -47.5 93.5t-110.5 35.5q-64 0 -111 -35t-47 -94q0 -56 46 -90.5t108 -34.5zM371 -23q90 0 156 45t67 130q0 78 -65.5 124t-151.5 48q-87 0 -152 -48t-65 -124q0 -80 62.5 -127.5t148.5 -47.5z" />
    <glyph glyph-name="nineinferior" unicode="&#x2089;" horiz-adv-x="837" 
d="M137 -29v101q102 -99 250 -99q76 0 138.5 50t93.5 121t30 141q-93 -101 -243 -101q-124 0 -216 75t-92 194q0 126 91.5 202t222.5 76q70 0 126 -23t93 -62t62 -93t35.5 -112.5t10.5 -123.5q0 -73 -22.5 -147t-64.5 -138t-111.5 -104.5t-153.5 -40.5q-151 0 -250 84z
M412 641q-93 0 -157.5 -50.5t-64.5 -137.5q0 -83 67 -137t155 -54q65 0 130 25.5t105 77.5q-5 76 -30.5 136.5t-78 100t-126.5 39.5z" />
    <glyph glyph-name="franc" unicode="&#x20a3;" horiz-adv-x="1282" 
d="M190 322v1044h955v-135h-803v-461h776v-143h-776v-305h365v-91h-365v-231h-152v231h-153v91h153z" />
    <glyph glyph-name="lira" unicode="&#x20a4;" horiz-adv-x="1327" 
d="M274 547v186h-135v90h135v138q0 117 67.5 212t171 144.5t218.5 50.5q209 0 381 -149v-134q-73 74 -174.5 116t-200.5 40q-55 0 -110.5 -18t-103 -51t-77.5 -88.5t-30 -122.5v-138h465v-90h-465v-186h465v-90h-465v-267q63 10 153 -11.5t171 -49t163 -45t154.5 6
t120.5 99.5v-143q-58 -63 -129.5 -85t-143 -10t-148 37.5t-154.5 50t-152.5 35.5t-151.5 -13.5t-143 -90.5v140q59 50 118 67v279h-135v90h135z" />
    <glyph glyph-name="peseta" unicode="&#x20a7;" horiz-adv-x="2803" 
d="M139 1366h566q177 0 293 -111.5t116 -298.5q0 -180 -118 -291.5t-291 -111.5h-414v-553h-152v1366zM1364 1008v356h145v-356h242v-111h-242v-614q0 -181 140 -181q18 0 92 9v-111q-55 -6 -107 -6q-270 0 -270 289v614h-127v111h127zM291 684h379q124 0 207.5 71.5
t83.5 192.5q0 131 -82 206t-209 75h-379v-545zM1911 102v142q72 -66 179 -103t210 -37q46 0 90 10t84.5 30.5t65 58t24.5 86.5q0 57 -44.5 89.5t-127.5 53.5q-35 10 -103.5 25t-112.5 25.5t-100.5 33t-90 49t-57 71.5t-23.5 103q0 73 35 130t92.5 90t125 50t138.5 17
q97 0 194.5 -30.5t171.5 -88.5v-141q-71 65 -171 101t-197 36q-62 0 -117 -16.5t-95 -58.5t-40 -103q0 -83 145 -131q40 -13 107.5 -29t119.5 -27.5t112 -34t99.5 -50t66 -73.5t26.5 -106q0 -62 -26 -112.5t-67.5 -83.5t-97 -55t-112.5 -31.5t-115 -9.5q-104 0 -208.5 30.5
t-180.5 89.5z" />
    <glyph glyph-name="uni20A8" unicode="&#x20a8;" horiz-adv-x="2232" 
d="M201 1366h565q177 0 293.5 -113t116.5 -305q0 -151 -93 -253.5t-239 -129.5l346 -565h-170l-334 553h-334v-553h-151v1366zM352 684h379q124 0 207.5 71.5t83.5 192.5q0 131 -82 206t-209 75h-379v-545zM1311 102v142q72 -66 179 -103t210 -37q64 0 121 16.5t100 60.5
t43 108q0 57 -44.5 89.5t-127.5 53.5q-35 10 -103.5 25t-112.5 25.5t-100.5 33t-90 49t-57 71.5t-23.5 103q0 73 35 130t92.5 90t125 50t138.5 17q97 0 194.5 -30.5t171.5 -88.5v-141q-71 65 -171 101t-197 36q-61 0 -116 -16.5t-95.5 -58.5t-40.5 -103q0 -83 145 -131
q40 -13 107.5 -29t119.5 -27.5t112 -34t99.5 -50t66 -73.5t26.5 -106q0 -62 -26 -112.5t-67.5 -83.5t-97 -55t-112.5 -31.5t-115 -9.5q-104 0 -208.5 30.5t-180.5 89.5z" />
    <glyph glyph-name="Euro" unicode="&#x20ac;" horiz-adv-x="1382" 
d="M98 586h119q-6 46 -6 96q0 44 6 90h-119v90h135q57 229 237.5 375.5t424.5 146.5q87 0 158.5 -21.5t154.5 -66.5v-139q-80 49 -153 72.5t-160 23.5q-185 0 -322.5 -109.5t-185.5 -283.5h453v-90h-482q-6 -44 -6 -88q0 -50 6 -96h482v-90h-451q51 -171 186.5 -277
t319.5 -106q86 0 158.5 23.5t154.5 72.5v-139q-83 -45 -154.5 -66.5t-158.5 -21.5q-242 0 -421.5 143.5t-237.5 370.5h-138v90z" />
    <glyph glyph-name="trademark" unicode="&#x2122;" horiz-adv-x="1648" 
d="M645 1407v-88h-237v-737h-101v737h-239v88h577zM1432 582v581l-256 -581h-70l-256 581v-581h-98v825h73l316 -688l315 688h76v-825h-100z" />
    <glyph glyph-name="uni2153" unicode="&#x2153;" horiz-adv-x="1652" 
d="M47 1200v92l166 74h88v-821h-98v725zM254 0h-107l949 1366h108zM1362 737h-397v84h532v-71l-293 -248q42 3 78 0q115 -5 183.5 -65t68.5 -185q0 -63 -29.5 -114.5t-78.5 -83t-107.5 -48t-120.5 -16.5q-120 0 -219 57v98q104 -69 219 -69q96 0 170 47t74 131q0 94 -60 139
t-165 45q-65 0 -166 -24v61z" />
    <glyph glyph-name="uni2154" unicode="&#x2154;" horiz-adv-x="2015" 
d="M123 1157v107q111 99 268 102q79 1 147 -27.5t113 -90.5t45 -146q0 -36 -26 -82t-61.5 -87t-91.5 -92t-97.5 -85t-97.5 -78l-74 -57h452v-89h-602v84q24 22 90 72q12 9 49.5 38t58 45.5t59 47.5t62.5 52.5t56.5 51t52.5 52t39.5 47.5t29 46t9.5 38q0 83 -63.5 127.5
t-147.5 44.5q-73 -2 -144.5 -33t-125.5 -88zM616 0h-106l948 1366h109zM1724 737h-397v84h533v-71l-293 -248q42 3 78 0q114 -5 182.5 -65t68.5 -185q0 -63 -29.5 -114.5t-78 -83t-107 -48t-120.5 -16.5q-121 0 -220 57v98q104 -69 220 -69q96 0 169.5 47t73.5 131
q0 182 -225 182q-77 0 -166 -24v63z" />
    <glyph glyph-name="oneeighth" unicode="&#x215b;" horiz-adv-x="1497" 
d="M47 1200v92l166 74h88v-821h-98v725zM223 0h-106l948 1366h106zM807 248q0 79 47.5 135t124.5 80q-49 25 -79 68t-30 100q0 91 73 147t175 56q99 -3 173.5 -58t74.5 -149q0 -55 -34 -98t-87 -66q82 -25 133.5 -80t51.5 -135q-3 -84 -51 -144t-117.5 -87t-149.5 -27
q-126 0 -215.5 71t-89.5 187zM1114 496q66 0 114 32.5t48 92.5q0 58 -47.5 93.5t-110.5 35.5q-64 0 -110.5 -35t-46.5 -94q0 -56 45.5 -90.5t107.5 -34.5zM1112 80q56 0 104.5 17.5t83 58.5t35.5 98q0 78 -65.5 124t-151.5 48q-88 0 -153.5 -48t-65.5 -124q0 -80 63 -127
t150 -47z" />
    <glyph glyph-name="threeeighths" unicode="&#x215c;" horiz-adv-x="1720" 
d="M446 0h-106l948 1366h107zM496 1282h-398v84h531v-72l-291 -247q40 3 78 0q113 -5 181.5 -66t68.5 -184q0 -64 -29.5 -115.5t-78.5 -82.5t-107 -47.5t-119 -16.5q-122 0 -221 57v96q106 -67 221 -67q95 0 168 46.5t73 131.5q0 93 -60 137.5t-165 44.5q-72 0 -164 -25v64z
M1030 248q0 79 47 135t125 80q-49 25 -78.5 68t-29.5 100q0 91 72 147t173 56q100 -3 174 -58t74 -149q0 -56 -33 -98.5t-86 -65.5q82 -25 133.5 -80t51.5 -135q-3 -84 -51 -144t-118 -87t-151 -27q-125 0 -214 71t-89 187zM1335 496q67 0 115.5 32t48.5 93q0 59 -48 94
t-112 35q-62 0 -108.5 -35t-46.5 -94q0 -56 45 -90.5t106 -34.5zM1333 80q91 0 157 44.5t66 129.5q0 79 -64.5 124.5t-152.5 47.5q-86 0 -151.5 -48t-65.5 -124q0 -79 63 -126.5t148 -47.5z" />
    <glyph glyph-name="fiveeighths" unicode="&#x215d;" horiz-adv-x="1720" 
d="M446 0h-106l948 1366h107zM94 1366h527v-84h-445v-246q72 34 164 37q84 1 155 -26.5t119 -90t48 -151.5q0 -83 -51 -146.5t-125.5 -93.5t-157.5 -30q-123 0 -222 57v96q106 -67 222 -67q57 0 111 20t92 63.5t38 100.5q0 88 -72.5 140t-164.5 52q-101 0 -195 -51h-43v420z
M1030 248q0 79 47 135t125 80q-49 25 -78.5 68t-29.5 100q0 91 72 147t173 56q100 -3 174 -58t74 -149q0 -56 -33 -98.5t-86 -65.5q82 -25 133.5 -80t51.5 -135q-3 -84 -51 -144t-118 -87t-151 -27q-125 0 -214 71t-89 187zM1335 496q67 0 115.5 32t48.5 93q0 59 -48 94
t-112 35q-62 0 -108.5 -35t-46.5 -94q0 -56 45 -90.5t106 -34.5zM1333 80q91 0 157 44.5t66 129.5q0 79 -64.5 124.5t-152.5 47.5q-86 0 -151.5 -48t-65.5 -124q0 -79 63 -126.5t148 -47.5z" />
    <glyph glyph-name="seveneighths" unicode="&#x215e;" horiz-adv-x="1581" 
d="M502 1282h-434v84h532v-80l-315 -741h-99zM307 0h-106l948 1366h106zM891 248q0 79 47 135t125 80q-49 25 -79 68t-30 100q0 91 72.5 147t173.5 56q100 -3 174 -58t74 -149q0 -56 -33 -98.5t-86 -65.5q82 -25 133 -80t51 -135q-2 -64 -30 -114.5t-73.5 -81t-100.5 -46.5
t-115 -16q-125 0 -214 71t-89 187zM1196 496q67 0 115.5 32t48.5 93q0 59 -48 94t-112 35q-63 0 -110.5 -35.5t-47.5 -93.5q0 -56 46 -90.5t108 -34.5zM1194 80q91 0 157 44.5t66 129.5q0 79 -64.5 124.5t-152.5 47.5q-87 0 -152 -48t-65 -124q0 -80 62.5 -127t148.5 -47z
" />
    <glyph glyph-name="arrowleft" unicode="&#x2190;" horiz-adv-x="1976" 
d="M801 1352h166l-602 -602h1472v-127h-1472l600 -603h-170l-645 648v32z" />
    <glyph glyph-name="arrowup" unicode="&#x2191;" horiz-adv-x="1630" 
d="M1481 883v-170l-602 602v-1475h-127v1473l-602 -602v166l651 651l33 2z" />
    <glyph glyph-name="arrowright" unicode="&#x2192;" horiz-adv-x="1976" 
d="M1182 20h-170l600 603h-1473v125h1473l-602 604h164l653 -652v-32z" />
    <glyph glyph-name="arrowdown" unicode="&#x2193;" horiz-adv-x="1630" 
d="M150 494v165l602 -602v1473h127v-1475l602 602v-172l-647 -645h-33z" />
    <glyph glyph-name="uni2196" unicode="&#x2196;" horiz-adv-x="1550" 
d="M1100 1249l114 -119h-854l1043 -1042l-90 -88l-1043 1042v-852l-120 115v922l24 22h926z" />
    <glyph glyph-name="uni2197" unicode="&#x2197;" horiz-adv-x="1550" 
d="M1401 305l-121 -115v852l-1042 -1042l-88 88l1042 1042h-854l113 119h925l25 -22v-922z" />
    <glyph glyph-name="uni2198" unicode="&#x2198;" horiz-adv-x="1550" 
d="M451 0l-113 119h854l-1042 1042l88 88l1044 -1042v852l119 -115v-921l-25 -23h-925z" />
    <glyph glyph-name="uni2199" unicode="&#x2199;" horiz-adv-x="1550" 
d="M150 944l120 115v-852l1043 1042l90 -88l-1043 -1042h854l-114 -119h-926l-24 23v921z" />
    <glyph glyph-name="minus" unicode="&#x2212;" horiz-adv-x="1257" 
d="M160 575h938v-124h-938v124z" />
    <glyph glyph-name="uni2215" unicode="&#x2215;" horiz-adv-x="706" 
d="M82 -37h-107l652 1405h106z" />
    <glyph glyph-name="uni2219" unicode="&#x2219;" horiz-adv-x="331" 
d="M68 686q0 42 28 70t70 28t70 -28t28 -70q0 -41 -28.5 -69.5t-69.5 -28.5t-69.5 28.5t-28.5 69.5z" />
    <glyph glyph-name="radical" unicode="&#x221a;" horiz-adv-x="1394" 
d="M379 623h-270v118h374l234 -583l467 1208h153l-528 -1366h-184z" />
    <glyph glyph-name="infinity" unicode="&#x221e;" horiz-adv-x="696" 
d="M139 526q0 88 61.5 149.5t147.5 61.5q88 0 149.5 -61.5t61.5 -149.5q0 -86 -61.5 -147.5t-149.5 -61.5q-86 0 -147.5 61.5t-61.5 147.5z" />
    <glyph glyph-name="integral" unicode="&#x222b;" horiz-adv-x="706" 
d="M270 -90v1190q0 282 283 282q47 0 94 -8v-108q-66 8 -94 8q-137 0 -137 -182v-1188q0 -283 -285 -283q-48 0 -92 8v109q62 -8 92 -8q66 0 102.5 41.5t36.5 138.5z" />
    <glyph glyph-name="approxequal" unicode="&#x2248;" horiz-adv-x="1062" 
d="M924 752v-107q-46 -45 -101.5 -60t-110 -5.5t-113 29t-117.5 37.5t-116 26t-116.5 -10.5t-110.5 -67.5v102q56 44 119.5 58t122.5 4t120 -28.5t118 -36.5t110 -24.5t104 13t91 70.5zM924 469v-107q-46 -45 -101.5 -60t-110 -5.5t-113 29t-117.5 37.5t-116 26
t-116.5 -10.5t-110.5 -67.5v103q56 44 119.5 58t122.5 4t120 -29t118 -37t110 -24.5t104 13t91 70.5z" />
    <glyph glyph-name="notequal" unicode="&#x2260;" horiz-adv-x="966" 
d="M139 444h246l82 172h-328v111h381l96 203h107l-96 -203h200v-111h-254l-81 -172h335v-110h-389l-106 -225h-107l107 225h-193v110z" />
    <glyph glyph-name="lessequal" unicode="&#x2264;" horiz-adv-x="1009" 
d="M809 1106v-131l-541 -289l541 -295v-125l-659 361v118zM911 180v-88h-772v88h772z" />
    <glyph glyph-name="greaterequal" unicode="&#x2265;" horiz-adv-x="1009" 
d="M201 266v125l540 295l-540 289v131l659 -361v-118zM911 180v-88h-772v88h772z" />
    <glyph glyph-name="triagrt" unicode="&#x22b2;" horiz-adv-x="882" 
d="M150 340v692l532 -340v-12z" />
    <glyph glyph-name="uni22B3" unicode="&#x22b3;" horiz-adv-x="882" 
d="M682 1032v-692l-532 340v12z" />
    <glyph glyph-name="triagup" unicode="&#x25b2;" horiz-adv-x="919" 
d="M805 420h-692l340 532h14z" />
    <glyph glyph-name="triagdn" unicode="&#x25bc;" horiz-adv-x="919" 
d="M113 952h692l-338 -532h-14z" />
    <glyph glyph-name="lozenge" unicode="&#x25ca;" horiz-adv-x="958" 
d="M98 684l338 682h86l338 -682l-338 -684h-86zM479 1249l-278 -565l280 -567l277 567z" />
    <glyph glyph-name="rupiah" unicode="&#xf6dd;" horiz-adv-x="2480" 
d="M201 1366h565q177 0 293.5 -113t116.5 -305q0 -151 -93 -253.5t-239 -129.5l346 -565h-170l-334 553h-334v-553h-151v1366zM352 684h379q124 0 207.5 71.5t83.5 192.5q0 131 -82 206t-209 75h-379v-545zM1348 1008h145v-117q63 65 145.5 100t165.5 35q145 -1 269.5 -66.5
t200.5 -186t75 -269.5q1 -149 -75 -269.5t-200.5 -186t-269.5 -66.5q-86 0 -168 30t-143 88q0 -101 -1 -237.5t-1 -239.5h-143v1385zM1493 762v-537q60 -60 142.5 -92.5t168.5 -32.5q165 0 283 114.5t117 289.5q1 172 -117.5 288.5t-282.5 114.5q-86 2 -168 -36t-143 -109z
" />
    <glyph glyph-name="zero.oldstyle" horiz-adv-x="1288" 
d="M643 1026q240 0 383 -145.5t143 -376.5q0 -151 -63 -269.5t-183.5 -186.5t-279.5 -68q-236 0 -380 147t-144 377q0 229 144 375.5t380 146.5zM643 885q-170 0 -272.5 -107.5t-102.5 -273.5t102.5 -273.5t272.5 -107.5q174 0 275.5 106.5t101.5 274.5t-101.5 274.5
t-275.5 106.5z" />
    <glyph glyph-name="one.oldstyle" horiz-adv-x="641" 
d="M319 0v872q-41 -18 -129 -57t-131 -57v123l279 127h133v-1008h-152z" />
    <glyph glyph-name="two.oldstyle" horiz-adv-x="1132" 
d="M109 0v119l262 178q33 23 97 65t103.5 68t90.5 66t80 71.5t50 70.5t21 77q0 53 -31.5 91t-81 56.5t-95.5 26.5t-91 8q-96 0 -196 -34.5t-173 -96.5v137q79 60 181.5 91.5t201.5 31.5q66 0 136.5 -17t138.5 -50.5t111.5 -95t43.5 -140.5q0 -51 -21.5 -101.5t-50 -87.5
t-81.5 -82.5t-89.5 -72t-102.5 -71.5t-95 -66l-168 -121h615v-121h-856z" />
    <glyph glyph-name="three.oldstyle" horiz-adv-x="1069" 
d="M696 887h-628v121h823v-113l-475 -403q83 6 159 0.5t143 -34t116 -72.5t77.5 -116t28.5 -164q-1 -82 -31.5 -151.5t-81.5 -118t-118.5 -82t-142 -49.5t-152.5 -16q-179 0 -324 90v133q147 -102 324 -102q70 0 135.5 18t121 53t89.5 93.5t35 131.5q3 148 -89 223t-251 77
q-117 0 -254 -39v96z" />
    <glyph glyph-name="four.oldstyle" horiz-adv-x="1257" 
d="M1126 100v-120h-141v-320h-151v320h-775v122l789 906h137v-908h141zM834 809l-609 -709h609v709z" />
    <glyph glyph-name="five.oldstyle" horiz-adv-x="1146" 
d="M270 885v-406q119 61 265 64q97 1 186 -28t157.5 -82.5t109 -136t40.5 -181.5q0 -132 -75 -234.5t-191 -154.5t-246 -52q-187 0 -346 93v139q153 -103 346 -103q73 0 143 31q98 31 162 105t64 178q0 97 -55 171t-137.5 110t-176.5 36q-167 0 -303 -84h-63v658h821v-123
h-701z" />
    <glyph glyph-name="six.oldstyle" horiz-adv-x="1298" 
d="M1098 1243v-147q-176 153 -416 153q-77 0 -147 -34.5t-121.5 -91.5t-89 -127.5t-55 -146t-13.5 -144.5q75 88 183 133t233 45q130 0 245.5 -53t189 -155t73.5 -229q0 -106 -42.5 -194.5t-114 -146t-165 -89.5t-196.5 -32q-115 0 -208 38.5t-154.5 103t-103 153.5
t-59.5 186.5t-18 204.5q0 96 20.5 193.5t66 191t110 165.5t159.5 116t207 44q115 0 226.5 -38t189.5 -99zM662 121q101 0 185 37t136.5 112t52.5 176q0 94 -54 169.5t-139 115t-181 39.5q-116 0 -226 -44.5t-176 -135.5q6 -99 32.5 -182t74 -148t123 -102t172.5 -37z" />
    <glyph glyph-name="seven.oldstyle" horiz-adv-x="1024" 
d="M780 877h-727v129h879q0 -20 -1 -62t-1 -63l-522 -1180h-148z" />
    <glyph glyph-name="eight.oldstyle" horiz-adv-x="1232" 
d="M119 397q0 126 84 218.5t215 129.5q-89 36 -143 104.5t-54 164.5q0 95 56 169.5t145.5 113t193.5 38.5q74 -1 144 -23t126 -62t90 -103t34 -139q0 -94 -58 -164t-149 -99q136 -38 223.5 -127.5t87.5 -220.5q-2 -103 -46 -184t-117 -130t-161 -74t-184 -25
q-129 0 -238.5 48.5t-179 144.5t-69.5 220zM608 788q111 0 188.5 55t77.5 156q0 95 -78 153t-182 58t-181 -58t-77 -153q0 -96 75 -153.5t177 -57.5zM606 117q69 1 133 18.5t117.5 51t85.5 89.5t33 127q0 86 -55 153.5t-136.5 100.5t-169.5 33q-143 0 -248.5 -80
t-105.5 -207q0 -87 49.5 -153.5t127.5 -99.5t169 -33z" />
    <glyph glyph-name="nine.oldstyle" horiz-adv-x="1298" 
d="M201 -190v149q180 -156 415 -156q77 0 147 34.5t121 92t88 128.5t54.5 146.5t13.5 143.5q-74 -87 -181.5 -132.5t-233.5 -45.5q-130 0 -245 53t-188 155t-73 230q0 140 73 247t189.5 161.5t255.5 54.5q115 0 208 -38.5t154.5 -103t103 -153.5t59.5 -186.5t18 -204.5
q0 -80 -15 -161.5t-44.5 -161.5t-77 -150t-108 -123t-143 -84t-176.5 -31q-114 0 -225 38t-190 98zM637 934q-156 0 -265.5 -88.5t-109.5 -237.5q0 -141 112 -232t263 -91q114 0 223.5 44.5t177.5 135.5q-5 78 -22 146.5t-49.5 128t-78 102.5t-109.5 67.5t-142 24.5z" />
    <glyph glyph-name="grave.case" horiz-adv-x="393" 
d="M88 1722h127l90 -258h-88z" />
    <glyph glyph-name="dieresis.case" horiz-adv-x="587" 
d="M88 1575q0 35 24.5 58.5t59.5 23.5t58.5 -23.5t23.5 -58.5t-23.5 -59.5t-58.5 -24.5t-59.5 24.5t-24.5 59.5zM332 1575q0 35 24.5 58.5t59.5 23.5t59.5 -23.5t24.5 -58.5t-24.5 -59.5t-59.5 -24.5t-59.5 24.5t-24.5 59.5z" />
    <glyph glyph-name="macron.case" horiz-adv-x="694" 
d="M606 1624v-88h-518v88h518z" />
    <glyph glyph-name="acute.case" horiz-adv-x="393" 
d="M88 1464l90 258h127l-129 -258h-88z" />
    <glyph glyph-name="circumflex.case" horiz-adv-x="634" 
d="M272 1722h90l185 -258h-107l-123 183l-122 -183h-107z" />
    <glyph glyph-name="caron.case" horiz-adv-x="634" 
d="M317 1540l123 182h107l-185 -258h-90l-184 258h107z" />
    <glyph glyph-name="breve.case" horiz-adv-x="645" 
d="M477 1640h80q0 -71 -69 -123.5t-162 -52.5q-95 0 -166.5 53t-71.5 123h80q0 -46 46.5 -79t111.5 -33q67 0 109 33t42 79z" />
    <glyph glyph-name="dotaccent.case" horiz-adv-x="331" 
d="M68 1599q0 43 28.5 72t69.5 29t69.5 -29t28.5 -72q0 -41 -28.5 -68.5t-69.5 -27.5t-69.5 27.5t-28.5 68.5z" />
    <glyph glyph-name="ring.case" horiz-adv-x="528" 
d="M264 1794q74 0 125 -52.5t51 -125.5q0 -72 -50.5 -124t-125.5 -52t-125.5 52t-50.5 124q0 73 51 125.5t125 52.5zM264 1720q-44 0 -73 -30.5t-29 -73.5q0 -42 30 -72.5t72 -30.5q43 0 74 31t31 72q-3 44 -32.5 74t-72.5 30z" />
    <glyph glyph-name="tilde.case" horiz-adv-x="636" 
d="M549 1630v-110q-28 -29 -60.5 -38t-64 -2t-64.5 21t-67.5 27t-67.5 19t-69 -5t-68 -43v103q44 36 100.5 37.5t106.5 -16.5t98 -35t89.5 -10t66.5 52z" />
    <glyph glyph-name="hungarumlaut.case" horiz-adv-x="602" 
d="M178 1722h127l-129 -258h-88zM389 1722h125l-129 -258h-88z" />
    <glyph glyph-name="zero.dnom" horiz-adv-x="923" 
d="M461 834q148 0 246 -113t98 -309q0 -198 -97 -310t-247 -112q-149 0 -245.5 113t-96.5 309t96.5 309t245.5 113zM461 741q-104 0 -175 -88t-71 -241t71 -241.5t175 -88.5q106 0 176 88t70 242q0 84 -25 156.5t-82.5 122.5t-138.5 50z" />
    <glyph glyph-name="one.dnom" horiz-adv-x="481" 
d="M47 655v93l168 73h86v-821h-98v727z" />
    <glyph glyph-name="two.dnom" horiz-adv-x="774" 
d="M123 627v104q112 100 268 103q123 2 214 -68.5t91 -196.5q0 -43 -34.5 -98.5t-98.5 -117t-116.5 -106t-124.5 -100.5l-74 -59h452v-88h-602v84q16 16 90 72l23 20q56 44 87 68t85.5 68.5t86.5 75t66.5 67.5t51 66t16.5 52q0 83 -63.5 127.5t-147.5 44.5
q-73 -2 -144.5 -32t-125.5 -86z" />
    <glyph glyph-name="three.dnom" horiz-adv-x="763" 
d="M475 737h-397v84h530v-71l-291 -248q40 3 78 0q113 -5 181.5 -65t68.5 -185q0 -63 -29.5 -114.5t-78.5 -83t-107 -48t-119 -16.5q-122 0 -221 57v98q104 -69 221 -69q60 0 114 19t91 60.5t37 98.5q0 94 -60 139t-165 45q-63 0 -164 -24v61z" />
    <glyph glyph-name="four.dnom" horiz-adv-x="813" 
d="M539 821h92v-565h84v-82h-84v-174h-101v174h-462v80zM182 256h348v428z" />
    <glyph glyph-name="five.dnom" horiz-adv-x="772" 
d="M88 821h526v-84h-446v-245q71 36 164 36q84 2 154.5 -25t118.5 -90t48 -153q0 -123 -101.5 -196.5t-232.5 -73.5q-122 0 -221 57v96q106 -67 221 -67q42 0 91 18q64 19 107.5 63t43.5 103q0 88 -72 140.5t-163 52.5q-118 0 -224 -56l-14 35v389z" />
    <glyph glyph-name="six.dnom" horiz-adv-x="837" 
d="M692 752v-101q-114 97 -254 97q-71 0 -130.5 -50.5t-90.5 -121.5t-31 -140q94 101 246 101q124 0 216.5 -75t92.5 -192q0 -127 -92.5 -203.5t-222.5 -76.5q-70 0 -126 23t-93 62.5t-62 93.5t-36 113t-11 124q0 58 12.5 116t39.5 114.5t66 100.5t96.5 70.5t125.5 26.5
q69 0 136.5 -23t117.5 -59zM426 80q92 0 155.5 51.5t63.5 138.5q0 83 -66 137t-153 54q-66 0 -131.5 -27t-106.5 -78q6 -76 32 -136.5t79 -100t127 -39.5z" />
    <glyph glyph-name="seven.dnom" horiz-adv-x="688" 
d="M492 737h-435v84h533v-80l-316 -741h-98z" />
    <glyph glyph-name="eight.dnom" horiz-adv-x="755" 
d="M68 248q0 79 47 135t125 80q-49 25 -79 68t-30 100q0 91 72.5 147t173.5 56q99 -3 173.5 -58t74.5 -149q0 -55 -33.5 -97.5t-85.5 -66.5q82 -25 133 -80t51 -135q-2 -64 -30.5 -114.5t-74 -81t-100.5 -46.5t-114 -16q-125 0 -214 71t-89 187zM373 496q66 0 114 32.5
t48 92.5q0 58 -47.5 93.5t-110.5 35.5q-64 0 -111 -35t-47 -94q0 -56 46 -90.5t108 -34.5zM371 80q90 0 156 44.5t67 129.5q0 78 -65.5 124t-151.5 48q-87 0 -152 -48t-65 -124q0 -80 62.5 -127t148.5 -47z" />
    <glyph glyph-name="nine.dnom" horiz-adv-x="837" 
d="M137 76v98q101 -98 250 -98q76 0 138 49.5t93.5 120.5t30.5 141q-92 -100 -243 -100q-124 0 -216 74.5t-92 193.5q0 126 91.5 202.5t222.5 76.5q70 0 126 -23t93 -62t62 -93t35.5 -112.5t10.5 -123.5q0 -73 -22.5 -147t-64.5 -138t-111.5 -104.5t-153.5 -40.5
q-152 0 -250 86zM412 743q-93 0 -157.5 -50.5t-64.5 -137.5q0 -83 66.5 -136.5t155.5 -53.5q65 0 130 25t105 77q-5 76 -30.5 136.5t-78 100t-126.5 39.5z" />
    <glyph glyph-name="zero.numr" horiz-adv-x="923" 
d="M461 1366q148 0 246 -113t98 -309q0 -198 -97 -310t-247 -112q-149 0 -245.5 113t-96.5 309t96.5 309t245.5 113zM461 1272q-104 0 -175 -88t-71 -240q0 -154 71 -243t175 -89q105 0 175.5 89t70.5 243q0 84 -25 156.5t-82.5 122t-138.5 49.5z" />
    <glyph glyph-name="one.numr" horiz-adv-x="481" 
d="M47 1200v92l168 74h86v-821h-98v725z" />
    <glyph glyph-name="two.numr" horiz-adv-x="774" 
d="M123 1157v107q111 99 268 102q79 1 147 -27.5t113 -90.5t45 -146q0 -36 -26 -82t-61.5 -87t-91.5 -92t-97.5 -85t-97.5 -78l-74 -57h452v-89h-602v84q24 22 90 72q12 9 49.5 38t58 45.5t59 47.5t62.5 52.5t56.5 51t52.5 52t39.5 47.5t29 46t9.5 38q0 83 -63.5 127.5
t-147.5 44.5q-73 -2 -144.5 -33t-125.5 -88z" />
    <glyph glyph-name="three.numr" horiz-adv-x="763" 
d="M475 1282h-397v84h530v-72l-291 -247q40 3 78 0q113 -5 181.5 -66t68.5 -184q0 -64 -29.5 -115.5t-78.5 -82.5t-107 -47.5t-119 -16.5q-122 0 -221 57v96q106 -67 221 -67q60 0 113.5 18.5t91 60.5t37.5 99q0 93 -60 137.5t-165 44.5q-72 0 -164 -25v64z" />
    <glyph glyph-name="four.numr" horiz-adv-x="813" 
d="M539 1366h92v-565h84v-84h-84v-172h-101v172h-462v80zM182 801h348v428z" />
    <glyph glyph-name="five.numr" horiz-adv-x="772" 
d="M88 1366h526v-84h-446v-246q72 34 164 37q62 1 118 -15t102 -48t73.5 -85t27.5 -120q0 -123 -101.5 -196.5t-232.5 -73.5q-122 0 -221 57v96q106 -67 221 -67q57 0 111 20t92.5 63.5t38.5 100.5q0 88 -72 140t-163 52q-101 0 -197 -51h-41v420z" />
    <glyph glyph-name="six.numr" horiz-adv-x="837" 
d="M692 1282v-98q-111 94 -254 94q-71 0 -130.5 -49.5t-90.5 -120t-31 -139.5q95 100 246 100q124 0 216.5 -75t92.5 -193q0 -126 -92.5 -202.5t-222.5 -76.5q-70 0 -126 23t-93 62.5t-62 93.5t-36 113t-11 124q0 58 12.5 116t39.5 114.5t66 100.5t96.5 70.5t125.5 26.5
q136 0 254 -84zM426 612q92 0 155.5 51t63.5 138q0 84 -66 138t-153 54q-66 0 -132 -26.5t-106 -77.5q10 -119 70 -198t168 -79z" />
    <glyph glyph-name="seven.numr" horiz-adv-x="688" 
d="M492 1282h-435v84h533v-80l-316 -741h-98z" />
    <glyph glyph-name="eight.numr" horiz-adv-x="755" 
d="M68 780q0 79 47 135t125 80q-49 25 -79 67.5t-30 98.5q0 91 72.5 148t173.5 57q97 0 172.5 -57t75.5 -152q0 -54 -34 -96t-85 -66q82 -25 133 -80t51 -135q-2 -64 -30.5 -114.5t-74 -81t-100.5 -46.5t-114 -16q-125 0 -214 71t-89 187zM373 1028q66 0 114 32.5t48 92.5
q0 58 -47.5 92.5t-110.5 34.5q-64 0 -111 -34t-47 -93q0 -57 46 -91t108 -34zM371 612q57 0 106 17.5t82.5 57.5t34.5 97q0 78 -65 124.5t-152 49.5q-88 0 -152.5 -48t-64.5 -126t62.5 -125t148.5 -47z" />
    <glyph glyph-name="nine.numr" horiz-adv-x="837" 
d="M137 606v99q100 -97 250 -97q76 0 138.5 50t93.5 120.5t30 139.5q-91 -99 -243 -99q-124 0 -216 74.5t-92 191.5q0 128 91.5 204.5t222.5 76.5q70 0 126 -23t93 -62t62 -93t35.5 -112.5t10.5 -123.5q0 -73 -22.5 -147t-64.5 -138t-111.5 -104.5t-153.5 -40.5
q-151 0 -250 84zM412 1276q-92 0 -157 -52t-65 -139q0 -83 66.5 -136.5t155.5 -53.5q64 0 129.5 25.5t105.5 76.5q-8 120 -67 199.5t-168 79.5z" />
    <glyph glyph-name="zero.tnum" 
d="M662 1380q118 0 220.5 -46.5t180 -133.5t122 -221t44.5 -299q0 -164 -44 -297.5t-121.5 -220.5t-180 -133.5t-221.5 -46.5t-222.5 47.5t-180.5 135t-121 220.5t-44 295q0 163 44 296t121 221t180.5 135.5t222.5 47.5zM662 1237q-180 0 -299 -148.5t-119 -408.5
t119 -408.5t299 -148.5q86 0 161.5 37t132 106.5t89 176t32.5 237.5q0 83 -15 161.5t-48 151t-80.5 126.5t-117.5 86t-154 32z" />
    <glyph glyph-name="one.tnum" 
d="M590 137v1082l-262 -117v133l280 127h133v-1225h426v-137h-1011v137h434z" />
    <glyph glyph-name="two.tnum" 
d="M205 1055v155q87 81 204 124.5t238 45.5q96 2 186 -25.5t162.5 -79.5t116 -137t43.5 -190q0 -49 -27 -107.5t-77 -119t-108 -120t-132 -123.5t-136 -115t-133 -107q-12 -9 -18 -14q-73 -56 -129 -105h764v-137h-997v133q45 37 149 117q74 57 108.5 83.5t112.5 87.5
t120.5 98.5t107.5 94.5t102.5 98t76 87.5t56 85t17.5 69.5q0 58 -21.5 107.5t-57 83t-82.5 56.5t-98 34t-104 10q-121 -2 -240 -51t-204 -139z" />
    <glyph glyph-name="three.tnum" 
d="M866 1231h-676v129h875v-109l-504 -430q90 7 173 3.5t155 -31.5t125 -74t83.5 -124t30.5 -181q0 -105 -49 -190t-129 -136.5t-176 -78.5t-196 -27q-204 0 -363 96v147q159 -108 363 -108q73 0 144 19t130.5 55t96 95t36.5 132q0 160 -100.5 236.5t-278.5 76.5
q-130 0 -270 -39v94z" />
    <glyph glyph-name="four.tnum" 
d="M907 1362h146v-950h143v-121h-143v-291h-150v291h-778v121zM903 1155l-606 -743h606v743z" />
    <glyph glyph-name="five.tnum" 
d="M201 1362h868v-131h-745v-426q127 65 282 65q101 2 194 -24.5t169.5 -78.5t122 -139t45.5 -198q0 -104 -48.5 -190.5t-128.5 -141.5t-177.5 -85.5t-198.5 -30.5q-204 0 -365 96v147q162 -108 365 -108q99 0 190 34.5t154 108t63 170.5q0 76 -36 139.5t-94 104
t-128.5 62.5t-142.5 22q-93 0 -168.5 -19t-161.5 -65h-59v688z" />
    <glyph glyph-name="six.tnum" 
d="M1110 1243v-147q-176 153 -416 153q-77 0 -147 -34.5t-121.5 -91.5t-89 -127.5t-55 -146t-13.5 -144.5q75 88 183 133t233 45q130 0 245.5 -53t189 -155t73.5 -229q0 -106 -42.5 -194.5t-114 -146t-165.5 -89.5t-198 -32q-114 0 -206.5 38.5t-154 103t-103 153.5
t-59.5 186.5t-18 204.5q0 96 20.5 193.5t66 191t110 165.5t159.5 116t207 44q115 0 226.5 -38t189.5 -99zM672 121q102 0 186.5 37t137.5 112t53 176q0 141 -113 232.5t-264 91.5q-115 0 -224.5 -44.5t-175.5 -135.5q6 -99 32.5 -182t74 -148t122.5 -102t171 -37z" />
    <glyph glyph-name="seven.tnum" 
d="M977 1231h-770v131h919v-125l-546 -1237h-150z" />
    <glyph glyph-name="eight.tnum" 
d="M145 410q0 132 87.5 227.5t224.5 132.5q-93 37 -148 108t-55 169t57.5 175t149 116.5t198.5 39.5q104 -2 195 -40t152 -116t61 -182q0 -99 -60.5 -169t-156.5 -101q143 -40 233.5 -131.5t90.5 -228.5q-2 -85 -33 -156.5t-81 -120.5t-117 -83t-141 -50t-153 -16
q-133 0 -246.5 50.5t-185.5 149.5t-72 226zM651 815q115 0 197 56.5t82 162.5q0 98 -82.5 157.5t-190.5 59.5q-106 0 -186 -60t-80 -157q0 -100 77 -159.5t183 -59.5zM649 121q71 0 136.5 18t121 53t89 93.5t34.5 132.5q0 89 -56.5 158t-140.5 103t-176 34q-96 0 -179 -35
t-135 -103.5t-52 -156.5q0 -135 105.5 -216t252.5 -81z" />
    <glyph glyph-name="nine.tnum" 
d="M199 123v147q81 -79 188.5 -118t220.5 -39q79 0 152 34.5t127 91.5t93.5 128t58 146.5t14.5 143.5q-74 -87 -182 -132.5t-234 -45.5q-97 0 -188 31.5t-161.5 87.5t-113.5 139.5t-43 180.5q0 140 73 247t189.5 161t255.5 54q115 0 208 -38.5t154.5 -103t103 -153.5
t59.5 -186.5t18 -204.5q0 -96 -23 -194t-71.5 -191t-116 -165t-164.5 -116t-209 -44q-244 0 -409 139zM649 1243q-157 0 -266 -88t-109 -237q0 -95 54 -170.5t139 -114.5t182 -39q115 0 224.5 44.5t177.5 135.5q-6 98 -33 181t-74.5 148.5t-123 102.5t-171.5 37z" />
    <glyph glyph-name="zero.tonum" 
d="M659 1026q240 0 383.5 -146t143.5 -376q0 -231 -143.5 -377.5t-383.5 -146.5q-236 0 -380 147t-144 377q0 229 144 375.5t380 146.5zM659 885q-171 0 -272.5 -107.5t-101.5 -273.5t101.5 -273.5t272.5 -107.5q172 0 273.5 107t101.5 274t-101.5 274t-273.5 107z" />
    <glyph glyph-name="one.tonum" 
d="M580 123v749q-185 -82 -263 -114v123l281 127h133v-885h344v-123h-831v123h336z" />
    <glyph glyph-name="two.tonum" 
d="M231 0v119l265 178q28 19 73 48.5t76.5 50t73 49.5t70 52t59 52t48.5 54.5t30 54.5t12 57q0 53 -31.5 91t-81 56.5t-95.5 26.5t-91 8q-96 0 -196 -34.5t-173 -96.5v137q79 60 182 91.5t203 31.5q51 0 106 -10t113.5 -33t104 -56.5t75 -86.5t29.5 -117q0 -52 -21.5 -102
t-50.5 -87.5t-81 -82.5t-90.5 -72t-102.5 -71t-94 -66q-38 -26 -94 -67t-74 -54h615v-121h-859z" />
    <glyph glyph-name="three.tonum" 
d="M850 887h-627v121h824v-113l-476 -403q83 6 159.5 0.5t143.5 -34t116.5 -72.5t78 -116t27.5 -164q-1 -102 -47 -184t-122 -131.5t-167.5 -75.5t-190.5 -26q-178 0 -323 90v133q147 -102 323 -102q70 0 136 18t121.5 53t89.5 93.5t34 131.5q3 148 -89 223t-251 77
q-117 0 -254 -39v96z" />
    <glyph glyph-name="four.tonum" 
d="M1194 100v-120h-141v-320h-152v320h-774v122l788 906h138v-908h141zM901 100v709l-608 -709h608z" />
    <glyph glyph-name="five.tonum" 
d="M342 885v-406q119 61 266 64q97 1 185 -28t156.5 -82.5t109.5 -136t41 -181.5q0 -132 -75 -234.5t-191 -154.5t-246 -52q-187 0 -346 93v139q153 -103 346 -103q76 0 143 31q98 31 161.5 105t63.5 178q0 97 -54.5 171t-137.5 110t-176 36q-167 0 -303 -84h-64v658h821
v-123h-700z" />
    <glyph glyph-name="six.tonum" 
d="M1110 1243v-147q-176 153 -416 153q-77 0 -147 -34.5t-121.5 -91.5t-89 -127.5t-55 -146t-13.5 -144.5q75 88 183 133t233 45q130 0 245.5 -53t189 -155t73.5 -229q0 -106 -42.5 -194.5t-114 -146t-165.5 -89.5t-198 -32q-114 0 -206.5 38.5t-154 103t-103 153.5
t-59.5 186.5t-18 204.5q0 96 20.5 193.5t66 191t110 165.5t159.5 116t207 44q115 0 226.5 -38t189.5 -99zM672 121q102 0 186.5 37t137.5 112t53 176q0 141 -113 232.5t-264 91.5q-115 0 -224.5 -44.5t-175.5 -135.5q6 -99 32.5 -182t74 -148t122.5 -102t171 -37z" />
    <glyph glyph-name="seven.tonum" 
d="M948 877h-727v129h879q0 -20 -1 -62t-1 -63l-525 -1180h-145z" />
    <glyph glyph-name="eight.tonum" 
d="M162 397q0 126 83.5 218.5t215.5 129.5q-89 35 -142 104t-53 165q0 95 56 169.5t144.5 113t192.5 38.5q74 -1 144 -23t127 -62t91 -103t34 -139q0 -94 -59.5 -164t-151.5 -99q137 -38 225 -127.5t88 -220.5q-2 -103 -46 -184t-117 -130t-161 -74t-184 -25
q-129 0 -238.5 48.5t-179 144.5t-69.5 220zM651 788q111 0 190 55t79 156q0 95 -79 153t-184 58q-103 0 -180.5 -58t-77.5 -153q0 -96 75 -153.5t177 -57.5zM649 117q69 1 133 18.5t117.5 51t85.5 89.5t33 127q0 86 -55 153.5t-136.5 100.5t-169.5 33q-143 0 -248.5 -80
t-105.5 -207q0 -87 49.5 -153.5t127.5 -99.5t169 -33z" />
    <glyph glyph-name="nine.tonum" 
d="M211 -190v149q183 -156 418 -156q77 0 147 34.5t121 92t88 128.5t54.5 146.5t13.5 143.5q-74 -87 -182 -132.5t-234 -45.5q-130 0 -245 53t-188 155t-73 230q0 140 73 247t189.5 161.5t255.5 54.5q115 0 208 -38.5t154.5 -103t103 -153.5t59.5 -186.5t18 -204.5
q0 -96 -21 -194t-66.5 -191.5t-109.5 -165.5t-159 -116t-207 -44q-115 0 -226 38t-192 98zM649 934q-156 0 -265.5 -88.5t-109.5 -237.5q0 -141 112 -232t263 -91q115 0 224.5 44.5t177.5 135.5q-6 98 -33 181t-74.5 148.5t-123 102.5t-171.5 37z" />
    <glyph glyph-name="bracketleft.case" horiz-adv-x="651" 
d="M201 -96v1628h311v-113h-178v-1411h178v-104h-311z" />
    <glyph glyph-name="bracketright.case" horiz-adv-x="651" 
d="M317 8v1411h-178v113h312v-1628h-312v104h178z" />
    <glyph glyph-name="parenleft.case" horiz-adv-x="722" 
d="M526 1518l90 -84q-172 -126 -257 -318.5t-85 -413.5q0 -143 34 -275t112.5 -254t195.5 -202l-90 -84q-96 56 -171.5 149.5t-121.5 204.5t-70 228.5t-24 232.5q0 156 39.5 308.5t129.5 292.5t218 215z" />
    <glyph glyph-name="parenright.case" horiz-adv-x="722" 
d="M197 -113l-88 84q171 118 255.5 314t84.5 417t-85 413.5t-255 318.5l88 84q128 -75 218 -215t129.5 -292.5t39.5 -308.5q0 -115 -24 -232.5t-70 -228.5t-121.5 -204.5t-171.5 -149.5z" />
    <glyph glyph-name="braceleft.case" horiz-adv-x="843" 
d="M707 1524v-111q-2 1 -9.5 0t-18 -1t-24 -4t-27 -9.5t-26.5 -16.5t-23.5 -25.5t-17.5 -37t-8 -49.5q0 -20 1 -65.5t0.5 -72.5t-1.5 -72.5t-6 -75.5t-12.5 -69.5t-21 -67t-31.5 -56t-45 -49t-60 -33.5q33 -14 60 -34t45 -48.5t31.5 -55.5t21 -65.5t12.5 -68t6 -74.5
t1.5 -72t-0.5 -73.5t-1 -67.5q1 -38 12.5 -67t27.5 -43.5t35 -25t35.5 -11.5t28.5 -3t14 0h1v-104q-8 2 -26 0t-43.5 4t-53 13t-55 26t-49.5 43.5t-36.5 66t-15.5 92.5q-3 32 -3.5 85t-1.5 93t-6 89.5t-18.5 87t-37 72t-64 57t-96.5 30.5v111q56 7 96.5 29t64 57t37 73
t18.5 89t6 92t1.5 94t3.5 84q1 50 15.5 90t36.5 64.5t49.5 43t55 25.5t53 13t43.5 4t26 0z" />
    <glyph glyph-name="braceright.case" horiz-adv-x="843" 
d="M139 1413v111q18 1 41.5 -0.5t67.5 -13.5t78 -35t61 -72.5t29 -118.5q3 -31 3.5 -84t1.5 -94t6 -91.5t18.5 -88.5t37 -73.5t64 -57.5t96.5 -29v-111q-56 -8 -96.5 -30.5t-64 -57t-37 -72t-18.5 -87t-6 -89.5t-1.5 -93t-3.5 -85q-1 -51 -15.5 -92.5t-36.5 -66t-49.5 -43.5
t-54.5 -26t-52.5 -13t-43 -4t-25.5 0v104q147 0 154 150q0 22 -1 67.5t-1 73.5t1.5 72t6 74t11.5 68.5t20.5 66t31.5 55t45 48t60 34.5q-33 13 -60 33.5t-45 48.5t-31.5 56.5t-20.5 67.5t-11.5 69.5t-6 75t-1.5 72.5t1 72.5t1 65.5q-7 143 -154 143z" />
    <glyph glyph-name="exclamdown.case" horiz-adv-x="524" 
d="M162 1268q0 41 28.5 69.5t69.5 28.5q42 0 70 -28t28 -70t-28 -70.5t-70 -28.5q-41 0 -69.5 29t-28.5 70zM213 1077h96l37 -1077h-166z" />
    <glyph glyph-name="questiondown.case" horiz-adv-x="995" 
d="M702 1270q0 -43 -28.5 -72t-69.5 -29t-69.5 29t-28.5 72q0 41 28.5 68.5t69.5 27.5t69.5 -27.5t28.5 -68.5zM928 123v145q-172 -155 -377 -155q-131 2 -221 76.5t-90 189.5q0 40 24 80.5t61.5 79t83.5 79.5t91.5 89.5t82.5 101.5t59 123t20 147h-117q4 -66 -19 -128
t-62 -111.5t-87.5 -97t-97 -92t-89.5 -87.5t-66.5 -92.5t-25.5 -99.5q0 -109 60 -198.5t160 -140t217 -52.5q105 -2 207.5 35.5t185.5 107.5z" />
    <glyph glyph-name="less.case" horiz-adv-x="1009" 
d="M809 1106v-131l-541 -289l541 -295v-125l-659 361v118z" />
    <glyph glyph-name="greater.case" horiz-adv-x="1009" 
d="M201 266v125l540 295l-540 289v131l659 -361v-118z" />
    <glyph glyph-name="guillemotleft.case" horiz-adv-x="1114" 
d="M563 1180v-148l-317 -346l317 -346v-145l-413 436v110zM915 1180v-148l-317 -346l317 -346v-145l-415 436v110z" />
    <glyph glyph-name="guillemotright.case" horiz-adv-x="1114" 
d="M201 195v145l317 346l-317 346v148l413 -439v-110zM551 195v145l317 346l-317 346v148l416 -439v-110z" />
    <glyph glyph-name="guilsinglleft.case" horiz-adv-x="763" 
d="M563 1178v-148l-317 -346l317 -346v-143l-413 434v112z" />
    <glyph glyph-name="guilsinglright.case" horiz-adv-x="763" 
d="M201 195v145l317 346l-317 346v148l413 -439v-110z" />
    <glyph glyph-name="hyphen.case" horiz-adv-x="794" 
d="M657 750v-125h-518v125h518z" />
    <glyph glyph-name="endash.case" horiz-adv-x="999" 
d="M862 750v-125h-723v125h723z" />
    <glyph glyph-name="emdash.case" horiz-adv-x="1265" 
d="M1128 750v-125h-989v125h989z" />
    <glyph glyph-name="periodcentered.case" horiz-adv-x="331" 
d="M68 686q0 42 28 70t70 28t70 -28t28 -70q0 -41 -28.5 -69.5t-69.5 -28.5t-69.5 28.5t-28.5 69.5z" />
    <glyph glyph-name="bullet.case" horiz-adv-x="696" 
d="M139 686q0 87 61 148t148 61q88 0 148.5 -60.5t60.5 -148.5q0 -87 -61 -148t-148 -61q-86 0 -147.5 61.5t-61.5 147.5z" />
    <glyph glyph-name="a.alt" horiz-adv-x="1208" 
d="M1090 1008v-1008h-146v100q-134 -118 -313 -118q-148 0 -272 66.5t-197.5 187t-73.5 268.5t73.5 268.5t197.5 187t272 66.5q178 0 313 -135v117h146zM944 225v537q-127 145 -313 145q-167 0 -283.5 -114.5t-116.5 -288.5t117 -289t283 -115q188 0 313 125z" />
    <glyph glyph-name="t.alt" horiz-adv-x="516" 
d="M184 897h-127v111h127v356h146v-356h129v-111h-129v-897h-146v897z" />
    <glyph glyph-name="commaaccentcomb" horiz-adv-x="0" 
d="M121 -473l43 143q-34 8 -55 34.5t-21 62.5q0 41 28.5 69.5t69.5 28.5t70 -28.5t29 -69.5q0 -19 -19 -59.5t-96 -180.5h-49z" />
    <glyph glyph-name="y.alt" horiz-adv-x="1165" 
d="M903 -8v123q-141 -135 -301 -135q-150 0 -258 68t-160.5 181t-52.5 258v519h145v-519q0 -172 83 -281.5t243 -109.5q172 0 301 148v762h146v-1008q0 -126 -43.5 -222t-117 -151t-161.5 -81.5t-186 -24.5q-121 -2 -241 39t-208 116v142q84 -84 204.5 -129t244.5 -45
q70 -1 132 18t114.5 59t83.5 110t32 163z" />
    <glyph glyph-name="uni2116.001" horiz-adv-x="2680" 
d="M1096 270v1096h151v-1366h-119l-778 1098v-1098h-149v1366h116zM2025 1366q148 0 271.5 -70.5t194.5 -190.5t71 -263q0 -142 -71 -262.5t-194.5 -190.5t-271.5 -70q-110 0 -208.5 41.5t-169 111.5t-111.5 166.5t-41 203.5q0 143 69.5 263t191.5 190.5t269 70.5z
M2025 1235q-161 0 -273 -115t-112 -278t112 -278t273 -115q164 0 277 115t113 278t-113 278t-277 115z" />
    <glyph glyph-name="agrave.alt" horiz-adv-x="1208" 
d="M567 1366l90 -258h-88l-129 258h127zM1090 1008v-1008h-146v100q-134 -118 -313 -118q-148 0 -272 66.5t-197.5 187t-73.5 268.5t73.5 268.5t197.5 187t272 66.5q178 0 313 -135v117h146zM944 225v537q-127 145 -313 145q-167 0 -283.5 -114.5t-116.5 -288.5t117 -289
t283 -115q188 0 313 125z" />
    <glyph glyph-name="aacute.alt" horiz-adv-x="1208" 
d="M535 1108l90 258h127l-129 -258h-88zM1090 1008v-1008h-146v100q-134 -118 -313 -118q-148 0 -272 66.5t-197.5 187t-73.5 268.5t73.5 268.5t197.5 187t272 66.5q178 0 313 -135v117h146zM944 225v537q-127 145 -313 145q-167 0 -283.5 -114.5t-116.5 -288.5t117 -289
t283 -115q188 0 313 125z" />
    <glyph glyph-name="acircumflex.alt" horiz-adv-x="1208" 
d="M561 1358h90l185 -256h-107l-121 180l-125 -180h-106zM1090 1008v-1008h-146v100q-134 -118 -313 -118q-148 0 -272 66.5t-197.5 187t-73.5 268.5t73.5 268.5t197.5 187t272 66.5q178 0 313 -135v117h146zM944 225v537q-127 145 -313 145q-167 0 -283.5 -114.5
t-116.5 -288.5t117 -289t283 -115q188 0 313 125z" />
    <glyph glyph-name="atilde.alt" horiz-adv-x="1208" 
d="M866 1309v-109q-32 -33 -70.5 -40t-74 6t-77 29t-78.5 28t-80 2.5t-80 -45.5v100q45 36 101 38t106 -16t97.5 -34.5t89 -9.5t66.5 51zM1090 1008v-1008h-146v100q-134 -118 -313 -118q-148 0 -272 66.5t-197.5 187t-73.5 268.5t73.5 268.5t197.5 187t272 66.5
q178 0 313 -135v117h146zM944 225v537q-127 145 -313 145q-167 0 -283.5 -114.5t-116.5 -288.5t117 -289t283 -115q188 0 313 125z" />
    <glyph glyph-name="aring.alt" horiz-adv-x="1208" 
d="M631 1468q74 0 125 -52t51 -124q0 -73 -50.5 -125.5t-125.5 -52.5t-125.5 52.5t-50.5 125.5q0 72 51 124t125 52zM631 1395q-44 0 -74.5 -30t-30.5 -73q0 -42 31 -73t74 -31q41 0 72.5 31.5t31.5 72.5q-3 43 -32 73t-72 30zM1090 1008v-1008h-146v100
q-134 -118 -313 -118q-148 0 -272 66.5t-197.5 187t-73.5 268.5t73.5 268.5t197.5 187t272 66.5q178 0 313 -135v117h146zM944 225v537q-127 145 -313 145q-167 0 -283.5 -114.5t-116.5 -288.5t117 -289t283 -115q188 0 313 125z" />
    <glyph glyph-name="yacute.alt" horiz-adv-x="1165" 
d="M522 1108l92 258h125l-129 -258h-88zM903 115v-123q-1 -93 -32 -163t-83.5 -110t-114.5 -59t-132 -18q-124 0 -244.5 44.5t-204.5 127.5v-140q88 -75 208 -116t241 -39q98 -2 186 24.5t161.5 81t117 150.5t43.5 221v1010h-146v-762q-129 -148 -301 -148
q-160 0 -243 109.5t-83 281.5v519h-145v-519q0 -145 52.5 -258t160.5 -181t258 -68q160 0 301 135z" />
    <glyph glyph-name="ydieresis.alt" horiz-adv-x="1165" 
d="M399 1206q0 35 24 58.5t58 23.5q35 0 59.5 -23.5t24.5 -58.5q0 -36 -24 -60t-60 -24q-34 0 -58 24t-24 60zM643 1206q0 35 24.5 58.5t59.5 23.5q34 0 58 -23.5t24 -58.5q0 -36 -24 -60t-58 -24q-36 0 -60 24t-24 60zM903 115v-123q-1 -93 -32 -163t-83.5 -110t-114.5 -59
t-132 -18q-124 0 -244.5 44.5t-204.5 127.5v-140q88 -75 208 -116t241 -39q98 -2 186 24.5t161.5 81t117 150.5t43.5 221v1010h-146v-762q-129 -148 -301 -148q-160 0 -243 109.5t-83 281.5v519h-145v-519q0 -145 52.5 -258t160.5 -181t258 -68q160 0 301 135z" />
    <glyph glyph-name="commaaccentcomb.salt" horiz-adv-x="0" 
d="M252 1442l-43 -144q34 -8 55 -34t21 -62q0 -41 -29 -69.5t-70 -28.5t-69.5 28.5t-28.5 69.5q0 19 19 59.5t96 180.5h49z" />
    <glyph glyph-name="A.smcp" horiz-adv-x="976" 
d="M819 0l-102 250h-457l-102 -250h-142l410 1006h125l412 -1006h-144zM690 348l-201 494l-204 -494h405z" />
    <glyph glyph-name="B.smcp" horiz-adv-x="980" 
d="M119 1006h436q130 0 221.5 -65.5t91.5 -188.5q0 -74 -42.5 -132t-114.5 -83q92 -20 148 -93t56 -168q0 -127 -91 -201.5t-226 -74.5h-479v1006zM248 578h303q75 3 133.5 44t58.5 111q0 78 -62 119t-149 41h-284v-315zM248 113h330q90 0 151.5 48t61.5 130q0 90 -65.5 136
t-164.5 46h-313v-360z" />
    <glyph glyph-name="C.smcp" horiz-adv-x="999" 
d="M893 184v-127q-136 -71 -270 -71q-151 0 -279 69t-202 188t-74 259q0 106 44 202t118 165t177 110t216 41q127 0 268 -72v-127q-130 78 -268 78q-177 0 -301.5 -116.5t-124.5 -280.5q0 -163 125 -280.5t301 -117.5q134 0 270 80z" />
    <glyph glyph-name="D.smcp" horiz-adv-x="997" 
d="M78 1006h334q145 0 266.5 -67.5t191.5 -183.5t70 -253q0 -136 -70 -251.5t-191.5 -183t-266.5 -67.5h-334v1006zM209 113h186q172 0 295 114.5t123 274.5q0 161 -123 276t-295 115h-186v-780z" />
    <glyph glyph-name="E.smcp" horiz-adv-x="897" 
d="M797 573v-118h-588v-346h610v-109h-741v1006h741v-113h-610v-320h588z" />
    <glyph glyph-name="F.smcp" horiz-adv-x="897" 
d="M797 573v-118h-588v-455h-131v1006h741v-113h-610v-320h588z" />
    <glyph glyph-name="G.smcp" horiz-adv-x="991" 
d="M895 952v-129q-137 76 -281 76q-175 0 -299.5 -116.5t-124.5 -280.5q0 -163 125 -280.5t299 -117.5q90 0 183 41v328h-322v90h443v-491q-159 -86 -304 -86q-151 0 -279 69t-202 188t-74 259q0 106 44 202t118 165t177 110t216 41q142 0 281 -68z" />
    <glyph glyph-name="H.smcp" horiz-adv-x="983" 
d="M754 575v431h131v-1006h-131v455h-525v-455h-131v1006h131v-431h525z" />
    <glyph glyph-name="I.smcp" horiz-adv-x="323" 
d="M227 0h-129v1006h129v-1006z" />
    <glyph glyph-name="J.smcp" horiz-adv-x="743" 
d="M88 57v131q127 -82 250 -82q75 0 126.5 54.5t51.5 126.5v719h129v-725q0 -120 -84 -207.5t-211 -87.5q-138 0 -262 71z" />
    <glyph glyph-name="K.smcp" horiz-adv-x="974" 
d="M229 1006v-492l496 492h174l-387 -392q69 -99 208.5 -306.5t207.5 -307.5h-154l-356 522l-189 -180v-342h-131v1006h131z" />
    <glyph glyph-name="L.smcp" horiz-adv-x="849" 
d="M803 113v-113h-705v1006h131v-893h574z" />
    <glyph glyph-name="M.smcp" horiz-adv-x="1187" 
d="M958 0v700l-325 -700h-76l-330 698v-698h-129v1006h97l399 -836l397 836h99v-1006h-132z" />
    <glyph glyph-name="N.smcp" horiz-adv-x="1007" 
d="M778 227v779h131v-1006h-102l-580 778v-778h-129v1006h103z" />
    <glyph glyph-name="O.smcp" horiz-adv-x="1212" 
d="M612 1020q148 0 273.5 -69t198.5 -188.5t73 -260.5q0 -140 -73 -259t-198.5 -188t-273.5 -69q-114 0 -217 41t-177 110t-117.5 164.5t-43.5 200.5q0 215 162 366.5t393 151.5zM612 899q-176 0 -301 -117t-125 -280t124.5 -279.5t301.5 -116.5q169 0 292.5 117t123.5 279
t-123.5 279.5t-292.5 117.5z" />
    <glyph glyph-name="P.smcp" horiz-adv-x="888" 
d="M78 1006h438q137 0 227.5 -83.5t90.5 -222.5q0 -133 -92 -216t-226 -83h-307v-401h-131v1006zM209 510h280q90 0 151.5 51t61.5 135q0 91 -59.5 143t-153.5 52h-280v-381z" />
    <glyph glyph-name="Q.smcp" horiz-adv-x="1249" 
d="M1044 -104l-161 165q-124 -75 -271 -75q-114 0 -217 41t-177 110t-117.5 164.5t-43.5 200.5q0 215 162 366.5t393 151.5q148 0 273.5 -69t198.5 -188.5t73 -260.5q0 -112 -47 -210.5t-131 -170.5l213 -225h-148zM612 899q-176 0 -301 -117t-125 -280t124.5 -279.5
t301.5 -116.5q169 0 292.5 117t123.5 279t-123.5 279.5t-292.5 117.5z" />
    <glyph glyph-name="R.smcp" horiz-adv-x="909" 
d="M78 1006h438q137 0 227.5 -84.5t90.5 -225.5q0 -110 -69 -184.5t-179 -97.5q46 -71 106 -164.5t97 -150.5t65 -99h-152l-253 401h-240v-401h-131v1006zM209 510h280q90 0 151.5 51t61.5 135q0 91 -59.5 143t-153.5 52h-280v-381z" />
    <glyph glyph-name="S.smcp" horiz-adv-x="923" 
d="M82 117v139q78 -75 183 -114.5t204 -39.5q66 0 122.5 17.5t97 60t40.5 103.5q0 49 -36 82t-93.5 51t-126.5 33t-138.5 34t-127 46.5t-93.5 78.5t-36 123q0 70 33.5 126.5t88 91t121 53t136.5 18.5q95 0 189.5 -33t164.5 -94v-137q-72 70 -168 109.5t-186 39.5
q-65 0 -120.5 -17.5t-94.5 -60t-39 -102.5q0 -46 36 -77.5t94 -49t127.5 -32.5t139.5 -34.5t128 -48t94 -80.5t36 -124q0 -74 -34.5 -132t-92 -92t-125.5 -51.5t-141 -17.5q-103 0 -204.5 33.5t-178.5 97.5z" />
    <glyph glyph-name="T.smcp" horiz-adv-x="860" 
d="M801 1006v-115h-305v-891h-131v891h-306v115h742z" />
    <glyph glyph-name="U.smcp" horiz-adv-x="1007" 
d="M911 1006l-2 -662q0 -109 -57 -192t-148 -124.5t-200 -41.5q-110 0 -201.5 41.5t-148 124.5t-56.5 192v662h129v-662q0 -111 81 -174.5t196 -63.5q116 0 196 63.5t80 174.5v662h131z" />
    <glyph glyph-name="V.smcp" horiz-adv-x="991" 
d="M827 1006h148l-420 -1006h-123l-416 1006h148l334 -807z" />
    <glyph glyph-name="W.smcp" horiz-adv-x="1447" 
d="M772 1006l287 -779q11 62 227 779h146l-306 -1006h-114l-287 778l-283 -778h-110l-316 1006h144l239 -779l275 779h98z" />
    <glyph glyph-name="X.smcp" horiz-adv-x="923" 
d="M756 0l-295 401q-76 -101 -297 -401h-148l367 506l-365 500h152l291 -396l291 396h149l-362 -500l368 -506h-151z" />
    <glyph glyph-name="Y.smcp" horiz-adv-x="882" 
d="M371 297l-355 709h140l282 -568l287 568h141l-364 -705v-301h-131v297z" />
    <glyph glyph-name="Z.smcp" horiz-adv-x="1001" 
d="M266 115h637v-115h-805v109l639 782h-639v115h805v-109z" />
    <glyph glyph-name="Agrave.smcp" horiz-adv-x="976" 
d="M438 1366l92 -258h-88l-129 258h125zM819 0l-102 250h-457l-102 -250h-142l410 1006h125l412 -1006h-144zM690 348l-201 494l-204 -494h405z" />
    <glyph glyph-name="Aacute.smcp" horiz-adv-x="976" 
d="M442 1108l90 258h127l-129 -258h-88zM426 1006l-410 -1006h142l102 250h457l102 -250h144l-412 1006h-125zM690 348h-405l204 494z" />
    <glyph glyph-name="Acircumflex.smcp" horiz-adv-x="976" 
d="M446 1358h91l184 -256h-107l-120 180l-125 -180h-107zM426 1006l-410 -1006h142l102 250h457l102 -250h144l-412 1006h-125zM690 348h-405l204 494z" />
    <glyph glyph-name="Atilde.smcp" horiz-adv-x="976" 
d="M719 1309v-109q-32 -33 -70.5 -40t-74 6t-77 29t-78.5 28t-79.5 2.5t-79.5 -45.5v100q44 36 100 38t106 -16t97.5 -34.5t89 -9.5t66.5 51zM819 0l-102 250h-457l-102 -250h-142l410 1006h125l410 -1006h-142zM690 348l-201 494l-204 -494h405z" />
    <glyph glyph-name="Adieresis.smcp" horiz-adv-x="976" 
d="M285 1206q0 35 24.5 58.5t59.5 23.5t58.5 -23.5t23.5 -58.5t-23.5 -59.5t-58.5 -24.5t-59.5 24.5t-24.5 59.5zM528 1206q0 35 24.5 58.5t59.5 23.5t59.5 -23.5t24.5 -58.5t-24.5 -59.5t-59.5 -24.5t-59.5 24.5t-24.5 59.5zM426 1006l-410 -1006h142l102 250h457l102 -250
h144l-412 1006h-125zM690 348h-405l204 494z" />
    <glyph glyph-name="Aring.smcp" horiz-adv-x="976" 
d="M483 1468q75 0 125.5 -52t50.5 -124q0 -73 -50.5 -125.5t-125.5 -52.5q-74 0 -125 52.5t-51 125.5q0 72 51 124t125 52zM483 1395q-44 0 -73 -30t-29 -73q0 -42 31 -73t73 -31q41 0 72 31.5t31 72.5q-3 43 -32.5 73t-72.5 30zM819 0l-102 250h-457l-102 -250h-142
l410 1006h125l412 -1006h-144zM690 348l-201 494l-204 -494h405z" />
    <glyph glyph-name="AE.smcp" horiz-adv-x="1640" 
d="M1542 573v-118h-590v-346h611v-109h-742v250h-469l-205 -250h-141l813 1006h744v-113h-611v-320h590zM821 348v488l-407 -488h407z" />
    <glyph glyph-name="Ccedilla.smcp" horiz-adv-x="999" 
d="M653 -12l-49 -74q68 16 129.5 -16t61.5 -99q0 -65 -51 -99t-123 -34q-78 0 -136 31v63q56 -34 133 -34q50 0 77.5 21t27.5 54q0 38 -37.5 58t-82 17.5t-68.5 -21.5v47l61 84q-145 6 -266.5 76t-191.5 186.5t-70 253.5q0 106 44 202t118 165t177 110t216 41q127 0 268 -72
v-127q-130 78 -268 78q-177 0 -301.5 -116.5t-124.5 -280.5q0 -163 125 -280.5t301 -117.5q135 0 268 80v-127q-107 -59 -238 -69z" />
    <glyph glyph-name="Egrave.smcp" horiz-adv-x="897" 
d="M424 1366l90 -258h-88l-129 258h127zM797 573v-118h-588v-346h610v-109h-741v1006h741v-113h-610v-320h588z" />
    <glyph glyph-name="Eacute.smcp" horiz-adv-x="897" 
d="M377 1108l90 258h127l-129 -258h-88zM819 893v113h-741v-1006h741v109h-610v346h588v118h-588v320h610z" />
    <glyph glyph-name="Ecircumflex.smcp" horiz-adv-x="897" 
d="M401 1358h91l184 -256h-107l-123 180l-122 -180h-107zM819 893v113h-741v-1006h741v109h-610v346h588v118h-588v320h610z" />
    <glyph glyph-name="Edieresis.smcp" horiz-adv-x="897" 
d="M254 1206q0 35 24 58.5t58 23.5q35 0 59.5 -23.5t24.5 -58.5t-24.5 -59.5t-59.5 -24.5q-34 0 -58 24.5t-24 59.5zM498 1206q0 35 24.5 58.5t59.5 23.5q34 0 58 -23.5t24 -58.5t-24 -59.5t-58 -24.5q-35 0 -59.5 24.5t-24.5 59.5zM819 893v113h-741v-1006h741v109h-610
v346h588v118h-588v320h610z" />
    <glyph glyph-name="Igrave.smcp" horiz-adv-x="323" 
d="M115 1366l90 -258h-88l-129 258h127zM227 0h-129v1006h129v-1006z" />
    <glyph glyph-name="Icircumflex.smcp" horiz-adv-x="323" 
d="M117 1358h90l184 -256h-106l-121 180l-125 -180h-107zM98 0h129v1006h-129v-1006z" />
    <glyph glyph-name="Idieresis.smcp" horiz-adv-x="323" 
d="M-41 1206q0 35 24.5 58.5t59.5 23.5t59.5 -23.5t24.5 -58.5t-24.5 -59.5t-59.5 -24.5t-59.5 24.5t-24.5 59.5zM205 1206q0 35 23.5 58.5t58.5 23.5t59.5 -23.5t24.5 -58.5t-24.5 -59.5t-59.5 -24.5t-58.5 24.5t-23.5 59.5zM98 0h129v1006h-129v-1006z" />
    <glyph glyph-name="Eth.smcp" horiz-adv-x="997" 
d="M78 1006h334q145 0 266.5 -67.5t191.5 -183.5t70 -253q0 -136 -70 -251.5t-191.5 -183t-266.5 -67.5h-334v457h-82v82h82v467zM209 539h264v-82h-264v-344h186q172 0 295 114.5t123 274.5q0 161 -123 276t-295 115h-186v-354z" />
    <glyph glyph-name="Ntilde.smcp" horiz-adv-x="1007" 
d="M731 1309v-109q-32 -33 -70.5 -40t-74 6t-77.5 29t-79 28t-80 2.5t-80 -45.5v100q44 36 100.5 38t106.5 -16t98 -34.5t89.5 -9.5t66.5 51zM778 227v779h131v-1006h-102l-580 778v-778h-129v1006h103z" />
    <glyph glyph-name="Ograve.smcp" horiz-adv-x="1212" 
d="M553 1366l90 -258h-88l-129 258h127zM612 1020q148 0 273.5 -69t198.5 -188.5t73 -260.5q0 -140 -73 -259t-198.5 -188t-273.5 -69q-114 0 -217 41t-177 110t-117.5 164.5t-43.5 200.5q0 215 162 366.5t393 151.5zM612 899q-176 0 -301 -117t-125 -280t124.5 -279.5
t301.5 -116.5q169 0 292.5 117t123.5 279t-123.5 279.5t-292.5 117.5z" />
    <glyph glyph-name="Oacute.smcp" horiz-adv-x="1212" 
d="M539 1108l92 258h125l-129 -258h-88zM612 1020q-231 0 -393 -151.5t-162 -366.5q0 -105 43.5 -200.5t117.5 -164.5t177 -110t217 -41q148 0 273.5 69t198.5 188t73 259q0 141 -73 260.5t-198.5 188.5t-273.5 69zM612 899q169 0 292.5 -117.5t123.5 -279.5t-123.5 -279
t-292.5 -117q-177 0 -301.5 116.5t-124.5 279.5t125 280t301 117z" />
    <glyph glyph-name="Ocircumflex.smcp" horiz-adv-x="1212" 
d="M565 1358h88l185 -256h-105l-123 180l-125 -180h-104zM612 1020q-231 0 -393 -151.5t-162 -366.5q0 -105 43.5 -200.5t117.5 -164.5t177 -110t217 -41q148 0 273.5 69t198.5 188t73 259q0 141 -73 260.5t-198.5 188.5t-273.5 69zM612 899q169 0 292.5 -117.5
t123.5 -279.5t-123.5 -279t-292.5 -117q-177 0 -301.5 116.5t-124.5 279.5t125 280t301 117z" />
    <glyph glyph-name="Otilde.smcp" horiz-adv-x="1212" 
d="M838 1309v-109q-32 -33 -71 -40t-74.5 6t-77 29t-78.5 28t-80 2.5t-80 -45.5v100q44 36 100.5 38t106.5 -16t98 -34.5t89.5 -9.5t66.5 51zM612 1020q148 0 273.5 -69t198.5 -188.5t73 -260.5q0 -140 -73 -259t-198.5 -188t-273.5 -69q-114 0 -217 41t-177 110
t-117.5 164.5t-43.5 200.5q0 215 162 366.5t393 151.5zM612 899q-176 0 -301 -117t-125 -280t125 -280.5t301 -117.5q169 0 292.5 118t123.5 280t-123.5 279.5t-292.5 117.5z" />
    <glyph glyph-name="Odieresis.smcp" horiz-adv-x="1212" 
d="M408 1206q0 35 24.5 58.5t59.5 23.5t59 -23.5t24 -58.5t-24 -59.5t-59 -24.5t-59.5 24.5t-24.5 59.5zM653 1206q0 35 23.5 58.5t58.5 23.5t59.5 -23.5t24.5 -58.5t-24.5 -59.5t-59.5 -24.5t-58.5 24.5t-23.5 59.5zM612 1020q-231 0 -393 -151.5t-162 -366.5
q0 -105 43.5 -200.5t117.5 -164.5t177 -110t217 -41q148 0 273.5 69t198.5 188t73 259q0 141 -73 260.5t-198.5 188.5t-273.5 69zM612 899q169 0 292.5 -117.5t123.5 -279.5t-123.5 -279t-292.5 -117q-177 0 -301.5 116.5t-124.5 279.5t125 280t301 117z" />
    <glyph glyph-name="Oslash.smcp" horiz-adv-x="1212" 
d="M109 -59l133 176q-88 72 -136.5 171.5t-48.5 213.5q0 215 162 366.5t393 151.5q140 0 260 -66l91 121h131l-133 -178q91 -72 143.5 -175t52.5 -220q0 -140 -73 -259t-198.5 -188t-273.5 -69q-157 0 -284 73l-88 -118h-131zM319 219l476 633q-86 47 -183 47
q-176 0 -301 -117t-125 -280q0 -166 133 -283zM883 795l-477 -633q94 -56 206 -56q169 0 292.5 117t123.5 279q0 85 -39 161t-106 132z" />
    <glyph glyph-name="Ugrave.smcp" horiz-adv-x="1007" 
d="M461 1366l90 -258h-88l-129 258h127zM911 1006l-2 -662q0 -109 -57 -192t-148 -124.5t-200 -41.5q-110 0 -201.5 41.5t-148 124.5t-56.5 192v662h129v-662q0 -111 81 -174.5t196 -63.5q116 0 196 63.5t80 174.5v662h131z" />
    <glyph glyph-name="Uacute.smcp" horiz-adv-x="1007" 
d="M457 1108l92 258h125l-129 -258h-88zM780 1006v-662q0 -111 -80 -174.5t-196 -63.5q-115 0 -196 63.5t-81 174.5v662h-129v-662q0 -109 56.5 -192t148 -124.5t201.5 -41.5t201.5 41.5t148.5 124.5t57 192v662h-131z" />
    <glyph glyph-name="Ucircumflex.smcp" horiz-adv-x="1007" 
d="M461 1358h90l184 -256h-106l-123 180l-123 -180h-107zM780 1006v-662q0 -111 -80 -174.5t-196 -63.5q-115 0 -196 63.5t-81 174.5v662h-129v-662q0 -109 56.5 -192t148 -124.5t201.5 -41.5t201.5 41.5t148.5 124.5t57 192v662h-131z" />
    <glyph glyph-name="Yacute.smcp" horiz-adv-x="882" 
d="M385 1108l90 258h127l-129 -258h-88zM502 0v301l364 705h-141l-287 -568l-282 568h-140l355 -709v-297h131z" />
    <glyph glyph-name="Thorn.smcp" horiz-adv-x="888" 
d="M209 1006h307q137 0 227.5 -83.5t90.5 -222.5q0 -133 -92 -216t-226 -83h-307v-401h-131v1202h131v-196zM209 510h280q90 0 151.5 51t61.5 135q0 91 -59.5 143t-153.5 52h-280v-381z" />
    <glyph glyph-name="OE.smcp" horiz-adv-x="1847" 
d="M1749 573v-118h-590v-346h610v-109h-741v223q-58 -106 -170 -171.5t-246 -65.5q-114 0 -217 41t-177 110t-117.5 164.5t-43.5 200.5q0 215 162 366.5t393 151.5q134 0 246 -66t170 -174v226h741v-113h-610v-320h590zM612 899q-176 0 -301 -117t-125 -280t124.5 -279.5
t301.5 -116.5q87 0 164.5 32.5t132.5 87.5t87 130.5t32 157.5q-6 159 -128.5 272t-287.5 113z" />
    <glyph glyph-name="Scaron.smcp" horiz-adv-x="923" 
d="M455 1176l120 182h107l-184 -256h-90l-185 256h107zM82 117v139q78 -75 183 -114.5t204 -39.5q66 0 122.5 17.5t97 60t40.5 103.5q0 49 -36 82t-93.5 51t-126.5 33t-138.5 34t-127 46.5t-93.5 78.5t-36 123q0 70 33.5 126.5t88 91t121 53t136.5 18.5q95 0 189.5 -33
t164.5 -94v-137q-72 70 -168 109.5t-186 39.5q-65 0 -120.5 -17.5t-94.5 -60t-39 -102.5q0 -46 36 -77.5t94 -49t127.5 -32.5t139.5 -34.5t128 -48t94 -80.5t36 -124q0 -74 -34.5 -132t-92 -92t-125.5 -51.5t-141 -17.5q-103 0 -204.5 33.5t-178.5 97.5z" />
    <glyph glyph-name="Lslash.smcp" horiz-adv-x="849" 
d="M803 113v-113h-705v395l-127 -57v102l127 58v508h131v-455l244 113v-105l-244 -110v-336h574z" />
    <glyph glyph-name="Ydieresis.smcp" horiz-adv-x="882" 
d="M233 1206q0 35 24.5 58.5t59.5 23.5t58.5 -23.5t23.5 -58.5t-23.5 -59.5t-58.5 -24.5t-59.5 24.5t-24.5 59.5zM477 1206q0 35 24.5 58.5t59.5 23.5t59.5 -23.5t24.5 -58.5t-24.5 -59.5t-59.5 -24.5t-59.5 24.5t-24.5 59.5zM502 0v301l364 705h-141l-287 -568l-282 568
h-140l355 -709v-297h131z" />
    <glyph glyph-name="f_j" horiz-adv-x="1062" 
d="M164 1008v92q0 282 285 282q45 0 92 -8v-108q-66 8 -92 8q-140 0 -140 -180v-86h242v-111h-242v-897h-145v897h-127v111h127zM752 1251q0 43 28 71t70 28t70 -28t28 -71q0 -41 -28.5 -69.5t-69.5 -28.5t-69.5 28.5t-28.5 69.5zM778 1006v-1110q0 -183 -139 -183
q-35 0 -92 11v-113q46 -6 92 -6q285 0 285 282v1119h-146z" />
    <glyph glyph-name="f_f_j" horiz-adv-x="1656" 
d="M758 1008v92q0 282 284 282q46 0 93 -8v-108q-66 8 -93 8q-66 0 -102.5 -41.5t-36.5 -138.5v-86h242v-111h-242v-897h-145v897h-449v-897h-145v897h-127v111h127v92q0 282 285 282q45 0 92 -8v-108q-66 8 -92 8q-140 0 -140 -180v-86h449zM1372 1006v-1110
q0 -183 -139 -183q-35 0 -92 11v-113q47 -6 92 -6q285 0 285 282v1119h-146zM1346 1251q0 43 28 71t70 28t70 -28t28 -71q0 -41 -28.5 -69.5t-69.5 -28.5t-69.5 28.5t-28.5 69.5z" />
    </font>
</defs>
</svg>
