<?xml version="1.0" standalone="no"?>
<!DOCTYPE svg PUBLIC "-//W3C//DTD SVG 1.1//EN" "http://www.w3.org/Graphics/SVG/1.1/DTD/svg11.dtd" >
<svg xmlns="http://www.w3.org/2000/svg" xmlns:xlink="http://www.w3.org/1999/xlink" version="1.1">
<metadata>
Created by FontForge 20170731 at Sun Oct  2 02:26:16 2022
 By Aleksey,,,
Copyright (c) 2014 by Gumpita Rahayu. All rights reserved.
</metadata>
<defs>
<font id="Metrisch-Bold" horiz-adv-x="1314" >
  <font-face 
    font-family="Metrisch"
    font-weight="700"
    font-stretch="normal"
    units-per-em="2048"
    panose-1="2 0 8 3 5 0 0 2 0 4"
    ascent="1536"
    descent="-512"
    x-height="1008"
    cap-height="1366"
    bbox="-322 -565 2908 1851"
    underline-thickness="40"
    underline-position="-245"
    unicode-range="U+0020-FB04"
  />
<missing-glyph horiz-adv-x="575" 
 />
    <glyph glyph-name="f_f" unicode="ff" horiz-adv-x="1302" 
d="M795 1008v67q0 303 360 303q44 0 96 -8v-201q-12 1 -33 4t-36.5 5t-26.5 2q-78 0 -78 -119v-53h193v-203h-193v-805h-282v805h-363v-805h-282v805h-117v203h117v67q0 303 360 303q44 0 96 -8v-201q-12 1 -33 4t-36.5 5t-26.5 2q-78 0 -78 -119v-53h363z" />
    <glyph glyph-name="fi" unicode="fi" horiz-adv-x="1196" 
d="M915 1122q-59 0 -97 38t-38 97t38.5 97.5t96.5 38.5q60 0 99 -38.5t39 -97.5t-39 -97t-99 -38zM432 1008h629v-1008h-281v805h-348v-805h-282v805h-117v203h117v67q0 303 360 303q44 0 96 -8v-201q-12 1 -33 4t-36.5 5t-26.5 2q-78 0 -78 -119v-53z" />
    <glyph glyph-name="fl" unicode="fl" horiz-adv-x="1196" 
d="M150 1008v67q0 303 360 303q44 0 96 -8v-201q-12 1 -33 4t-36.5 5t-26.5 2q-78 0 -78 -119v-53h193v-203h-193v-805h-282v805h-117v203h117zM1061 0h-281v1362h281v-1362z" />
    <glyph glyph-name="f_f_i" unicode="ffi" horiz-adv-x="1841" 
d="M795 1008v67q0 303 360 303q44 0 96 -8v-201q-12 1 -33 4t-36.5 5t-26.5 2q-78 0 -78 -119v-53h193v-203h-193v-805h-282v805h-363v-805h-282v805h-117v203h117v67q0 303 360 303q44 0 96 -8v-201q-12 1 -33 4t-36.5 5t-26.5 2q-78 0 -78 -119v-53h363zM1425 0h281v1008
h-281v-1008zM1425 1298q0 58 38.5 97t97.5 39q60 0 98.5 -38.5t38.5 -97.5t-38.5 -97t-98.5 -38q-59 0 -97.5 38.5t-38.5 96.5z" />
    <glyph glyph-name="f_f_l" unicode="ffl" horiz-adv-x="1841" 
d="M795 1008v67q0 303 360 303q44 0 96 -8v-201q-12 1 -33 4t-36.5 5t-26.5 2q-78 0 -78 -119v-53h193v-203h-193v-805h-282v805h-363v-805h-282v805h-117v203h117v67q0 303 360 303q44 0 96 -8v-201q-12 1 -33 4t-36.5 5t-26.5 2q-78 0 -78 -119v-53h363zM1706 0h-281v1362
h281v-1362z" />
    <glyph glyph-name=".notdef" horiz-adv-x="575" 
 />
    <glyph glyph-name=".null" horiz-adv-x="0" 
 />
    <glyph glyph-name="nonmarkingreturn" horiz-adv-x="682" 
 />
    <glyph glyph-name="space" unicode=" " horiz-adv-x="575" 
 />
    <glyph glyph-name="exclam" unicode="!" horiz-adv-x="628" 
d="M397 365h-170l-51 1001h277zM174 135q0 60 38 98.5t97 38.5q60 0 98.5 -38.5t38.5 -98.5q0 -59 -38.5 -97t-98.5 -38q-59 0 -97 38t-38 97z" />
    <glyph glyph-name="quotedbl" unicode="&#x22;" horiz-adv-x="856" 
d="M199 936l49 160q-51 7 -82 43.5t-31 89.5q0 60 38 98.5t97 38.5q60 0 99 -38.5t39 -98.5q0 -26 -25.5 -77t-124.5 -216h-59zM543 936l49 160q-51 7 -82 43.5t-31 89.5q0 60 38 98.5t97 38.5q60 0 99 -38.5t39 -98.5q0 -26 -25.5 -77t-124.5 -216h-59z" />
    <glyph glyph-name="numbersign" unicode="#" horiz-adv-x="1765" 
d="M952 -35l60 342h-367l-59 -342h-254l59 342h-256l41 238h258l43 254h-256l41 235h258l62 357h256l-64 -357h367l63 357h254l-61 -357h233l-41 -235h-235l-43 -254h233l-41 -238h-235l-60 -342h-256zM1055 545l43 254h-367l-43 -254h367z" />
    <glyph glyph-name="dollar" unicode="$" horiz-adv-x="1300" 
d="M553 -172v158q-112 11 -216.5 53.5t-184.5 112.5v251q72 -72 179 -118t222 -60v348q-49 13 -86.5 25t-83 31.5t-79 41.5t-67 54t-55 69.5t-34.5 87.5t-13 109q0 85 34.5 155.5t93.5 117t132.5 75.5t157.5 39v131h172v-131q217 -26 369 -157v-254q-69 72 -167 117t-202 57
v-363q52 -14 89 -25.5t85 -31t82 -40.5t69 -52t56.5 -67t35 -85t13.5 -106q0 -87 -36 -158t-97.5 -116.5t-136.5 -72.5t-160 -36v-160h-172zM553 829v310q-72 -10 -119 -50.5t-47 -113.5q0 -56 42.5 -88.5t123.5 -57.5zM725 524v-297q67 10 113.5 50t46.5 110q0 53 -41 83
t-119 54z" />
    <glyph glyph-name="percent" unicode="%" horiz-adv-x="1943" 
d="M625 0h-191l946 1366h191zM489 1364q153 0 254 -96.5t101 -263.5t-100.5 -263t-254.5 -96q-153 0 -253.5 97t-100.5 262q0 166 100 263t254 97zM489 1204q-78 0 -130 -50.5t-52 -149.5q0 -100 52 -149.5t130 -49.5q79 0 130 49.5t51 149.5q0 85 -46 142.5t-135 57.5z
M1485 719q154 0 254 -97t100 -264t-99.5 -262.5t-254.5 -95.5q-152 0 -252 97t-100 261q0 166 100 263.5t252 97.5zM1485 559q-76 0 -128 -51.5t-52 -149.5q0 -99 51.5 -148.5t128.5 -49.5q81 0 131.5 49t50.5 149q0 85 -46 143t-136 58z" />
    <glyph glyph-name="ampersand" unicode="&#x26;" horiz-adv-x="1503" 
d="M1133 -43l-140 170q-49 -41 -83.5 -65t-83.5 -50.5t-103.5 -38.5t-118.5 -12q-69 0 -138 15t-137 49.5t-119.5 84.5t-83.5 126.5t-32 169.5q7 129 83 219.5t216 173.5q-190 186 -190 344q0 84 55 152.5t142 105.5t186 37q160 0 274.5 -85.5t114.5 -219.5
q0 -52 -21 -101.5t-61 -92.5t-77.5 -75t-90.5 -69q52 -53 137.5 -153t110.5 -128q42 66 82 191h260q-68 -245 -178 -408l272 -340h-276zM578 944q70 42 112.5 87.5t42.5 103.5t-44 92.5t-103 34.5q-58 0 -97.5 -35.5t-39.5 -85.5q0 -90 129 -197zM846 328q-213 240 -305 340
q-13 -12 -47.5 -41t-52.5 -47t-41.5 -46.5t-34.5 -60t-11 -67.5q0 -90 70 -137.5t170 -47.5q148 0 252 107z" />
    <glyph glyph-name="quotesingle" unicode="'" horiz-adv-x="561" 
d="M223 936l49 160q-51 7 -81.5 43.5t-30.5 89.5q0 60 38 98.5t97 38.5q60 0 98.5 -38.5t38.5 -98.5q0 -26 -25.5 -78t-123.5 -215h-60z" />
    <glyph glyph-name="parenleft" unicode="(" horiz-adv-x="827" 
d="M551 1405l172 -150q-166 -121 -249 -309t-83 -401q0 -140 33.5 -269t110 -247.5t188.5 -196.5l-172 -149q-103 59 -184.5 157.5t-131 215.5t-75 241.5t-25.5 247.5q0 122 25 245t74 240t131 216t186 159z" />
    <glyph glyph-name="parenright" unicode=")" horiz-adv-x="827" 
d="M276 -317l-172 149q112 78 188.5 196.5t110 247.5t33.5 269q0 213 -83 401t-249 309l172 150q104 -60 186 -159t131 -216t74 -240t25 -245q0 -123 -25.5 -247.5t-75 -241.5t-131 -215.5t-184.5 -157.5z" />
    <glyph glyph-name="asterisk" unicode="*" horiz-adv-x="956" 
d="M635 1081l188 -125l-102 -135l-148 119v-192h-188v192l-149 -119l-101 135l189 125l-189 127l101 133l149 -118v176h188v-176l148 118l102 -133z" />
    <glyph glyph-name="plus" unicode="+" horiz-adv-x="1265" 
d="M514 393h-358v238h358v358h236v-358h360v-238h-360v-342h-236v342z" />
    <glyph glyph-name="comma" unicode="," horiz-adv-x="430" 
d="M143 -158l50 160q-51 7 -82 43.5t-31 89.5q0 60 38 98.5t97 38.5q60 0 98.5 -38.5t38.5 -98.5q0 -27 -25 -77.5t-124 -215.5h-60z" />
    <glyph glyph-name="hyphen" unicode="-" horiz-adv-x="839" 
d="M705 631v-238h-570v238h570z" />
    <glyph glyph-name="period" unicode="." horiz-adv-x="428" 
d="M78 135q0 60 38 98.5t97 38.5q60 0 98.5 -38.5t38.5 -98.5q0 -59 -38.5 -97t-98.5 -38q-59 0 -97 38t-38 97z" />
    <glyph glyph-name="slash" unicode="/" horiz-adv-x="784" 
d="M162 -55h-191l652 1423h190z" />
    <glyph glyph-name="zero" unicode="0" horiz-adv-x="1409" 
d="M676 1384q125 0 233.5 -47t190 -134t128 -221.5t46.5 -299.5q0 -164 -46.5 -298t-127.5 -221t-189.5 -134t-234.5 -47q-127 0 -236.5 48t-190.5 136t-127 221t-46 295q0 163 46 296.5t127 221.5t190.5 136t236.5 48zM676 1106q-130 0 -216.5 -113t-86.5 -311
q0 -197 86.5 -309.5t216.5 -112.5q129 0 215 112.5t86 309.5q0 79 -18.5 152.5t-54 135t-94.5 99t-134 37.5z" />
    <glyph glyph-name="one" unicode="1" horiz-adv-x="804" 
d="M311 0v1102q-133 -62 -248 -119v254l275 129h270v-1366h-297z" />
    <glyph glyph-name="two" unicode="2" horiz-adv-x="1232" 
d="M106 920v292q87 82 203.5 126t235.5 46q83 1 161.5 -17.5t149 -59.5t123.5 -99.5t84 -142t31 -182.5q0 -42 -19 -89t-46.5 -88t-74.5 -90t-86 -84.5t-98.5 -82.5t-95.5 -73.5t-92 -66.5l-58 -45h574v-264h-1035v256q61 45 154 106q77 53 128 88.5t130 93.5t130.5 102
t103.5 93t78 89.5t26 70.5q0 72 -41 125t-100.5 76t-124.5 22q-115 -2 -233.5 -54.5t-207.5 -147.5z" />
    <glyph glyph-name="three" unicode="3" horiz-adv-x="1230" 
d="M645 1118h-551v248h938v-205l-381 -330q102 0 180 -20t140 -65t94.5 -125t32.5 -193q0 -109 -51 -196.5t-134.5 -140.5t-183.5 -81t-205 -28q-222 0 -405 98v278q182 -112 405 -112q70 0 135 19.5t111.5 63.5t46.5 103q0 113 -77.5 166t-215.5 53q-122 0 -286 -41v164z
" />
    <glyph glyph-name="four" unicode="4" horiz-adv-x="1349" 
d="M836 1366h278v-856h121v-231h-121v-279h-297v279h-733v225zM817 510v453q-68 -77 -395 -453h395z" />
    <glyph glyph-name="five" unicode="5" horiz-adv-x="1228" 
d="M104 1366h914v-248h-682v-282q116 43 252 43q78 1 150 -14t137.5 -49.5t113.5 -85t76.5 -126t28.5 -168.5q0 -84 -33 -158t-89 -127t-129.5 -92t-156 -58t-166.5 -19q-219 0 -405 98v278q186 -114 405 -114q70 0 136 21t112.5 66.5t46.5 104.5q0 68 -44.5 120t-107 76.5
t-126.5 24.5q-100 0 -161.5 -11t-164.5 -48h-107v768z" />
    <glyph glyph-name="six" unicode="6" horiz-adv-x="1359" 
d="M1122 1253v-274q-88 77 -198.5 117.5t-221.5 40.5q-81 0 -154.5 -47t-117.5 -124t-43 -159q120 96 305 96q99 0 192.5 -31.5t166.5 -87t117 -138t44 -177.5q0 -146 -77.5 -258.5t-201 -169.5t-269.5 -57q-116 0 -209.5 38.5t-155.5 103.5t-104 154t-60 186.5t-18 205.5
q0 69 10.5 138.5t33 139.5t55 133.5t81 118.5t106.5 95.5t135 63.5t164 23q109 0 222.5 -36t197.5 -95zM664 248q114 0 191 59.5t77 161.5q0 93 -80 156t-184 63q-192 0 -279 -98q6 -152 77.5 -246.5t197.5 -95.5z" />
    <glyph glyph-name="seven" unicode="7" horiz-adv-x="1202" 
d="M819 1118h-684v248h975v-236l-520 -1130h-287z" />
    <glyph glyph-name="eight" unicode="8" horiz-adv-x="1292" 
d="M111 442q0 118 65 206t168 128q-58 36 -93.5 100t-35.5 152q0 105 61.5 187.5t159.5 125.5t211 43q109 -2 204.5 -42.5t159.5 -124.5t64 -195q0 -91 -40.5 -153.5t-110.5 -94.5q117 -41 188.5 -124.5t71.5 -207.5q-2 -92 -34 -168.5t-84.5 -129t-122.5 -89.5t-147 -54
t-159 -17q-139 0 -257.5 54t-193.5 160t-75 244zM639 852q71 0 122.5 38t51.5 105q0 65 -51 104.5t-117 39.5q-67 0 -115.5 -39t-48.5 -105q0 -65 46 -104t112 -39zM637 250q65 0 123.5 21.5t100 70.5t42.5 117q0 62 -39.5 111t-98 73.5t-120.5 24.5q-104 0 -179 -58
t-75 -151q0 -95 72 -152t174 -57z" />
    <glyph glyph-name="nine" unicode="9" horiz-adv-x="1363" 
d="M219 115v274q85 -77 197 -117.5t223 -40.5q124 0 223 102t99 230q-122 -98 -306 -98q-99 0 -192.5 31.5t-166.5 87t-117 138t-44 177.5q0 146 77.5 258.5t201.5 169.5t270 57q115 0 208.5 -38.5t156 -103.5t104 -154t60 -186.5t18.5 -205.5q0 -97 -21 -194.5t-68 -191.5
t-114.5 -166t-168 -116t-220.5 -44q-111 0 -222 34.5t-198 96.5zM684 1118q-115 0 -191.5 -58.5t-76.5 -160.5q0 -93 79 -157t183 -64q192 0 280 100q-8 153 -78 246.5t-196 93.5z" />
    <glyph glyph-name="colon" unicode=":" horiz-adv-x="428" 
d="M78 690q0 58 38 96.5t97 38.5q60 0 98.5 -38t38.5 -97q0 -60 -38.5 -98.5t-98.5 -38.5q-59 0 -97 38.5t-38 98.5zM78 135q0 60 38 98.5t97 38.5q60 0 98.5 -38.5t38.5 -98.5q0 -59 -38.5 -97t-98.5 -38q-59 0 -97 38t-38 97z" />
    <glyph glyph-name="semicolon" unicode=";" horiz-adv-x="428" 
d="M213 553q-59 0 -97 38.5t-38 98.5q0 58 38 96.5t97 38.5q60 0 98.5 -38t38.5 -97q0 -60 -38.5 -98.5t-98.5 -38.5zM143 -158l47 160q-50 8 -80 44.5t-30 88.5q0 60 38 98.5t97 38.5q60 0 98.5 -38.5t38.5 -98.5q0 -50 -28 -86l-121 -207h-60z" />
    <glyph glyph-name="less" unicode="&#x3c;" horiz-adv-x="1030" 
d="M834 952v-241l-476 -197l476 -211v-227l-689 321v234z" />
    <glyph glyph-name="equal" unicode="=" horiz-adv-x="976" 
d="M135 809h707v-203h-707v203zM135 453h707v-205h-707v205z" />
    <glyph glyph-name="greater" unicode="&#x3e;" horiz-adv-x="1030" 
d="M197 76v227l475 211l-475 197v241l688 -321v-234z" />
    <glyph glyph-name="question" unicode="?" horiz-adv-x="1024" 
d="M63 1006v266q81 56 181.5 86t201.5 28q130 -2 240.5 -53t177 -142.5t66.5 -203.5q0 -49 -24.5 -96.5t-63 -86.5t-85 -78.5t-91.5 -79.5t-82 -81.5t-57 -93t-15 -106.5h-221q-2 75 17 140t51.5 111.5t72 87t79.5 73.5t73 63t54 63.5t21 67.5q0 70 -70.5 116t-176.5 46
q-191 0 -349 -127zM262 135q0 60 38 98.5t97 38.5q60 0 99 -38.5t39 -98.5q0 -59 -39 -97t-99 -38q-59 0 -97 38t-38 97z" />
    <glyph glyph-name="at" unicode="@" horiz-adv-x="1724" 
d="M1214 102v-178q-158 -82 -350 -82q-151 0 -288 54.5t-239 150.5t-162 236t-60 301q0 154 61.5 286t164.5 221t240 139t287 50t274 -35t207.5 -93t142.5 -136t86.5 -161.5t29.5 -172.5q6 -219 -86 -362t-234 -146q-97 -2 -165 32t-83 95q-44 -39 -102 -61.5t-113 -22.5
q-70 0 -136.5 24.5t-118.5 68t-83.5 110t-31.5 145.5q0 102 54 183t138 122t178 41q118 0 213 -82v66h156v-451q0 -79 20.5 -107t73.5 -26q70 4 110 88t38 217q-1 71 -22 137.5t-66 128.5t-110 108.5t-160 74t-210 27.5q-156 0 -284 -61.5t-204.5 -178.5t-76.5 -268
q0 -164 75.5 -295.5t203 -203t282.5 -71.5q176 0 350 88zM1006 467v178q-67 94 -164 94q-67 0 -116.5 -47.5t-49.5 -126.5q0 -89 49.5 -140.5t116.5 -51.5q97 0 164 94z" />
    <glyph glyph-name="A" unicode="A" horiz-adv-x="1341" 
d="M991 0l-106 295h-428l-107 -295h-317l493 1366h289l494 -1366h-318zM815 526l-145 441l-144 -441h289z" />
    <glyph glyph-name="B" unicode="B" horiz-adv-x="1312" 
d="M135 1366h639q77 0 146 -21t125.5 -62t90 -108t33.5 -151q0 -99 -43.5 -178.5t-115.5 -118.5q100 -34 160.5 -129.5t60.5 -222.5q0 -169 -120 -272t-292 -103h-684v1366zM428 825h299q69 2 116.5 36t47.5 97q0 69 -53.5 107.5t-128.5 38.5h-281v-279zM428 262h326
q86 0 141 44t55 120q0 87 -61 128.5t-162 41.5h-299v-334z" />
    <glyph glyph-name="C" unicode="C" horiz-adv-x="1312" 
d="M1167 369v-295q-173 -92 -350 -92q-150 0 -286 55.5t-234 149t-155.5 223t-57.5 272.5t57.5 273t155.5 224t234 149.5t286 55.5q177 0 350 -92v-293q-168 107 -350 107q-181 0 -309.5 -124.5t-128.5 -299.5q0 -174 128.5 -298t309.5 -124q171 0 350 109z" />
    <glyph glyph-name="D" unicode="D" horiz-adv-x="1390" 
d="M135 1366h516q182 0 335 -91.5t242 -249t89 -343.5q0 -139 -52.5 -265t-141.5 -217.5t-212.5 -145.5t-259.5 -54h-516v1366zM430 262h170q176 0 299 123t123 297t-123 298t-299 124h-170v-842z" />
    <glyph glyph-name="E" unicode="E" horiz-adv-x="1224" 
d="M1096 815v-278h-664v-291h698v-246h-995v1366h995v-262h-698v-289h664z" />
    <glyph glyph-name="F" unicode="F" horiz-adv-x="1224" 
d="M1094 815v-278h-664v-537h-295v1366h995v-262h-700v-289h664z" />
    <glyph glyph-name="G" unicode="G" horiz-adv-x="1376" 
d="M1200 1292v-293q-186 107 -383 107q-181 0 -309.5 -124.5t-128.5 -299.5q0 -174 128.5 -298t309.5 -124q81 0 148 21v288h-324v232h590v-709q-203 -110 -414 -110q-150 0 -286 55.5t-234 149t-155.5 223t-57.5 272.5t57.5 273t155.5 224t234 149.5t286 55.5
q188 0 383 -92z" />
    <glyph glyph-name="H" unicode="H" horiz-adv-x="1380" 
d="M950 817v549h297v-1366h-297v537h-520v-537h-295v1366h295v-549h520z" />
    <glyph glyph-name="I" unicode="I" horiz-adv-x="563" 
d="M428 0h-293v1366h293v-1366z" />
    <glyph glyph-name="J" unicode="J" horiz-adv-x="1036" 
d="M145 76v297q148 -113 287 -113q71 0 123.5 54.5t52.5 127.5v924h295v-940q0 -115 -54.5 -216t-156.5 -164.5t-227 -63.5q-164 0 -320 94z" />
    <glyph glyph-name="K" unicode="K" horiz-adv-x="1372" 
d="M430 852l455 514h387l-465 -530l502 -836h-342l-373 623l-164 -166v-457h-295v1366h295v-514z" />
    <glyph glyph-name="L" unicode="L" horiz-adv-x="1175" 
d="M1104 262v-262h-969v1366h295v-1104h674z" />
    <glyph glyph-name="M" unicode="M" horiz-adv-x="1646" 
d="M1214 0v653l-296 -653h-189l-301 653v-653h-293v1366h207l481 -960l480 960h208v-1366h-297z" />
    <glyph glyph-name="N" unicode="N" horiz-adv-x="1376" 
d="M944 535v831h297v-1366h-223l-590 842v-842h-293v1366h221z" />
    <glyph glyph-name="O" unicode="O" horiz-adv-x="1638" 
d="M827 1384q195 0 360.5 -93.5t262 -255.5t96.5 -353q0 -143 -57 -272.5t-153 -223t-229.5 -149t-279.5 -55.5q-150 0 -286 55.5t-234 149t-155.5 223t-57.5 272.5t57.5 273t155.5 224t234 149.5t286 55.5zM827 1104q-181 0 -309.5 -124t-128.5 -298t128.5 -298t309.5 -124
q173 0 297.5 124.5t124.5 297.5t-124.5 297.5t-297.5 124.5z" />
    <glyph glyph-name="P" unicode="P" horiz-adv-x="1282" 
d="M135 1366h641q177 0 294.5 -122.5t117.5 -328.5q0 -194 -119.5 -315t-292.5 -121h-346v-479h-295v1366zM430 729h264q86 0 141.5 45.5t55.5 124.5q0 97 -54.5 150t-142.5 53h-264v-373z" />
    <glyph glyph-name="Q" unicode="Q" horiz-adv-x="1667" 
d="M1257 -143l-151 184q-127 -59 -279 -59q-150 0 -286 55.5t-234 149t-155.5 223t-57.5 272.5t57.5 273t155.5 224t234 149.5t286 55.5q195 0 360.5 -93.5t262 -255.5t96.5 -353q0 -149 -60 -280.5t-165 -229.5l252 -315h-316zM827 1104q-181 0 -309.5 -124t-128.5 -298
t128.5 -298t309.5 -124q173 0 297.5 124.5t124.5 297.5t-124.5 297.5t-297.5 124.5z" />
    <glyph glyph-name="R" unicode="R" horiz-adv-x="1316" 
d="M135 1366h641q177 0 294.5 -127t117.5 -340q0 -142 -79 -243t-210 -144l324 -512h-334l-291 479h-168v-479h-295v1366zM430 729h264q86 0 141.5 45.5t55.5 124.5q0 97 -54.5 150t-142.5 53h-264v-373z" />
    <glyph glyph-name="S" unicode="S" horiz-adv-x="1245" 
d="M150 156v293q97 -97 236.5 -150t272.5 -53q38 0 72.5 7t66.5 23t51 46t19 71q0 27 -14.5 48t-45.5 37.5t-62.5 28t-81.5 25.5q-23 7 -67.5 20t-72 21t-70.5 23.5t-71 28.5t-65 34t-60.5 42t-49 51.5t-40 64t-24 76.5t-9.5 92q0 78 29 144.5t78.5 113t115 78.5t137.5 47.5
t148 15.5q123 0 244.5 -43.5t214.5 -126.5v-292q-92 95 -216.5 147.5t-242.5 52.5q-42 0 -79.5 -7t-72.5 -23t-56 -47.5t-21 -75.5q0 -22 8.5 -41t28.5 -34t39 -26t54.5 -23t59.5 -19t68 -19q48 -13 74.5 -20t74 -22.5t75.5 -28t68.5 -33.5t65 -42t52.5 -51.5t43 -63.5
t25.5 -76.5t10.5 -92.5q0 -79 -30 -145.5t-80.5 -112t-118 -77t-140.5 -46t-149 -14.5q-132 0 -263.5 44.5t-229.5 129.5z" />
    <glyph glyph-name="T" unicode="T" horiz-adv-x="1181" 
d="M1100 1366v-264h-361v-1102h-297v1102h-358v264h1016z" />
    <glyph glyph-name="U" unicode="U" horiz-adv-x="1378" 
d="M1243 1366v-852q0 -122 -45.5 -223.5t-122 -168t-176 -103.5t-209.5 -37t-210 37t-177 103.5t-122.5 168t-45.5 223.5v852h297v-852q0 -120 74.5 -187t183.5 -67q111 0 184.5 66.5t73.5 187.5v852h295z" />
    <glyph glyph-name="V" unicode="V" horiz-adv-x="1376" 
d="M690 467l322 899h331l-526 -1366h-274l-510 1366h332z" />
    <glyph glyph-name="W" unicode="W" horiz-adv-x="1945" 
d="M1079 1366l314 -823q20 91 58.5 259t70 306.5t57.5 257.5h334l-367 -1366h-243l-324 829q-55 -157 -164.5 -453t-138.5 -376h-240l-403 1366h336l217 -825l284 825h209z" />
    <glyph glyph-name="X" unicode="X" horiz-adv-x="1323" 
d="M662 446l-304 -446h-325l459 686l-455 680h328l297 -438l296 438h326l-450 -680l456 -686h-325z" />
    <glyph glyph-name="Y" unicode="Y" horiz-adv-x="1284" 
d="M33 1366h319l281 -666q56 128 165.5 370.5t133.5 295.5h319l-475 -967v-399h-301v397z" />
    <glyph glyph-name="Z" unicode="Z" horiz-adv-x="1359" 
d="M508 264h717v-264h-1090v256l731 846h-731v264h1090v-256z" />
    <glyph glyph-name="bracketleft" unicode="[" horiz-adv-x="763" 
d="M197 -354v1720h432v-205h-178v-1327h178v-188h-432z" />
    <glyph glyph-name="backslash" unicode="\" horiz-adv-x="784" 
d="M813 -55h-190l-652 1423h191z" />
    <glyph glyph-name="bracketright" unicode="]" horiz-adv-x="763" 
d="M313 -166v1327h-178v205h432v-1720h-432v188h178z" />
    <glyph glyph-name="asciicircum" unicode="^" horiz-adv-x="1122" 
d="M561 1200l-168 -246h-196l282 422h164l283 -422h-199z" />
    <glyph glyph-name="underscore" unicode="_" horiz-adv-x="1206" 
d="M1073 49v-170h-938v170h938z" />
    <glyph glyph-name="grave" unicode="`" horiz-adv-x="675" 
d="M197 1366h219l63 -266h-153z" />
    <glyph glyph-name="a" unicode="a" horiz-adv-x="1165" 
d="M739 0v88q-109 -106 -250 -106q-59 0 -117.5 11.5t-114.5 38.5t-99 66t-69 98.5t-26 131.5q0 131 95 215t229 84h348q-12 100 -79.5 141t-206.5 41q-193 -12 -304 -92v229q70 39 157.5 59.5t166.5 20.5q553 0 553 -440q0 -98 1 -293t1 -293h-285zM739 436h-235
q-76 0 -125 -30t-49 -82q0 -63 58.5 -93t135.5 -30q129 0 215 121v114z" />
    <glyph glyph-name="b" unicode="b" horiz-adv-x="1265" 
d="M395 1362v-444q52 50 116 79t128 29q148 0 272 -66.5t197.5 -187t73.5 -268.5t-73.5 -268.5t-197.5 -187t-272 -66.5q-142 0 -244 92v-74h-280v1362h280zM395 668v-346q97 -121 244 -121q109 0 184.5 86.5t75.5 216.5t-75.5 216.5t-184.5 86.5q-146 0 -244 -139z" />
    <glyph glyph-name="c" unicode="c" horiz-adv-x="1155" 
d="M1020 913v-249q-160 129 -350 129q-125 0 -215 -82t-90 -207t90 -207t215 -82q190 0 350 129v-250q-156 -112 -350 -112q-156 0 -289.5 65t-215 186t-81.5 271t81.5 271t215 186t289.5 65q193 0 350 -113z" />
    <glyph glyph-name="d" unicode="d" horiz-adv-x="1265" 
d="M1151 1362v-1362h-283v74q-114 -92 -241 -92q-148 0 -272 66.5t-197.5 187t-73.5 268.5t73.5 268.5t197.5 187t272 66.5q142 0 241 -108v444h283zM868 322v346q-46 69 -109 104t-132 35q-109 0 -185.5 -86.5t-76.5 -216.5t76.5 -216.5t185.5 -86.5q148 0 241 121z" />
    <glyph glyph-name="e" unicode="e" horiz-adv-x="1236" 
d="M1139 457h-783q6 -107 94 -180.5t232 -73.5q216 0 399 123v-211q-58 -56 -173.5 -92.5t-241.5 -36.5q-163 0 -296 68.5t-209.5 190.5t-76.5 273q2 216 157.5 362t385.5 146q111 0 213 -49.5t171.5 -129t105.5 -183.5t22 -207zM369 639h505q-4 71 -76 119.5t-171 48.5
q-105 0 -178.5 -47.5t-79.5 -120.5z" />
    <glyph glyph-name="f" unicode="f" horiz-adv-x="657" 
d="M150 1008v67q0 303 360 303q44 0 96 -8v-201q-12 1 -33 4t-36.5 5t-26.5 2q-78 0 -78 -119v-53h193v-203h-193v-805h-282v805h-117v203h117z" />
    <glyph glyph-name="g" unicode="g" horiz-adv-x="1267" 
d="M1153 1008v-979q0 -125 -49 -226t-130 -163t-181.5 -94.5t-208.5 -30.5q-121 -2 -241 39.5t-208 117.5v254q85 -87 205.5 -133.5t243.5 -46.5q116 0 202 75.5t86 207.5q0 21 -1 23.5t-1 21.5q-49 -42 -114 -67t-125 -25q-145 1 -269.5 66.5t-200.5 186t-75 269.5
q-1 149 75 269.5t200.5 186t269.5 66.5q64 0 127.5 -27.5t111.5 -80.5v90h283zM870 322v344q-46 69 -110 106t-129 35q-108 2 -185 -87t-77 -216q0 -131 76.5 -217t185.5 -86q65 0 129 31.5t110 89.5z" />
    <glyph glyph-name="h" unicode="h" horiz-adv-x="1255" 
d="M395 1362v-444q51 50 116.5 79t127.5 29q158 0 278 -69.5t182 -187.5t62 -265v-504h-282v504q0 131 -64 217t-176 86q-146 0 -244 -139v-668h-280v1362h280z" />
    <glyph glyph-name="i" unicode="i" horiz-adv-x="550" 
d="M135 1298q0 59 38.5 97.5t96.5 38.5q60 0 99 -38.5t39 -97.5t-39 -97t-99 -38q-58 0 -96.5 38.5t-38.5 96.5zM135 0h281v1008h-281v-1008z" />
    <glyph glyph-name="j" unicode="j" horiz-adv-x="563" 
d="M150 1298q0 59 38.5 97.5t96.5 38.5q60 0 98.5 -38.5t38.5 -97.5t-38.5 -97t-98.5 -38q-59 0 -97 38.5t-38 96.5zM147 1008v-1088q0 -119 -79 -119q-18 0 -97 9v-203q50 -6 97 -6q360 0 360 303v1104h-281z" />
    <glyph glyph-name="k" unicode="k" horiz-adv-x="1257" 
d="M414 1362v-678q193 166 370 324h381l-450 -396q89 -113 255.5 -326.5t223.5 -285.5h-330l-346 440l-104 -88v-352h-279v1362h279z" />
    <glyph glyph-name="l" unicode="l" horiz-adv-x="550" 
d="M416 0h-281v1362h281v-1362z" />
    <glyph glyph-name="m" unicode="m" horiz-adv-x="1966" 
d="M406 1008v-88q47 50 107 78t118 28q246 0 352 -190q74 91 171.5 140.5t205.5 49.5q239 0 361 -120t122 -314v-592h-282v528q0 118 -51.5 198.5t-149.5 80.5q-71 0 -134.5 -42.5t-99.5 -111.5v-653h-284v549q0 52 -10 95t-32.5 81t-65.5 60t-103 22q-65 0 -123.5 -35
t-101.5 -104v-668h-281v1008h281z" />
    <glyph glyph-name="n" unicode="n" horiz-adv-x="1296" 
d="M406 1008v-90q52 50 116.5 79t126.5 29q158 0 278 -69.5t182 -187.5t62 -265v-504h-282v504q0 132 -64 217.5t-176 85.5q-145 0 -243 -139v-668h-281v1008h281z" />
    <glyph glyph-name="o" unicode="o" horiz-adv-x="1294" 
d="M641 1028q117 0 222.5 -41.5t182 -112t121.5 -167t45 -203.5t-45 -203.5t-121.5 -166.5t-182 -111t-222.5 -41q-153 0 -281 70t-202 190t-74 262t74 262.5t202 191t281 70.5zM641 778q-111 0 -192.5 -81t-81.5 -193t81.5 -193.5t192.5 -81.5q119 0 203 81t84 194
t-83.5 193.5t-203.5 80.5z" />
    <glyph glyph-name="p" unicode="p" horiz-adv-x="1267" 
d="M115 1008h280v-90q50 50 115.5 79t126.5 29q145 -1 269.5 -66.5t200.5 -186t75 -269.5q1 -149 -75 -269.5t-200.5 -186t-269.5 -66.5q-139 0 -242 92q0 -95 -1 -227.5t-1 -227.5h-278v1389zM395 666v-344q46 -58 110.5 -89.5t131.5 -31.5q108 0 184.5 86t75.5 217
q1 126 -76 215.5t-184 87.5q-65 2 -130.5 -35t-111.5 -106z" />
    <glyph glyph-name="q" unicode="q" horiz-adv-x="1267" 
d="M1153 -381h-281q0 97 -1 227t-1 228q-49 -42 -114 -67t-125 -25q-145 1 -269.5 66.5t-200.5 186t-75 269.5q-1 149 75 269.5t200.5 186t269.5 66.5q64 0 127.5 -27.5t111.5 -80.5v90h283v-1389zM870 322v344q-46 69 -110 106t-129 35q-108 2 -185 -87t-77 -216
q0 -131 76.5 -217t185.5 -86q65 0 129 31.5t110 89.5z" />
    <glyph glyph-name="r" unicode="r" horiz-adv-x="837" 
d="M406 1008v-88q51 49 116 77.5t127 28.5q71 0 135 -10v-219q-64 10 -137 10q-67 0 -130.5 -36t-110.5 -101v-670h-281v1008h281z" />
    <glyph glyph-name="s" unicode="s" horiz-adv-x="1050" 
d="M121 104v252q80 -68 191.5 -105.5t217.5 -37.5q54 0 95.5 23.5t40.5 72.5q0 32 -36.5 51t-109.5 37q-147 38 -198 58q-168 69 -199 207q-8 35 -8 75q0 59 24.5 108.5t64.5 82t94 55.5t111 33t117 10q101 0 203 -31t182 -90v-252q-78 66 -184 104t-203 38
q-59 0 -102 -21.5t-43 -68.5q0 -41 143 -84q17 -6 54 -17.5t59.5 -18.5t59 -20t60 -24t55 -28t51.5 -33.5t42 -39t35 -46.5t21 -54t8 -64q0 -78 -40.5 -137t-106.5 -92t-139.5 -49t-150.5 -16q-109 0 -218 31.5t-191 90.5z" />
    <glyph glyph-name="t" unicode="t" horiz-adv-x="708" 
d="M170 1008v354h283v-354h192v-203h-192v-500q0 -121 77 -121q33 0 97 11v-203q-67 -6 -129 -6q-328 0 -328 319v500h-117v203h117z" />
    <glyph glyph-name="u" unicode="u" horiz-adv-x="1267" 
d="M862 0v88q-51 -50 -114.5 -78t-124.5 -28q-152 0 -266.5 65.5t-173 175t-58.5 246.5v539h281v-539q0 -116 57 -193t160 -77q69 0 131 36t108 105v668h281v-1008h-281z" />
    <glyph glyph-name="v" unicode="v" horiz-adv-x="1146" 
d="M33 1008h303l237 -646q19 52 106 288t130 358h307l-401 -1008h-281z" />
    <glyph glyph-name="w" unicode="w" horiz-adv-x="1622" 
d="M811 545l-209 -545h-248l-321 1008h284l195 -598l205 598h186l209 -596l188 596h289l-319 -1008h-250z" />
    <glyph glyph-name="x" unicode="x" horiz-adv-x="1132" 
d="M33 0l368 504l-368 504h327l205 -279l205 279h330l-373 -504l373 -504h-330l-205 279q-37 -54 -117.5 -162t-87.5 -117h-327z" />
    <glyph glyph-name="y" unicode="y" horiz-adv-x="1148" 
d="M336 1008l237 -621l240 621h305l-352 -895l-25 -74q-20 -58 -47.5 -113.5t-72.5 -117t-97.5 -106.5t-126 -74t-155.5 -27q-46 0 -95 8v248q53 -9 89 -9q75 0 132 56.5t68 130.5l-403 973h303z" />
    <glyph glyph-name="z" unicode="z" horiz-adv-x="1128" 
d="M1016 764l-520 -514h520v-250h-901q0 41 1 123t1 123l518 514h-518v248h899v-244z" />
    <glyph glyph-name="braceleft" unicode="{" horiz-adv-x="948" 
d="M813 1372v-205q-4 -2 -17 0t-32 -5t-37 -16.5t-31.5 -34t-15.5 -58.5q0 -19 1 -71t1 -80.5t-3 -78.5t-9.5 -81.5t-19 -72.5t-31.5 -68t-48 -52t-67 -39q34 -14 60.5 -34t45 -47t32 -53t21 -63t12 -66t6 -71.5t1.5 -69.5t-1 -71t-1 -66q5 -131 133 -131v-188
q-15 -1 -34 -0.5t-56.5 6t-72 16t-73 32.5t-67 53t-48 81.5t-20.5 112.5q-3 31 -4 89t-2 98t-13.5 91t-35.5 84.5t-71.5 61t-118.5 35.5v204q61 6 105 26t69 52t39.5 67t19.5 81t6.5 83.5t2 85.5t3.5 76q1 60 20 108t48.5 76.5t66.5 51t74 31t71 15.5t57.5 5t33.5 0z" />
    <glyph glyph-name="bar" unicode="|" horiz-adv-x="614" 
d="M197 -420v1893h221v-1893h-221z" />
    <glyph glyph-name="braceright" unicode="}" horiz-adv-x="948" 
d="M135 1167v205q10 -2 33.5 0t57.5 -5t71 -15.5t74 -31t66.5 -51t48.5 -76.5t20 -108q3 -28 3.5 -76t2 -85.5t6.5 -83.5t20 -81t40 -67t69 -52t105 -26v-204q-70 -8 -118.5 -35.5t-72 -61t-35.5 -84.5t-13.5 -91t-2.5 -98t-4 -89q-1 -62 -20.5 -112.5t-48 -81.5t-67 -53
t-73 -32.5t-72 -16t-56.5 -6t-34 0.5v188q128 0 135 131q0 22 -1 65.5t-1 71.5t1 70t5.5 71t12 65.5t21 63.5t32 53.5t45.5 46.5t61 34q-38 14 -67.5 39t-48.5 52t-31.5 68t-19 72.5t-9 81t-2.5 79t1 80t1 71.5q-2 34 -16 58.5t-32 34t-37.5 16.5t-32.5 5t-17 0z" />
    <glyph glyph-name="asciitilde" unicode="~" horiz-adv-x="1060" 
d="M926 682v-240q-49 -45 -105.5 -60t-111 -5t-112 29t-116 37.5t-115 26.5t-117 -10.5t-114.5 -68.5v236q58 43 123 57t124 4t119.5 -29.5t117 -37t109.5 -24t104.5 13t93.5 71.5z" />
    <glyph glyph-name="exclamdown" unicode="&#xa1;" horiz-adv-x="628" 
d="M174 965q0 59 38 97t97 38q60 0 98.5 -38t38.5 -97q0 -60 -38.5 -99t-98.5 -39q-59 0 -97 39t-38 99zM227 735h170l56 -1001h-277z" />
    <glyph glyph-name="cent" unicode="&#xa2;" horiz-adv-x="1163" 
d="M274 -172l95 238q-123 70 -194 183t-71 255q0 150 82 271t216 186t290 65q40 0 58 -2l65 162h189l-84 -209q67 -25 118 -62v-231q-85 70 -196 98l-224 -567q18 -6 58 -10q66 0 78 2q157 15 284 117v-232q-153 -110 -346 -110q-80 0 -160 22l-69 -176h-189zM639 752l8 47
q-116 -14 -194 -95.5t-78 -199.5q0 -127 88 -205z" />
    <glyph glyph-name="sterling" unicode="&#xa3;" horiz-adv-x="1329" 
d="M262 731v203q0 95 44 178t115 138t161 86.5t182 31.5q193 0 354 -131v-236q-67 61 -157.5 95t-180.5 32q-61 0 -115.5 -20t-93.5 -65.5t-39 -108.5v-203h410v-156h-410v-317q39 5 98.5 -9t115.5 -36t121.5 -39t120.5 -20.5t107.5 23t88.5 87.5v-254q-59 -64 -131.5 -86
t-145 -10t-149.5 37.5t-156 50t-153.5 35.5t-152.5 -13.5t-144 -91.5v252q57 47 110 60v331h-127v156h127z" />
    <glyph glyph-name="currency" unicode="&#xa4;" horiz-adv-x="1196" 
d="M1063 827l-141 -145q47 -80 47 -180t-47 -178l141 -144l-139 -141l-144 143q-80 -47 -180 -47q-99 0 -178 47l-143 -145l-144 143l146 144q-50 82 -50 178q0 98 50 180l-146 143l144 142l141 -144q75 47 180 47q103 0 180 -47l144 144zM430 500q0 -66 50.5 -116
t119.5 -50q67 0 118.5 49.5t51.5 118.5t-50 119.5t-120 50.5t-120 -50.5t-50 -121.5z" />
    <glyph glyph-name="yen" unicode="&#xa5;" horiz-adv-x="1304" 
d="M489 342v37l-24 65h-229v154h161l-350 768h320l282 -666q56 128 165.5 370.5t133.5 295.5h320l-379 -768h153v-154h-227l-24 -63v-39h251v-154h-251v-188h-299v188h-256v154h253z" />
    <glyph glyph-name="brokenbar" unicode="&#xa6;" horiz-adv-x="630" 
d="M197 -420v760h221v-760h-221zM197 713v760h221v-760h-221z" />
    <glyph glyph-name="section" unicode="&#xa7;" horiz-adv-x="1126" 
d="M141 -57v233q128 -111 332 -131q31 -4 69 -2t72 8t56.5 28.5t21.5 57.5q0 22 -13 38t-42.5 28t-56 19.5t-76 19.5t-78.5 20q-48 13 -85.5 27.5t-78 39.5t-67 55.5t-43.5 77t-17 103.5q0 125 111 197q-101 77 -101 203q0 72 36.5 128.5t97.5 89.5t132 49.5t146 16.5
q102 0 204 -30.5t179 -88.5v-233q-62 53 -145.5 86t-171.5 41q-29 4 -68 1.5t-73.5 -9t-58.5 -28.5t-24 -56q0 -13 4.5 -25t15.5 -22.5t22 -19t30.5 -17.5t35 -16t41 -15.5t43 -14.5t47.5 -15t48 -15q43 -15 75 -27.5t69 -31t63 -39.5t48.5 -47t34 -59.5t11.5 -71.5
q0 -133 -117 -193q109 -74 109 -199q0 -76 -39.5 -133t-105 -88.5t-138.5 -46t-151 -14.5q-107 0 -214.5 31t-189.5 90zM733 528q-1 58 -57 94.5t-139 36.5q-77 0 -130 -30t-53 -97q0 -54 50 -90t143 -39q78 -5 132 25.5t54 99.5z" />
    <glyph glyph-name="dieresis" unicode="&#xa8;" horiz-adv-x="716" 
d="M98 1214q0 47 32.5 80t78.5 33q47 0 80 -33t33 -80t-32.5 -78.5t-80.5 -31.5q-46 0 -78.5 31.5t-32.5 78.5zM395 1214q0 47 33 80t80 33q46 0 78 -33t32 -80t-32 -78.5t-78 -31.5q-48 0 -80.5 31.5t-32.5 78.5z" />
    <glyph glyph-name="copyright" unicode="&#xa9;" horiz-adv-x="1724" 
d="M870 1384q195 0 360.5 -93.5t262 -255.5t96.5 -353q0 -143 -57 -272.5t-153 -223t-229.5 -149t-279.5 -55.5q-151 0 -287.5 55.5t-234.5 149t-155.5 223t-57.5 272.5t57.5 273t155.5 224t234.5 149.5t287.5 55.5zM870 1229q-155 0 -288 -72t-212 -198.5t-79 -276.5
t79 -276.5t212 -198.5t288 -72q156 0 285.5 72t204 198t74.5 277t-74.5 277t-204 198t-285.5 72zM1077 528v-151q-79 -45 -170 -45q-154 0 -262 102.5t-108 247.5q0 146 108 249t262 103q91 0 170 -45v-151q-76 49 -170 49q-89 0 -151 -59.5t-62 -145.5t61.5 -144.5
t151.5 -58.5q89 0 170 49z" />
    <glyph glyph-name="ordfeminine" unicode="&#xaa;" horiz-adv-x="722" 
d="M459 741v47q-64 -57 -146 -57q-46 0 -90.5 12t-83 36t-62.5 66.5t-24 96.5q0 81 57.5 132.5t141.5 51.5h207q-9 56 -49 79.5t-121 23.5q-108 -8 -187 -60v148q83 49 199 49q336 0 336 -270v-150q0 -34 1 -102.5t1 -102.5h-180zM459 1014h-137q-44 0 -72.5 -17t-28.5 -47
q0 -42 34.5 -62t78.5 -20q71 0 125 70v76z" />
    <glyph glyph-name="guillemotleft" unicode="&#xab;" horiz-adv-x="1243" 
d="M588 1034v-258l-271 -262l271 -262v-256l-443 405v226zM1047 1034v-258l-271 -262l271 -262v-256l-443 405v226z" />
    <glyph glyph-name="logicalnot" unicode="&#xac;" horiz-adv-x="1148" 
d="M778 393h-643v238h881v-463h-238v225z" />
    <glyph glyph-name="uni00AD" unicode="&#xad;" horiz-adv-x="839" 
d="M705 631v-238h-570v238h570z" />
    <glyph glyph-name="registered" unicode="&#xae;" horiz-adv-x="1724" 
d="M870 1384q195 0 360.5 -93.5t262 -255.5t96.5 -353q0 -143 -57 -272.5t-153 -223t-229.5 -149t-279.5 -55.5q-151 0 -287.5 55.5t-234.5 149t-155.5 223t-57.5 272.5t57.5 273t155.5 224t234.5 149.5t287.5 55.5zM870 1229q-155 0 -288 -72t-212 -198.5t-79 -276.5
t79 -276.5t212 -198.5t288 -72q156 0 285.5 72t204 198t74.5 277t-74.5 277t-204 198t-285.5 72zM635 1008h323q87 0 145 -62.5t58 -167.5q0 -72 -42 -123.5t-109 -72.5l164 -256h-156l-148 243h-96v-243h-139v682zM774 684h139q46 0 77.5 25t31.5 69q0 52 -30.5 80.5
t-78.5 28.5h-139v-203z" />
    <glyph glyph-name="macron" unicode="&#xaf;" horiz-adv-x="962" 
d="M766 1296v-153h-569v153h569z" />
    <glyph glyph-name="degree" unicode="&#xb0;" horiz-adv-x="802" 
d="M668 1137q0 -112 -78.5 -189.5t-188.5 -77.5q-112 0 -189 77t-77 190q0 110 77 188t189 78q109 0 188 -78.5t79 -187.5zM530 1137q0 54 -37.5 91.5t-91.5 37.5t-90.5 -37.5t-36.5 -91.5t36.5 -90.5t90.5 -36.5t91.5 36.5t37.5 90.5z" />
    <glyph glyph-name="plusminus" unicode="&#xb1;" horiz-adv-x="1126" 
d="M444 545h-358v235h358v310h236v-310h360v-235h-360v-295h-236v295zM156 170h815v-170h-815v170z" />
    <glyph glyph-name="twosuperior" unicode="&#xb2;" horiz-adv-x="784" 
d="M119 1188v176q52 49 122 75.5t142 28.5q85 1 158 -31.5t121.5 -103.5t48.5 -168q0 -43 -28.5 -91t-80.5 -97t-93.5 -82t-98.5 -74l-41 -30h346v-158h-621v153q4 3 92 66q11 8 69 48.5t96.5 70t87.5 70t76 75.5t28 60q0 64 -48 99.5t-110 35.5q-69 -2 -140.5 -34
t-125.5 -89z" />
    <glyph glyph-name="threesuperior" unicode="&#xb3;" horiz-adv-x="790" 
d="M406 1321h-332v147h565v-122l-229 -199q31 0 71 -4q195 -30 195 -240q0 -65 -30.5 -117.5t-81 -84.5t-111 -49t-123.5 -17q-129 0 -244 59v166q117 -69 244 -69q69 0 123.5 31t54.5 83q0 131 -178 131q-78 0 -170 -24v98z" />
    <glyph glyph-name="acute" unicode="&#xb4;" horiz-adv-x="675" 
d="M197 1100l61 266h221l-129 -266h-153z" />
    <glyph glyph-name="mu" unicode="&#xb5;" horiz-adv-x="1372" 
d="M449 1008v-539q0 -114 51.5 -192t144.5 -87q60 -3 131 27q85 30 148 121v670h272v-1008h-272v104q-50 -59 -115.5 -90.5t-134.5 -31.5q-136 0 -225 73v-413h-273v1366h273z" />
    <glyph glyph-name="paragraph" unicode="&#xb6;" horiz-adv-x="1570" 
d="M500 -272v956q-136 0 -230 98.5t-94 243.5q0 139 95 239.5t229 100.5h895v-215h-144v-1423h-264v1423h-223v-1423h-264z" />
    <glyph glyph-name="periodcentered" unicode="&#xb7;" horiz-adv-x="428" 
d="M78 516q0 58 38 96.5t97 38.5q60 0 98.5 -38t38.5 -97q0 -60 -38.5 -98.5t-98.5 -38.5q-59 0 -97 38.5t-38 98.5z" />
    <glyph glyph-name="cedilla" unicode="&#xb8;" horiz-adv-x="507" 
d="M305 27l-74 -105q66 14 122.5 -23.5t56.5 -101.5q0 -70 -54.5 -106.5t-130.5 -36.5q-77 0 -127 35v98q60 -35 123 -35q25 0 45.5 14t20.5 37q0 29 -30.5 44.5t-67.5 14t-60 -15.5v68l92 113h84z" />
    <glyph glyph-name="onesuperior" unicode="&#xb9;" horiz-adv-x="546" 
d="M43 1237v158l162 73h166v-823h-178v664z" />
    <glyph glyph-name="ordmasculine" unicode="&#xba;" horiz-adv-x="954" 
d="M473 1360q146 0 247 -92.5t101 -223.5q0 -134 -101 -226.5t-247 -92.5q-141 0 -239.5 93t-98.5 226q0 131 98.5 223.5t239.5 92.5zM473 1204q-65 0 -112.5 -48t-47.5 -112q0 -67 47.5 -114t112.5 -47q71 0 120.5 47t49.5 114q0 65 -50 112.5t-120 47.5z" />
    <glyph glyph-name="guillemotright" unicode="&#xbb;" horiz-adv-x="1243" 
d="M197 -4v256l270 262l-270 262v258l442 -407v-226zM655 -4v256l271 262l-271 262v258l443 -407v-226z" />
    <glyph glyph-name="onequarter" unicode="&#xbc;" horiz-adv-x="1544" 
d="M43 1135v157l162 74h166v-823h-178v663zM354 0h-190l946 1366h190zM1210 823h166v-514h74v-143h-74v-166h-178v166h-440v139zM961 309h237v273z" />
    <glyph glyph-name="onehalf" unicode="&#xbd;" horiz-adv-x="1646" 
d="M43 1135v157l162 74h166v-823h-178v663zM330 0h-191l946 1366h193zM981 553v178q111 102 264 105q63 1 121 -18.5t105 -56t75.5 -96.5t28.5 -133q0 -43 -28.5 -91t-81.5 -97t-94 -81.5t-99 -74.5l-41 -30h348v-158h-623v154q30 24 115 83.5t153.5 109t125.5 106t57 90.5
q0 64 -49 99.5t-111 35.5q-68 0 -139.5 -33.5t-126.5 -91.5z" />
    <glyph glyph-name="threequarters" unicode="&#xbe;" horiz-adv-x="1789" 
d="M406 1219h-332v147h565v-123l-229 -199q31 0 71 -4q195 -30 195 -239q0 -65 -30.5 -117.5t-81 -85t-111 -49.5t-123.5 -17q-127 0 -244 60v166q118 -70 244 -70q69 0 123.5 31.5t54.5 83.5q0 131 -176 131q-77 0 -172 -25v99zM530 0h-192l948 1366h191zM1456 823h166
v-514h74v-143h-74v-166h-180v166h-438v139zM1206 309h236v273z" />
    <glyph glyph-name="questiondown" unicode="&#xbf;" horiz-adv-x="1024" 
d="M762 963q0 -59 -38.5 -97.5t-96.5 -38.5q-60 0 -99 38.5t-39 97.5t39 97t99 38q59 0 97 -38t38 -97zM961 -174v268q-157 -129 -349 -129q-105 0 -175 46.5t-70 117.5q0 45 38.5 90.5t93.5 91t109 99.5t91 138t34 185h-221q5 -54 -15 -105.5t-57 -93t-82 -81.5
t-91.5 -79.5t-85 -79t-63 -87t-24.5 -96.5q0 -167 143 -282t341 -118q214 -3 383 115z" />
    <glyph glyph-name="Agrave" unicode="&#xc0;" horiz-adv-x="1341" 
d="M680 1731l63 -269h-153l-129 269h219zM991 0l-106 295h-428l-107 -295h-317l493 1366h289l494 -1366h-318zM815 526l-145 441l-144 -441h289z" />
    <glyph glyph-name="Aacute" unicode="&#xc1;" horiz-adv-x="1341" 
d="M582 1464l61 267h221l-129 -267h-153zM526 1366l-493 -1366h317l107 295h428l106 -295h318l-494 1366h-289zM815 526h-289l144 441z" />
    <glyph glyph-name="Acircumflex" unicode="&#xc2;" horiz-adv-x="1341" 
d="M592 1731h164l184 -267h-180l-86 150l-86 -150h-180zM526 1366l-493 -1366h317l107 295h428l106 -295h318l-494 1366h-289zM815 526h-289l144 441z" />
    <glyph glyph-name="Atilde" unicode="&#xc3;" horiz-adv-x="1341" 
d="M915 1677v-164q-40 -39 -91 -42t-100 15.5t-98.5 36.5t-102.5 14t-97 -44v156q48 37 107 41t112 -12t103 -31.5t94.5 -11t72.5 41.5zM991 0l-106 295h-430l-105 -295h-317l493 1366h289l494 -1366h-318zM815 526l-145 441l-144 -441h289z" />
    <glyph glyph-name="Adieresis" unicode="&#xc4;" horiz-adv-x="1341" 
d="M410 1583q0 47 32 80t78 33q47 0 79 -33t32 -80t-32 -78.5t-79 -31.5q-46 0 -78 31.5t-32 78.5zM707 1583q0 48 31.5 80.5t78.5 32.5q46 0 79.5 -33t33.5 -80t-33.5 -78.5t-79.5 -31.5q-47 0 -78.5 31.5t-31.5 78.5zM526 1366l-493 -1366h317l107 295h428l106 -295h318
l-494 1366h-289zM815 526h-289l144 441z" />
    <glyph glyph-name="Aring" unicode="&#xc5;" horiz-adv-x="1341" 
d="M666 1851q89 0 147.5 -60.5t58.5 -145.5t-58.5 -145t-147.5 -60q-88 0 -146.5 60t-58.5 145t58.5 145.5t146.5 60.5zM668 1733q-39 0 -63.5 -25.5t-24.5 -62.5q0 -35 25.5 -60.5t62.5 -25.5q34 0 60 25.5t26 60.5q-2 34 -26 61t-60 27zM991 0l-106 295h-430l-105 -295
h-317l493 1366h289l494 -1366h-318zM815 526l-145 441l-144 -441h289z" />
    <glyph glyph-name="AE" unicode="&#xc6;" horiz-adv-x="2091" 
d="M1962 537h-666v-291h701v-246h-998v293h-417q-34 -48 -105.5 -146.5t-105.5 -146.5h-338q966 1353 966 1366h998v-262h-699l-2 -289h666v-278zM999 526v396l-276 -396h276z" />
    <glyph glyph-name="Ccedilla" unicode="&#xc7;" horiz-adv-x="1312" 
d="M860 -16l-43 -62q66 14 123 -23.5t57 -101.5q0 -70 -55 -106.5t-131 -36.5q-77 0 -127 35v98q60 -35 123 -35q26 0 45.5 13.5t19.5 37.5q0 29 -30 44.5t-67 14t-60 -15.5v68l55 70q-190 11 -347.5 106.5t-248 252t-90.5 339.5q0 143 58 273t156 224t233.5 149.5
t285.5 55.5q177 0 350 -92v-293q-168 107 -350 107q-181 0 -309.5 -124.5t-128.5 -299.5q0 -174 128.5 -298t309.5 -124q169 0 350 107v-293q-150 -81 -307 -90z" />
    <glyph glyph-name="Egrave" unicode="&#xc8;" horiz-adv-x="1224" 
d="M647 1731l64 -267h-154l-129 267h219zM1096 815v-278h-664v-291h698v-246h-995v1366h995v-262h-698v-289h664z" />
    <glyph glyph-name="Eacute" unicode="&#xc9;" horiz-adv-x="1224" 
d="M510 1464l61 267h222l-129 -267h-154zM1130 1104v262h-995v-1366h995v246h-698v291h664v278h-664v289h698z" />
    <glyph glyph-name="Ecircumflex" unicode="&#xca;" horiz-adv-x="1224" 
d="M555 1731h164l184 -267h-180l-84 150l-88 -150h-180zM1130 1104v262h-995v-1366h995v246h-698v291h664v278h-664v289h698z" />
    <glyph glyph-name="Edieresis" unicode="&#xcb;" horiz-adv-x="1224" 
d="M375 1583q0 47 33 80t79 33t78.5 -33t32.5 -80t-32.5 -78.5t-78.5 -31.5t-79 31.5t-33 78.5zM674 1583q0 48 31.5 80.5t78.5 32.5q46 0 78.5 -33t32.5 -80t-32.5 -78.5t-78.5 -31.5q-47 0 -78.5 31.5t-31.5 78.5zM1130 1104v262h-995v-1366h995v246h-698v291h664v278
h-664v289h698z" />
    <glyph glyph-name="Igrave" unicode="&#xcc;" horiz-adv-x="563" 
d="M305 1731l64 -267h-154l-129 267h219zM428 0h-293v1366h293v-1366z" />
    <glyph glyph-name="Iacute" unicode="&#xcd;" horiz-adv-x="563" 
d="M193 1464l61 267h221l-129 -267h-153zM135 0h293v1366h-293v-1366z" />
    <glyph glyph-name="Icircumflex" unicode="&#xce;" horiz-adv-x="563" 
d="M201 1731h164l184 -267h-180l-86 150l-86 -150h-181zM135 0h293v1366h-293v-1366z" />
    <glyph glyph-name="Idieresis" unicode="&#xcf;" horiz-adv-x="563" 
d="M23 1583q0 47 33 80t79 33t78.5 -33t32.5 -80t-32.5 -78.5t-78.5 -31.5t-79 31.5t-33 78.5zM322 1583q0 48 31.5 80.5t78.5 32.5q46 0 78.5 -33t32.5 -80t-32.5 -78.5t-78.5 -31.5q-47 0 -78.5 31.5t-31.5 78.5zM135 0h293v1366h-293v-1366z" />
    <glyph glyph-name="Eth" unicode="&#xd0;" horiz-adv-x="1390" 
d="M135 1366h516q182 0 335 -91.5t242 -249t89 -343.5q0 -139 -52.5 -265t-141.5 -217.5t-212.5 -145.5t-259.5 -54h-516v557h-63v238h63v571zM430 795h275v-238h-275v-295h170q176 0 299 123t123 297t-123 298t-299 124h-170v-309z" />
    <glyph glyph-name="Ntilde" unicode="&#xd1;" horiz-adv-x="1376" 
d="M913 1677l-2 -164q-40 -39 -90.5 -42t-99.5 15.5t-98.5 36.5t-102.5 14t-96 -44v156q48 37 107 41t112 -12t103 -31.5t94.5 -11t72.5 41.5zM944 535v831h297v-1366h-223l-590 842v-842h-293v1366h221z" />
    <glyph glyph-name="Ograve" unicode="&#xd2;" horiz-adv-x="1638" 
d="M821 1731l62 -267h-152l-129 267h219zM827 1384q195 0 360.5 -93.5t262 -255.5t96.5 -353q0 -143 -57 -272.5t-153 -223t-229.5 -149t-279.5 -55.5q-150 0 -286 55.5t-234 149t-155.5 223t-57.5 272.5t57.5 273t155.5 224t234 149.5t286 55.5zM827 1104
q-181 0 -309.5 -124t-128.5 -298t128.5 -298t309.5 -124q173 0 297.5 124.5t124.5 297.5t-124.5 297.5t-297.5 124.5z" />
    <glyph glyph-name="Oacute" unicode="&#xd3;" horiz-adv-x="1638" 
d="M727 1464l64 267h219l-129 -267h-154zM827 1384q-150 0 -286 -55.5t-234 -149.5t-155.5 -224t-57.5 -273t57.5 -272.5t155.5 -223t234 -149t286 -55.5q146 0 279.5 55.5t229.5 149t153 223t57 272.5q0 191 -96.5 353t-262 255.5t-360.5 93.5zM827 1104
q173 0 297.5 -124.5t124.5 -297.5t-124.5 -297.5t-297.5 -124.5q-181 0 -309.5 124t-128.5 298t128.5 298t309.5 124z" />
    <glyph glyph-name="Ocircumflex" unicode="&#xd4;" horiz-adv-x="1638" 
d="M741 1731h164l185 -267h-181l-86 150l-86 -150h-180zM827 1384q-150 0 -286 -55.5t-234 -149.5t-155.5 -224t-57.5 -273t57.5 -272.5t155.5 -223t234 -149t286 -55.5q146 0 279.5 55.5t229.5 149t153 223t57 272.5q0 191 -96.5 353t-262 255.5t-360.5 93.5zM827 1104
q173 0 297.5 -124.5t124.5 -297.5t-124.5 -297.5t-297.5 -124.5q-181 0 -309.5 124t-128.5 298t128.5 298t309.5 124z" />
    <glyph glyph-name="Otilde" unicode="&#xd5;" horiz-adv-x="1638" 
d="M1071 1677v-164q-40 -39 -90.5 -42t-99.5 15.5t-98.5 36.5t-102.5 14t-96 -44v156q47 37 106 41t111.5 -12t102.5 -31.5t94.5 -11t72.5 41.5zM827 1384q195 0 360.5 -93.5t262 -255.5t96.5 -353q0 -143 -57 -272.5t-153 -223t-229.5 -149t-279.5 -55.5q-150 0 -286 55.5
t-234 149t-155.5 223t-57.5 272.5t57.5 273t155.5 224t234 149.5t286 55.5zM827 1104q-181 0 -309.5 -124t-128.5 -298t128.5 -298t309.5 -124q173 0 297.5 124.5t124.5 297.5t-124.5 297.5t-297.5 124.5z" />
    <glyph glyph-name="Odieresis" unicode="&#xd6;" horiz-adv-x="1638" 
d="M569 1583q0 47 33.5 80t79.5 33t78.5 -33t32.5 -80t-32.5 -78.5t-78.5 -31.5t-79.5 31.5t-33.5 78.5zM868 1583q0 47 32 80t79 33q46 0 78.5 -33t32.5 -80t-32.5 -78.5t-78.5 -31.5q-47 0 -79 31.5t-32 78.5zM827 1384q-150 0 -286 -55.5t-234 -149.5t-155.5 -224
t-57.5 -273t57.5 -272.5t155.5 -223t234 -149t286 -55.5q146 0 279.5 55.5t229.5 149t153 223t57 272.5q0 191 -96.5 353t-262 255.5t-360.5 93.5zM827 1104q173 0 297.5 -124.5t124.5 -297.5t-124.5 -297.5t-297.5 -124.5q-181 0 -309.5 124t-128.5 298t128.5 298
t309.5 124z" />
    <glyph glyph-name="multiply" unicode="&#xd7;" horiz-adv-x="1265" 
d="M637 346l-252 -252l-168 166l254 254l-254 254l168 166l252 -252l256 254l166 -168l-254 -254l242 -242l-166 -168z" />
    <glyph glyph-name="Oslash" unicode="&#xd8;" horiz-adv-x="1638" 
d="M174 -55l162 215q-114 98 -178 233.5t-64 288.5q0 192 97 353t265.5 255t370.5 94q192 0 361 -96l117 154h227l-199 -262q100 -96 156.5 -225t56.5 -273q0 -143 -57 -272.5t-153 -223t-229.5 -149t-279.5 -55.5q-177 0 -338 79l-88 -116h-227zM512 391l502 666
q-89 47 -187 47q-181 0 -309.5 -124t-128.5 -298t123 -291zM1153 942l-487 -649q81 -33 161 -33q173 0 297.5 124.5t124.5 297.5q0 143 -96 260z" />
    <glyph glyph-name="Ugrave" unicode="&#xd9;" horiz-adv-x="1378" 
d="M707 1731l63 -267h-154l-129 267h220zM1243 1366v-852q0 -122 -45.5 -223.5t-122 -168t-176 -103.5t-209.5 -37t-210 37t-177 103.5t-122.5 168t-45.5 223.5v852h297v-852q0 -120 74.5 -187t183.5 -67q111 0 184.5 66.5t73.5 187.5v852h295z" />
    <glyph glyph-name="Uacute" unicode="&#xda;" horiz-adv-x="1378" 
d="M590 1464l61 267h219l-129 -267h-151zM948 1366v-852q0 -121 -73.5 -187.5t-184.5 -66.5q-109 0 -183.5 67t-74.5 187v852h-297v-852q0 -122 45.5 -223.5t122.5 -168t177 -103.5t210 -37t209.5 37t176 103.5t122 168t45.5 223.5v852h-295z" />
    <glyph glyph-name="Ucircumflex" unicode="&#xdb;" horiz-adv-x="1378" 
d="M606 1731h164l184 -267h-180l-86 150l-86 -150h-180zM948 1366v-852q0 -121 -73.5 -187.5t-184.5 -66.5q-109 0 -183.5 67t-74.5 187v852h-297v-852q0 -122 45.5 -223.5t122.5 -168t177 -103.5t210 -37t209.5 37t176 103.5t122 168t45.5 223.5v852h-295z" />
    <glyph glyph-name="Udieresis" unicode="&#xdc;" horiz-adv-x="1378" 
d="M428 1583q0 47 32.5 80t78.5 33q47 0 79.5 -33t32.5 -80t-32.5 -78.5t-79.5 -31.5q-46 0 -78.5 31.5t-32.5 78.5zM725 1583q0 47 33 80t80 33q46 0 78 -33t32 -80t-32 -78.5t-78 -31.5q-48 0 -80.5 31.5t-32.5 78.5zM948 1366v-852q0 -121 -73.5 -187.5t-184.5 -66.5
q-109 0 -183.5 67t-74.5 187v852h-297v-852q0 -122 45.5 -223.5t122.5 -168t177 -103.5t210 -37t209.5 37t176 103.5t122 168t45.5 223.5v852h-295z" />
    <glyph glyph-name="Yacute" unicode="&#xdd;" horiz-adv-x="1284" 
d="M541 1464l61 267h219l-129 -267h-151zM776 0v397l475 969h-319q-48 -109 -149.5 -332.5t-149.5 -333.5l-281 666h-319l442 -969v-397h301z" />
    <glyph glyph-name="Thorn" unicode="&#xde;" horiz-adv-x="1284" 
d="M432 1202h346q177 0 294.5 -123t117.5 -327q0 -193 -120 -315t-292 -122h-346v-315h-295v369l-2 28v969h297v-164zM432 565h264q86 0 141.5 45.5t55.5 124.5q0 97 -55 150t-142 53h-264v-373z" />
    <glyph glyph-name="germandbls" unicode="&#xdf;" horiz-adv-x="1187" 
d="M135 -180v1063q0 232 128 370t351 138q193 0 311.5 -103t118.5 -268q0 -93 -40.5 -174.5t-108.5 -122.5q59 -27 102.5 -70.5t65 -90t31.5 -87t10 -74.5q0 -204 -136 -302.5t-427 -98.5v248q150 0 218 43.5t68 140.5q0 76 -63 122.5t-174 49.5v211q105 4 149.5 42.5
t44.5 92.5q0 74 -46 119t-124 45q-92 0 -140 -61t-48 -170v-1063h-291z" />
    <glyph glyph-name="agrave" unicode="&#xe0;" horiz-adv-x="1167" 
d="M532 1366l64 -266h-154l-129 266h219zM739 0v88q-109 -106 -250 -106q-59 0 -117.5 11.5t-114.5 38.5t-99 66t-69 98.5t-26 131.5q0 131 95 215t229 84h348q-12 100 -79.5 141t-206.5 41q-193 -12 -304 -92v229q70 39 157.5 59.5t166.5 20.5q551 0 551 -440q0 -98 1 -293
t1 -293h-283zM739 436h-235q-76 0 -125 -30t-49 -82q0 -63 58.5 -93t135.5 -30q129 0 215 121v114z" />
    <glyph glyph-name="aacute" unicode="&#xe1;" horiz-adv-x="1167" 
d="M434 1100l64 266h219l-129 -266h-154zM739 0h283q0 98 -1 293t-1 293q0 440 -551 440q-79 0 -166.5 -20.5t-157.5 -59.5v-229q111 80 304 92q139 0 206.5 -41t79.5 -141h-348q-134 0 -229 -84t-95 -215q0 -90 39 -159t102.5 -108.5t136 -59t148.5 -19.5q141 0 250 106
v-88zM739 436v-114q-86 -121 -215 -121q-77 0 -135.5 30t-58.5 93q0 51 49.5 81.5t124.5 30.5h235z" />
    <glyph glyph-name="acircumflex" unicode="&#xe2;" horiz-adv-x="1167" 
d="M485 1364h164l185 -266h-181l-86 149l-86 -149h-180zM739 0h283q0 98 -1 293t-1 293q0 440 -551 440q-79 0 -166.5 -20.5t-157.5 -59.5v-229q111 80 304 92q139 0 206.5 -41t79.5 -141h-348q-134 0 -229 -84t-95 -215q0 -90 39 -159t102.5 -108.5t136 -59t148.5 -19.5
q141 0 250 106v-88zM739 436v-114q-86 -121 -215 -121q-77 0 -135.5 30t-58.5 93q0 51 49.5 81.5t124.5 30.5h235z" />
    <glyph glyph-name="atilde" unicode="&#xe3;" horiz-adv-x="1167" 
d="M788 1309v-166q-40 -39 -90.5 -42t-99.5 15.5t-98.5 37t-102.5 14t-96 -45.5v158q47 37 106 41t111.5 -11.5t102.5 -31t94.5 -11t72.5 41.5zM739 0v88q-109 -106 -250 -106q-59 0 -117.5 11.5t-114.5 38.5t-99 66t-69 98.5t-26 131.5q0 131 95 215t229 84h348
q-12 100 -79.5 141t-206.5 41q-193 -12 -304 -92v229q70 39 157.5 59.5t166.5 20.5q553 0 553 -440q0 -98 1 -293t1 -293h-285zM739 436h-235q-75 0 -124.5 -30.5t-49.5 -81.5q0 -63 58.5 -93t135.5 -30q129 0 215 121v114z" />
    <glyph glyph-name="adieresis" unicode="&#xe4;" horiz-adv-x="1167" 
d="M309 1214q0 47 32.5 80t78.5 33q47 0 79.5 -33t32.5 -80t-32.5 -78.5t-79.5 -31.5q-46 0 -78.5 31.5t-32.5 78.5zM606 1214q0 47 33 80t80 33q46 0 78 -33t32 -80t-32 -78.5t-78 -31.5q-48 0 -80.5 31.5t-32.5 78.5zM739 0h283q0 98 -1 293t-1 293q0 440 -551 440
q-79 0 -166.5 -20.5t-157.5 -59.5v-229q111 80 304 92q139 0 206.5 -41t79.5 -141h-348q-134 0 -229 -84t-95 -215q0 -90 39 -159t102.5 -108.5t136 -59t148.5 -19.5q141 0 250 106v-88zM739 436v-114q-86 -121 -215 -121q-77 0 -135.5 30t-58.5 93q0 51 49.5 81.5
t124.5 30.5h235z" />
    <glyph glyph-name="aring" unicode="&#xe5;" horiz-adv-x="1167" 
d="M543 1524q89 0 148 -61t59 -146q0 -84 -59 -144.5t-148 -60.5q-88 0 -146.5 60.5t-58.5 144.5q0 85 58.5 146t146.5 61zM543 1405q-38 0 -62 -25.5t-24 -62.5q0 -34 26 -60t62 -26q34 0 60 26t26 60q-2 35 -26 61.5t-62 26.5zM739 0v88q-109 -106 -250 -106
q-59 0 -117.5 11.5t-114.5 38.5t-99 66t-69 98.5t-26 131.5q0 131 95 215t229 84h348q-12 100 -79.5 141t-206.5 41q-193 -12 -304 -92v229q70 39 157.5 59.5t166.5 20.5q553 0 553 -440q0 -98 1 -293t1 -293h-285zM739 436h-235q-76 0 -125 -30t-49 -82q0 -63 58.5 -93
t135.5 -30q129 0 215 121v114z" />
    <glyph glyph-name="ae" unicode="&#xe6;" horiz-adv-x="1902" 
d="M1804 457h-782q6 -107 94 -180.5t232 -73.5q216 0 399 123v-211q-58 -56 -174 -92.5t-242 -36.5q-170 0 -307 73v-59h-285v88q-109 -106 -250 -106q-59 0 -117.5 11.5t-114.5 38.5t-99 66t-69 98.5t-26 131.5q0 131 95 215t229 84h348q-12 100 -79.5 141t-206.5 41
q-193 -12 -304 -92v229q70 39 157.5 59.5t166.5 20.5q310 0 446 -139q155 139 377 139q111 0 213 -49.5t171.5 -129t105.5 -183.5t22 -207zM739 436h-235q-76 0 -125 -30t-49 -82q0 -63 58.5 -93t135.5 -30q129 0 215 121v114zM1034 639h506q-4 71 -76.5 119.5t-171.5 48.5
q-105 0 -178.5 -47.5t-79.5 -120.5z" />
    <glyph glyph-name="ccedilla" unicode="&#xe7;" horiz-adv-x="1132" 
d="M727 -14l-43 -64q66 14 123 -23.5t57 -101.5q0 -70 -55 -106.5t-131 -36.5q-77 0 -127 35v98q60 -35 123 -35q25 0 45 14t20 37q0 29 -30 44.5t-67 14t-60 -15.5v68l55 70q-148 9 -271 76t-197.5 183.5t-74.5 260.5q0 150 81.5 271t215 186t289.5 65q193 0 350 -113v-249
q-160 129 -350 129q-125 0 -215 -82t-90 -207t90 -207t215 -82q190 0 350 129v-250q-138 -99 -303 -108z" />
    <glyph glyph-name="egrave" unicode="&#xe8;" horiz-adv-x="1269" 
d="M428 1366h219l64 -266h-154zM1149 457h-782q6 -108 93.5 -181t231.5 -73q217 0 400 123v-211q-58 -56 -174 -92.5t-242 -36.5q-163 0 -296 68.5t-209.5 190.5t-76.5 273q2 216 157.5 362t385.5 146q111 0 213 -49.5t171.5 -129t105.5 -183.5t22 -207zM379 639h506
q-4 71 -76.5 119.5t-171.5 48.5q-105 0 -178.5 -47.5t-79.5 -120.5z" />
    <glyph glyph-name="eacute" unicode="&#xe9;" horiz-adv-x="1269" 
d="M545 1100l63 266h219l-129 -266h-153zM369 457h780q14 103 -22 207t-105.5 183.5t-171.5 129t-213 49.5q-230 0 -385.5 -146t-157.5 -362q0 -151 76.5 -273t209.5 -190.5t296 -68.5q128 0 244 36.5t174 92.5v211q-183 -123 -402 -123q-144 0 -231 73.5t-92 180.5z
M885 639h-506q6 73 79.5 120.5t178.5 47.5q99 0 171.5 -48.5t76.5 -119.5z" />
    <glyph glyph-name="ecircumflex" unicode="&#xea;" horiz-adv-x="1269" 
d="M551 1364h164l184 -266h-180l-84 149l-88 -149h-180zM369 457h780q14 103 -22 207t-105.5 183.5t-171.5 129t-213 49.5q-230 0 -385.5 -146t-157.5 -362q0 -151 76.5 -273t209.5 -190.5t296 -68.5q128 0 244 36.5t174 92.5v211q-183 -123 -402 -123q-144 0 -231 73.5
t-92 180.5zM885 639h-506q6 73 79.5 120.5t178.5 47.5q99 0 171.5 -48.5t76.5 -119.5z" />
    <glyph glyph-name="edieresis" unicode="&#xeb;" horiz-adv-x="1269" 
d="M375 1214q0 47 33 80t79 33t78.5 -33t32.5 -80t-32.5 -78.5t-78.5 -31.5t-79 31.5t-33 78.5zM674 1214q0 48 31.5 80.5t78.5 32.5q46 0 78.5 -33t32.5 -80t-32.5 -78.5t-78.5 -31.5q-47 0 -78.5 31.5t-31.5 78.5zM369 457h780q14 103 -22 207t-105.5 183.5t-171.5 129
t-213 49.5q-230 0 -385.5 -146t-157.5 -362q0 -151 76.5 -273t209.5 -190.5t296 -68.5q128 0 244 36.5t174 92.5v211q-183 -123 -402 -123q-144 0 -231 73.5t-92 180.5zM885 639h-506q6 73 79.5 120.5t178.5 47.5q99 0 171.5 -48.5t76.5 -119.5z" />
    <glyph glyph-name="igrave" unicode="&#xec;" horiz-adv-x="602" 
d="M315 1366l64 -266h-154l-129 266h219zM438 0h-282v1008h282v-1008z" />
    <glyph glyph-name="iacute" unicode="&#xed;" horiz-adv-x="602" 
d="M211 1100l61 266h220l-130 -266h-151zM156 0h282v1008h-282v-1008z" />
    <glyph glyph-name="icircumflex" unicode="&#xee;" horiz-adv-x="602" 
d="M219 1364h164l184 -266h-180l-84 149l-88 -149h-180zM156 0h282v1008h-282v-1008z" />
    <glyph glyph-name="idieresis" unicode="&#xef;" horiz-adv-x="602" 
d="M35 1214q0 47 32 80t78 33q47 0 79 -33t32 -80t-32 -78.5t-79 -31.5q-46 0 -78 31.5t-32 78.5zM332 1214q0 47 32 80t78 33t79.5 -33t33.5 -80t-33.5 -78.5t-79.5 -31.5t-78 31.5t-32 78.5zM156 0h282v1008h-282v-1008z" />
    <glyph glyph-name="eth" unicode="&#xf0;" horiz-adv-x="1247" 
d="M645 1133l37 32q-41 23 -98.5 32.5t-104.5 0.5l-2 102v101q54 4 86 4q152 -6 285 -74l113 111l98 -99l-90 -92q145 -139 145 -358v-893h-283v74q-114 -92 -241 -92q-148 0 -272 66.5t-197.5 187t-73.5 268.5t73.5 268.5t197.5 187t272 66.5q132 0 241 -106q-7 95 -51 157
l-47 -45zM831 322v346q-46 68 -109 103.5t-132 35.5q-109 0 -185.5 -86.5t-76.5 -216.5t76.5 -216.5t185.5 -86.5q146 0 241 121z" />
    <glyph glyph-name="ntilde" unicode="&#xf1;" horiz-adv-x="1370" 
d="M930 1309v-166q-40 -39 -91 -42t-100.5 15.5l-99 37t-103 14t-96.5 -45.5v158q48 37 107 41t112 -11.5t103.5 -31t95 -11t72.5 41.5zM438 1008v-90q50 50 114.5 79t127.5 29q158 0 278 -69.5t182 -187.5t62 -265v-504h-282v504q0 132 -64 217.5t-176 85.5q-70 0 -133 -35
t-109 -104v-668h-282v1008h282z" />
    <glyph glyph-name="ograve" unicode="&#xf2;" horiz-adv-x="1341" 
d="M655 1366l64 -266h-154l-129 266h219zM653 1028q156 0 287.5 -70t208 -191t76.5 -263t-76.5 -262.5t-208 -190t-287.5 -69.5q-153 0 -281 70t-202 190t-74 262t74 262.5t202 191t281 70.5zM653 778q-111 0 -192.5 -81t-81.5 -193t81.5 -193.5t192.5 -81.5q119 0 203 81
t84 194t-83.5 193.5t-203.5 80.5z" />
    <glyph glyph-name="oacute" unicode="&#xf3;" horiz-adv-x="1341" 
d="M580 1100l61 266h219l-129 -266h-151zM653 1028q-153 0 -281 -70.5t-202 -191t-74 -262.5t74 -262t202 -190t281 -70q156 0 287.5 69.5t208 190t76.5 262.5t-76.5 263t-208 191t-287.5 70zM653 778q120 0 203.5 -80.5t83.5 -193.5t-84 -194t-203 -81q-111 0 -192.5 81.5
t-81.5 193.5t81.5 193t192.5 81z" />
    <glyph glyph-name="ocircumflex" unicode="&#xf4;" horiz-adv-x="1341" 
d="M571 1364h164l185 -266h-181l-86 149l-86 -149h-180zM653 1028q-153 0 -281 -70.5t-202 -191t-74 -262.5t74 -262t202 -190t281 -70q156 0 287.5 69.5t208 190t76.5 262.5t-76.5 263t-208 191t-287.5 70zM653 778q120 0 203.5 -80.5t83.5 -193.5t-84 -194t-203 -81
q-111 0 -192.5 81.5t-81.5 193.5t81.5 193t192.5 81z" />
    <glyph glyph-name="otilde" unicode="&#xf5;" horiz-adv-x="1341" 
d="M913 1309v-166q-40 -39 -90.5 -42t-99.5 15.5t-98.5 37t-102.5 14t-96 -45.5v158q48 37 107 41t111.5 -11.5t102.5 -31t94 -11t72 41.5zM653 1028q156 0 287.5 -70t208 -191t76.5 -263t-76.5 -262.5t-208 -190t-287.5 -69.5q-153 0 -281 70t-202 190t-74 262t74 262.5
t202 191t281 70.5zM653 778q-111 0 -192.5 -81t-81.5 -193t81.5 -193.5t192.5 -81.5q119 0 203 81t84 194t-83.5 193.5t-203.5 80.5z" />
    <glyph glyph-name="odieresis" unicode="&#xf6;" horiz-adv-x="1341" 
d="M395 1214q0 47 32.5 80t78.5 33q47 0 79.5 -33t32.5 -80t-32.5 -78.5t-79.5 -31.5q-46 0 -78.5 31.5t-32.5 78.5zM692 1214q0 47 33 80t80 33q46 0 78 -33t32 -80t-32 -78.5t-78 -31.5q-48 0 -80.5 31.5t-32.5 78.5zM653 1028q-153 0 -281 -70.5t-202 -191t-74 -262.5
t74 -262t202 -190t281 -70q156 0 287.5 69.5t208 190t76.5 262.5t-76.5 263t-208 191t-287.5 70zM653 778q120 0 203.5 -80.5t83.5 -193.5t-84 -194t-203 -81q-111 0 -192.5 81.5t-81.5 193.5t81.5 193t192.5 81z" />
    <glyph glyph-name="divide" unicode="&#xf7;" horiz-adv-x="1265" 
d="M494 836q0 60 38 98.5t97 38.5q60 0 98.5 -38.5t38.5 -98.5q0 -59 -38.5 -97.5t-98.5 -38.5q-58 0 -96.5 38.5t-38.5 97.5zM1110 631h-954v-238h954v238zM494 166q0 58 38 96.5t97 38.5q60 0 98.5 -38t38.5 -97t-38.5 -97t-98.5 -38q-59 0 -97 38.5t-38 96.5z" />
    <glyph glyph-name="oslash" unicode="&#xf8;" horiz-adv-x="1341" 
d="M135 -61l137 182q-83 73 -129.5 172t-46.5 211q0 142 74 262.5t202 191t281 70.5q139 0 256 -57l90 119h228l-166 -220q78 -73 121 -167.5t43 -198.5q0 -142 -76.5 -262.5t-208 -190t-287.5 -69.5q-119 0 -225 45l-68 -88h-225zM438 344l310 410q-44 24 -95 24
q-111 0 -192.5 -81t-81.5 -193q0 -91 59 -160zM893 645l-301 -401q34 -15 61 -15q119 0 203 81t84 194q0 78 -47 141z" />
    <glyph glyph-name="ugrave" unicode="&#xf9;" horiz-adv-x="1341" 
d="M678 1366l63 -266h-153l-129 266h219zM883 0v88q-51 -50 -115 -78t-125 -28q-152 0 -266.5 65.5t-173 175t-58.5 246.5v539h283v-539q0 -116 56 -193t159 -77q69 0 132 36t108 105v668h282v-1008h-282z" />
    <glyph glyph-name="uacute" unicode="&#xfa;" horiz-adv-x="1341" 
d="M578 1100l61 266h221l-129 -266h-153zM1165 0v1008h-282v-668q-45 -69 -108 -105t-132 -36q-103 0 -159 77t-56 193v539h-283v-539q0 -137 58.5 -246.5t173 -175t266.5 -65.5q63 0 126 28t114 78v-88h282z" />
    <glyph glyph-name="ucircumflex" unicode="&#xfb;" horiz-adv-x="1341" 
d="M588 1364h164l184 -266h-180l-84 149l-88 -149h-181zM1165 0v1008h-282v-668q-45 -69 -108 -105t-132 -36q-103 0 -159 77t-56 193v539h-283v-539q0 -137 58.5 -246.5t173 -175t266.5 -65.5q63 0 126 28t114 78v-88h282z" />
    <glyph glyph-name="udieresis" unicode="&#xfc;" horiz-adv-x="1341" 
d="M412 1214q0 47 32 80t78 33q47 0 80 -33t33 -80t-32.5 -78.5t-80.5 -31.5q-46 0 -78 31.5t-32 78.5zM709 1214q0 47 32 80t78 33t79.5 -33t33.5 -80t-33.5 -78.5t-79.5 -31.5t-78 31.5t-32 78.5zM1165 0v1008h-282v-668q-45 -69 -108 -105t-132 -36q-103 0 -159 77
t-56 193v539h-283v-539q0 -137 58.5 -246.5t173 -175t266.5 -65.5q63 0 126 28t114 78v-88h282z" />
    <glyph glyph-name="yacute" unicode="&#xfd;" horiz-adv-x="1216" 
d="M508 1100l63 266h220l-129 -266h-154zM51 1008l404 -973q-11 -74 -68 -130.5t-133 -56.5q-34 0 -86 9v-248q49 -8 92 -8q82 -2 155.5 27t126 74t98 106.5t73 117t47.5 113.5l26 74l351 895h-303l-240 -621l-238 621h-305z" />
    <glyph glyph-name="thorn" unicode="&#xfe;" horiz-adv-x="1347" 
d="M156 1366h282v-448q49 50 114 79t126 29q145 -1 269.5 -66.5t200.5 -186t75 -269.5q1 -149 -75 -269.5t-200.5 -186t-269.5 -66.5q-140 0 -240 92q0 -95 -1 -227.5t-1 -227.5h-280v1747zM438 666v-344q46 -59 110 -90t130 -31q108 0 185 86t77 217q0 127 -78 216t-184 87
q-65 2 -129.5 -35t-110.5 -106z" />
    <glyph glyph-name="ydieresis" unicode="&#xff;" horiz-adv-x="1216" 
d="M336 1214q0 47 32 80t78 33q47 0 79 -33t32 -80t-32 -78.5t-79 -31.5q-46 0 -78 31.5t-32 78.5zM633 1214q0 47 32 80t78 33t79.5 -33t33.5 -80t-33.5 -78.5t-79.5 -31.5t-78 31.5t-32 78.5zM51 1008l404 -973q-11 -74 -68 -130.5t-133 -56.5q-34 0 -86 9v-248
q49 -8 92 -8q82 -2 155.5 27t126 74t98 106.5t73 117t47.5 113.5l26 74l351 895h-303l-240 -621l-238 621h-305z" />
    <glyph glyph-name="Amacron" unicode="&#x100;" horiz-adv-x="1341" 
d="M954 1630v-153h-569v153h569zM991 0l-106 295h-428l-107 -295h-317l493 1366h289l494 -1366h-318zM815 526l-145 441l-144 -441h289z" />
    <glyph glyph-name="amacron" unicode="&#x101;" horiz-adv-x="1167" 
d="M852 1296v-153h-569v153h569zM739 0v88q-109 -106 -250 -106q-59 0 -117.5 11.5t-114.5 38.5t-99 66t-69 98.5t-26 131.5q0 131 95 215t229 84h348q-12 100 -79.5 141t-206.5 41q-193 -12 -304 -92v229q70 39 157.5 59.5t166.5 20.5q553 0 553 -440q0 -98 1 -293t1 -293
h-285zM739 436h-235q-76 0 -125 -30t-49 -82q0 -63 58.5 -93t135.5 -30q129 0 215 121v114z" />
    <glyph glyph-name="Abreve" unicode="&#x102;" horiz-adv-x="1341" 
d="M786 1659h138q0 -78 -76.5 -136.5t-177.5 -58.5q-105 0 -178.5 58.5t-73.5 136.5h135q0 -38 33.5 -64t83.5 -26q52 0 84 25.5t32 64.5zM991 0l-106 295h-430l-105 -295h-317l493 1366h289l494 -1366h-318zM815 526l-145 441l-144 -441h289z" />
    <glyph glyph-name="abreve" unicode="&#x103;" horiz-adv-x="1167" 
d="M664 1315h137q0 -78 -75.5 -136.5t-176.5 -58.5q-107 0 -180.5 58.5t-73.5 136.5h137q0 -38 33 -64t84 -26t83 25.5t32 64.5zM739 0v88q-109 -106 -250 -106q-76 0 -148.5 19.5t-136 59t-102.5 108.5t-39 159q0 131 95 215t229 84h348q-12 100 -79.5 141t-206.5 41
q-193 -12 -304 -92v229q70 39 157.5 59.5t166.5 20.5q551 0 551 -440q0 -98 1 -293t1 -293h-283zM739 436h-237q-75 0 -123.5 -30t-48.5 -82q0 -63 58.5 -93t135.5 -30q126 0 215 121v114z" />
    <glyph glyph-name="Aogonek" unicode="&#x104;" horiz-adv-x="1353" 
d="M1282 -246v-100q-45 -27 -96 -27q-90 0 -146.5 46t-56.5 126q0 54 41 107t100 94h-133l-106 295h-428l-107 -295h-317l493 1366h289l494 -1366q-28 -2 -64.5 -16t-73.5 -37t-62.5 -59.5t-25.5 -77.5q0 -37 32 -60.5t71 -23.5q54 0 96 28zM815 526l-145 441l-144 -441h289
z" />
    <glyph glyph-name="aogonek" unicode="&#x105;" horiz-adv-x="1173" 
d="M1036 -223v-101q-32 -26 -96 -26q-90 0 -146.5 45t-56.5 125q0 87 113 180h-111v88q-82 -79 -178 -96q-47 -10 -88 -8q-74 2 -144 22t-131 59.5t-98 107.5t-37 155q0 131 95 215t229 84h348q-12 100 -79.5 141t-206.5 41q-193 -12 -304 -92v229q70 39 157.5 59.5
t166.5 20.5q551 0 551 -440q0 -98 1 -293t1 -293q-72 -5 -128 -51.5t-56 -118.5q0 -37 31.5 -59.5t70.5 -22.5q59 0 96 29zM739 436h-235q-75 0 -124.5 -30.5t-49.5 -81.5q0 -59 51 -88t121 -33q30 -3 63 4q98 18 174 115v114z" />
    <glyph glyph-name="Cacute" unicode="&#x106;" horiz-adv-x="1312" 
d="M659 1464l64 267h219l-129 -267h-154zM1167 74v293q-181 -107 -350 -107q-181 0 -309.5 124t-128.5 298q0 175 128.5 299.5t309.5 124.5q182 0 350 -107v293q-173 92 -350 92q-150 0 -286 -55.5t-234 -149.5t-155.5 -224t-57.5 -273t57.5 -272.5t155.5 -223t234 -149
t286 -55.5q177 0 350 92z" />
    <glyph glyph-name="cacute" unicode="&#x107;" horiz-adv-x="1155" 
d="M561 1100l62 266h221l-129 -266h-154zM1020 664v249q-157 113 -350 113q-156 0 -289.5 -65t-215 -186t-81.5 -271t81.5 -271t215 -186t289.5 -65q194 0 350 112v250q-160 -129 -350 -129q-125 0 -215 82t-90 207t90 207t215 82q190 0 350 -129z" />
    <glyph glyph-name="Ccircumflex" unicode="&#x108;" horiz-adv-x="1312" 
d="M657 1731h164l185 -267h-181l-86 150l-86 -150h-180zM1167 74v293q-181 -107 -350 -107q-181 0 -309.5 124t-128.5 298q0 175 128.5 299.5t309.5 124.5q182 0 350 -107v293q-173 92 -350 92q-150 0 -286 -55.5t-234 -149.5t-155.5 -224t-57.5 -273t57.5 -272.5
t155.5 -223t234 -149t286 -55.5q177 0 350 92z" />
    <glyph glyph-name="ccircumflex" unicode="&#x109;" horiz-adv-x="1155" 
d="M547 1364h164l184 -266h-180l-84 149l-88 -149h-181zM1020 664v249q-157 113 -350 113q-156 0 -289.5 -65t-215 -186t-81.5 -271t81.5 -271t215 -186t289.5 -65q194 0 350 112v250q-160 -129 -350 -129q-125 0 -215 82t-90 207t90 207t215 82q190 0 350 -129z" />
    <glyph glyph-name="Cdotaccent" unicode="&#x10a;" horiz-adv-x="1312" 
d="M637 1612q0 58 38.5 96.5t96.5 38.5t96.5 -38.5t38.5 -96.5q0 -60 -38 -98.5t-97 -38.5t-97 38.5t-38 98.5zM1167 74v293q-181 -107 -350 -107q-181 0 -309.5 124t-128.5 298q0 175 128.5 299.5t309.5 124.5q182 0 350 -107v293q-173 92 -350 92q-150 0 -286 -55.5
t-234 -149.5t-155.5 -224t-57.5 -273t57.5 -272.5t155.5 -223t234 -149t286 -55.5q177 0 350 92z" />
    <glyph glyph-name="cdotaccent" unicode="&#x10b;" horiz-adv-x="1155" 
d="M532 1257q0 59 39 97.5t97 38.5q60 0 98.5 -38.5t38.5 -97.5t-38.5 -97t-98.5 -38q-59 0 -97.5 38.5t-38.5 96.5zM1020 664v249q-157 113 -350 113q-156 0 -289.5 -65t-215 -186t-81.5 -271t81.5 -271t215 -186t289.5 -65q194 0 350 112v250q-160 -129 -350 -129
q-125 0 -215 82t-90 207t90 207t215 82q190 0 350 -129z" />
    <glyph glyph-name="Ccaron" unicode="&#x10c;" horiz-adv-x="1312" 
d="M743 1581l84 150h181l-185 -267h-164l-184 267h180zM1167 369v-295q-173 -92 -350 -92q-150 0 -286 55.5t-234 149t-155.5 223t-57.5 272.5t57.5 273t155.5 224t234 149.5t286 55.5q177 0 350 -92v-293q-168 107 -350 107q-181 0 -309.5 -124.5t-128.5 -299.5
q0 -174 128.5 -298t309.5 -124q171 0 350 109z" />
    <glyph glyph-name="ccaron" unicode="&#x10d;" horiz-adv-x="1155" 
d="M655 1212l84 152h181l-185 -266h-164l-184 266h180zM1020 913v-249q-160 129 -350 129q-125 0 -215 -82t-90 -207t90 -207t215 -82q190 0 350 129v-250q-156 -112 -350 -112q-156 0 -289.5 65t-215 186t-81.5 271t81.5 271t215 186t289.5 65q193 0 350 -113z" />
    <glyph glyph-name="Dcaron" unicode="&#x10e;" horiz-adv-x="1390" 
d="M575 1581l84 150h181l-185 -267h-163l-185 267h180zM135 1366h516q182 0 335 -91.5t242 -249t89 -343.5q0 -139 -52.5 -265t-141.5 -217.5t-212.5 -145.5t-259.5 -54h-516v1366zM430 262h170q176 0 299 123t123 297t-123 298t-299 124h-170v-842z" />
    <glyph glyph-name="dcaron" unicode="&#x10f;" horiz-adv-x="1683" 
d="M1348 936l49 160q-51 7 -82 43.5t-31 89.5q0 60 38.5 98.5t98.5 38.5q59 0 97 -38.5t38 -98.5q0 -27 -26 -79.5t-123 -213.5h-59zM1151 1362v-1362h-283v74q-110 -92 -241 -92q-148 0 -272 66.5t-197.5 187t-73.5 268.5t73.5 268.5t197.5 187t272 66.5q139 0 241 -108
v444h283zM868 322v346q-46 68 -109.5 103.5t-131.5 35.5q-109 0 -185.5 -86.5t-76.5 -216.5t76.5 -216.5t185.5 -86.5q68 0 131.5 30.5t109.5 90.5z" />
    <glyph glyph-name="Dcroat" unicode="&#x110;" horiz-adv-x="1390" 
d="M135 1366h516q182 0 335 -91.5t242 -249t89 -343.5q0 -139 -52.5 -265t-141.5 -217.5t-212.5 -145.5t-259.5 -54h-516v557h-63v238h63v571zM430 795h275v-238h-275v-295h170q176 0 299 123t123 297t-123 298t-299 124h-170v-309z" />
    <glyph glyph-name="dcroat" unicode="&#x111;" horiz-adv-x="1406" 
d="M868 1251v111h283v-111h141v-153h-141v-1098h-283v74q-114 -92 -241 -92q-148 0 -272 66.5t-197.5 187t-73.5 268.5t73.5 268.5t197.5 187t272 66.5q142 0 241 -108v180h-161v153h161zM868 322v346q-46 69 -109 104t-132 35q-109 0 -185.5 -86.5t-76.5 -216.5
t76.5 -216.5t185.5 -86.5q148 0 241 121z" />
    <glyph glyph-name="Emacron" unicode="&#x112;" horiz-adv-x="1224" 
d="M924 1630v-153h-570v153h570zM1096 815v-278h-664v-291h698v-246h-995v1366h995v-262h-698v-289h664z" />
    <glyph glyph-name="emacron" unicode="&#x113;" horiz-adv-x="1236" 
d="M907 1296v-153h-569v153h569zM1139 457h-783q6 -107 94 -180.5t232 -73.5q216 0 399 123v-211q-58 -56 -173.5 -92.5t-241.5 -36.5q-163 0 -296 68.5t-209.5 190.5t-76.5 273q2 216 157.5 362t385.5 146q111 0 213 -49.5t171.5 -129t105.5 -183.5t22 -207zM369 639h505
q-4 71 -76 119.5t-171 48.5q-105 0 -178.5 -47.5t-79.5 -120.5z" />
    <glyph glyph-name="Ebreve" unicode="&#x114;" horiz-adv-x="1224" 
d="M762 1659h139q0 -78 -76.5 -136.5t-177.5 -58.5q-107 0 -180.5 58.5t-73.5 136.5h137q0 -38 33 -64t84 -26t83 25.5t32 64.5zM1096 815v-278h-664v-291h698v-246h-995v1366h995v-262h-698v-289h664z" />
    <glyph glyph-name="ebreve" unicode="&#x115;" horiz-adv-x="1236" 
d="M745 1315h138q0 -78 -76.5 -136.5t-177.5 -58.5q-105 0 -178.5 58.5t-73.5 136.5h135q0 -38 33.5 -64t83.5 -26q52 0 84 25.5t32 64.5zM1139 457h-783q6 -107 94 -180.5t232 -73.5q216 0 399 123v-211q-58 -56 -173.5 -92.5t-241.5 -36.5q-163 0 -296 68.5t-209.5 190.5
t-76.5 273q2 216 157.5 362t385.5 146q111 0 213 -49.5t171.5 -129t105.5 -183.5t22 -207zM369 639h505q-4 71 -76 119.5t-171 48.5q-105 0 -178.5 -47.5t-79.5 -120.5z" />
    <glyph glyph-name="Edotaccent" unicode="&#x116;" horiz-adv-x="1224" 
d="M498 1612q0 58 38 96.5t97 38.5q60 0 98.5 -38t38.5 -97q0 -60 -38.5 -98.5t-98.5 -38.5q-59 0 -97 38.5t-38 98.5zM1130 1104v262h-995v-1366h995v246h-698v291h664v278h-664v289h698z" />
    <glyph glyph-name="edotaccent" unicode="&#x117;" horiz-adv-x="1236" 
d="M492 1257q0 59 38.5 97.5t96.5 38.5q60 0 98.5 -38.5t38.5 -97.5t-38.5 -97t-98.5 -38q-59 0 -97 38t-38 97zM356 457h783q14 103 -22 207t-105.5 183.5t-171.5 129t-213 49.5q-230 0 -385.5 -146t-157.5 -362q0 -151 76.5 -273t209.5 -190.5t296 -68.5q126 0 241.5 36.5
t173.5 92.5v211q-183 -123 -399 -123q-144 0 -232 73.5t-94 180.5zM874 639h-505q6 73 79.5 120.5t178.5 47.5q99 0 171 -48.5t76 -119.5z" />
    <glyph glyph-name="Eogonek" unicode="&#x118;" horiz-adv-x="1224" 
d="M811 -219v-100q-45 -27 -96 -27q-90 0 -146.5 46t-56.5 126q0 87 106 174h-483v1366h995v-262h-698v-289h664v-278h-664v-291h698v-246h-425q-93 -84 -93 -164q0 -37 32 -60.5t71 -23.5q53 0 96 29z" />
    <glyph glyph-name="eogonek" unicode="&#x119;" horiz-adv-x="1236" 
d="M1139 457h-783q6 -107 94 -180.5t232 -73.5q216 0 399 123v-211q-53 -53 -155.5 -88t-220.5 -41q-78 -70 -78 -150q0 -37 32 -60.5t70 -23.5q57 0 96 29v-100q-45 -27 -96 -27q-90 0 -146.5 46t-56.5 126q0 81 92 162q-231 14 -382.5 162.5t-151.5 367.5q2 216 157.5 362
t385.5 146q111 0 213 -49.5t171.5 -129t105.5 -183.5t22 -207zM369 639h505q-4 71 -76 119.5t-171 48.5q-105 0 -178.5 -47.5t-79.5 -120.5z" />
    <glyph glyph-name="Ecaron" unicode="&#x11a;" horiz-adv-x="1224" 
d="M639 1581l84 150h180l-184 -267h-164l-184 267h180zM1096 815v-278h-664v-291h698v-246h-995v1366h995v-262h-698v-289h664z" />
    <glyph glyph-name="ecaron" unicode="&#x11b;" horiz-adv-x="1236" 
d="M625 1214l84 150h180l-184 -266h-164l-185 266h181zM1139 457h-783q6 -107 94 -180.5t232 -73.5q216 0 399 123v-211q-58 -56 -173.5 -92.5t-241.5 -36.5q-163 0 -296 68.5t-209.5 190.5t-76.5 273q2 216 157.5 362t385.5 146q111 0 213 -49.5t171.5 -129t105.5 -183.5
t22 -207zM369 639h505q-4 71 -76 119.5t-171 48.5q-105 0 -178.5 -47.5t-79.5 -120.5z" />
    <glyph glyph-name="Gcircumflex" unicode="&#x11c;" horiz-adv-x="1376" 
d="M705 1731h163l185 -267h-181l-86 150l-86 -150h-180zM1200 999v293q-195 92 -383 92q-150 0 -285.5 -55.5t-233.5 -149.5t-156 -224t-58 -273q0 -190 98 -351.5t266.5 -255t368.5 -93.5q211 0 414 110v709h-590v-232h324v-288q-67 -21 -148 -21q-181 0 -309.5 124
t-128.5 298q0 175 128.5 299.5t309.5 124.5q197 0 383 -107z" />
    <glyph glyph-name="gcircumflex" unicode="&#x11d;" horiz-adv-x="1351" 
d="M569 1364h164l185 -266h-181l-86 149l-86 -149h-180zM891 1008v-90q-48 54 -111 81t-129 27q-145 -1 -269.5 -66.5t-200.5 -186t-75 -269.5q-1 -149 75 -269.5t200.5 -186t269.5 -66.5q60 0 125.5 25t114.5 67q0 -19 1 -21.5t1 -23.5q0 -132 -86.5 -207.5t-202.5 -75.5
q-122 0 -242.5 46.5t-205.5 133.5v-254q88 -77 207.5 -118t240.5 -39q87 -1 169 18.5t155 61.5t127.5 102t86.5 145.5t32 186.5v979h-283zM891 666v-344q-46 -59 -110 -90t-130 -31q-108 0 -185 86t-77 217q0 127 78 216t184 87q65 2 129.5 -35t110.5 -106z" />
    <glyph glyph-name="Gbreve" unicode="&#x11e;" horiz-adv-x="1376" 
d="M846 1659h137q0 -78 -75.5 -136.5t-176.5 -58.5q-107 0 -180.5 58.5t-73.5 136.5h137q0 -38 33 -64t84 -26t83 25.5t32 64.5zM1200 1292v-293q-186 107 -383 107q-181 0 -309.5 -124.5t-128.5 -299.5q0 -174 128.5 -298t309.5 -124q81 0 148 21v288h-324v232h590v-709
q-203 -110 -414 -110q-150 0 -286 55.5t-234 149t-155.5 223t-57.5 272.5t57.5 273t155.5 224t234 149.5t286 55.5q188 0 383 -92z" />
    <glyph glyph-name="gbreve" unicode="&#x11f;" horiz-adv-x="1351" 
d="M729 1315h137q0 -78 -76.5 -136.5t-177.5 -58.5q-105 0 -178.5 58.5t-73.5 136.5h136q0 -38 33.5 -64t82.5 -26q52 0 84.5 25.5t32.5 64.5zM1174 1008v-979q0 -101 -32 -186.5t-86.5 -145.5t-127.5 -102t-155 -61.5t-169 -18.5q-121 -2 -240.5 39t-207.5 118v254
q85 -87 205.5 -133.5t242.5 -46.5q116 0 202.5 75.5t86.5 207.5q0 21 -1 23.5t-1 21.5q-49 -42 -114.5 -67t-125.5 -25q-145 1 -269.5 66.5t-200.5 186t-75 269.5q-1 149 75 269.5t200.5 186t269.5 66.5q66 0 129 -27t111 -81v90h283zM891 322v344q-46 69 -110.5 106
t-129.5 35q-108 2 -185 -87t-77 -216q0 -131 76.5 -217t185.5 -86q66 0 130 31t110 90z" />
    <glyph glyph-name="Gdotaccent" unicode="&#x120;" horiz-adv-x="1376" 
d="M602 1612q0 58 38 96.5t97 38.5q60 0 98.5 -38t38.5 -97q0 -60 -38.5 -98.5t-98.5 -38.5q-59 0 -97 38.5t-38 98.5zM1200 999v293q-195 92 -383 92q-150 0 -285.5 -55.5t-233.5 -149.5t-156 -224t-58 -273q0 -190 98 -351.5t266.5 -255t368.5 -93.5q211 0 414 110v709
h-590v-232h324v-288q-67 -21 -148 -21q-181 0 -309.5 124t-128.5 298q0 175 128.5 299.5t309.5 124.5q197 0 383 -107z" />
    <glyph glyph-name="gdotaccent" unicode="&#x121;" horiz-adv-x="1351" 
d="M502 1257q0 59 38.5 97.5t96.5 38.5t96.5 -38.5t38.5 -97.5t-38 -97t-97 -38t-97 38t-38 97zM891 1008v-90q-48 54 -111 81t-129 27q-145 -1 -269.5 -66.5t-200.5 -186t-75 -269.5q-1 -149 75 -269.5t200.5 -186t269.5 -66.5q60 0 125.5 25t114.5 67q0 -19 1 -21.5
t1 -23.5q0 -132 -86.5 -207.5t-202.5 -75.5q-122 0 -242.5 46.5t-205.5 133.5v-254q88 -77 207.5 -118t240.5 -39q87 -1 169 18.5t155 61.5t127.5 102t86.5 145.5t32 186.5v979h-283zM891 666v-344q-46 -59 -110 -90t-130 -31q-108 0 -185 86t-77 217q0 127 78 216t184 87
q65 2 129.5 -35t110.5 -106z" />
    <glyph glyph-name="uni0122" unicode="&#x122;" horiz-adv-x="1376" 
d="M1200 1292v-293q-186 107 -383 107q-181 0 -309.5 -124.5t-128.5 -299.5q0 -174 128.5 -298t309.5 -124q81 0 148 21v288h-324v232h590v-709q-203 -110 -414 -110q-150 0 -286 55.5t-234 149t-155.5 223t-57.5 272.5t57.5 273t155.5 224t234 149.5t286 55.5
q188 0 383 -92zM662 -565l49 159q-51 7 -82 44t-31 90q0 60 38 98.5t97 38.5q60 0 98.5 -38.5t38.5 -98.5q0 -26 -25.5 -78t-123.5 -215h-59z" />
    <glyph glyph-name="uni0123" unicode="&#x123;" horiz-adv-x="1351" 
d="M698 1575l-49 -160q51 -7 82 -43.5t31 -89.5q0 -60 -38.5 -98.5t-98.5 -38.5q-59 0 -97.5 38.5t-38.5 98.5q0 27 26 79t124 214h59zM891 1008v-90q-48 54 -111 81t-129 27q-145 -1 -269.5 -66.5t-200.5 -186t-75 -269.5q-1 -149 75 -269.5t200.5 -186t269.5 -66.5
q60 0 125.5 25t114.5 67q0 -19 1 -21.5t1 -23.5q0 -132 -86.5 -207.5t-202.5 -75.5q-122 0 -242.5 46.5t-205.5 133.5v-254q88 -77 207.5 -118t240.5 -39q87 -1 169 18.5t155 61.5t127.5 102t86.5 145.5t32 186.5v979h-283zM891 666v-344q-46 -59 -110 -90t-130 -31
q-108 0 -185 86t-77 217q0 127 78 216t184 87q65 2 129.5 -35t110.5 -106z" />
    <glyph glyph-name="Hcircumflex" unicode="&#x124;" horiz-adv-x="1380" 
d="M606 1731h164l184 -267h-180l-86 150l-86 -150h-180zM135 1366v-1366h295v537h520v-537h297v1366h-297v-549h-520v549h-295z" />
    <glyph glyph-name="hcircumflex" unicode="&#x125;" horiz-adv-x="1370" 
d="M213 1731h164l184 -267h-180l-86 150l-86 -150h-180zM156 1362v-1362h282v668q46 69 109 104t133 35q112 0 176 -86t64 -217v-504h282v504q0 147 -62 265t-182 187.5t-278 69.5q-63 0 -127.5 -29t-114.5 -79v444h-282z" />
    <glyph glyph-name="Hbar" unicode="&#x126;" horiz-adv-x="1619" 
d="M252 1165v201h295v-201h520v201h295v-201h125v-186h-125v-979h-295v537h-520v-537h-295v979h-117v186h117zM1067 817v162h-520v-162h520z" />
    <glyph glyph-name="hbar" unicode="&#x127;" horiz-adv-x="1370" 
d="M438 1081v-163q52 50 116 79t126 29q158 0 278 -69.5t182 -187.5t62 -265v-504h-282v504q0 131 -64 217t-176 86q-70 0 -133 -35t-109 -104v-668h-282v1081h-82v187h82v94h282v-94h191v-187h-191z" />
    <glyph glyph-name="Itilde" unicode="&#x128;" horiz-adv-x="563" 
d="M526 1677v-164q-40 -39 -91 -42t-100 15.5t-99 36.5t-103 14t-96 -44v156q48 37 107 41t112 -12t103 -31.5t94.5 -11t72.5 41.5zM428 0h-293v1366h293v-1366z" />
    <glyph glyph-name="itilde" unicode="&#x129;" horiz-adv-x="550" 
d="M520 1309v-166q-40 -39 -90.5 -42t-99.5 15.5t-98.5 37t-102.5 14t-96 -45.5v158q48 37 107 41t111.5 -11.5t102.5 -31t94 -11t72 41.5zM416 0h-281v1008h281v-1008z" />
    <glyph glyph-name="Imacron" unicode="&#x12a;" horiz-adv-x="563" 
d="M567 1630v-153h-569v153h569zM428 0h-293v1366h293v-1366z" />
    <glyph glyph-name="imacron" unicode="&#x12b;" horiz-adv-x="550" 
d="M561 1296v-153h-571v153h571zM416 0h-281v1008h281v-1008z" />
    <glyph glyph-name="Iogonek" unicode="&#x12e;" horiz-adv-x="563" 
d="M422 -223v-101q-32 -26 -98 -26q-89 0 -145 45t-56 125q0 87 113 180h-101v1366h293v-1366q-49 -3 -94 -21.5t-78 -58t-33 -90.5q0 -37 32 -59.5t71 -22.5q59 0 96 29z" />
    <glyph glyph-name="iogonek" unicode="&#x12f;" horiz-adv-x="550" 
d="M135 1257q0 59 38.5 97.5t98.5 38.5q58 0 97 -38.5t39 -97.5q0 -58 -38.5 -96.5t-97.5 -38.5q-60 0 -98.5 38t-38.5 97zM422 -324v101q-37 -29 -96 -29q-39 0 -71 22.5t-32 59.5q0 76 58.5 120.5t134.5 49.5v1008h-281v-1008h101q-113 -93 -113 -180q0 -80 56.5 -125
t146.5 -45q64 0 96 26z" />
    <glyph glyph-name="Idotaccent" unicode="&#x130;" horiz-adv-x="563" 
d="M145 1612q0 58 38.5 96.5t97.5 38.5q60 0 98.5 -38t38.5 -97q0 -60 -38.5 -98.5t-98.5 -38.5q-59 0 -97.5 38.5t-38.5 98.5zM135 0h293v1366h-293v-1366z" />
    <glyph glyph-name="dotlessi" unicode="&#x131;" horiz-adv-x="550" 
d="M416 0h-281v1008h281v-1008z" />
    <glyph glyph-name="IJ" unicode="&#x132;" horiz-adv-x="1576" 
d="M428 0h-293v1366h293v-1366zM684 76v297q148 -113 287 -113q71 0 123.5 54.5t52.5 127.5v924h295v-940q0 -115 -54.5 -216t-156 -164.5t-225.5 -63.5q-166 0 -322 94z" />
    <glyph glyph-name="ij" unicode="&#x133;" horiz-adv-x="1101" 
d="M135 1298q0 59 38.5 97.5t96.5 38.5q60 0 99 -38.5t39 -97.5t-39 -97t-99 -38q-58 0 -96.5 38.5t-38.5 96.5zM688 1298q0 59 38.5 97.5t96.5 38.5q60 0 99 -38.5t39 -97.5t-39 -97t-99 -38q-59 0 -97 38.5t-38 96.5zM135 0h281v1008h-281v-1008zM686 1008v-1088
q0 -119 -78 -119q-19 0 -98 9v-203q49 -6 98 -6q359 0 359 303v1104h-281z" />
    <glyph glyph-name="Jcircumflex" unicode="&#x134;" horiz-adv-x="1157" 
d="M674 1731h164l184 -267h-180l-86 150l-86 -150h-181zM145 373v-297q156 -94 320 -94q125 0 227 63.5t156.5 164.5t54.5 216v940h-295v-924q0 -73 -52.5 -127.5t-123.5 -54.5q-139 0 -287 113z" />
    <glyph glyph-name="jcircumflex" unicode="&#x135;" horiz-adv-x="708" 
d="M225 1364h164l184 -266h-180l-84 149l-88 -149h-180zM156 1008v-1088q0 -119 -78 -119q-22 0 -96 9v-203q49 -6 96 -6q360 0 360 303v1104h-282z" />
    <glyph glyph-name="uni0136" unicode="&#x136;" horiz-adv-x="1372" 
d="M430 852l455 514h387l-465 -530l502 -836h-342l-373 623l-164 -166v-457h-295v1366h295v-514zM596 -565l47 159q-51 7 -82 44t-31 90q0 60 39 98.5t99 38.5q59 0 97 -38.5t38 -98.5q0 -27 -26 -79t-124 -214h-57z" />
    <glyph glyph-name="uni0137" unicode="&#x137;" horiz-adv-x="1257" 
d="M414 1362v-678q193 166 370 324h381l-450 -396q89 -113 255.5 -326.5t223.5 -285.5h-330l-346 440l-104 -88v-352h-279v1362h279zM524 -565l47 159q-49 7 -79.5 44t-30.5 90q0 60 38 98.5t97 38.5t97 -38.5t38 -98.5q0 -27 -26 -79.5t-123 -213.5h-58z" />
    <glyph glyph-name="Lacute" unicode="&#x139;" horiz-adv-x="1175" 
d="M197 1464l63 267h219l-129 -267h-153zM135 1366v-1366h969v262h-674v1104h-295z" />
    <glyph glyph-name="lacute" unicode="&#x13a;" horiz-adv-x="612" 
d="M195 1464l63 267h219l-129 -267h-153zM135 0h281v1362h-281v-1362z" />
    <glyph glyph-name="uni013B" unicode="&#x13b;" horiz-adv-x="1175" 
d="M1104 262v-262h-969v1366h295v-1104h674zM524 -565l49 159q-51 7 -81.5 44t-30.5 90q0 60 38.5 98.5t98.5 38.5q59 0 97 -38.5t38 -98.5q0 -27 -26 -79.5t-123 -213.5h-60z" />
    <glyph glyph-name="uni013C" unicode="&#x13c;" horiz-adv-x="561" 
d="M422 0h-283v1362h283v-1362zM205 -565l49 159q-51 7 -82 44t-31 90q0 60 39 98.5t99 38.5q59 0 97 -38.5t38 -98.5q0 -27 -26 -79t-124 -214h-59z" />
    <glyph glyph-name="Lcaron" unicode="&#x13d;" horiz-adv-x="1298" 
d="M401 1581l86 150h181l-185 -267h-164l-184 267h180zM1225 262v-262h-969v1366h297v-1104h672z" />
    <glyph glyph-name="lcaron" unicode="&#x13e;" horiz-adv-x="974" 
d="M637 936l49 160q-51 7 -82 43.5t-31 89.5q0 60 39 98.5t99 38.5q59 0 97 -38.5t38 -98.5q0 -27 -26 -79t-124 -214h-59zM416 0h-281v1362h281v-1362z" />
    <glyph glyph-name="Ldot" unicode="&#x13f;" horiz-adv-x="1177" 
d="M1104 262v-262h-969v1366h295v-1104h674zM829 582q0 58 38.5 96.5t97.5 38.5q60 0 98.5 -38t38.5 -97t-38.5 -97.5t-98.5 -38.5q-59 0 -97.5 39t-38.5 97z" />
    <glyph glyph-name="ldot" unicode="&#x140;" horiz-adv-x="937" 
d="M416 0h-281v1362h281v-1362zM537 584q0 59 38.5 97t98.5 38q58 0 96.5 -38.5t38.5 -96.5q0 -60 -38 -99t-97 -39q-60 0 -98.5 39t-38.5 99z" />
    <glyph glyph-name="Lslash" unicode="&#x141;" horiz-adv-x="1175" 
d="M1104 262v-262h-969v477l-170 -67v186l170 68v702h295v-590l371 156v-187l-371 -155v-328h674z" />
    <glyph glyph-name="lslash" unicode="&#x142;" horiz-adv-x="550" 
d="M135 649v713h281v-604l137 55v-186l-137 -56v-571h-281v463l-135 -53v186z" />
    <glyph glyph-name="Nacute" unicode="&#x143;" horiz-adv-x="1376" 
d="M559 1464l62 267h221l-129 -267h-154zM135 0h293v842l590 -842h223v1366h-297v-831l-588 831h-221v-1366z" />
    <glyph glyph-name="nacute" unicode="&#x144;" horiz-adv-x="1296" 
d="M512 1100l61 266h222l-129 -266h-154zM125 1008v-1008h281v668q98 139 243 139q112 0 176 -85.5t64 -217.5v-504h282v504q0 147 -62 265t-182 187.5t-278 69.5q-62 0 -126.5 -29t-116.5 -79v90h-281z" />
    <glyph glyph-name="uni0145" unicode="&#x145;" horiz-adv-x="1376" 
d="M944 535v831h297v-1366h-223l-590 842v-842h-293v1366h221zM645 -565l47 159q-49 7 -79.5 44t-30.5 90q0 60 38 98.5t97 38.5q60 0 98.5 -38.5t38.5 -98.5q0 -26 -25.5 -78t-123.5 -215h-60z" />
    <glyph glyph-name="uni0146" unicode="&#x146;" horiz-adv-x="1296" 
d="M406 1008v-90q52 50 116.5 79t126.5 29q158 0 278 -69.5t182 -187.5t62 -265v-504h-282v504q0 132 -64 217.5t-176 85.5q-145 0 -243 -139v-668h-281v1008h281zM569 -565l49 159q-51 7 -81.5 44t-30.5 90q0 60 38.5 98.5t98.5 38.5q59 0 97 -38.5t38 -98.5
q0 -27 -26 -79.5t-123 -213.5h-60z" />
    <glyph glyph-name="Ncaron" unicode="&#x147;" horiz-adv-x="1376" 
d="M688 1573l86 149h180l-184 -266h-164l-184 266h180zM944 535v831h297v-1366h-223l-590 842v-842h-293v1366h221z" />
    <glyph glyph-name="ncaron" unicode="&#x148;" horiz-adv-x="1296" 
d="M647 1214l84 150h180l-184 -266h-164l-184 266h180zM406 1008v-90q52 50 116.5 79t126.5 29q158 0 278 -69.5t182 -187.5t62 -265v-504h-282v504q0 132 -64 217.5t-176 85.5q-145 0 -243 -139v-668h-281v1008h281z" />
    <glyph glyph-name="napostrophe" unicode="&#x149;" horiz-adv-x="1662" 
d="M193 936l49 160q-51 7 -82 43.5t-31 89.5q0 60 38 98.5t97 38.5q60 0 98.5 -38.5t38.5 -98.5q0 -26 -25.5 -78t-123.5 -215h-59zM492 1008v-1008h280v668q46 68 110.5 103.5t133.5 35.5q111 0 175 -85.5t64 -217.5v-504h283v504q0 225 -143 373.5t-379 148.5
q-62 0 -127.5 -29t-116.5 -79v90h-280z" />
    <glyph glyph-name="Omacron" unicode="&#x14c;" horiz-adv-x="1638" 
d="M1104 1630v-153h-572v153h572zM827 1384q195 0 360.5 -93.5t262 -255.5t96.5 -353q0 -143 -57 -272.5t-153 -223t-229.5 -149t-279.5 -55.5q-150 0 -286 55.5t-234 149t-155.5 223t-57.5 272.5t57.5 273t155.5 224t234 149.5t286 55.5zM827 1104q-181 0 -309.5 -124
t-128.5 -298t128.5 -298t309.5 -124q173 0 297.5 124.5t124.5 297.5t-124.5 297.5t-297.5 124.5z" />
    <glyph glyph-name="omacron" unicode="&#x14d;" horiz-adv-x="1294" 
d="M944 1296v-153h-571v153h571zM641 1028q117 0 222.5 -41.5t182 -112t121.5 -167t45 -203.5t-45 -203.5t-121.5 -166.5t-182 -111t-222.5 -41q-153 0 -281 70t-202 190t-74 262t74 262.5t202 191t281 70.5zM641 778q-111 0 -192.5 -81t-81.5 -193t81.5 -193.5t192.5 -81.5
q119 0 203 81t84 194t-83.5 193.5t-203.5 80.5z" />
    <glyph glyph-name="Obreve" unicode="&#x14e;" horiz-adv-x="1638" 
d="M942 1659h139q0 -78 -76.5 -136.5t-177.5 -58.5q-107 0 -180.5 58.5t-73.5 136.5h138q0 -39 32.5 -64.5t83.5 -25.5t83 25.5t32 64.5zM827 1384q195 0 360.5 -93.5t262 -255.5t96.5 -353q0 -143 -57 -272.5t-153 -223t-229.5 -149t-279.5 -55.5q-150 0 -286 55.5
t-234 149t-155.5 223t-57.5 272.5t57.5 273t155.5 224t234 149.5t286 55.5zM827 1104q-181 0 -309.5 -124t-128.5 -298t128.5 -298t309.5 -124q173 0 297.5 124.5t124.5 297.5t-124.5 297.5t-297.5 124.5z" />
    <glyph glyph-name="obreve" unicode="&#x14f;" horiz-adv-x="1294" 
d="M760 1315h139q0 -78 -76.5 -136.5t-177.5 -58.5q-107 0 -180.5 58.5t-73.5 136.5h137q0 -38 33 -64t84 -26t83 25.5t32 64.5zM641 1028q117 0 222.5 -41.5t182 -112t121.5 -167t45 -203.5t-45 -203.5t-121.5 -166.5t-182 -111t-222.5 -41q-153 0 -281 70t-202 190
t-74 262t74 262.5t202 191t281 70.5zM641 778q-111 0 -192.5 -81t-81.5 -193t81.5 -193.5t192.5 -81.5q119 0 203 81t84 194t-83.5 193.5t-203.5 80.5z" />
    <glyph glyph-name="Ohungarumlaut" unicode="&#x150;" horiz-adv-x="1638" 
d="M645 1724h219l-129 -266h-151zM924 1724h221l-129 -266h-154zM827 1384q-150 0 -286 -55.5t-234 -149.5t-155.5 -224t-57.5 -273t57.5 -272.5t155.5 -223t234 -149t286 -55.5q146 0 279.5 55.5t229.5 149t153 223t57 272.5q0 191 -96.5 353t-262 255.5t-360.5 93.5z
M827 1104q173 0 297.5 -124.5t124.5 -297.5t-124.5 -297.5t-297.5 -124.5q-181 0 -309.5 124t-128.5 298t128.5 298t309.5 124z" />
    <glyph glyph-name="ohungarumlaut" unicode="&#x151;" horiz-adv-x="1294" 
d="M487 1366h220l-129 -266h-154zM766 1366h219l-129 -266h-154zM641 1028q-153 0 -281 -70.5t-202 -191t-74 -262.5t74 -262t202 -190t281 -70q117 0 222.5 41t182 111t121.5 166.5t45 203.5t-45 203.5t-121.5 167t-182 112t-222.5 41.5zM641 778q120 0 203.5 -80.5
t83.5 -193.5t-84 -194t-203 -81q-111 0 -192.5 81.5t-81.5 193.5t81.5 193t192.5 81z" />
    <glyph glyph-name="OE" unicode="&#x152;" horiz-adv-x="2340" 
d="M1249 0v150q-81 -78 -191 -123t-231 -45q-150 0 -286 55.5t-234 149t-155.5 223t-57.5 272.5t57.5 273t155.5 224t234 149.5t286 55.5q119 0 230.5 -46t191.5 -124v152h998v-262h-701v-289h664v-278h-664v-291h701v-246h-998zM827 1104q-181 0 -309.5 -124t-128.5 -298
t128.5 -298t309.5 -124q174 0 298 124t124 298q0 173 -124.5 297.5t-297.5 124.5z" />
    <glyph glyph-name="oe" unicode="&#x153;" horiz-adv-x="2093" 
d="M1995 457h-783q6 -107 94 -180.5t232 -73.5q216 0 399 123v-211q-58 -56 -173.5 -92.5t-241.5 -36.5q-135 0 -250.5 47t-194.5 133q-79 -86 -192.5 -135t-243.5 -49q-153 0 -281 70t-202 190t-74 262t74 262.5t202 191t281 70.5q125 0 237 -47.5t191 -130.5
q75 83 182 129.5t232 46.5q111 0 213 -49.5t171.5 -129t105.5 -183.5t22 -207zM641 778q-111 0 -192.5 -81t-81.5 -193t81.5 -193.5t192.5 -81.5q119 0 203 81t84 194t-83.5 193.5t-203.5 80.5zM1212 639h506q-4 71 -76.5 119.5t-171.5 48.5q-105 0 -178.5 -47.5
t-79.5 -120.5z" />
    <glyph glyph-name="Racute" unicode="&#x154;" horiz-adv-x="1316" 
d="M485 1464l64 267h219l-129 -267h-154zM135 0h295v479h168l291 -479h334l-324 512q131 43 210 144t79 243q0 213 -117.5 340t-294.5 127h-641v-1366zM430 1102h264q88 0 142.5 -53t54.5 -150q0 -79 -55.5 -124.5t-141.5 -45.5h-264v373z" />
    <glyph glyph-name="racute" unicode="&#x155;" horiz-adv-x="837" 
d="M307 1100l62 266h219l-129 -266h-152zM125 0h281v670q47 65 110.5 101t130.5 36q73 0 137 -10v219q-64 10 -135 10q-62 0 -127 -28.5t-116 -77.5v88h-281v-1008z" />
    <glyph glyph-name="uni0156" unicode="&#x156;" horiz-adv-x="1316" 
d="M135 1366h641q177 0 294.5 -127t117.5 -340q0 -142 -79 -243t-210 -144l324 -512h-334l-291 479h-168v-479h-295v1366zM430 729h264q86 0 141.5 45.5t55.5 124.5q0 97 -54.5 150t-142.5 53h-264v-373zM559 -565l49 159q-51 7 -81.5 44t-30.5 90q0 60 38 98.5t97 38.5
q60 0 98.5 -38.5t38.5 -98.5q0 -26 -25.5 -77t-124.5 -216h-59z" />
    <glyph glyph-name="uni0157" unicode="&#x157;" horiz-adv-x="841" 
d="M412 1008v-88q49 49 114 77.5t127 28.5q71 0 135 -10v-219q-64 10 -137 10q-66 0 -130 -36t-109 -101v-670h-283v1008h283zM193 -565l49 159q-51 7 -82 44t-31 90q0 60 38 98.5t97 38.5q60 0 98.5 -38.5t38.5 -98.5q0 -26 -25.5 -78t-123.5 -215h-59z" />
    <glyph glyph-name="Rcaron" unicode="&#x158;" horiz-adv-x="1316" 
d="M588 1573l84 149h180l-184 -266h-164l-185 266h181zM135 1366h641q177 0 294.5 -127t117.5 -340q0 -142 -79 -243t-210 -144l324 -512h-334l-291 479h-168v-479h-295v1366zM430 729h264q86 0 141.5 45.5t55.5 124.5q0 97 -54.5 150t-142.5 53h-264v-373z" />
    <glyph glyph-name="rcaron" unicode="&#x159;" horiz-adv-x="837" 
d="M418 1214l86 150h180l-184 -266h-164l-184 266h180zM406 1008v-88q51 49 116 77.5t127 28.5q71 0 135 -10v-219q-64 10 -137 10q-67 0 -130.5 -36t-110.5 -101v-670h-281v1008h281z" />
    <glyph glyph-name="Sacute" unicode="&#x15a;" horiz-adv-x="1245" 
d="M522 1464l64 267h219l-129 -267h-154zM150 449v-293q98 -85 229.5 -129.5t263.5 -44.5q76 0 149 14.5t140.5 46t118 77t80.5 112t30 145.5q0 49 -10.5 92.5t-25.5 76.5t-43 63.5t-52.5 51.5t-65 42t-68.5 33.5t-75.5 28t-74 22.5t-74.5 20q-44 12 -68 19t-59.5 19
t-54.5 23t-39 26t-28.5 34t-8.5 41q0 44 21 75.5t56 47.5t72.5 23t79.5 7q118 0 242.5 -52.5t216.5 -147.5v292q-91 83 -213 126.5t-246 43.5q-76 0 -148 -15.5t-137.5 -47.5t-115 -78.5t-78.5 -113t-29 -144.5q0 -49 9.5 -92t24 -76.5t40 -64t49.5 -52t60.5 -42t65 -33.5
t71 -28t70.5 -23.5t72 -21.5t67 -20q50 -14 81.5 -25.5t62.5 -28t45.5 -37.5t14.5 -48q0 -41 -19 -71t-51 -46t-66.5 -23t-72.5 -7q-133 0 -272.5 53t-236.5 150z" />
    <glyph glyph-name="sacute" unicode="&#x15b;" horiz-adv-x="1050" 
d="M414 1100l61 266h219l-129 -266h-151zM121 356v-252q82 -59 191 -90.5t218 -31.5q77 0 150.5 16t139.5 49t106.5 92t40.5 137q0 34 -8 64t-21 54t-35 46.5t-42 39t-51.5 33.5t-55 28t-60 24t-59 20t-59.5 18.5t-54 17.5q-143 43 -143 84q0 46 43 68t102 22q97 0 203 -38
t184 -104v252q-80 59 -182 90t-203 31q-60 0 -117 -10t-111 -33t-94 -55.5t-64.5 -82t-24.5 -108.5q0 -50 13 -91.5t32 -71t52 -55.5t61.5 -41.5t72.5 -31t72.5 -23.5t73.5 -19q19 -5 28 -7q73 -18 109.5 -37t36.5 -51q1 -49 -40.5 -72.5t-95.5 -23.5q-106 0 -217.5 37.5
t-191.5 105.5z" />
    <glyph glyph-name="Scircumflex" unicode="&#x15c;" horiz-adv-x="1245" 
d="M582 1731h163l185 -267h-180l-84 150l-88 -150h-181zM150 449v-293q98 -85 229.5 -129.5t263.5 -44.5q76 0 149 14.5t140.5 46t118 77t80.5 112t30 145.5q0 49 -10.5 92.5t-25.5 76.5t-43 63.5t-52.5 51.5t-65 42t-68.5 33.5t-75.5 28t-74 22.5t-74.5 20q-44 12 -68 19
t-59.5 19t-54.5 23t-39 26t-28.5 34t-8.5 41q0 44 21 75.5t56 47.5t72.5 23t79.5 7q118 0 242.5 -52.5t216.5 -147.5v292q-91 83 -213 126.5t-246 43.5q-76 0 -148 -15.5t-137.5 -47.5t-115 -78.5t-78.5 -113t-29 -144.5q0 -49 9.5 -92t24 -76.5t40 -64t49.5 -52t60.5 -42
t65 -33.5t71 -28t70.5 -23.5t72 -21.5t67 -20q50 -14 81.5 -25.5t62.5 -28t45.5 -37.5t14.5 -48q0 -41 -19 -71t-51 -46t-66.5 -23t-72.5 -7q-133 0 -272.5 53t-236.5 150z" />
    <glyph glyph-name="scircumflex" unicode="&#x15d;" horiz-adv-x="1050" 
d="M436 1364h164l184 -266h-180l-84 149l-88 -149h-180zM121 356v-252q82 -59 191 -90.5t218 -31.5q77 0 150.5 16t139.5 49t106.5 92t40.5 137q0 34 -8 64t-21 54t-35 46.5t-42 39t-51.5 33.5t-55 28t-60 24t-59 20t-59.5 18.5t-54 17.5q-143 43 -143 84q0 46 43 68t102 22
q97 0 203 -38t184 -104v252q-80 59 -182 90t-203 31q-60 0 -117 -10t-111 -33t-94 -55.5t-64.5 -82t-24.5 -108.5q0 -50 13 -91.5t32 -71t52 -55.5t61.5 -41.5t72.5 -31t72.5 -23.5t73.5 -19q19 -5 28 -7q73 -18 109.5 -37t36.5 -51q1 -49 -40.5 -72.5t-95.5 -23.5
q-106 0 -217.5 37.5t-191.5 105.5z" />
    <glyph glyph-name="Scedilla" unicode="&#x15e;" horiz-adv-x="1245" 
d="M688 -16l-43 -62q65 14 121.5 -23.5t56.5 -101.5q0 -70 -55 -106.5t-131 -36.5q-78 0 -125 35v98q56 -35 123 -35q25 0 44 14t19 37q0 29 -29.5 44.5t-66.5 14t-61 -15.5v68l57 70q-122 6 -240 50t-208 122v293q97 -97 236.5 -150t272.5 -53q38 0 72.5 7t66.5 23t51 46
t19 71q0 27 -14.5 48t-45.5 37.5t-62.5 28t-81.5 25.5q-23 7 -67 20t-72 21.5t-70.5 23.5t-71 28t-65 33.5t-60.5 42t-49.5 52t-40 64t-24 76.5t-9.5 92q0 78 29 144.5t78.5 113t115 78.5t137.5 47.5t148 15.5q124 0 246 -43.5t213 -126.5v-292q-92 95 -216.5 147.5
t-242.5 52.5q-42 0 -79.5 -7t-72.5 -23t-56 -47.5t-21 -75.5q0 -22 8.5 -41t28.5 -34t39 -26t54.5 -23t59.5 -19t68 -19q48 -13 74.5 -20t74 -22.5t75.5 -28t68.5 -33.5t65 -42t52.5 -51.5t43 -63.5t25.5 -76.5t10.5 -92.5q0 -93 -40 -167.5t-108.5 -121t-150.5 -73
t-174 -31.5z" />
    <glyph glyph-name="scedilla" unicode="&#x15f;" horiz-adv-x="1050" 
d="M578 -16l-43 -62q65 14 121.5 -23.5t56.5 -101.5q0 -70 -55.5 -106.5t-131.5 -36.5q-78 0 -125 35v98q56 -35 123 -35q25 0 44.5 14t19.5 37q0 29 -30.5 44.5t-67.5 14t-60 -15.5v68l57 70q-101 5 -197.5 35t-168.5 85v252q80 -68 191.5 -105.5t217.5 -37.5
q54 0 95.5 23.5t40.5 72.5q0 32 -36.5 51t-109.5 37q-147 38 -198 58q-168 69 -199 207q-8 35 -8 75q0 59 24.5 108.5t64.5 82t94 55.5t111 33t117 10q101 0 203 -31t182 -90v-252q-78 66 -184 104t-203 38q-59 0 -102 -21.5t-43 -68.5q0 -41 143 -84q17 -6 54 -17.5
t59.5 -18.5t59 -20t60 -24t55 -28t51.5 -33.5t42 -39t35 -46.5t21 -54t8 -64q0 -72 -34.5 -128t-92.5 -89.5t-123.5 -51.5t-138.5 -23z" />
    <glyph glyph-name="Scaron" unicode="&#x160;" horiz-adv-x="1245" 
d="M666 1573l84 149h180l-185 -266h-163l-185 266h181zM150 156v293q97 -97 236.5 -150t272.5 -53q38 0 72.5 7t66.5 23t51 46t19 71q0 27 -14.5 48t-45.5 37.5t-62.5 28t-81.5 25.5q-23 7 -67.5 20t-72 21t-70.5 23.5t-71 28.5t-65 34t-60.5 42t-49 51.5t-40 64t-24 76.5
t-9.5 92q0 78 29 144.5t78.5 113t115 78.5t137.5 47.5t148 15.5q123 0 244.5 -43.5t214.5 -126.5v-292q-92 95 -216.5 147.5t-242.5 52.5q-42 0 -79.5 -7t-72.5 -23t-56 -47.5t-21 -75.5q0 -22 8.5 -41t28.5 -34t39 -26t54.5 -23t59.5 -19t68 -19q48 -13 74.5 -20t74 -22.5
t75.5 -28t68.5 -33.5t65 -42t52.5 -51.5t43 -63.5t25.5 -76.5t10.5 -92.5q0 -79 -30 -145.5t-80.5 -112t-118 -77t-140.5 -46t-149 -14.5q-132 0 -263.5 44.5t-229.5 129.5z" />
    <glyph glyph-name="scaron" unicode="&#x161;" horiz-adv-x="1050" 
d="M514 1214l86 150h180l-184 -266h-164l-184 266h180zM121 104v252q80 -68 191.5 -105.5t217.5 -37.5q54 0 95.5 23.5t40.5 72.5q0 32 -36.5 51t-109.5 37q-147 38 -198 58q-168 69 -199 207q-8 35 -8 75q0 59 24.5 108.5t64.5 82t94 55.5t111 33t117 10q101 0 203 -31
t182 -90v-252q-78 66 -184 104t-203 38q-59 0 -102 -21.5t-43 -68.5q0 -41 143 -84q17 -6 54 -17.5t59.5 -18.5t59 -20t60 -24t55 -28t51.5 -33.5t42 -39t35 -46.5t21 -54t8 -64q0 -78 -40.5 -137t-106.5 -92t-139.5 -49t-150.5 -16q-109 0 -218 31.5t-191 90.5z" />
    <glyph glyph-name="uni0162" unicode="&#x162;" horiz-adv-x="1181" 
d="M1100 1366v-264h-361v-1102h-297v1102h-358v264h1016zM520 -565l47 159q-51 7 -81.5 44t-30.5 90q0 60 38.5 98.5t98.5 38.5q59 0 97 -38.5t38 -98.5q0 -27 -26 -79.5t-123 -213.5h-58z" />
    <glyph glyph-name="uni0163" unicode="&#x163;" horiz-adv-x="718" 
d="M180 1008v354h283v-354h192v-203h-192v-500q0 -121 78 -121q32 0 96 11v-203q-67 -6 -129 -6q-328 0 -328 319v500h-117v203h117zM303 -565l47 159q-49 7 -79.5 44t-30.5 90q0 60 38 98.5t97 38.5t97 -38.5t38 -98.5q0 -27 -26 -79t-124 -214h-57z" />
    <glyph glyph-name="Tcaron" unicode="&#x164;" horiz-adv-x="1181" 
d="M592 1573l84 149h180l-184 -266h-164l-184 266h180zM1100 1366v-264h-361v-1102h-297v1102h-358v264h1016z" />
    <glyph glyph-name="tcaron" unicode="&#x165;" horiz-adv-x="1177" 
d="M840 936l49 160q-51 8 -82 44.5t-31 90.5q0 59 38.5 97t98.5 38q59 0 97.5 -38.5t38.5 -96.5q0 -28 -26 -80.5t-124 -214.5h-59zM180 1008v354h283v-354h192v-203h-192v-500q0 -121 78 -121q32 0 96 11v-203q-67 -6 -129 -6q-328 0 -328 319v500h-117v203h117z" />
    <glyph glyph-name="Tbar" unicode="&#x166;" horiz-adv-x="1181" 
d="M442 930v172h-358v264h1016v-264h-361v-172h308v-187h-308v-743h-297v743h-278v187h278z" />
    <glyph glyph-name="tbar" unicode="&#x167;" horiz-adv-x="722" 
d="M180 1008v354h283v-354h192v-203h-192v-109h196v-188h-196v-203q0 -121 78 -121q32 0 96 11v-203q-67 -6 -129 -6q-328 0 -328 319v203h-106v188h106v109h-117v203h117z" />
    <glyph glyph-name="Utilde" unicode="&#x168;" horiz-adv-x="1378" 
d="M932 1677v-164q-40 -39 -90.5 -42t-99.5 15.5t-98.5 36.5t-103 14t-96.5 -44v156q48 37 107 41t111.5 -12t103 -31.5t94.5 -11t72 41.5zM1243 1366v-852q0 -122 -45.5 -223.5t-122 -168t-176 -103.5t-209.5 -37t-210 37t-177 103.5t-122.5 168t-45.5 223.5v852h297v-852
q0 -120 74.5 -187t183.5 -67q111 0 184.5 66.5t73.5 187.5v852h295z" />
    <glyph glyph-name="utilde" unicode="&#x169;" horiz-adv-x="1267" 
d="M895 1309v-166q-40 -39 -91 -42t-100 15.5t-99 37t-103 14t-96 -45.5v158q48 37 107 41t112 -11.5t103 -31t94.5 -11t72.5 41.5zM862 0v88q-51 -50 -114.5 -78t-124.5 -28q-152 0 -266.5 65.5t-173 175t-58.5 246.5v539h281v-539q0 -116 57 -193t160 -77q69 0 131 36
t108 105v668h281v-1008h-281z" />
    <glyph glyph-name="Umacron" unicode="&#x16a;" horiz-adv-x="1378" 
d="M975 1630v-153h-572v153h572zM1243 1366v-852q0 -122 -45.5 -223.5t-122 -168t-176 -103.5t-209.5 -37t-210 37t-177 103.5t-122.5 168t-45.5 223.5v852h297v-852q0 -120 74.5 -187t183.5 -67q111 0 184.5 66.5t73.5 187.5v852h295z" />
    <glyph glyph-name="umacron" unicode="&#x16b;" horiz-adv-x="1267" 
d="M934 1296v-153h-569v153h569zM862 0v88q-51 -50 -114.5 -78t-124.5 -28q-152 0 -266.5 65.5t-173 175t-58.5 246.5v539h281v-539q0 -116 57 -193t160 -77q69 0 131 36t108 105v668h281v-1008h-281z" />
    <glyph glyph-name="Ubreve" unicode="&#x16c;" horiz-adv-x="1378" 
d="M799 1659h139q0 -78 -76.5 -136.5t-177.5 -58.5q-106 0 -180 58.5t-74 136.5h137q0 -38 33 -64t84 -26q52 0 83.5 25.5t31.5 64.5zM1243 1366v-852q0 -122 -45.5 -223.5t-122 -168t-176 -103.5t-209.5 -37t-210 37t-177 103.5t-122.5 168t-45.5 223.5v852h297v-852
q0 -120 74.5 -187t183.5 -67q111 0 184.5 66.5t73.5 187.5v852h295z" />
    <glyph glyph-name="ubreve" unicode="&#x16d;" horiz-adv-x="1267" 
d="M748 1315h139q0 -78 -76.5 -136.5t-177.5 -58.5q-107 0 -180.5 58.5t-73.5 136.5h137q0 -38 33 -64t84 -26t83 25.5t32 64.5zM862 0v88q-51 -50 -114.5 -78t-124.5 -28q-152 0 -266.5 65.5t-173 175t-58.5 246.5v539h281v-539q0 -116 57 -193t160 -77q69 0 131 36
t108 105v668h281v-1008h-281z" />
    <glyph glyph-name="Uring" unicode="&#x16e;" horiz-adv-x="1378" 
d="M692 1851q89 0 148 -60.5t59 -145.5t-59 -145t-148 -60q-88 0 -145.5 60t-57.5 145t58.5 145.5t144.5 60.5zM694 1733q-39 0 -63.5 -25.5t-24.5 -62.5q0 -36 26 -61t64 -25q34 0 59 25.5t25 60.5q0 34 -24.5 61t-61.5 27zM1243 1366v-852q0 -122 -45.5 -223.5t-122 -168
t-176 -103.5t-209.5 -37t-210 37t-177 103.5t-122.5 168t-45.5 223.5v852h297v-852q0 -120 74.5 -187t183.5 -67q111 0 184.5 66.5t73.5 187.5v852h295z" />
    <glyph glyph-name="uring" unicode="&#x16f;" horiz-adv-x="1267" 
d="M627 1524q89 0 148 -61t59 -146q0 -84 -59 -144.5t-148 -60.5q-87 0 -145 60.5t-58 144.5q0 85 58.5 146t144.5 61zM629 1405q-39 0 -63.5 -25.5t-24.5 -62.5q0 -34 26 -60t64 -26q34 0 59 26t25 60t-24.5 61t-61.5 27zM862 0v88q-51 -50 -114.5 -78t-124.5 -28
q-152 0 -266.5 65.5t-173 175t-58.5 246.5v539h281v-539q0 -116 57 -193t160 -77q69 0 131 36t108 105v668h281v-1008h-281z" />
    <glyph glyph-name="Uhungarumlaut" unicode="&#x170;" horiz-adv-x="1378" 
d="M512 1724h219l-129 -266h-153zM791 1724h219l-129 -266h-154zM948 1366v-852q0 -121 -73.5 -187.5t-184.5 -66.5q-109 0 -183.5 67t-74.5 187v852h-297v-852q0 -122 45.5 -223.5t122.5 -168t177 -103.5t210 -37t209.5 37t176 103.5t122 168t45.5 223.5v852h-295z" />
    <glyph glyph-name="uhungarumlaut" unicode="&#x171;" horiz-adv-x="1267" 
d="M465 1366h219l-129 -266h-154zM743 1366h220l-129 -266h-154zM1143 0v1008h-281v-668q-46 -69 -108 -105t-131 -36q-103 0 -160 77t-57 193v539h-281v-539q0 -137 58.5 -246.5t173 -175t266.5 -65.5q61 0 124.5 28t114.5 78v-88h281z" />
    <glyph glyph-name="Uogonek" unicode="&#x172;" horiz-adv-x="1378" 
d="M856 -219v-100q-45 -27 -98 -27q-89 0 -146 46t-57 126q0 81 88 158q-103 8 -194.5 47.5t-161.5 106t-111 164t-41 212.5v852h297v-852q0 -120 74.5 -187t183.5 -67q111 0 184.5 66.5t73.5 187.5v852h295v-852q0 -153 -71.5 -272.5t-187 -184t-255.5 -73.5
q-72 -76 -72 -148q0 -37 31.5 -60.5t69.5 -23.5q54 0 98 29z" />
    <glyph glyph-name="uogonek" unicode="&#x173;" horiz-adv-x="1280" 
d="M1157 -223v-101q-33 -26 -96 -26q-90 0 -146.5 45t-56.5 125q0 87 113 180h-109v88q-51 -50 -114.5 -78t-124.5 -28q-152 0 -266.5 65.5t-173 175t-58.5 246.5v539h281v-465q0 -73 9 -129.5t31.5 -107.5t67 -79t109.5 -28q69 0 131 36t108 105v668h281v-1008
q-70 -5 -127.5 -55.5t-57.5 -114.5q0 -37 32 -59.5t71 -22.5q59 0 96 29z" />
    <glyph glyph-name="Wcircumflex" unicode="&#x174;" horiz-adv-x="1945" 
d="M891 1731h164l184 -267h-180l-86 150l-86 -150h-180zM868 1366l-282 -825l-217 825h-336l401 -1366h242q29 80 138.5 376t164.5 453l321 -829h246l367 1366h-334q-26 -119 -57.5 -257.5t-70 -306.5t-58.5 -259l-314 823h-211z" />
    <glyph glyph-name="wcircumflex" unicode="&#x175;" horiz-adv-x="1622" 
d="M729 1364h164l184 -266h-180l-84 149l-88 -149h-180zM1589 1008h-289l-188 -596l-209 596h-186l-205 -598l-195 598h-284l321 -1008h248l209 545l209 -545h250z" />
    <glyph glyph-name="Ycircumflex" unicode="&#x176;" horiz-adv-x="1284" 
d="M559 1731h164l184 -267h-180l-84 150l-88 -150h-180zM776 0v397l475 969h-319q-48 -109 -149.5 -332.5t-149.5 -333.5l-281 666h-319l442 -969v-397h301z" />
    <glyph glyph-name="ycircumflex" unicode="&#x177;" horiz-adv-x="1148" 
d="M496 1364h163l185 -266h-180l-86 149l-86 -149h-181zM33 1008l403 -973q-11 -74 -68 -130.5t-132 -56.5q-36 0 -89 9v-248q49 -8 95 -8q82 -2 155.5 27t126 74t97.5 106.5t72.5 117t47.5 113.5l25 74l352 895h-305l-240 -621l-237 621h-303z" />
    <glyph glyph-name="Ydieresis" unicode="&#x178;" horiz-adv-x="1284" 
d="M375 1583q0 47 33 80t79 33t78.5 -33t32.5 -80t-32.5 -78.5t-78.5 -31.5t-79 31.5t-33 78.5zM672 1583q0 47 32.5 80t79.5 33q46 0 78.5 -33t32.5 -80t-32.5 -78.5t-78.5 -31.5q-47 0 -79.5 31.5t-32.5 78.5zM776 0v397l475 969h-319q-48 -109 -149.5 -332.5
t-149.5 -333.5l-281 666h-319l442 -969v-397h301z" />
    <glyph glyph-name="Zacute" unicode="&#x179;" horiz-adv-x="1318" 
d="M532 1464l64 267h219l-129 -267h-154zM115 1366v-264h731l-731 -846v-256h1089v264h-717l717 846v256h-1089z" />
    <glyph glyph-name="zacute" unicode="&#x17a;" horiz-adv-x="1128" 
d="M442 1100l62 266h221l-129 -266h-154zM117 760h518l-518 -514q0 -41 -1 -123t-1 -123h901v250h-520l520 514v244h-899v-248z" />
    <glyph glyph-name="Zdotaccent" unicode="&#x17b;" horiz-adv-x="1318" 
d="M512 1612q0 59 38.5 97t98.5 38q59 0 97 -38.5t38 -96.5q0 -60 -38 -98.5t-97 -38.5q-60 0 -98.5 38.5t-38.5 98.5zM115 1366v-264h731l-731 -846v-256h1089v264h-717l717 846v256h-1089z" />
    <glyph glyph-name="zdotaccent" unicode="&#x17c;" horiz-adv-x="1128" 
d="M418 1257q0 59 38.5 97.5t98.5 38.5q58 0 96.5 -38.5t38.5 -97.5t-38 -97t-97 -38q-60 0 -98.5 38t-38.5 97zM117 760h518l-518 -514q0 -41 -1 -123t-1 -123h901v250h-520l520 514v244h-899v-248z" />
    <glyph glyph-name="Zcaron" unicode="&#x17d;" horiz-adv-x="1318" 
d="M676 1573l84 149h180l-184 -266h-164l-184 266h180zM487 264h717v-264h-1089v256l731 846h-731v264h1089v-256z" />
    <glyph glyph-name="zcaron" unicode="&#x17e;" horiz-adv-x="1128" 
d="M575 1214l87 150h180l-185 -266h-163l-185 266h180zM1016 764l-520 -514h520v-250h-901q0 41 1 123t1 123l518 514h-518v248h899v-244z" />
    <glyph glyph-name="longs" unicode="&#x17f;" horiz-adv-x="638" 
d="M150 1008v67q0 303 360 303q44 0 96 -8v-201q-12 1 -33 4t-36.5 5t-26.5 2q-78 0 -78 -119v-1061h-282v805h-117v203h117z" />
    <glyph glyph-name="florin" unicode="&#x192;" horiz-adv-x="712" 
d="M205 1008v67q0 303 360 303q44 0 99 -8v-201q-96 11 -99 11q-76 0 -76 -119v-53h193v-203h-193v-889q0 -303 -360 -303q-44 0 -96 8v201q83 -10 96 -10q76 0 76 120v873h-117v203h117z" />
    <glyph glyph-name="uni0218" unicode="&#x218;" horiz-adv-x="1245" 
d="M150 156v293q97 -97 236.5 -150t272.5 -53q38 0 72.5 7t66.5 23t51 46t19 71q0 27 -14.5 48t-45.5 37.5t-62.5 28t-81.5 25.5q-23 7 -67.5 20t-72 21t-70.5 23.5t-71 28.5t-65 34t-60.5 42t-49 51.5t-40 64t-24 76.5t-9.5 92q0 78 29 144.5t78.5 113t115 78.5t137.5 47.5
t148 15.5q123 0 244.5 -43.5t214.5 -126.5v-292q-92 95 -216.5 147.5t-242.5 52.5q-42 0 -79.5 -7t-72.5 -23t-56 -47.5t-21 -75.5q0 -22 8.5 -41t28.5 -34t39 -26t54.5 -23t59.5 -19t68 -19q48 -13 74.5 -20t74 -22.5t75.5 -28t68.5 -33.5t65 -42t52.5 -51.5t43 -63.5
t25.5 -76.5t10.5 -92.5q0 -79 -30 -145.5t-80.5 -112t-118 -77t-140.5 -46t-149 -14.5q-132 0 -263.5 44.5t-229.5 129.5zM569 -565l47 159q-49 7 -79.5 44t-30.5 90q0 60 38 98.5t97 38.5q60 0 98.5 -38.5t38.5 -98.5q0 -26 -25.5 -78t-123.5 -215h-60z" />
    <glyph glyph-name="uni0219" unicode="&#x219;" horiz-adv-x="1050" 
d="M121 104v252q80 -68 191.5 -105.5t217.5 -37.5q54 0 95.5 23.5t40.5 72.5q0 32 -36.5 51t-109.5 37q-147 38 -198 58q-168 69 -199 207q-8 35 -8 75q0 59 24.5 108.5t64.5 82t94 55.5t111 33t117 10q101 0 203 -31t182 -90v-252q-78 66 -184 104t-203 38
q-59 0 -102 -21.5t-43 -68.5q0 -41 143 -84q17 -6 54 -17.5t59.5 -18.5t59 -20t60 -24t55 -28t51.5 -33.5t42 -39t35 -46.5t21 -54t8 -64q0 -78 -40.5 -137t-106.5 -92t-139.5 -49t-150.5 -16q-109 0 -218 31.5t-191 90.5zM459 -565l47 159q-50 8 -80.5 45t-30.5 89
q0 60 38 98.5t97 38.5t97.5 -38.5t38.5 -98.5q0 -27 -26 -79t-124 -214h-57z" />
    <glyph glyph-name="dotlessj" unicode="&#x237;" horiz-adv-x="616" 
d="M451 1008v-1104q0 -303 -361 -303q-46 0 -96 6v203q74 -9 96 -9q78 0 78 119v1088h283z" />
    <glyph glyph-name="circumflex" unicode="&#x2c6;" horiz-adv-x="729" 
d="M283 1364h163l185 -266h-180l-84 149l-88 -149h-181z" />
    <glyph glyph-name="caron" unicode="&#x2c7;" horiz-adv-x="729" 
d="M367 1214l84 150h180l-185 -266h-163l-185 266h181z" />
    <glyph glyph-name="uni02C9" unicode="&#x2c9;" horiz-adv-x="768" 
d="M670 1249v-153h-572v153h572z" />
    <glyph glyph-name="breve" unicode="&#x2d8;" horiz-adv-x="704" 
d="M467 1315h139q0 -78 -76.5 -136.5t-177.5 -58.5q-107 0 -180.5 58.5t-73.5 136.5h138q0 -39 32.5 -64.5t83.5 -25.5t83 25.5t32 64.5z" />
    <glyph glyph-name="dotaccent" unicode="&#x2d9;" horiz-adv-x="428" 
d="M78 1257q0 59 38.5 97.5t96.5 38.5q60 0 98.5 -38.5t38.5 -97.5t-38.5 -97t-98.5 -38q-59 0 -97 38t-38 97z" />
    <glyph glyph-name="ring" unicode="&#x2da;" horiz-adv-x="606" 
d="M301 1524q89 0 148 -61t59 -146q0 -84 -58.5 -144.5t-148.5 -60.5q-86 0 -144.5 61t-58.5 144q0 85 58.5 146t144.5 61zM303 1405q-38 0 -62 -25.5t-24 -62.5q0 -35 25.5 -60.5t62.5 -25.5q34 0 60 26t26 60q-2 35 -26 61.5t-62 26.5z" />
    <glyph glyph-name="ogonek" unicode="&#x2db;" horiz-adv-x="495" 
d="M397 -219v-100q-45 -27 -96 -27q-90 0 -146.5 46t-56.5 126q0 54 42 107t102 94h84q-28 -20 -52.5 -43t-49.5 -65t-25 -83q0 -37 32 -60.5t70 -23.5q57 0 96 29z" />
    <glyph glyph-name="tilde" unicode="&#x2dc;" horiz-adv-x="684" 
d="M586 1309v-166q-40 -39 -90.5 -42t-99.5 15.5t-98.5 37t-103 14t-96.5 -45.5v158q48 37 107 41t111.5 -11.5t103 -31t94.5 -11t72 41.5z" />
    <glyph glyph-name="hungarumlaut" unicode="&#x2dd;" horiz-adv-x="757" 
d="M162 1366h219l-129 -266h-154zM440 1366h219l-129 -266h-153z" />
    <glyph glyph-name="Wgrave" unicode="&#x1e80;" horiz-adv-x="1945" 
d="M977 1731l63 -267h-153l-129 267h219zM1079 1366l314 -823q20 91 58.5 259t70 306.5t57.5 257.5h334l-367 -1366h-243l-324 829q-55 -157 -164.5 -453t-138.5 -376h-240l-403 1366h336l217 -825l284 825h209z" />
    <glyph glyph-name="wgrave" unicode="&#x1e81;" horiz-adv-x="1622" 
d="M819 1366l62 -266h-154l-129 266h221zM811 545l-209 -545h-248l-321 1008h284l195 -598l205 598h186l209 -596l188 596h289l-319 -1008h-250z" />
    <glyph glyph-name="Wacute" unicode="&#x1e82;" horiz-adv-x="1945" 
d="M897 1464l64 267h219l-129 -267h-154zM868 1366l-282 -825l-217 825h-336l401 -1366h242q29 80 138.5 376t164.5 453l321 -829h246l367 1366h-334q-26 -119 -57.5 -257.5t-70 -306.5t-58.5 -259l-314 823h-211z" />
    <glyph glyph-name="wacute" unicode="&#x1e83;" horiz-adv-x="1622" 
d="M731 1100l62 266h221l-129 -266h-154zM1589 1008h-289l-188 -596l-209 596h-186l-205 -598l-195 598h-284l321 -1008h248l209 545l209 -545h250z" />
    <glyph glyph-name="Wdieresis" unicode="&#x1e84;" horiz-adv-x="1945" 
d="M725 1583q0 47 32.5 80t78.5 33q47 0 78.5 -32.5t31.5 -80.5q0 -47 -31.5 -78.5t-78.5 -31.5q-46 0 -78.5 31.5t-32.5 78.5zM1022 1583q0 47 32.5 80t78.5 33t79 -33t33 -80t-33 -78.5t-79 -31.5t-78.5 31.5t-32.5 78.5zM868 1366l-282 -825l-217 825h-336l401 -1366h242
q29 80 138.5 376t164.5 453l321 -829h246l367 1366h-334q-26 -119 -57.5 -257.5t-70 -306.5t-58.5 -259l-314 823h-211z" />
    <glyph glyph-name="wdieresis" unicode="&#x1e85;" horiz-adv-x="1622" 
d="M555 1214q0 47 33.5 80t79.5 33t78 -33t32 -80t-32 -78.5t-78 -31.5t-79.5 31.5t-33.5 78.5zM852 1214q0 47 33 80t80 33q46 0 78 -33t32 -80t-32 -78.5t-78 -31.5q-48 0 -80.5 31.5t-32.5 78.5zM1589 1008h-289l-188 -596l-209 596h-186l-205 -598l-195 598h-284
l321 -1008h248l209 545l209 -545h250z" />
    <glyph glyph-name="endash" unicode="&#x2013;" horiz-adv-x="1044" 
d="M909 631v-238h-774v238h774z" />
    <glyph glyph-name="emdash" unicode="&#x2014;" horiz-adv-x="1310" 
d="M1176 631v-238h-1041v238h1041z" />
    <glyph glyph-name="quoteleft" unicode="&#x2018;" horiz-adv-x="561" 
d="M338 936h-59q-98 162 -124 214.5t-26 80.5q0 59 38.5 97t98.5 38q58 0 96.5 -38t38.5 -97q0 -54 -30.5 -90.5t-81.5 -44.5z" />
    <glyph glyph-name="quoteright" unicode="&#x2019;" horiz-adv-x="561" 
d="M223 936l49 160q-51 7 -81.5 43.5t-30.5 89.5q0 60 38 98.5t97 38.5q60 0 98.5 -38.5t38.5 -98.5q0 -26 -25.5 -78t-123.5 -215h-60z" />
    <glyph glyph-name="quotesinglbase" unicode="&#x201a;" horiz-adv-x="561" 
d="M223 -162l49 158q-51 8 -81.5 44.5t-30.5 90.5q0 59 38 97t97 38q60 0 98.5 -38t38.5 -97q0 -28 -25.5 -79.5t-123.5 -213.5h-60z" />
    <glyph glyph-name="quotedblleft" unicode="&#x201c;" horiz-adv-x="856" 
d="M313 1366l-49 -160q51 -7 82 -43.5t31 -89.5q0 -60 -38.5 -98.5t-98.5 -38.5q-59 0 -97.5 38.5t-38.5 98.5q0 28 25.5 78.5t124.5 214.5h59zM657 1366l-49 -160q51 -7 82 -43.5t31 -89.5q0 -60 -38.5 -98.5t-98.5 -38.5q-59 0 -97 38.5t-38 98.5q0 28 25.5 79.5
t123.5 213.5h59z" />
    <glyph glyph-name="quotedblright" unicode="&#x201d;" horiz-adv-x="856" 
d="M199 936l49 160q-51 7 -82 43.5t-31 89.5q0 60 38 98.5t97 38.5q60 0 99 -38.5t39 -98.5q0 -26 -25.5 -77t-124.5 -216h-59zM543 936l49 160q-51 7 -82 43.5t-31 89.5q0 60 38 98.5t97 38.5q60 0 99 -38.5t39 -98.5q0 -26 -25.5 -77t-124.5 -216h-59z" />
    <glyph glyph-name="quotedblbase" unicode="&#x201e;" horiz-adv-x="856" 
d="M199 -160l49 160q-51 7 -82 43.5t-31 89.5q0 60 38 98.5t97 38.5q60 0 99 -38.5t39 -98.5q0 -27 -25 -76.5t-125 -216.5h-59zM543 -160l49 160q-51 7 -82 43.5t-31 89.5q0 60 38 98.5t97 38.5q60 0 99 -38.5t39 -98.5q0 -27 -25 -76.5t-125 -216.5h-59z" />
    <glyph glyph-name="dagger" unicode="&#x2020;" horiz-adv-x="614" 
d="M197 -152v1065h-209v187h209v373h221v-373h209v-187h-209v-1065h-221z" />
    <glyph glyph-name="daggerdbl" unicode="&#x2021;" horiz-adv-x="614" 
d="M197 -152v365h-209v186h209v514h-209v187h209v373h221v-373h209v-187h-209v-514h209v-186h-209v-365h-221z" />
    <glyph glyph-name="bullet" unicode="&#x2022;" horiz-adv-x="854" 
d="M135 545q0 120 85 205.5t206 85.5t207 -85.5t86 -205.5q0 -121 -85.5 -207t-207.5 -86q-121 0 -206 85.5t-85 207.5z" />
    <glyph glyph-name="ellipsis" unicode="&#x2026;" horiz-adv-x="1259" 
d="M78 135q0 60 38 98.5t97 38.5q60 0 98.5 -38.5t38.5 -98.5q0 -59 -38.5 -97t-98.5 -38q-59 0 -97 38t-38 97zM494 135q0 60 38 98.5t97 38.5q60 0 98.5 -38.5t38.5 -98.5q0 -59 -38.5 -97t-98.5 -38q-59 0 -97 38t-38 97zM909 135q0 60 38 98.5t97 38.5q60 0 99 -38.5
t39 -98.5q0 -59 -39 -97t-99 -38q-58 0 -96.5 38t-38.5 97z" />
    <glyph glyph-name="perthousand" unicode="&#x2030;" horiz-adv-x="2813" 
d="M625 0h-191l946 1366h191zM489 1364q153 0 254 -96.5t101 -263.5t-100.5 -263t-254.5 -96q-153 0 -253.5 97t-100.5 262q0 166 100 263t254 97zM489 1204q-78 0 -130 -50.5t-52 -149.5q0 -100 52 -149.5t130 -49.5q79 0 130 49.5t51 149.5q0 85 -46 142.5t-135 57.5z
M1485 719q154 0 254 -97t100 -264t-99.5 -262.5t-254.5 -95.5q-152 0 -252 97t-100 261q0 166 100 263.5t252 97.5zM2324 719q153 0 254 -97t101 -264t-100.5 -262.5t-254.5 -95.5t-254 96.5t-100 261.5q0 166 100 263.5t254 97.5zM1485 559q-76 0 -128 -51.5t-52 -149.5
q0 -99 51.5 -148.5t128.5 -49.5q81 0 131.5 49t50.5 149q0 85 -46 143t-136 58zM2324 559q-78 0 -130 -51t-52 -150q0 -100 51.5 -149t130.5 -49t130 49t51 149q0 85 -46.5 143t-134.5 58z" />
    <glyph glyph-name="guilsinglleft" unicode="&#x2039;" horiz-adv-x="784" 
d="M588 1034v-258l-271 -262l271 -262v-256l-443 405v226z" />
    <glyph glyph-name="guilsinglright" unicode="&#x203a;" horiz-adv-x="784" 
d="M197 -4v256l270 262l-270 262v258l442 -407v-226z" />
    <glyph glyph-name="fraction" unicode="&#x2044;" horiz-adv-x="495" 
d="M-131 0h-191l947 1366h192z" />
    <glyph glyph-name="zerosuperior" unicode="&#x2070;" horiz-adv-x="950" 
d="M475 1468q156 0 258.5 -113.5t102.5 -310.5t-102 -309t-259 -112t-258.5 113t-101.5 308q0 196 101.5 310t258.5 114zM475 1300q-76 0 -129 -68.5t-53 -187.5t53 -187.5t129 -68.5q78 0 130 68t52 188q0 104 -46.5 180t-135.5 76z" />
    <glyph glyph-name="foursuperior" unicode="&#x2074;" horiz-adv-x="849" 
d="M516 1468h168v-514h74v-141h-74v-168h-180v168h-441v137zM266 954h238v273z" />
    <glyph glyph-name="fivesuperior" unicode="&#x2075;" horiz-adv-x="794" 
d="M84 1468h549v-147h-412v-172q79 27 154 27q60 0 113 -15t97 -46t69.5 -84.5t25.5 -123.5q0 -63 -30.5 -115.5t-80.5 -86t-111 -52t-124 -18.5q-132 0 -244 59v166q113 -69 244 -69q67 0 121.5 31.5t54.5 84.5q0 62 -52 98.5t-114 36.5q-95 0 -197 -36h-63v462z" />
    <glyph glyph-name="sixsuperior" unicode="&#x2076;" horiz-adv-x="849" 
d="M700 1389v-164q-109 92 -254 92q-72 0 -132 -61t-60 -138q79 60 186 60q127 0 221.5 -73.5t94.5 -189.5q0 -132 -98 -212t-234 -80q-87 0 -152.5 34.5t-103 94.5t-56 131.5t-18.5 154.5q0 58 12.5 117t40 115.5t67.5 100t100 70.5t132 27q67 0 135.5 -21.5t118.5 -57.5z
M424 782q68 0 115 35.5t47 97.5q0 57 -49 95.5t-111 38.5q-40 0 -89.5 -14.5t-80.5 -45.5q6 -92 49.5 -149.5t118.5 -57.5z" />
    <glyph glyph-name="sevensuperior" unicode="&#x2077;" horiz-adv-x="710" 
d="M442 1321h-389v147h565v-141l-301 -682h-174z" />
    <glyph glyph-name="eightsuperior" unicode="&#x2078;" horiz-adv-x="772" 
d="M63 899q0 72 37.5 124t98.5 75q-72 54 -72 153q0 96 76.5 156.5t181.5 60.5q101 0 180.5 -60.5t79.5 -160.5q0 -50 -25.5 -88.5t-66.5 -60.5q69 -23 112.5 -74.5t43.5 -124.5q-2 -68 -31 -122t-76.5 -87t-104 -50t-118.5 -17q-130 0 -223 76.5t-93 199.5zM381 1147
q42 0 73 23t31 63t-30 63t-70 23t-70 -23t-30 -63q0 -39 28.5 -62.5t67.5 -23.5zM379 782q64 0 112 33t48 94q0 57 -46.5 92t-107.5 35q-63 0 -108.5 -35.5t-45.5 -91.5q0 -57 43.5 -92t104.5 -35z" />
    <glyph glyph-name="ninesuperior" unicode="&#x2079;" horiz-adv-x="847" 
d="M145 702v164q51 -46 118.5 -70t135.5 -24q74 0 133.5 61.5t59.5 139.5q-71 -58 -184 -58q-127 0 -220.5 72.5t-93.5 188.5q0 132 97 212t233 80q70 0 127 -23t94 -62t62 -93t36 -113t11 -124q0 -58 -12.5 -117t-40.5 -115.5t-68.5 -100t-101 -70.5t-132.5 -27
q-153 0 -254 79zM424 1309q-68 0 -115 -35.5t-47 -97.5q0 -57 49 -95.5t111 -38.5q40 0 88.5 14t81.5 46q-5 91 -49 149t-119 58z" />
    <glyph glyph-name="zeroinferior" unicode="&#x2080;" horiz-adv-x="950" 
d="M475 733q156 0 258.5 -113.5t102.5 -310.5t-102 -309.5t-259 -112.5t-258.5 113.5t-101.5 308.5q0 196 101.5 310t258.5 114zM475 565q-76 0 -129 -69t-53 -187q0 -119 53 -187.5t129 -68.5q78 0 130 68t52 188q0 65 -18 121t-61 95.5t-103 39.5z" />
    <glyph glyph-name="oneinferior" unicode="&#x2081;" horiz-adv-x="546" 
d="M43 489v158l162 74h166v-823h-178v663z" />
    <glyph glyph-name="twoinferior" unicode="&#x2082;" horiz-adv-x="784" 
d="M119 451v178q52 49 122 75.5t142 28.5q85 1 158 -31.5t121.5 -103.5t48.5 -168q0 -43 -28.5 -91t-80.5 -97t-93.5 -82t-98.5 -74l-41 -31h346v-157h-621v153q4 3 92 66q12 9 69 48.5t96.5 69.5t88 70t75.5 75t28 60q0 64 -48 99.5t-110 35.5q-70 -2 -141 -34t-125 -90z
" />
    <glyph glyph-name="threeinferior" unicode="&#x2083;" horiz-adv-x="790" 
d="M406 573h-332v148h565v-125l-229 -197q41 0 71 -6q195 -27 195 -237q0 -65 -30.5 -117.5t-81 -85t-111 -49.5t-123.5 -17q-127 0 -244 60v166q118 -70 244 -70q69 0 123.5 31.5t54.5 83.5q0 131 -178 131q-61 0 -170 -25v98z" />
    <glyph glyph-name="fourinferior" unicode="&#x2084;" horiz-adv-x="849" 
d="M516 721h168v-514h74v-144h-74v-165h-180v165h-441v140zM266 205h238v274z" />
    <glyph glyph-name="fiveinferior" unicode="&#x2085;" horiz-adv-x="794" 
d="M84 721h549v-148h-412v-172q79 27 154 27q60 0 113 -15t97 -45.5t69.5 -84t25.5 -123.5q0 -83 -52.5 -147t-130 -95t-163.5 -31q-130 0 -244 60v166q115 -70 244 -70q66 0 121 32t55 85q0 61 -52 97t-114 36q-98 0 -197 -35h-63v463z" />
    <glyph glyph-name="sixinferior" unicode="&#x2086;" horiz-adv-x="849" 
d="M700 653v-166q-109 95 -254 95q-72 0 -132 -61t-60 -138q75 57 186 57q127 0 221.5 -72t94.5 -188q0 -132 -98 -212.5t-234 -80.5q-87 0 -152.5 35t-103 94.5t-56 131.5t-18.5 155q0 58 12.5 117t40 115.5t67.5 100t100 70.5t132 27q66 0 135 -22t119 -58zM424 47
q68 0 115 35.5t47 97.5q0 57 -49 95t-111 38q-41 0 -90 -14t-80 -47q6 -91 49.5 -148t118.5 -57z" />
    <glyph glyph-name="seveninferior" unicode="&#x2087;" horiz-adv-x="710" 
d="M442 573h-389v148h565v-143l-301 -680h-174z" />
    <glyph glyph-name="eightinferior" unicode="&#x2088;" horiz-adv-x="772" 
d="M63 164q0 71 37.5 122.5t98.5 75.5q-72 54 -72 154q0 96 76.5 156.5t181.5 60.5q66 -2 124 -27t97 -76t39 -118q0 -50 -25.5 -89t-66.5 -61q70 -25 113 -75.5t43 -122.5q-3 -90 -53 -154.5t-122 -93.5t-155 -29q-130 0 -223 77t-93 200zM381 412q42 0 73 23t31 63t-30 63
t-70 23t-70 -23t-30 -63q0 -39 28.5 -62.5t67.5 -23.5zM379 47q64 0 112 33t48 94q0 57 -46.5 91t-107.5 36q-63 0 -108.5 -35.5t-45.5 -91.5q0 -58 43.5 -92.5t104.5 -34.5z" />
    <glyph glyph-name="nineinferior" unicode="&#x2089;" horiz-adv-x="847" 
d="M145 -35v166q51 -46 118.5 -70t135.5 -24q74 0 133.5 61.5t59.5 139.5q-73 -60 -184 -60q-127 0 -220.5 73t-93.5 189q0 132 97 212.5t233 80.5q70 0 127 -23t94 -62.5t62 -93.5t36 -113t11 -124q0 -58 -12.5 -117t-40.5 -115.5t-68.5 -100t-101 -70.5t-132.5 -27
q-150 0 -254 78zM424 573q-68 0 -115 -35.5t-47 -97.5q0 -57 49 -95t111 -38q40 0 88.5 14t81.5 46q-5 91 -49 148.5t-119 57.5z" />
    <glyph glyph-name="franc" unicode="&#x20a3;" horiz-adv-x="1316" 
d="M176 330v1036h998v-262h-703v-289h666v-278h-666v-207h231v-156h-231v-174h-295v174h-143v156h143z" />
    <glyph glyph-name="lira" unicode="&#x20a4;" horiz-adv-x="1329" 
d="M262 555v123h-127v156h127v100q0 95 44 178t115 138t161 86.5t182 31.5q193 0 354 -131v-236q-67 61 -157.5 95t-180.5 32q-61 0 -115.5 -20t-93.5 -65.5t-39 -108.5v-100h410v-156h-410v-123h410v-156h-410v-141q39 5 98.5 -9t115.5 -36t121.5 -39t120.5 -20.5t107.5 23
t88.5 87.5v-254q-59 -64 -131.5 -86t-145 -10t-149.5 37.5t-156 50t-153.5 35.5t-152.5 -13.5t-144 -91.5v252q57 47 110 60v155h-127v156h127z" />
    <glyph glyph-name="peseta" unicode="&#x20a7;" horiz-adv-x="2992" 
d="M135 1366h641q177 0 294.5 -122.5t117.5 -328.5q0 -194 -119.5 -315t-292.5 -121h-346v-479h-295v1366zM1427 1008v354h285v-354h191v-203h-191v-500q0 -121 76 -121q36 0 96 11v-203q-64 -6 -127 -6q-330 0 -330 319v500h-116v203h116zM430 729h264q86 0 141.5 45.5
t55.5 124.5q0 97 -54.5 150t-142.5 53h-264v-373zM2062 104v252q80 -68 192 -105.5t218 -37.5q54 0 96 23.5t41 72.5q0 32 -36.5 51t-108.5 37q-147 38 -198 58q-168 68 -201 205q-9 36 -9 77q0 59 24.5 108.5t65 82t94.5 55.5t111 33t117 10q102 0 205 -31.5t180 -89.5
v-252q-78 66 -183 104t-204 38q-58 0 -101 -21.5t-43 -68.5q0 -41 142 -84q17 -5 55 -17t59.5 -19t58.5 -20.5t60 -24t54.5 -27.5t51.5 -33t42 -39t34.5 -47t20.5 -54t8 -64q0 -78 -40 -137t-105.5 -92t-139 -49t-151.5 -16q-108 0 -218 31.5t-192 90.5z" />
    <glyph glyph-name="uni20A8" unicode="&#x20a8;" horiz-adv-x="2336" 
d="M197 1366h641q177 0 294 -127t117 -340q0 -142 -79 -243t-209 -144l323 -512h-334l-291 479h-167v-479h-295v1366zM492 729h264q86 0 141 45t55 125q0 97 -54 150t-142 53h-264v-373zM1378 104v252q81 -68 192 -105.5t218 -37.5q54 0 95 23.5t40 72.5q0 32 -36.5 51
t-108.5 37q-147 38 -198 58q-168 68 -200 206q-8 36 -8 76q0 59 24.5 108.5t65 82t94.5 55.5t111 33t117 10q101 0 203 -31t182 -90v-252q-78 66 -184 104t-203 38q-60 0 -103 -21.5t-43 -68.5q0 -41 142 -84q17 -5 55 -17t59.5 -19t58.5 -20.5t60.5 -24t55 -27.5t51.5 -33
t42.5 -39t34.5 -47t20.5 -54t8.5 -64q0 -63 -27 -114t-70.5 -83.5t-101.5 -55t-117 -32t-120 -9.5q-109 0 -219.5 31.5t-190.5 90.5z" />
    <glyph glyph-name="Euro" unicode="&#x20ac;" horiz-adv-x="1402" 
d="M94 616h107q-2 20 -2 66v57h-105v154h137q67 218 251 354.5t427 136.5q86 0 153 -21t152 -67v-262q-81 50 -149.5 73t-155.5 23q-128 0 -229.5 -64.5t-153.5 -172.5h375v-154h-428q-4 -40 -4 -57q0 -36 6 -66h426v-155h-369q54 -104 152.5 -164.5t224.5 -60.5
q87 0 155.5 23t149.5 73v-262q-85 -46 -152 -67t-153 -21q-241 0 -424 132.5t-252 346.5h-139v155z" />
    <glyph glyph-name="trademark" unicode="&#x2122;" horiz-adv-x="1699" 
d="M678 1407v-160h-217v-667h-180v667h-218v160h615zM1405 580v393l-178 -393h-117l-182 393v-393h-178v827h124l295 -582l291 582h125v-827h-180z" />
    <glyph glyph-name="uni2153" unicode="&#x2153;" horiz-adv-x="1759" 
d="M43 1135v157l162 74h166v-823h-178v663zM354 0h-190l946 1366h190zM1374 676h-332v147h566v-125l-230 -196q42 0 72 -6q195 -27 195 -238q0 -65 -31 -117.5t-81.5 -84.5t-111 -49t-123.5 -17q-128 0 -243 59v166q118 -70 243 -70q69 0 124 31.5t55 83.5q0 131 -179 131
q-65 0 -170 -24v98z" />
    <glyph glyph-name="uni2154" unicode="&#x2154;" horiz-adv-x="2107" 
d="M119 1085v177q52 49 122 75.5t142 28.5q85 1 158 -31.5t121.5 -103.5t48.5 -168q0 -43 -28.5 -91t-80.5 -97t-93.5 -82t-98.5 -74l-41 -31h346v-158h-621v154q4 3 92 66q12 9 69 48.5t96.5 69.5t88 70t75.5 75t28 60q0 64 -48 99.5t-110 35.5q-69 -2 -140.5 -34
t-125.5 -89zM705 0h-191l946 1366h191zM1722 676h-331v147h565v-125l-227 -196q37 0 71 -6q195 -27 195 -238q0 -65 -30.5 -117.5t-81 -84.5t-111 -49t-123.5 -17q-129 0 -244 59v166q118 -70 244 -70q67 0 122.5 31.5t55.5 83.5q0 131 -178 131q-64 0 -172 -24v98z" />
    <glyph glyph-name="oneeighth" unicode="&#x215b;" horiz-adv-x="1615" 
d="M43 1135v157l162 74h166v-823h-178v663zM344 0h-190l946 1366h190zM907 266q0 71 37 123t98 76q-71 54 -71 153q0 97 76.5 157.5t181.5 60.5q66 -2 124 -27t97 -76.5t39 -118.5q0 -50 -25 -88.5t-65 -60.5q68 -25 110.5 -76t42.5 -123q-3 -90 -52.5 -154t-121.5 -93
t-155 -29q-130 0 -223 76.5t-93 199.5zM1225 514q41 0 72.5 22.5t31.5 61.5q0 42 -30 65t-70 23t-70.5 -23t-30.5 -65q0 -38 29 -61t68 -23zM1223 150q64 0 111.5 32.5t47.5 93.5q0 57 -46 91t-107 36q-63 0 -108.5 -35.5t-45.5 -91.5q0 -58 43.5 -92t104.5 -34z" />
    <glyph glyph-name="threeeighths" unicode="&#x215c;" horiz-adv-x="1832" 
d="M426 1219h-332v147h565v-123l-229 -199q32 0 72 -4q194 -30 194 -239q0 -65 -30.5 -117.5t-81 -85t-111 -49.5t-123.5 -17q-127 0 -244 60v166q118 -70 244 -70q69 0 123.5 31.5t54.5 83.5q0 131 -176 131q-77 0 -172 -25v99zM561 0h-190l946 1366h190zM1124 266
q0 71 37.5 123t98.5 76q-72 54 -72 153q0 97 76.5 157.5t181.5 60.5q105 -3 182.5 -62.5t77.5 -159.5q0 -50 -25 -88.5t-65 -60.5q69 -25 111 -75.5t42 -123.5q-3 -90 -52 -154t-121 -93t-156 -29q-130 0 -223 76.5t-93 199.5zM1442 514q41 0 72.5 22.5t31.5 61.5
q0 42 -30 65t-70 23t-70 -23t-30 -65q0 -38 28.5 -61t67.5 -23zM1440 150q64 0 111.5 32.5t47.5 93.5q0 57 -46 91t-107 36q-63 0 -108.5 -35.5t-45.5 -91.5q0 -58 43.5 -92t104.5 -34z" />
    <glyph glyph-name="fiveeighths" unicode="&#x215d;" horiz-adv-x="1832" 
d="M86 1366h549v-147h-412v-172q76 26 154 26q60 0 113 -15t97 -45.5t69.5 -84t25.5 -123.5q0 -83 -52.5 -147t-130 -95t-163.5 -31q-130 0 -244 60v166q118 -70 244 -70q66 0 121 32t55 85q0 62 -52 98.5t-114 36.5q-89 0 -196 -37h-64v463zM561 0h-190l946 1366h190z
M1124 266q0 71 37.5 123t98.5 76q-72 54 -72 153q0 97 76.5 157.5t181.5 60.5q105 -3 182.5 -62.5t77.5 -159.5q0 -50 -25 -88.5t-65 -60.5q69 -25 111 -75.5t42 -123.5q-3 -90 -52 -154t-121 -93t-156 -29q-130 0 -223 76.5t-93 199.5zM1442 514q41 0 72.5 22.5t31.5 61.5
q0 42 -30 65t-70 23t-70 -23t-30 -65q0 -38 28.5 -61t67.5 -23zM1440 150q64 0 111.5 32.5t47.5 93.5q0 57 -46 91t-107 36q-63 0 -108.5 -35.5t-45.5 -91.5q0 -58 43.5 -92t104.5 -34z" />
    <glyph glyph-name="seveneighths" unicode="&#x215e;" horiz-adv-x="1703" 
d="M453 1219h-390v147h566v-141l-301 -682h-174zM432 0h-190l946 1366h190zM995 266q0 71 37 123t98 76q-71 54 -71 153q0 97 76.5 157.5t181.5 60.5q66 -2 124 -27t97 -76.5t39 -118.5q0 -50 -25 -88.5t-65 -60.5q68 -25 110.5 -76t42.5 -123q-3 -90 -52 -154t-121 -93
t-156 -29q-130 0 -223 76.5t-93 199.5zM1313 514q41 0 72.5 22.5t31.5 61.5q0 42 -30 65t-70 23t-70 -23t-30 -65q0 -38 28.5 -61t67.5 -23zM1311 150q64 0 111.5 32.5t47.5 93.5q0 57 -46 91t-107 36q-63 0 -108.5 -35.5t-45.5 -91.5q0 -58 43.5 -92t104.5 -34z" />
    <glyph glyph-name="arrowleft" unicode="&#x2190;" horiz-adv-x="2007" 
d="M819 1374h309l-565 -563h1309v-240h-1311l563 -563h-321l-658 662l2 35z" />
    <glyph glyph-name="arrowup" unicode="&#x2191;" horiz-adv-x="1656" 
d="M1511 897v-322l-563 562v-1309h-237v1309l-566 -568v312l670 671l37 2z" />
    <glyph glyph-name="arrowright" unicode="&#x2192;" horiz-adv-x="2007" 
d="M1204 8h-321l563 563h-1311v238h1309l-565 565h309l672 -669l2 -35z" />
    <glyph glyph-name="arrowdown" unicode="&#x2193;" horiz-adv-x="1656" 
d="M145 502v309l566 -565v1308h237v-1310l563 563v-324l-659 -655h-37z" />
    <glyph glyph-name="uni2196" unicode="&#x2196;" horiz-adv-x="1613" 
d="M1133 1315l210 -221h-800l927 -926l-167 -168l-930 926v-795l-226 211v948l27 25h959z" />
    <glyph glyph-name="uni2197" unicode="&#x2197;" horiz-adv-x="1613" 
d="M1466 342l-225 -211v795l-928 -926l-168 168l928 926h-803l213 221h957l26 -25v-948z" />
    <glyph glyph-name="uni2198" unicode="&#x2198;" horiz-adv-x="1613" 
d="M483 0l-213 221h803l-928 926l168 168l928 -926v795l225 -211v-948l-26 -25h-957z" />
    <glyph glyph-name="uni2199" unicode="&#x2199;" horiz-adv-x="1613" 
d="M147 973l226 211v-795l930 926l167 -168l-927 -926h800l-210 -221h-959l-27 25v948z" />
    <glyph glyph-name="minus" unicode="&#x2212;" horiz-adv-x="1265" 
d="M156 631h954v-238h-954v238z" />
    <glyph glyph-name="uni2215" unicode="&#x2215;" horiz-adv-x="784" 
d="M162 -55h-191l652 1423h190z" />
    <glyph glyph-name="uni2219" unicode="&#x2219;" horiz-adv-x="428" 
d="M78 686q0 60 38 98.5t97 38.5q60 0 98.5 -38.5t38.5 -98.5q0 -59 -38.5 -97t-98.5 -38q-59 0 -97 38.5t-38 96.5z" />
    <glyph glyph-name="radical" unicode="&#x221a;" horiz-adv-x="1507" 
d="M373 586h-269v221h478l180 -526l397 1085h295l-512 -1366h-369z" />
    <glyph glyph-name="infinity" unicode="&#x221e;" horiz-adv-x="854" 
d="M135 545q0 120 85 205.5t206 85.5t207 -85.5t86 -205.5q0 -121 -85.5 -207t-207.5 -86q-121 0 -206 85.5t-85 207.5z" />
    <glyph glyph-name="integral" unicode="&#x222b;" horiz-adv-x="729" 
d="M207 -68v1143q0 303 360 303q44 0 99 -8v-201q-96 11 -99 11q-75 0 -75 -119v-1145q0 -303 -361 -303q-44 0 -96 8v201q83 -10 96 -10q76 0 76 120z" />
    <glyph glyph-name="approxequal" unicode="&#x2248;" horiz-adv-x="1060" 
d="M926 829v-172q-49 -45 -105.5 -60t-111 -5t-112 29t-116 37.5t-115 26.5t-117 -10.5t-114.5 -68.5v168q58 43 123 57t124 4t119.5 -29.5t117 -37t109.5 -24t104.5 13t93.5 71.5zM926 485v-172q-49 -46 -105.5 -60.5t-111 -5t-112 29t-116 38t-115 26.5t-117 -10.5
t-114.5 -68.5v168q58 43 123 57t124 4t119.5 -29.5t117 -37t109.5 -24t104.5 13t93.5 71.5z" />
    <glyph glyph-name="notequal" unicode="&#x2260;" horiz-adv-x="976" 
d="M135 453h209l76 153h-285v203h383l80 168h190l-79 -168h133v-203h-232l-75 -153h307v-205h-406l-80 -168h-190l80 168h-111v205z" />
    <glyph glyph-name="lessequal" unicode="&#x2264;" horiz-adv-x="1030" 
d="M834 1124v-241l-476 -197l476 -211v-227l-689 321v234zM909 180v-153h-774v153h774z" />
    <glyph glyph-name="greaterequal" unicode="&#x2265;" horiz-adv-x="1030" 
d="M197 248v227l475 211l-475 197v241l688 -321v-234zM909 180v-153h-774v153h774z" />
    <glyph glyph-name="triagrt" unicode="&#x22b2;" horiz-adv-x="1132" 
d="M145 180v1012l791 -498v-16z" />
    <glyph glyph-name="uni22B3" unicode="&#x22b3;" horiz-adv-x="1132" 
d="M936 1192v-1012l-791 498v16z" />
    <glyph glyph-name="triagup" unicode="&#x25b2;" horiz-adv-x="1280" 
d="M1147 291h-1012l498 790h16z" />
    <glyph glyph-name="triagdn" unicode="&#x25bc;" horiz-adv-x="1280" 
d="M135 1081h1012l-498 -790h-16z" />
    <glyph glyph-name="lozenge" unicode="&#x25ca;" horiz-adv-x="1044" 
d="M94 684l357 682h143l356 -682l-356 -684h-143zM520 1157l-241 -473l243 -475l244 475z" />
    <glyph glyph-name="rupiah" unicode="&#xf6dd;" horiz-adv-x="2637" 
d="M197 1366h641q177 0 294 -127t117 -340q0 -142 -79 -243t-209 -144l323 -512h-334l-291 479h-167v-479h-295v1366zM492 729h264q86 0 141 45t55 125q0 97 -54 150t-142 53h-264v-373zM1444 1008h282v-90q51 51 115 79.5t125 28.5q145 -1 269.5 -66.5t200.5 -186
t75 -269.5q1 -149 -75 -269.5t-200.5 -186t-269.5 -66.5q-137 0 -240 92q0 -95 -1 -227.5t-1 -227.5h-280v1389zM1726 666v-344q46 -58 110.5 -89.5t129.5 -31.5q109 0 185.5 86t76.5 217q0 127 -77 216t-185 87q-64 2 -129 -35t-111 -106z" />
    <glyph glyph-name="zero.oldstyle" horiz-adv-x="1335" 
d="M666 1026q252 0 403.5 -146t151.5 -376t-151.5 -377t-403.5 -147q-248 0 -399.5 147t-151.5 377q0 150 67.5 268.5t193.5 186t290 67.5zM666 750q-118 0 -188 -70t-70 -176t70 -176t188 -70q121 0 191.5 69.5t70.5 176.5t-70.5 176.5t-191.5 69.5z" />
    <glyph glyph-name="one.oldstyle" horiz-adv-x="761" 
d="M303 0v762q-40 -17 -125 -56t-123 -55v228l271 129h270v-1008h-293z" />
    <glyph glyph-name="two.oldstyle" horiz-adv-x="1146" 
d="M104 0v221l246 152q19 12 54.5 33.5t56 34.5t52 33t50.5 33.5t43 31.5t38.5 32t28 29.5t19.5 29.5t6 27q0 123 -204 123q-88 0 -183.5 -34.5t-169.5 -94.5v250q77 60 178.5 92.5t198.5 32.5q70 0 145 -19.5t147 -59t118.5 -111t46.5 -162.5q0 -38 -11 -74.5t-25 -64.5
t-43 -60t-49 -51t-59.5 -48.5t-58.5 -42t-61 -40.5q-85 -60 -95 -66h408v-227h-877z" />
    <glyph glyph-name="three.oldstyle" horiz-adv-x="1118" 
d="M582 780h-519v228h881v-215l-356 -279q88 -5 159.5 -29t127.5 -69t87 -117.5t31 -167.5q-1 -106 -50 -191.5t-130.5 -137.5t-179.5 -79.5t-203 -27.5q-188 0 -344 90v244q170 -107 346 -107q69 0 131.5 22t106.5 71t45 116q3 105 -70.5 158t-200.5 55q-98 0 -249 -41v166
z" />
    <glyph glyph-name="four.oldstyle" horiz-adv-x="1320" 
d="M1194 180v-229h-121v-283h-293v283h-725v225l762 832h256v-828h121zM780 180v447q-71 -79 -202.5 -224.5t-200.5 -222.5h403z" />
    <glyph glyph-name="five.oldstyle" horiz-adv-x="1185" 
d="M373 778v-268q107 47 231 47q197 0 332 -119.5t135 -306.5q0 -102 -44.5 -188.5t-118 -142.5t-166.5 -87.5t-191 -31.5q-207 0 -393 92v260q181 -109 393 -109q20 0 43 10q80 8 140.5 62.5t60.5 136.5q0 101 -74 161t-170 60q-164 0 -297 -65h-109v719h871v-230h-643z
" />
    <glyph glyph-name="six.oldstyle" horiz-adv-x="1316" 
d="M1112 1241v-268q-84 75 -194.5 115t-221.5 40q-80 0 -153.5 -47t-117 -124t-42.5 -160q115 98 303 98q98 0 191 -31t165 -86t116 -136.5t44 -176.5q0 -145 -77 -256.5t-200 -168t-268 -56.5q-114 0 -206.5 38t-154 102.5t-103.5 153.5t-60 186t-18 204q0 96 20 192
t65.5 189t111.5 164.5t165.5 115t218.5 43.5q112 0 224.5 -35t191.5 -96zM657 246q113 0 190 59t77 160q0 92 -79 155.5t-181 63.5q-193 0 -279 -100q6 -151 76 -244.5t196 -93.5z" />
    <glyph glyph-name="seven.oldstyle" horiz-adv-x="1062" 
d="M686 764h-637v244h926q0 -39 -1 -117t-1 -117l-488 -1067h-280z" />
    <glyph glyph-name="eight.oldstyle" horiz-adv-x="1275" 
d="M115 430q0 116 62.5 202t162.5 124q-123 83 -123 245q0 153 125 250t297 97q79 -1 153 -24.5t133.5 -67t95.5 -111.5t36 -150q0 -85 -40.5 -147t-107.5 -94q112 -40 182 -122.5t70 -201.5q-2 -89 -33 -164t-82 -126t-119 -87t-143 -52.5t-155 -16.5q-136 0 -252 53
t-189 156.5t-73 236.5zM631 831q71 0 119.5 36t48.5 102q0 65 -48 102t-114 37q-65 0 -112.5 -37.5t-47.5 -101.5q0 -65 44.5 -101.5t109.5 -36.5zM629 242q63 0 120 21t97.5 69t40.5 114q0 90 -77.5 147.5t-172.5 57.5q-101 0 -174.5 -56.5t-73.5 -148.5t70.5 -148
t169.5 -56z" />
    <glyph glyph-name="nine.oldstyle" horiz-adv-x="1316" 
d="M205 -188v268q86 -75 195.5 -114.5t220.5 -39.5q123 0 219 102t94 228q-119 -98 -303 -98q-98 0 -191 31t-165 86t-116 136.5t-44 176.5q0 145 76.5 256.5t199.5 168t268 56.5q115 0 208 -38t154.5 -102.5t103 -153t59.5 -185t18 -203.5q0 -97 -20 -193t-65.5 -189.5
t-111.5 -164.5t-165.5 -115t-218.5 -44q-109 0 -221.5 35.5t-194.5 95.5zM659 807q-114 0 -190 -58.5t-76 -160.5q0 -93 79.5 -156t182.5 -63q189 0 277 100q-6 151 -76.5 244.5t-196.5 93.5z" />
    <glyph glyph-name="grave.case" horiz-adv-x="479" 
d="M98 1731h219l64 -267h-154z" />
    <glyph glyph-name="dieresis.case" horiz-adv-x="716" 
d="M98 1583q0 47 32.5 80t78.5 33q47 0 80 -33t33 -80t-32.5 -78.5t-80.5 -31.5q-46 0 -78.5 31.5t-32.5 78.5zM395 1583q0 47 33 80t80 33q46 0 78 -33t32 -80t-32 -78.5t-78 -31.5q-48 0 -80.5 31.5t-32.5 78.5z" />
    <glyph glyph-name="macron.case" horiz-adv-x="768" 
d="M670 1667v-151h-572v151h572z" />
    <glyph glyph-name="acute.case" horiz-adv-x="479" 
d="M98 1464l64 267h219l-129 -267h-154z" />
    <glyph glyph-name="circumflex.case" horiz-adv-x="729" 
d="M283 1731h163l185 -267h-180l-84 150l-88 -150h-181z" />
    <glyph glyph-name="caron.case" horiz-adv-x="729" 
d="M367 1581l84 150h180l-185 -267h-163l-185 267h181z" />
    <glyph glyph-name="breve.case" horiz-adv-x="704" 
d="M467 1659h139q0 -78 -76.5 -136.5t-177.5 -58.5q-107 0 -180.5 58.5t-73.5 136.5h138q0 -39 32.5 -64.5t83.5 -25.5t83 25.5t32 64.5z" />
    <glyph glyph-name="dotaccent.case" horiz-adv-x="428" 
d="M78 1612q0 58 38 96.5t97 38.5q60 0 98.5 -38t38.5 -97q0 -60 -38.5 -98.5t-98.5 -38.5q-59 0 -97 38.5t-38 98.5z" />
    <glyph glyph-name="ring.case" horiz-adv-x="606" 
d="M301 1851q89 0 148 -60.5t59 -145.5t-58.5 -145t-148.5 -60q-87 0 -145 60t-58 145t58.5 145.5t144.5 60.5zM303 1733q-38 0 -62 -25.5t-24 -62.5q0 -36 25 -61t63 -25q34 0 60 25.5t26 60.5q-2 35 -26 61.5t-62 26.5z" />
    <glyph glyph-name="tilde.case" horiz-adv-x="684" 
d="M586 1677v-164q-40 -39 -90.5 -42t-99.5 15.5t-98.5 36.5t-103 14t-96.5 -44v156q48 37 107 41t111.5 -12t103 -31.5t94.5 -11t72 41.5z" />
    <glyph glyph-name="hungarumlaut.case" horiz-adv-x="757" 
d="M162 1731h219l-129 -267h-154zM440 1731h219l-129 -267h-153z" />
    <glyph glyph-name="zero.dnom" horiz-adv-x="950" 
d="M475 836q156 0 258.5 -113.5t102.5 -310.5t-102 -309.5t-259 -112.5t-258.5 113.5t-101.5 308.5q0 196 101.5 310t258.5 114zM475 668q-76 0 -129 -69t-53 -187q0 -119 53 -187.5t129 -68.5q78 0 130 68t52 188q0 65 -18 121t-61 95.5t-103 39.5z" />
    <glyph glyph-name="one.dnom" horiz-adv-x="546" 
d="M43 592v158l162 73h166v-823h-178v664z" />
    <glyph glyph-name="two.dnom" horiz-adv-x="784" 
d="M119 553v178q52 50 122.5 76.5t141.5 28.5q63 1 121 -18.5t104.5 -56t74.5 -96.5t28 -133q0 -43 -28.5 -91t-80.5 -97t-93.5 -82t-98.5 -74l-41 -30h346v-158h-621v154q13 10 47 33.5t45 31.5l9 6q204 145 273 209q75 71 75 109q0 64 -48 99.5t-110 35.5
q-70 -2 -141 -34.5t-125 -90.5z" />
    <glyph glyph-name="three.dnom" horiz-adv-x="790" 
d="M406 676h-332v147h565v-125l-229 -196q41 0 71 -6q195 -27 195 -238q0 -65 -30.5 -117.5t-81 -84.5t-111 -49t-123.5 -17q-129 0 -244 59v166q118 -70 244 -70q69 0 123.5 31.5t54.5 83.5q0 131 -178 131q-65 0 -170 -24v98z" />
    <glyph glyph-name="four.dnom" horiz-adv-x="849" 
d="M516 823h168v-514h74v-143h-74v-166h-180v166h-441v139zM266 309h238v273z" />
    <glyph glyph-name="five.dnom" horiz-adv-x="794" 
d="M84 823h549v-147h-412v-172q76 26 154 26q60 0 113 -15t97 -46t69.5 -84t25.5 -123q0 -63 -30.5 -115.5t-80.5 -86t-111 -52t-124 -18.5q-132 0 -244 59v166q115 -70 244 -70q12 0 26 7q59 5 104.5 34.5t45.5 75.5q0 61 -52 97t-114 36q-129 0 -256 -45l-4 80v393z" />
    <glyph glyph-name="six.dnom" horiz-adv-x="849" 
d="M700 756v-166q-107 94 -254 94q-72 0 -132 -61t-60 -138q77 58 186 58q127 0 221.5 -72t94.5 -188q0 -132 -98 -212.5t-234 -80.5q-87 0 -152.5 35t-103 94.5t-56 131.5t-18.5 155q0 58 12.5 117t40 115.5t67.5 100t100 70.5t132 27q66 0 135 -22t119 -58zM424 150
q68 0 115 35.5t47 97.5q0 57 -49 95t-111 38q-40 0 -89.5 -14.5t-80.5 -47.5q6 -91 49.5 -147.5t118.5 -56.5z" />
    <glyph glyph-name="seven.dnom" horiz-adv-x="710" 
d="M442 676h-389v147h565v-143l-301 -680h-174z" />
    <glyph glyph-name="eight.dnom" horiz-adv-x="772" 
d="M63 266q0 71 37.5 123t98.5 76q-72 54 -72 153q0 97 76.5 157.5t181.5 60.5q66 -2 124 -27t97 -76.5t39 -118.5q0 -50 -25.5 -88.5t-66.5 -60.5q69 -25 112.5 -76.5t43.5 -122.5q-2 -68 -31 -122t-76.5 -87t-104 -50t-118.5 -17q-130 0 -223 76.5t-93 199.5zM381 514
q41 0 72.5 22.5t31.5 61.5q0 42 -30 65t-70 23t-70 -23t-30 -65q0 -38 28.5 -61t67.5 -23zM379 150q64 0 112 32.5t48 93.5q0 57 -46.5 91t-107.5 36q-63 0 -108.5 -35.5t-45.5 -91.5q0 -58 43.5 -92t104.5 -34z" />
    <glyph glyph-name="nine.dnom" horiz-adv-x="847" 
d="M145 68v165q51 -46 118.5 -70t135.5 -24q74 0 133.5 61.5t59.5 139.5q-72 -59 -184 -59q-127 0 -220.5 73t-93.5 189q0 132 97 212.5t233 80.5q70 0 127 -23t94 -62.5t62 -93.5t36 -113t11 -124q0 -58 -12.5 -117t-40.5 -115.5t-68.5 -100t-101 -70.5t-132.5 -27
q-150 0 -254 78zM424 676q-68 0 -115 -35.5t-47 -97.5q0 -57 49 -95t111 -38q40 0 88.5 14t81.5 45q-5 91 -49 149t-119 58z" />
    <glyph glyph-name="zero.numr" horiz-adv-x="950" 
d="M475 1366q156 0 258.5 -113.5t102.5 -310.5t-102 -309.5t-259 -112.5t-258.5 113.5t-101.5 308.5q0 196 101.5 310t258.5 114zM475 1198q-76 0 -129 -68.5t-53 -187.5t53 -187.5t129 -68.5q78 0 130 68t52 188q0 104 -46.5 180t-135.5 76z" />
    <glyph glyph-name="one.numr" horiz-adv-x="546" 
d="M43 1135v157l162 74h166v-823h-178v663z" />
    <glyph glyph-name="two.numr" horiz-adv-x="784" 
d="M119 1085v177q52 49 122 75.5t142 28.5q85 1 158 -31.5t121.5 -103.5t48.5 -168q0 -43 -28.5 -91t-80.5 -97t-93.5 -82t-98.5 -74l-41 -31h346v-158h-621v154q4 3 92 66q12 9 69 48.5t96.5 69.5t88 70t75.5 75t28 60q0 64 -48 99.5t-110 35.5q-69 -2 -140.5 -34
t-125.5 -89z" />
    <glyph glyph-name="three.numr" horiz-adv-x="790" 
d="M406 1219h-332v147h565v-123l-229 -199q31 0 71 -4q195 -30 195 -239q0 -65 -30.5 -117.5t-81 -85t-111 -49.5t-123.5 -17q-127 0 -244 60v166q118 -70 244 -70q69 0 123.5 31.5t54.5 83.5q0 131 -178 131q-75 0 -170 -25v99z" />
    <glyph glyph-name="four.numr" horiz-adv-x="849" 
d="M516 1366h168v-514h74v-141h-74v-168h-180v168h-441v137zM266 852h238v272z" />
    <glyph glyph-name="five.numr" horiz-adv-x="794" 
d="M84 1366h549v-147h-412v-172q76 26 154 26q60 0 113 -15t97 -45.5t69.5 -84t25.5 -123.5q0 -83 -52.5 -147t-130 -95t-163.5 -31q-130 0 -244 60v166q115 -70 244 -70q66 0 121 32t55 85q0 62 -52 98.5t-114 36.5q-92 0 -197 -37h-63v463z" />
    <glyph glyph-name="six.numr" horiz-adv-x="849" 
d="M700 1286v-164q-109 92 -254 92q-72 0 -132 -60.5t-60 -137.5q78 59 186 59q127 0 221.5 -73t94.5 -189q0 -132 -98 -212.5t-234 -80.5q-87 0 -152.5 35t-103 94.5t-56 131.5t-18.5 155q0 58 12.5 117t40 115.5t67.5 100t100 70.5t132 27q66 0 135 -22t119 -58zM424 680
q68 0 115 35.5t47 97.5q0 57 -49 95t-111 38q-41 0 -90 -14t-80 -45q6 -92 49.5 -149.5t118.5 -57.5z" />
    <glyph glyph-name="seven.numr" horiz-adv-x="710" 
d="M442 1219h-389v147h565v-141l-301 -682h-174z" />
    <glyph glyph-name="eight.numr" horiz-adv-x="772" 
d="M63 797q0 72 37.5 123.5t98.5 74.5q-72 54 -72 154q0 96 76.5 156.5t181.5 60.5q101 0 180.5 -60.5t79.5 -160.5q0 -50 -25.5 -89t-66.5 -61q69 -23 112.5 -74t43.5 -124q-3 -90 -53 -154.5t-122 -93.5t-155 -29q-130 0 -223 77t-93 200zM381 1044q42 0 73 23t31 63
t-30 63.5t-70 23.5t-70 -23.5t-30 -63.5q0 -39 28.5 -62.5t67.5 -23.5zM379 680q64 0 112 33t48 94q0 57 -46.5 92t-107.5 35q-63 0 -108.5 -35.5t-45.5 -91.5q0 -57 43.5 -92t104.5 -35z" />
    <glyph glyph-name="nine.numr" horiz-adv-x="847" 
d="M145 600v164q51 -46 118.5 -70t135.5 -24q74 0 133.5 61t59.5 139q-69 -57 -184 -57q-127 0 -220.5 72t-93.5 188q0 132 97 212.5t233 80.5q70 0 127 -23t94 -62.5t62 -93.5t36 -113t11 -124q0 -58 -12.5 -117t-40.5 -115.5t-68.5 -100t-101 -70.5t-132.5 -27
q-151 0 -254 80zM424 1206q-68 0 -115 -35.5t-47 -97.5q0 -57 49 -95t111 -38q40 0 88.5 14t81.5 45q-5 91 -49 149t-119 58z" />
    <glyph glyph-name="zero.tnum" 
d="M657 1372q124 0 232 -46.5t188.5 -132.5t127 -219t46.5 -296q0 -164 -46 -297.5t-126.5 -219.5t-188.5 -132.5t-233 -46.5q-126 0 -234 47t-188 134.5t-126 220t-46 294.5q0 161 46 293.5t126 219.5t188.5 134t233.5 47zM657 1096q-129 0 -215 -111.5t-86 -306.5
q0 -197 86 -308.5t215 -111.5t214 111t85 309q0 77 -18 149.5t-53 133.5t-94.5 98t-133.5 37z" />
    <glyph glyph-name="one.tnum" 
d="M512 262v832l-248 -117v252l273 125h268v-1092h358v-262h-1011v262h360z" />
    <glyph glyph-name="two.tnum" 
d="M186 913v289q85 81 200.5 124.5t231.5 45.5q104 2 200 -29t174 -91t124.5 -158t46.5 -220q0 -41 -19 -87.5t-46 -87t-73.5 -89t-85 -83.5t-97.5 -82t-94 -73t-91 -67q-10 -6 -20.5 -14t-21 -16.5t-15.5 -12.5h567v-262h-1022v254q16 12 150 104q92 63 153.5 106.5
t153 113.5t147 120.5t97 104.5t41.5 90q0 71 -41 123t-100 74.5t-125 21.5q-112 -2 -230 -54t-205 -145z" />
    <glyph glyph-name="three.tnum" 
d="M707 1110h-549v244h932v-203l-379 -326q101 0 178.5 -20t138.5 -65t93 -124.5t32 -191.5q0 -108 -50.5 -195t-133 -139.5t-181 -80t-202.5 -27.5q-221 0 -404 98v276q186 -114 404 -114q69 0 133.5 20t111 64t46.5 102q0 111 -77 164t-214 53q-120 0 -283 -39v162z" />
    <glyph glyph-name="four.tnum" 
d="M831 1354h275v-850h123v-228h-123v-276h-293v276h-727v224zM813 504v452q-71 -83 -198.5 -228.5t-194.5 -223.5h393z" />
    <glyph glyph-name="five.tnum" 
d="M182 1354h910v-244h-678v-283q110 45 250 45q98 0 184.5 -25t159 -75.5t115 -138t42.5 -201.5q0 -104 -50 -191t-131.5 -142.5t-182 -86t-205.5 -30.5q-214 0 -403 98v274q187 -112 403 -112q71 0 136 20.5t111 65.5t46 104q0 67 -44.5 119t-106.5 77t-126 25
q-103 0 -164.5 -10t-160.5 -45h-105v756z" />
    <glyph glyph-name="six.tnum" 
d="M1112 1241v-268q-86 75 -196 115t-220 40q-81 0 -154.5 -47t-117.5 -124t-43 -160q118 98 305 98q98 0 190 -31t164.5 -86t116 -137t43.5 -176q0 -146 -76.5 -257t-199.5 -167.5t-269 -56.5q-115 0 -207.5 38t-154 102.5t-103 153.5t-59.5 186t-18 204q0 79 15 159.5
t44 160t77.5 148.5t111 122t149 83.5t186.5 30.5q110 0 221.5 -35t194.5 -96zM655 246q113 0 191 59t78 160q0 93 -80 156t-185 63q-190 0 -274 -100q6 -151 76 -244.5t194 -93.5z" />
    <glyph glyph-name="seven.tnum" 
d="M866 1110h-678v244h967v-232l-514 -1122h-285z" />
    <glyph glyph-name="eight.tnum" 
d="M125 438q0 118 63.5 206t165.5 124q-125 82 -125 252q0 104 60.5 185.5t157 124t208.5 42.5q81 -2 156.5 -26t136.5 -68t98 -112.5t37 -151.5q0 -177 -151 -246q116 -39 186 -123t70 -207q-3 -113 -50.5 -202t-125 -143t-171 -81.5t-196.5 -27.5q-102 0 -195.5 32
t-166 89t-115.5 144t-43 189zM647 846q71 0 122.5 37t51.5 104q0 65 -51 104t-117 39q-65 0 -113 -39t-48 -104t45 -103t110 -38zM645 246q65 0 123.5 21.5t99.5 70.5t41 117q0 92 -79.5 150.5t-176.5 58.5q-104 0 -178 -57.5t-74 -151.5q0 -95 71.5 -152t172.5 -57z" />
    <glyph glyph-name="nine.tnum" 
d="M199 115v270q85 -77 195 -116.5t220 -39.5q124 0 222 101.5t98 228.5q-116 -96 -303 -96q-133 0 -250.5 51.5t-192.5 151.5t-75 225q0 145 77 256.5t200.5 168t268.5 56.5q114 0 206.5 -38t154 -102.5t103 -153t59.5 -185t18 -203.5q0 -96 -20.5 -193t-67 -190
t-113 -164.5t-166 -115t-219.5 -43.5q-111 0 -220.5 34t-194.5 97zM659 1110q-114 0 -191 -58.5t-77 -160.5q0 -93 79.5 -156t182.5 -63q191 0 279 100q-8 151 -78.5 244.5t-194.5 93.5z" />
    <glyph glyph-name="zero.tonum" 
d="M655 1026q252 0 402.5 -146t150.5 -376q0 -231 -151 -377.5t-402 -146.5q-249 0 -400 147t-151 377q0 229 151 375.5t400 146.5zM655 750q-118 0 -188 -70t-70 -176t70 -176t188 -70q121 0 190.5 69t69.5 177t-69.5 177t-190.5 69z" />
    <glyph glyph-name="one.tonum" 
d="M516 229v533q-23 -10 -114.5 -51.5t-135.5 -59.5v228l275 129h268v-779h264v-229h-833v229h276z" />
    <glyph glyph-name="two.tonum" 
d="M217 0v221l246 152q187 114 237 150q110 82 111 134q0 123 -205 123q-87 0 -183 -34.5t-169 -94.5v250q77 60 179 92.5t200 32.5q54 0 113 -11.5t121 -38.5t111 -66t80.5 -100.5t31.5 -135.5q0 -36 -10 -70.5t-22.5 -61t-39 -57t-44.5 -49t-55 -46.5t-54.5 -40.5
t-57.5 -39.5q-4 -3 -6.5 -4.5t-6 -4t-6.5 -4.5l-6 -4q-24 -16 -47 -33t-47 -33h408v-227h-879z" />
    <glyph glyph-name="three.tonum" 
d="M709 780h-519v228h883v-215l-358 -279q183 -10 294.5 -104t110.5 -279q-1 -106 -50 -191.5t-130 -137.5t-179.5 -79.5t-203.5 -27.5q-188 0 -344 90v244q167 -107 344 -107q70 0 133 22t107.5 71t44.5 116q3 105 -71 158t-200 55q-98 0 -249 -41v166z" />
    <glyph glyph-name="four.tonum" 
d="M1227 180v-229h-121v-283h-295v283h-725v225l764 832h256v-828h121zM811 180v447q-174 -196 -405 -447h405z" />
    <glyph glyph-name="five.tonum" 
d="M422 778v-268q107 47 231 47q197 0 332 -119.5t135 -306.5q0 -102 -44.5 -188.5t-118 -142.5t-166.5 -87.5t-191 -31.5q-206 0 -395 92v260q184 -109 395 -109q21 0 41 10q82 8 142.5 62.5t60.5 136.5q0 101 -74 161t-170 60q-164 0 -297 -65h-108v719h870v-230h-643z
" />
    <glyph glyph-name="six.tonum" 
d="M1112 1241v-268q-86 75 -196 115t-220 40q-81 0 -154.5 -47t-117.5 -124t-43 -160q118 98 305 98q98 0 190 -31t164.5 -86t116 -137t43.5 -176q0 -146 -76.5 -257t-199.5 -167.5t-269 -56.5q-115 0 -207.5 38t-154 102.5t-103 153.5t-59.5 186t-18 204q0 79 15 159.5
t44 160t77.5 148.5t111 122t149 83.5t186.5 30.5q110 0 221.5 -35t194.5 -96zM655 246q113 0 191 59t78 160q0 93 -80 156t-185 63q-190 0 -274 -100q6 -151 76 -244.5t194 -93.5z" />
    <glyph glyph-name="seven.tonum" 
d="M831 764h-636v244h925q0 -39 -1 -117t-1 -117l-491 -1067h-281z" />
    <glyph glyph-name="eight.tonum" 
d="M133 430q0 116 62 202t163 124q-122 80 -122 245q0 102 59.5 182.5t154.5 122.5t205 42q79 -1 153.5 -24.5t135 -67t97 -111.5t36.5 -150q0 -84 -40.5 -146.5t-108.5 -94.5q112 -40 182 -122.5t70 -201.5q-2 -89 -33.5 -164t-83 -126t-119.5 -87t-143.5 -52.5
t-155.5 -16.5q-135 0 -250.5 53t-188.5 156.5t-73 236.5zM647 831q71 0 120.5 36t49.5 102q0 65 -49 102t-115 37q-64 0 -110.5 -37.5t-46.5 -101.5q0 -65 44 -101.5t107 -36.5zM645 242q64 0 121 21t97.5 69t41.5 114q0 90 -78 147.5t-174 57.5q-101 0 -174 -56.5
t-73 -148.5t70.5 -148t168.5 -56z" />
    <glyph glyph-name="nine.tonum" 
d="M203 -188v268q86 -75 196 -114.5t222 -39.5q121 0 217 102t96 228q-119 -98 -303 -98q-133 0 -250.5 52t-192.5 152.5t-75 225.5q0 145 77 256.5t200.5 168t268.5 56.5q114 0 206.5 -38t154 -102.5t103 -153t59.5 -185t18 -203.5q0 -97 -20 -193t-65 -189.5
t-110.5 -164.5t-165 -115t-218.5 -44q-110 0 -223 35.5t-195 95.5zM659 807q-114 0 -191 -58.5t-77 -160.5q0 -93 79.5 -156t182.5 -63q191 0 279 100q-8 151 -78.5 244.5t-194.5 93.5z" />
    <glyph glyph-name="bracketleft.case" horiz-adv-x="763" 
d="M197 -160v1719h432v-205h-178v-1325h178v-189h-432z" />
    <glyph glyph-name="bracketright.case" horiz-adv-x="763" 
d="M313 29v1325h-178v205h432v-1719h-432v189h178z" />
    <glyph glyph-name="parenleft.case" horiz-adv-x="827" 
d="M551 1544l172 -147q-165 -123 -248.5 -311t-83.5 -402q0 -140 33.5 -269t110 -247.5t188.5 -196.5l-172 -149q-103 59 -184.5 158t-131 216t-75 241.5t-25.5 246.5t25 245t74 240t131 216t186 159z" />
    <glyph glyph-name="parenright.case" horiz-adv-x="827" 
d="M276 -178l-172 149q112 78 188.5 196.5t110 247.5t33.5 269q0 214 -83.5 402t-248.5 311l172 147q104 -60 186 -159t131 -216t74 -240t25 -245t-25.5 -246.5t-75 -241.5t-131 -216t-184.5 -158z" />
    <glyph glyph-name="braceleft.case" horiz-adv-x="948" 
d="M813 1563v-207q-128 0 -133 -113q0 -20 1 -72t1 -80.5t-3 -79t-9.5 -81.5t-19 -72t-31.5 -68t-48 -51.5t-67 -38.5q38 -15 67 -40.5t48 -51.5t31.5 -66.5t19 -70.5t9.5 -80t3 -78t-1 -81t-1 -74q2 -39 16 -66.5t30.5 -40t38 -18.5t31 -6.5t17.5 0.5v-189q-15 -1 -34 -0.5
t-56.5 6t-72 16t-73 33t-67 53.5t-48 81.5t-20.5 113.5q-3 26 -4 66t-0.5 72t-3.5 71t-11.5 69.5t-24.5 62.5t-42 54t-65.5 39t-93.5 23v207q61 6 105 25.5t69 51.5t39.5 67t19.5 81t6.5 84t2 86t3.5 76q1 60 20 108t48.5 76.5t66.5 51t74 31t71 15.5t57.5 5t33.5 0z" />
    <glyph glyph-name="braceright.case" horiz-adv-x="948" 
d="M135 1356v205q10 -2 33.5 0t57.5 -5t71 -15.5t74 -30.5t66.5 -50.5t48.5 -76.5t20 -107q3 -31 4 -90t2.5 -101t14 -95.5t35.5 -89t71.5 -63t118.5 -34.5v-205q-70 -8 -118.5 -35.5t-72 -61t-35.5 -84t-13.5 -91t-2.5 -97.5t-4 -88q-1 -63 -20.5 -113.5t-48 -81.5
t-67 -53.5t-73 -33t-72 -16t-56.5 -6t-34 0.5v189q64 -4 102 39q30 33 33 92q0 22 -1 74t-1 81t2.5 78t9 80t19 71t31.5 66t48.5 51.5t67.5 40.5q-38 14 -67.5 38.5t-48.5 51.5t-31.5 67.5t-19 72.5t-9 81.5t-2.5 79t1 80.5t1 72q-7 113 -135 113z" />
    <glyph glyph-name="exclamdown.case" horiz-adv-x="628" 
d="M174 1231q0 59 38 97t97 38q60 0 98.5 -38t38.5 -97q0 -60 -38.5 -98.5t-98.5 -38.5q-59 0 -97 38.5t-38 98.5zM227 1001h170l56 -1001h-277z" />
    <glyph glyph-name="questiondown.case" horiz-adv-x="1024" 
d="M762 1233q0 -60 -38 -98.5t-97 -38.5q-60 0 -99 38.5t-39 98.5q0 59 39 97t99 38q59 0 97 -38t38 -97zM961 94v268q-157 -129 -349 -129q-105 2 -175 48t-70 116q0 34 20.5 67.5t53.5 63.5t73 63t79.5 73.5t71.5 86.5t51 111t17 139h-221q5 -54 -15 -105.5t-57 -92.5
t-82 -81t-91.5 -79.5t-85 -78.5t-63 -86.5t-24.5 -96.5q0 -112 66.5 -203.5t177 -142.5t240.5 -53q213 -3 383 112z" />
    <glyph glyph-name="less.case" horiz-adv-x="1030" 
d="M834 1124v-241l-476 -197l476 -211v-227l-689 321v234z" />
    <glyph glyph-name="greater.case" horiz-adv-x="1030" 
d="M197 248v227l475 211l-475 197v241l688 -321v-234z" />
    <glyph glyph-name="guillemotleft.case" horiz-adv-x="1243" 
d="M588 1206v-258l-271 -262l271 -262v-256l-443 405v226zM1047 1206v-258l-271 -262l271 -262v-256l-443 405v226z" />
    <glyph glyph-name="guillemotright.case" horiz-adv-x="1243" 
d="M197 168v256l270 262l-270 262v258l442 -407v-226zM655 168v256l271 262l-271 262v258l443 -407v-226z" />
    <glyph glyph-name="guilsinglleft.case" horiz-adv-x="784" 
d="M588 1206v-258l-271 -262l271 -262v-258l-443 407v226z" />
    <glyph glyph-name="guilsinglright.case" horiz-adv-x="784" 
d="M197 168v256l270 262l-270 262v258l442 -407v-226z" />
    <glyph glyph-name="hyphen.case" horiz-adv-x="839" 
d="M705 807v-238h-570v238h570z" />
    <glyph glyph-name="endash.case" horiz-adv-x="1044" 
d="M909 807v-238h-774v238h774z" />
    <glyph glyph-name="emdash.case" horiz-adv-x="1310" 
d="M1176 807v-238h-1041v238h1041z" />
    <glyph glyph-name="periodcentered.case" horiz-adv-x="428" 
d="M78 686q0 60 38 98.5t97 38.5q60 0 98.5 -38.5t38.5 -98.5q0 -59 -38.5 -97t-98.5 -38q-59 0 -97 38.5t-38 96.5z" />
    <glyph glyph-name="bullet.case" horiz-adv-x="854" 
d="M131 686q0 121 85.5 206t207.5 85t206.5 -84.5t84.5 -206.5t-84.5 -206.5t-206.5 -84.5t-207.5 85t-85.5 206z" />
    <glyph glyph-name="a.alt" horiz-adv-x="1265" 
d="M1151 1008v-1008h-283v74q-114 -92 -241 -92q-148 0 -272 66.5t-197.5 187t-73.5 268.5t73.5 268.5t197.5 187t272 66.5q142 0 241 -108v90h283zM868 322v346q-46 69 -109 104t-132 35q-109 0 -185.5 -86.5t-76.5 -216.5t76.5 -216.5t185.5 -86.5q148 0 241 121z" />
    <glyph glyph-name="t.alt" horiz-adv-x="624" 
d="M170 805h-117v203h117v354h283v-354h118v-203h-118v-805h-283v805z" />
    <glyph glyph-name="commaaccentcomb" horiz-adv-x="12" 
d="M162 -565l49 159q-51 7 -82 44t-31 90q0 60 38 98.5t97 38.5q60 0 99 -38.5t39 -98.5q0 -26 -25.5 -77t-124.5 -216h-59z" />
    <glyph glyph-name="y.alt" horiz-adv-x="1228" 
d="M834 20v68q-51 -50 -114 -78t-126 -28q-152 0 -266.5 65.5t-173 175t-58.5 246.5v539h283v-539q0 -116 56 -193t159 -77q69 0 132 36t108 105v668h282v-979q0 -101 -32 -186.5t-87.5 -145.5t-128.5 -102t-155 -61.5t-168 -18.5q-122 -2 -241.5 39t-207.5 118v254
q85 -87 205.5 -133.5t243.5 -46.5q113 0 199.5 73.5t89.5 200.5z" />
    <glyph glyph-name="uni2116.001" horiz-adv-x="2707" 
d="M1006 535v831h297v-1366h-224l-590 842v-842h-292v1366h221zM2038 1366q155 0 283 -70.5t200 -190.5t72 -263t-72 -263t-200 -190t-283 -70q-114 0 -214.5 41.5t-172 111.5t-113 166.5t-41.5 203.5q0 143 70 263t195 190.5t276 70.5zM2038 1116q-109 0 -182.5 -80
t-73.5 -194t73.5 -194.5t182.5 -80.5q118 0 194 80t76 195t-76 194.5t-194 79.5z" />
    <glyph glyph-name="agrave.alt" horiz-adv-x="1265" 
d="M621 1366l63 -266h-154l-129 266h220zM1151 1008v-1008h-283v74q-114 -92 -241 -92q-148 0 -272 66.5t-197.5 187t-73.5 268.5t73.5 268.5t197.5 187t272 66.5q142 0 241 -108v90h283zM868 322v346q-46 69 -109 104t-132 35q-109 0 -185.5 -86.5t-76.5 -216.5
t76.5 -216.5t185.5 -86.5q148 0 241 121z" />
    <glyph glyph-name="aacute.alt" horiz-adv-x="1265" 
d="M483 1100l62 266h219l-129 -266h-152zM1151 1008v-1008h-283v74q-114 -92 -241 -92q-148 0 -272 66.5t-197.5 187t-73.5 268.5t73.5 268.5t197.5 187t272 66.5q142 0 241 -108v90h283zM868 322v346q-46 69 -109 104t-132 35q-109 0 -185.5 -86.5t-76.5 -216.5
t76.5 -216.5t185.5 -86.5q148 0 241 121z" />
    <glyph glyph-name="acircumflex.alt" horiz-adv-x="1265" 
d="M518 1364h164l184 -266h-180l-86 149l-86 -149h-180zM1151 1008v-1008h-283v74q-114 -92 -241 -92q-148 0 -272 66.5t-197.5 187t-73.5 268.5t73.5 268.5t197.5 187t272 66.5q142 0 241 -108v90h283zM868 322v346q-46 69 -109 104t-132 35q-109 0 -185.5 -86.5
t-76.5 -216.5t76.5 -216.5t185.5 -86.5q148 0 241 121z" />
    <glyph glyph-name="atilde.alt" horiz-adv-x="1265" 
d="M895 1309v-166q-40 -39 -90.5 -42t-99.5 15.5t-98.5 37t-102.5 14t-96 -45.5v158q48 37 107 41t111.5 -11.5t102.5 -31t94 -11t72 41.5zM1151 1008v-1008h-283v74q-114 -92 -241 -92q-148 0 -272 66.5t-197.5 187t-73.5 268.5t73.5 268.5t197.5 187t272 66.5
q139 0 241 -108v90h283zM868 322v346q-46 69 -109 104t-132 35q-109 0 -185.5 -86.5t-76.5 -216.5t76.5 -216.5t185.5 -86.5q148 0 241 121z" />
    <glyph glyph-name="aring.alt" horiz-adv-x="1265" 
d="M627 1524q89 0 148 -61t59 -146q0 -84 -59 -144.5t-148 -60.5q-88 0 -146.5 60.5t-58.5 144.5q0 85 58.5 146t146.5 61zM629 1405q-39 0 -63.5 -25.5t-24.5 -62.5q0 -34 26 -60t62 -26q34 0 60 26t26 60q-2 34 -26 61t-60 27zM1151 1008v-1008h-283v74q-114 -92 -241 -92
q-148 0 -272 66.5t-197.5 187t-73.5 268.5t73.5 268.5t197.5 187t272 66.5q139 0 241 -108v90h283zM868 322v346q-46 69 -109 104t-132 35q-109 0 -185.5 -86.5t-76.5 -216.5t76.5 -216.5t185.5 -86.5q148 0 241 121z" />
    <glyph glyph-name="yacute.alt" horiz-adv-x="1228" 
d="M508 1100l63 266h220l-129 -266h-154zM834 88v-68q-3 -86 -46.5 -150t-107.5 -94t-137 -30q-121 0 -241.5 46.5t-207.5 133.5v-254q88 -76 208 -117.5t241 -39.5q109 -2 210 30.5t183 94.5t131 163t49 226v979h-282v-668q-45 -69 -108 -105t-132 -36q-103 0 -159 77
t-56 193v539h-283v-539q0 -137 58.5 -246.5t173 -175t266.5 -65.5q63 0 126 28t114 78z" />
    <glyph glyph-name="ydieresis.alt" horiz-adv-x="1228" 
d="M346 1214q0 47 32.5 79t78.5 32q47 0 79.5 -32t32.5 -79t-32.5 -78.5t-79.5 -31.5q-46 0 -78.5 31.5t-32.5 78.5zM643 1214q0 47 32.5 79t78.5 32t79 -32t33 -79t-33 -78.5t-79 -31.5t-78.5 31.5t-32.5 78.5zM834 88v-68q-3 -86 -46.5 -150t-107.5 -94t-137 -30
q-121 0 -241.5 46.5t-207.5 133.5v-254q88 -76 208 -117.5t241 -39.5q109 -2 210 30.5t183 94.5t131 163t49 226v979h-282v-668q-45 -69 -108 -105t-132 -36q-103 0 -159 77t-56 193v539h-283v-539q0 -137 58.5 -246.5t173 -175t266.5 -65.5q63 0 126 28t114 78z" />
    <glyph glyph-name="commaaccentcomb.salt" horiz-adv-x="12" 
d="M307 1534l-49 -160q51 -7 82 -43.5t31 -89.5q0 -60 -38 -98.5t-97 -38.5q-60 0 -99 38.5t-39 98.5q0 27 26 79t124 214h59z" />
    <glyph glyph-name="A.smcp" horiz-adv-x="1030" 
d="M743 0l-81 211h-293l-80 -211h-277l381 1006h240l385 -1006h-275zM618 391l-104 297l-106 -297h210z" />
    <glyph glyph-name="B.smcp" horiz-adv-x="1026" 
d="M115 1006h493q83 0 152.5 -27t115.5 -88t46 -146q0 -69 -31 -124t-90 -82q74 -23 119 -95.5t45 -160.5q0 -128 -93 -205.5t-231 -77.5h-526v1006zM367 621h196q46 2 80.5 22.5t34.5 56.5q0 43 -35 64.5t-84 21.5h-192v-165zM367 219h229q56 0 92.5 25t36.5 73
q0 53 -38 80t-97 27h-223v-205z" />
    <glyph glyph-name="C.smcp" horiz-adv-x="1013" 
d="M909 303v-242q-147 -75 -278 -75q-154 0 -285 69t-207 188t-76 259q0 106 45 202t121 165t181.5 110t220.5 41q123 0 278 -76v-244q-146 88 -278 88q-129 0 -222.5 -84t-93.5 -202q0 -117 93.5 -201t222.5 -84q125 0 278 86z" />
    <glyph glyph-name="D.smcp" horiz-adv-x="1042" 
d="M74 1006h401q141 0 259.5 -67.5t186.5 -183.5t68 -253q0 -136 -68 -251.5t-186.5 -183t-259.5 -67.5h-401v1006zM328 219h110q124 0 212.5 83t88.5 200q0 118 -88 201t-213 83h-110v-567z" />
    <glyph glyph-name="E.smcp" horiz-adv-x="925" 
d="M825 614v-231h-497v-174h524v-209h-778v1006h778v-220h-524v-172h497z" />
    <glyph glyph-name="F.smcp" horiz-adv-x="925" 
d="M823 614v-231h-495v-383h-254v1006h778v-220h-524v-172h495z" />
    <glyph glyph-name="G.smcp" horiz-adv-x="1015" 
d="M915 950v-245q-157 83 -301 83q-129 0 -222 -84t-93 -202q0 -117 93 -201t222 -84q50 0 93 12v193h-242v164h471v-510q-178 -90 -322 -90q-154 0 -284.5 69t-206.5 188t-76 259q0 141 76 260.5t206.5 188.5t284.5 69q148 0 301 -70z" />
    <glyph glyph-name="H.smcp" horiz-adv-x="1050" 
d="M705 614v392h251v-1006h-251v383h-357v-383h-254v1006h254v-392h357z" />
    <glyph glyph-name="I.smcp" horiz-adv-x="440" 
d="M346 0h-252v1006h252v-1006z" />
    <glyph glyph-name="J.smcp" horiz-adv-x="776" 
d="M84 61v252q132 -96 229 -96q49 0 82 34.5t33 82.5v672h254v-687q0 -136 -97 -234.5t-245 -98.5q-122 0 -256 75z" />
    <glyph glyph-name="K.smcp" horiz-adv-x="1058" 
d="M348 1006v-340q67 75 316 340h331l-364 -396l385 -610h-293l-272 432l-103 -96v-336h-254v1006h254z" />
    <glyph glyph-name="L.smcp" horiz-adv-x="892" 
d="M850 219v-219h-756v1006h254v-787h502z" />
    <glyph glyph-name="M.smcp" horiz-adv-x="1251" 
d="M903 0v414l-215 -414h-129l-213 416v-416h-252v1006h178l351 -670l354 670h180v-1006h-254z" />
    <glyph glyph-name="N.smcp" horiz-adv-x="1048" 
d="M698 444v562h256v-1006h-194l-414 565v-565h-252v1006h193z" />
    <glyph glyph-name="O.smcp" horiz-adv-x="1224" 
d="M621 1020q150 0 276.5 -69t200 -188.5t73.5 -260.5q0 -140 -73.5 -259t-200 -188t-276.5 -69q-116 0 -221.5 41t-181 110t-120.5 164.5t-45 200.5q0 106 45 202t120.5 165t181 110t221.5 41zM621 788q-129 0 -222.5 -84.5t-93.5 -201.5t93.5 -201t222.5 -84
q122 0 210.5 84t88.5 201t-88.5 201.5t-210.5 84.5z" />
    <glyph glyph-name="P.smcp" horiz-adv-x="944" 
d="M74 1006h495q140 0 231 -91.5t91 -244.5q0 -146 -92.5 -236t-229.5 -90h-241v-344h-254v1006zM328 551h180q57 0 93 28.5t36 79.5q0 61 -35 94t-94 33h-180v-235z" />
    <glyph glyph-name="Q.smcp" horiz-adv-x="1261" 
d="M936 -102l-113 129q-100 -41 -202 -41q-116 0 -221.5 41t-181 110t-120.5 164.5t-45 200.5q0 106 45 202t120.5 165t181 110t221.5 41q150 0 276.5 -69t200 -188.5t73.5 -260.5q0 -106 -42.5 -200.5t-118.5 -166.5l200 -237h-274zM621 788q-129 0 -222.5 -84.5
t-93.5 -201.5t93.5 -201t222.5 -84q122 0 210.5 84t88.5 201t-88.5 201.5t-210.5 84.5z" />
    <glyph glyph-name="R.smcp" horiz-adv-x="989" 
d="M74 1006h495q139 0 230.5 -95t91.5 -252q0 -102 -56 -176t-151 -112q200 -297 252 -371h-293l-219 344h-96v-344h-254v1006zM328 551h180q57 0 93 28.5t36 79.5q0 61 -35 94t-94 33h-180v-235z" />
    <glyph glyph-name="S.smcp" horiz-adv-x="937" 
d="M84 123v256q85 -82 194 -126t203 -44q36 0 65.5 7t53 27.5t23.5 53.5q0 27 -30.5 45.5t-78.5 31t-106.5 26t-117.5 36.5t-107 56t-78.5 91t-30.5 136q0 73 34.5 131.5t91 95t126 55.5t143.5 19q95 0 191 -34.5t169 -98.5v-252q-82 78 -178.5 121t-181.5 43
q-41 0 -73.5 -7t-57.5 -29t-25 -58q0 -27 31 -47t80.5 -33.5t109.5 -28t119.5 -38t109 -55.5t80.5 -88t31 -130t-35.5 -133.5t-94 -94.5t-128.5 -53t-145 -18q-102 0 -205 35t-182 102z" />
    <glyph glyph-name="T.smcp" horiz-adv-x="882" 
d="M838 1006v-220h-271v-786h-252v786h-268v220h791z" />
    <glyph glyph-name="U.smcp" horiz-adv-x="1046" 
d="M952 1006v-623q0 -119 -60.5 -211t-156.5 -139t-209 -47q-117 0 -214.5 47t-157.5 139t-60 211v623h252v-623q0 -79 51.5 -122.5t128.5 -43.5q75 0 125.5 43.5t50.5 122.5v623h250z" />
    <glyph glyph-name="V.smcp" horiz-adv-x="1058" 
d="M758 1006h289l-408 -1006h-229l-398 1006h289l229 -607z" />
    <glyph glyph-name="W.smcp" horiz-adv-x="1474" 
d="M827 1006l220 -545q6 35 59 251t74 294h282l-282 -1006h-211l-230 557l-213 -557h-204l-310 1006h285l154 -547l196 547h180z" />
    <glyph glyph-name="X.smcp" horiz-adv-x="1026" 
d="M731 0l-217 305l-219 -305h-283l353 506l-351 500h287l213 -297l213 297h283l-348 -500l354 -506h-285z" />
    <glyph glyph-name="Y.smcp" horiz-adv-x="987" 
d="M352 291l-340 715h277l196 -447l213 447h277l-367 -707v-299h-256v291z" />
    <glyph glyph-name="Z.smcp" horiz-adv-x="1036" 
d="M424 219h518v-219h-848v207l527 579h-527v220h848v-205z" />
    <glyph glyph-name="Agrave.smcp" horiz-adv-x="1030" 
d="M526 1366l62 -266h-154l-129 266h221zM743 0l-81 211h-293l-80 -211h-277l381 1006h240l385 -1006h-275zM618 391l-104 297l-106 -297h210z" />
    <glyph glyph-name="Aacute.smcp" horiz-adv-x="1030" 
d="M430 1100l64 266h219l-129 -266h-154zM393 1006l-381 -1006h277l80 211h293l81 -211h275l-385 1006h-240zM618 391h-210l106 297z" />
    <glyph glyph-name="Acircumflex.smcp" horiz-adv-x="1030" 
d="M436 1364h164l184 -266h-180l-86 149l-86 -149h-180zM393 1006l-381 -1006h277l80 211h293l81 -211h275l-385 1006h-240zM618 391h-210l106 297z" />
    <glyph glyph-name="Atilde.smcp" horiz-adv-x="1030" 
d="M760 1309v-166q-40 -39 -90.5 -42t-99.5 15.5t-98.5 37t-103 14t-96.5 -45.5v158q47 37 106 41t111.5 -11.5t103 -31t95 -11t72.5 41.5zM743 0l-81 211h-295l-78 -211h-277l381 1006h240l385 -1006h-275zM618 391l-104 297l-108 -297h212z" />
    <glyph glyph-name="Adieresis.smcp" horiz-adv-x="1030" 
d="M256 1214q0 47 32.5 80t78.5 33q47 0 79.5 -33t32.5 -80t-32.5 -78.5t-79.5 -31.5q-46 0 -78.5 31.5t-32.5 78.5zM553 1214q0 47 33 80t80 33q46 0 78 -33t32 -80t-32 -78.5t-78 -31.5q-48 0 -80.5 31.5t-32.5 78.5zM393 1006l-381 -1006h277l80 211h293l81 -211h275
l-385 1006h-240zM618 391h-210l106 297z" />
    <glyph glyph-name="Aring.smcp" horiz-adv-x="1030" 
d="M506 1524q89 0 148 -61t59 -146q0 -84 -58.5 -144.5t-148.5 -60.5q-86 0 -144.5 61t-58.5 144q0 85 58.5 146t144.5 61zM508 1405q-38 0 -62 -25.5t-24 -62.5q0 -35 25.5 -60.5t62.5 -25.5q34 0 60 26t26 60q-2 35 -26 61.5t-62 26.5zM743 0l-81 211h-295l-78 -211h-277
l381 1006h240l385 -1006h-275zM618 391l-104 297l-108 -297h212z" />
    <glyph glyph-name="AE.smcp" horiz-adv-x="1597" 
d="M1495 614v-231h-496v-174h525v-209h-781v211h-319l-160 -211h-274l753 1006h781v-220h-525v-172h496zM743 391v281l-213 -281h213z" />
    <glyph glyph-name="Ccedilla.smcp" horiz-adv-x="1013" 
d="M682 -10l-47 -68q65 14 121.5 -23.5t56.5 -101.5q0 -70 -54 -106.5t-130 -36.5q-77 0 -127 35v98q56 -35 123 -35q25 0 45 14t20 37q0 29 -30.5 44.5t-67.5 14t-60 -15.5v68l60 74q-223 14 -376 161.5t-153 352.5q0 106 45 202t121 165t181.5 110t220.5 41q123 0 278 -76
v-244q-146 88 -278 88q-129 0 -222.5 -84t-93.5 -202q0 -117 93.5 -201t222.5 -84q125 0 278 86v-242q-118 -59 -227 -71z" />
    <glyph glyph-name="Egrave.smcp" horiz-adv-x="925" 
d="M485 1366l62 -266h-154l-129 266h221zM825 614v-231h-497v-174h524v-209h-778v1006h778v-220h-524v-172h497z" />
    <glyph glyph-name="Eacute.smcp" horiz-adv-x="925" 
d="M367 1100l63 266h219l-129 -266h-153zM852 786v220h-778v-1006h778v209h-524v174h497v231h-497v172h524z" />
    <glyph glyph-name="Ecircumflex.smcp" horiz-adv-x="925" 
d="M379 1364h164l184 -266h-180l-86 149l-86 -149h-180zM852 786v220h-778v-1006h778v209h-524v174h497v231h-497v172h524z" />
    <glyph glyph-name="Edieresis.smcp" horiz-adv-x="925" 
d="M211 1214q0 47 32.5 80t78.5 33q47 0 78.5 -32.5t31.5 -80.5q0 -47 -31.5 -78.5t-78.5 -31.5q-46 0 -78.5 31.5t-32.5 78.5zM508 1214q0 47 32 80t78 33t79.5 -33t33.5 -80t-33.5 -78.5t-79.5 -31.5t-78 31.5t-32 78.5zM852 786v220h-778v-1006h778v209h-524v174h497v231
h-497v172h524z" />
    <glyph glyph-name="Igrave.smcp" horiz-adv-x="440" 
d="M231 1366l62 -266h-154l-129 266h221zM346 0h-252v1006h252v-1006z" />
    <glyph glyph-name="Icircumflex.smcp" horiz-adv-x="440" 
d="M139 1364h164l184 -266h-180l-86 149l-86 -149h-180zM94 0h252v1006h-252v-1006z" />
    <glyph glyph-name="Idieresis.smcp" horiz-adv-x="440" 
d="M-39 1214q0 47 33.5 80t79.5 33q47 0 78.5 -32.5t31.5 -80.5q0 -47 -31.5 -78.5t-78.5 -31.5q-46 0 -79.5 31.5t-33.5 78.5zM260 1214q0 47 32 80t79 33q46 0 79 -33t33 -80t-33 -78.5t-79 -31.5q-47 0 -79 31.5t-32 78.5zM94 0h252v1006h-252v-1006z" />
    <glyph glyph-name="Eth.smcp" horiz-adv-x="1042" 
d="M74 1006h401q141 0 259.5 -67.5t186.5 -183.5t68 -253q0 -136 -68 -251.5t-186.5 -183t-259.5 -67.5h-401v426h-72v135h72v445zM328 561h174v-135h-174v-207h110q124 0 212.5 83t88.5 200q0 118 -88 201t-213 83h-110v-225z" />
    <glyph glyph-name="Ntilde.smcp" horiz-adv-x="1048" 
d="M758 1309v-166q-40 -39 -90.5 -42t-99.5 15.5t-98.5 37t-103 14t-96.5 -45.5v158q48 37 107 41t112 -11.5t103.5 -31t94 -11t71.5 41.5zM698 444v562h256v-1006h-194l-414 565v-565h-252v1006h193z" />
    <glyph glyph-name="Ograve.smcp" horiz-adv-x="1224" 
d="M627 1366l63 -266h-153l-129 266h219zM621 1020q150 0 276.5 -69t200 -188.5t73.5 -260.5q0 -140 -73.5 -259t-200 -188t-276.5 -69q-116 0 -221.5 41t-181 110t-120.5 164.5t-45 200.5q0 106 45 202t120.5 165t181 110t221.5 41zM621 788q-129 0 -222.5 -84.5
t-93.5 -201.5t93.5 -201t222.5 -84q122 0 210.5 84t88.5 201t-88.5 201.5t-210.5 84.5z" />
    <glyph glyph-name="Oacute.smcp" horiz-adv-x="1224" 
d="M514 1100l64 266h219l-129 -266h-154zM621 1020q-116 0 -221.5 -41t-181 -110t-120.5 -165t-45 -202q0 -105 45 -200.5t120.5 -164.5t181 -110t221.5 -41q150 0 276.5 69t200 188t73.5 259q0 141 -73.5 260.5t-200 188.5t-276.5 69zM621 788q122 0 210.5 -84.5
t88.5 -201.5t-88.5 -201t-210.5 -84q-129 0 -222.5 84t-93.5 201t93.5 201.5t222.5 84.5z" />
    <glyph glyph-name="Ocircumflex.smcp" horiz-adv-x="1224" 
d="M539 1364h163l185 -266h-180l-86 149l-86 -149h-181zM621 1020q-116 0 -221.5 -41t-181 -110t-120.5 -165t-45 -202q0 -105 45 -200.5t120.5 -164.5t181 -110t221.5 -41q150 0 276.5 69t200 188t73.5 259q0 141 -73.5 260.5t-200 188.5t-276.5 69zM621 788
q122 0 210.5 -84.5t88.5 -201.5t-88.5 -201t-210.5 -84q-129 0 -222.5 84t-93.5 201t93.5 201.5t222.5 84.5z" />
    <glyph glyph-name="Otilde.smcp" horiz-adv-x="1224" 
d="M860 1309v-166q-40 -39 -91 -42t-100 15.5t-99 37t-103 14t-96 -45.5v158q48 37 107 41t112 -11.5t103 -31t94.5 -11t72.5 41.5zM621 1020q150 0 276.5 -69t200 -188.5t73.5 -260.5q0 -140 -73.5 -259t-200 -188t-276.5 -69q-116 0 -221.5 41t-181 110t-120.5 164.5
t-45 200.5q0 106 45 202t120.5 165t181 110t221.5 41zM621 788q-129 0 -222.5 -84.5t-93.5 -201.5t93.5 -201t222.5 -84q122 0 210.5 84t88.5 201t-88.5 201.5t-210.5 84.5z" />
    <glyph glyph-name="Odieresis.smcp" horiz-adv-x="1224" 
d="M360 1214q0 47 33.5 80t79.5 33q47 0 79 -33t32 -80t-32 -78.5t-79 -31.5q-46 0 -79.5 31.5t-33.5 78.5zM659 1214q0 47 32 80t79 33q46 0 79.5 -33t33.5 -80t-33.5 -78.5t-79.5 -31.5q-47 0 -79 31.5t-32 78.5zM621 1020q-116 0 -221.5 -41t-181 -110t-120.5 -165
t-45 -202q0 -105 45 -200.5t120.5 -164.5t181 -110t221.5 -41q150 0 276.5 69t200 188t73.5 259q0 141 -73.5 260.5t-200 188.5t-276.5 69zM621 788q122 0 210.5 -84.5t88.5 -201.5t-88.5 -201t-210.5 -84q-129 0 -222.5 84t-93.5 201t93.5 201.5t222.5 84.5z" />
    <glyph glyph-name="Oslash.smcp" horiz-adv-x="1224" 
d="M72 -61l147 196q-79 70 -122.5 165.5t-43.5 201.5t45 202t120.5 165t181 110t221.5 41q123 0 227 -49l88 119h227l-159 -216q79 -72 123 -167.5t44 -204.5q0 -140 -73.5 -259t-200 -188t-276.5 -69q-131 0 -248 51l-76 -98h-225zM371 336l327 436q-50 16 -77 16
q-129 0 -222.5 -84.5t-93.5 -201.5q0 -94 66 -166zM850 674l-328 -438q46 -19 99 -19q122 0 210.5 84t88.5 201q0 95 -70 172z" />
    <glyph glyph-name="Ugrave.smcp" horiz-adv-x="1046" 
d="M532 1366l64 -266h-154l-129 266h219zM952 1006v-623q0 -119 -60.5 -211t-156.5 -139t-209 -47q-117 0 -214.5 47t-157.5 139t-60 211v623h252v-623q0 -79 51.5 -122.5t128.5 -43.5q75 0 125.5 43.5t50.5 122.5v623h250z" />
    <glyph glyph-name="Uacute.smcp" horiz-adv-x="1046" 
d="M451 1100l61 266h219l-129 -266h-151zM702 1006v-623q0 -79 -50.5 -122.5t-125.5 -43.5q-77 0 -128.5 43.5t-51.5 122.5v623h-252v-623q0 -119 60 -211t157.5 -139t214.5 -47q113 0 209 47t156.5 139t60.5 211v623h-250z" />
    <glyph glyph-name="Ucircumflex.smcp" horiz-adv-x="1046" 
d="M444 1364h164l185 -266h-181l-84 149l-88 -149h-180zM702 1006v-623q0 -79 -50.5 -122.5t-125.5 -43.5q-77 0 -128.5 43.5t-51.5 122.5v623h-252v-623q0 -119 60 -211t157.5 -139t214.5 -47q113 0 209 47t156.5 139t60.5 211v623h-250z" />
    <glyph glyph-name="Yacute.smcp" horiz-adv-x="987" 
d="M408 1100l63 266h219l-129 -266h-153zM608 0v299l367 707h-277l-213 -447l-196 447h-277l340 -715v-291h256z" />
    <glyph glyph-name="Thorn.smcp" horiz-adv-x="944" 
d="M328 1006h241q140 0 231 -91.5t91 -244.5q0 -146 -92.5 -236t-229.5 -90h-241v-344h-254v1202h254v-196zM328 551h180q57 0 93 28.5t36 79.5q0 61 -35 94t-94 33h-180v-235z" />
    <glyph glyph-name="OE.smcp" horiz-adv-x="1773" 
d="M1671 614v-231h-495v-174h524v-209h-778v94q-124 -108 -301 -108q-116 0 -221.5 41t-181 110t-120.5 164.5t-45 200.5q0 106 45 202t120.5 165t181 110t221.5 41q177 0 301 -111v97h778v-220h-524v-172h495zM621 786q-129 0 -222.5 -83.5t-93.5 -200.5t93.5 -201
t222.5 -84q123 0 211 85t88 204q-1 115 -90 197.5t-209 82.5z" />
    <glyph glyph-name="Scaron.smcp" horiz-adv-x="937" 
d="M461 1214l84 150h180l-184 -266h-164l-184 266h180zM84 123v256q85 -82 194 -126t203 -44q36 0 65.5 7t53 27.5t23.5 53.5q0 27 -30.5 45.5t-78.5 31t-106.5 26t-117.5 36.5t-107 56t-78.5 91t-30.5 136q0 73 34.5 131.5t91 95t126 55.5t143.5 19q95 0 191 -34.5
t169 -98.5v-252q-82 78 -178.5 121t-181.5 43q-41 0 -73.5 -7t-57.5 -29t-25 -58q0 -27 31 -47t80.5 -33.5t109.5 -28t119.5 -38t109 -55.5t80.5 -88t31 -130t-35.5 -133.5t-94 -94.5t-128.5 -53t-145 -18q-102 0 -205 35t-182 102z" />
    <glyph glyph-name="Lslash.smcp" horiz-adv-x="892" 
d="M850 219v-219h-756v362l-129 -51v187l129 53v455h254v-357l252 101v-187l-252 -102v-242h502z" />
    <glyph glyph-name="Ydieresis.smcp" horiz-adv-x="987" 
d="M225 1214q0 47 32.5 80t78.5 33q47 0 80 -33t33 -80t-32.5 -78.5t-80.5 -31.5q-46 0 -78.5 31.5t-32.5 78.5zM522 1214q0 47 32.5 80t78.5 33t79 -33t33 -80t-33 -78.5t-79 -31.5t-78.5 31.5t-32.5 78.5zM608 0v299l367 707h-277l-213 -447l-196 447h-277l340 -715v-291
h256z" />
    <glyph glyph-name="f_j" horiz-adv-x="1208" 
d="M150 1008v67q0 303 360 303q44 0 96 -8v-201q-12 1 -33 4t-36.5 5t-26.5 2q-78 0 -78 -119v-53h193v-203h-193v-805h-282v805h-117v203h117zM795 1298q0 59 38.5 97.5t96.5 38.5q60 0 98.5 -38.5t38.5 -97.5t-38.5 -97t-98.5 -38q-58 0 -96.5 38.5t-38.5 96.5zM793 1008
v-1088q0 -119 -80 -119q-18 0 -97 9v-203q50 -6 97 -6q360 0 360 303v1104h-280z" />
    <glyph glyph-name="f_f_j" horiz-adv-x="1853" 
d="M795 1008v67q0 303 360 303q44 0 96 -8v-201q-12 1 -33 4t-36.5 5t-26.5 2q-78 0 -78 -119v-53h193v-203h-193v-805h-282v805h-363v-805h-282v805h-117v203h117v67q0 303 360 303q44 0 96 -8v-201q-12 1 -33 4t-36.5 5t-26.5 2q-78 0 -78 -119v-53h363zM1438 1008v-1088
q0 -119 -80 -119q-17 0 -96 9v-203q50 -6 96 -6q360 0 360 303v1104h-280zM1440 1298q0 59 38.5 97.5t96.5 38.5q60 0 98.5 -38.5t38.5 -97.5t-38.5 -97t-98.5 -38q-59 0 -97 38.5t-38 96.5z" />
    </font>
</defs>
</svg>
